ISO-10303-21;
HEADER;
/* Generated by software containing ST-Developer
 * from STEP Tools, Inc. (www.steptools.com) 
 */

FILE_DESCRIPTION(
/* description */ (''),
/* implementation_level */ '2;1');

FILE_NAME(
/* name */ 
'C:\\Users\\Jo\X\E3o Tinoco\\Desktop\\Wolweiss - STEP\\G. Door and Win
dow Elements\\11. GLR\\GLR3030.step',
/* time_stamp */ '2024-04-30T13:52:57+01:00',
/* author */ ('project'),
/* organization */ (''),
/* preprocessor_version */ 'ST-DEVELOPER v19',
/* originating_system */ 'Autodesk Inventor 2023',
/* authorisation */ '');

FILE_SCHEMA (('AUTOMOTIVE_DESIGN { 1 0 10303 214 3 1 1 }'));
ENDSEC;

DATA;
#10=MECHANICAL_DESIGN_GEOMETRIC_PRESENTATION_REPRESENTATION('',(#761,#762,
#763,#764,#765,#766,#767,#768,#769,#770,#771,#772,#773,#774,#775,#776,#777,
#778,#779,#780,#781,#782,#783,#784,#785,#786,#787,#788,#789,#790,#791,#792,
#793,#794,#795,#796,#797,#798,#799,#800,#801,#802,#803,#804,#805,#806),
#1481);
#11=APPLIED_GROUP_ASSIGNMENT(#12,(#860,#861,#862,#863,#864,#865,#866));
#12=GROUP('Composto1',$);
#13=TOROIDAL_SURFACE('',#972,0.003917157287524,0.000200000000000337);
#14=TOROIDAL_SURFACE('',#980,0.003917157287524,0.000200000000000337);
#15=FACE_BOUND('',#118,.T.);
#16=FACE_BOUND('',#121,.T.);
#17=FACE_BOUND('',#123,.T.);
#18=FACE_BOUND('',#124,.T.);
#19=FACE_BOUND('',#126,.T.);
#20=FACE_BOUND('',#127,.T.);
#21=FACE_BOUND('',#136,.T.);
#22=FACE_BOUND('',#139,.T.);
#23=FACE_BOUND('',#141,.T.);
#24=FACE_BOUND('',#142,.T.);
#25=FACE_BOUND('',#144,.T.);
#26=FACE_BOUND('',#145,.T.);
#27=FACE_BOUND('',#153,.T.);
#28=FACE_BOUND('',#156,.T.);
#29=FACE_BOUND('',#157,.T.);
#30=FACE_BOUND('',#158,.T.);
#31=FACE_BOUND('',#162,.T.);
#32=FACE_BOUND('',#163,.T.);
#33=FACE_BOUND('',#164,.T.);
#34=FACE_BOUND('',#166,.T.);
#35=PLANE('',#902);
#36=PLANE('',#906);
#37=PLANE('',#908);
#38=PLANE('',#909);
#39=PLANE('',#911);
#40=PLANE('',#912);
#41=PLANE('',#926);
#42=PLANE('',#930);
#43=PLANE('',#932);
#44=PLANE('',#933);
#45=PLANE('',#935);
#46=PLANE('',#936);
#47=PLANE('',#952);
#48=PLANE('',#958);
#49=PLANE('',#959);
#50=PLANE('',#962);
#51=PLANE('',#963);
#52=PLANE('',#965);
#53=PLANE('',#979);
#54=PLANE('',#986);
#55=CONICAL_SURFACE('',#895,0.00649999999999995,0.785398163397448);
#56=CONICAL_SURFACE('',#897,0.00649999999999995,0.785398163397448);
#57=CONICAL_SURFACE('',#919,0.00649999999999995,0.785398163397448);
#58=CONICAL_SURFACE('',#921,0.00649999999999995,0.785398163397448);
#59=CONICAL_SURFACE('',#940,0.00649999999999995,0.785398163397448);
#60=CONICAL_SURFACE('',#945,0.00649999999999995,0.785398163397448);
#61=CONICAL_SURFACE('',#950,0.00649999999999995,0.785398163397448);
#62=CONICAL_SURFACE('',#977,0.00499999999999989,0.785398163397095);
#63=CONICAL_SURFACE('',#984,0.00499999999999989,0.785398163397095);
#64=FACE_OUTER_BOUND('',#110,.T.);
#65=FACE_OUTER_BOUND('',#111,.T.);
#66=FACE_OUTER_BOUND('',#112,.T.);
#67=FACE_OUTER_BOUND('',#113,.T.);
#68=FACE_OUTER_BOUND('',#114,.T.);
#69=FACE_OUTER_BOUND('',#115,.T.);
#70=FACE_OUTER_BOUND('',#116,.T.);
#71=FACE_OUTER_BOUND('',#117,.T.);
#72=FACE_OUTER_BOUND('',#119,.T.);
#73=FACE_OUTER_BOUND('',#120,.T.);
#74=FACE_OUTER_BOUND('',#122,.T.);
#75=FACE_OUTER_BOUND('',#125,.T.);
#76=FACE_OUTER_BOUND('',#128,.T.);
#77=FACE_OUTER_BOUND('',#129,.T.);
#78=FACE_OUTER_BOUND('',#130,.T.);
#79=FACE_OUTER_BOUND('',#131,.T.);
#80=FACE_OUTER_BOUND('',#132,.T.);
#81=FACE_OUTER_BOUND('',#133,.T.);
#82=FACE_OUTER_BOUND('',#134,.T.);
#83=FACE_OUTER_BOUND('',#135,.T.);
#84=FACE_OUTER_BOUND('',#137,.T.);
#85=FACE_OUTER_BOUND('',#138,.T.);
#86=FACE_OUTER_BOUND('',#140,.T.);
#87=FACE_OUTER_BOUND('',#143,.T.);
#88=FACE_OUTER_BOUND('',#146,.T.);
#89=FACE_OUTER_BOUND('',#147,.T.);
#90=FACE_OUTER_BOUND('',#148,.T.);
#91=FACE_OUTER_BOUND('',#149,.T.);
#92=FACE_OUTER_BOUND('',#150,.T.);
#93=FACE_OUTER_BOUND('',#151,.T.);
#94=FACE_OUTER_BOUND('',#152,.T.);
#95=FACE_OUTER_BOUND('',#154,.T.);
#96=FACE_OUTER_BOUND('',#155,.T.);
#97=FACE_OUTER_BOUND('',#159,.T.);
#98=FACE_OUTER_BOUND('',#160,.T.);
#99=FACE_OUTER_BOUND('',#161,.T.);
#100=FACE_OUTER_BOUND('',#165,.T.);
#101=FACE_OUTER_BOUND('',#167,.T.);
#102=FACE_OUTER_BOUND('',#168,.T.);
#103=FACE_OUTER_BOUND('',#169,.T.);
#104=FACE_OUTER_BOUND('',#170,.T.);
#105=FACE_OUTER_BOUND('',#171,.T.);
#106=FACE_OUTER_BOUND('',#172,.T.);
#107=FACE_OUTER_BOUND('',#173,.T.);
#108=FACE_OUTER_BOUND('',#174,.T.);
#109=FACE_OUTER_BOUND('',#175,.T.);
#110=EDGE_LOOP('',(#534,#535,#536,#537));
#111=EDGE_LOOP('',(#538,#539,#540,#541));
#112=EDGE_LOOP('',(#542,#543,#544,#545));
#113=EDGE_LOOP('',(#546,#547,#548,#549));
#114=EDGE_LOOP('',(#550,#551,#552,#553));
#115=EDGE_LOOP('',(#554,#555,#556,#557));
#116=EDGE_LOOP('',(#558,#559,#560,#561));
#117=EDGE_LOOP('',(#562,#563,#564,#565,#566,#567));
#118=EDGE_LOOP('',(#568));
#119=EDGE_LOOP('',(#569,#570,#571,#572));
#120=EDGE_LOOP('',(#573,#574,#575,#576,#577,#578));
#121=EDGE_LOOP('',(#579));
#122=EDGE_LOOP('',(#580,#581,#582,#583));
#123=EDGE_LOOP('',(#584));
#124=EDGE_LOOP('',(#585));
#125=EDGE_LOOP('',(#586,#587,#588,#589));
#126=EDGE_LOOP('',(#590));
#127=EDGE_LOOP('',(#591));
#128=EDGE_LOOP('',(#592,#593,#594,#595));
#129=EDGE_LOOP('',(#596,#597,#598,#599));
#130=EDGE_LOOP('',(#600,#601,#602,#603));
#131=EDGE_LOOP('',(#604,#605,#606,#607));
#132=EDGE_LOOP('',(#608,#609,#610,#611));
#133=EDGE_LOOP('',(#612,#613,#614,#615));
#134=EDGE_LOOP('',(#616,#617,#618,#619));
#135=EDGE_LOOP('',(#620,#621,#622,#623,#624,#625));
#136=EDGE_LOOP('',(#626));
#137=EDGE_LOOP('',(#627,#628,#629,#630));
#138=EDGE_LOOP('',(#631,#632,#633,#634,#635,#636));
#139=EDGE_LOOP('',(#637));
#140=EDGE_LOOP('',(#638,#639,#640,#641));
#141=EDGE_LOOP('',(#642));
#142=EDGE_LOOP('',(#643));
#143=EDGE_LOOP('',(#644,#645,#646,#647));
#144=EDGE_LOOP('',(#648));
#145=EDGE_LOOP('',(#649));
#146=EDGE_LOOP('',(#650,#651,#652,#653));
#147=EDGE_LOOP('',(#654,#655,#656,#657));
#148=EDGE_LOOP('',(#658,#659,#660,#661));
#149=EDGE_LOOP('',(#662,#663,#664,#665));
#150=EDGE_LOOP('',(#666,#667,#668,#669));
#151=EDGE_LOOP('',(#670,#671,#672,#673));
#152=EDGE_LOOP('',(#674,#675,#676,#677,#678,#679));
#153=EDGE_LOOP('',(#680));
#154=EDGE_LOOP('',(#681,#682,#683,#684));
#155=EDGE_LOOP('',(#685,#686,#687,#688));
#156=EDGE_LOOP('',(#689));
#157=EDGE_LOOP('',(#690));
#158=EDGE_LOOP('',(#691));
#159=EDGE_LOOP('',(#692,#693,#694,#695));
#160=EDGE_LOOP('',(#696,#697,#698,#699));
#161=EDGE_LOOP('',(#700,#701,#702,#703));
#162=EDGE_LOOP('',(#704));
#163=EDGE_LOOP('',(#705));
#164=EDGE_LOOP('',(#706));
#165=EDGE_LOOP('',(#707,#708,#709,#710,#711,#712));
#166=EDGE_LOOP('',(#713));
#167=EDGE_LOOP('',(#714,#715,#716,#717));
#168=EDGE_LOOP('',(#718,#719,#720,#721));
#169=EDGE_LOOP('',(#722,#723,#724,#725));
#170=EDGE_LOOP('',(#726,#727,#728,#729,#730));
#171=EDGE_LOOP('',(#731,#732,#733,#734,#735));
#172=EDGE_LOOP('',(#736));
#173=EDGE_LOOP('',(#737,#738,#739,#740));
#174=EDGE_LOOP('',(#741,#742,#743,#744));
#175=EDGE_LOOP('',(#745));
#176=LINE('',#1250,#236);
#177=LINE('',#1256,#237);
#178=LINE('',#1260,#238);
#179=LINE('',#1264,#239);
#180=LINE('',#1271,#240);
#181=LINE('',#1274,#241);
#182=LINE('',#1278,#242);
#183=LINE('',#1280,#243);
#184=LINE('',#1282,#244);
#185=LINE('',#1283,#245);
#186=LINE('',#1289,#246);
#187=LINE('',#1292,#247);
#188=LINE('',#1293,#248);
#189=LINE('',#1294,#249);
#190=LINE('',#1299,#250);
#191=LINE('',#1300,#251);
#192=LINE('',#1302,#252);
#193=LINE('',#1303,#253);
#194=LINE('',#1312,#254);
#195=LINE('',#1318,#255);
#196=LINE('',#1322,#256);
#197=LINE('',#1326,#257);
#198=LINE('',#1333,#258);
#199=LINE('',#1336,#259);
#200=LINE('',#1340,#260);
#201=LINE('',#1342,#261);
#202=LINE('',#1344,#262);
#203=LINE('',#1345,#263);
#204=LINE('',#1351,#264);
#205=LINE('',#1354,#265);
#206=LINE('',#1355,#266);
#207=LINE('',#1356,#267);
#208=LINE('',#1361,#268);
#209=LINE('',#1362,#269);
#210=LINE('',#1364,#270);
#211=LINE('',#1365,#271);
#212=LINE('',#1374,#272);
#213=LINE('',#1378,#273);
#214=LINE('',#1384,#274);
#215=LINE('',#1388,#275);
#216=LINE('',#1394,#276);
#217=LINE('',#1398,#277);
#218=LINE('',#1403,#278);
#219=LINE('',#1407,#279);
#220=LINE('',#1409,#280);
#221=LINE('',#1412,#281);
#222=LINE('',#1419,#282);
#223=LINE('',#1420,#283);
#224=LINE('',#1423,#284);
#225=LINE('',#1424,#285);
#226=LINE('',#1427,#286);
#227=LINE('',#1428,#287);
#228=LINE('',#1432,#288);
#229=LINE('',#1435,#289);
#230=LINE('',#1436,#290);
#231=LINE('',#1438,#291);
#232=LINE('',#1446,#292);
#233=LINE('',#1452,#293);
#234=LINE('',#1465,#294);
#235=LINE('',#1476,#295);
#236=VECTOR('',#993,0.00324999999999998);
#237=VECTOR('',#1000,0.00324999999999998);
#238=VECTOR('',#1005,0.00649999999999995);
#239=VECTOR('',#1010,0.00649999999999995);
#240=VECTOR('',#1017,0.048);
#241=VECTOR('',#1020,0.048);
#242=VECTOR('',#1023,0.002);
#243=VECTOR('',#1024,0.048);
#244=VECTOR('',#1025,0.002);
#245=VECTOR('',#1026,0.048);
#246=VECTOR('',#1033,0.048);
#247=VECTOR('',#1036,0.016);
#248=VECTOR('',#1037,0.0280000000000001);
#249=VECTOR('',#1038,0.002);
#250=VECTOR('',#1043,0.002);
#251=VECTOR('',#1044,0.048);
#252=VECTOR('',#1047,0.016);
#253=VECTOR('',#1048,0.0280000000000001);
#254=VECTOR('',#1059,0.00324999999999998);
#255=VECTOR('',#1066,0.00324999999999998);
#256=VECTOR('',#1071,0.00649999999999995);
#257=VECTOR('',#1076,0.00649999999999995);
#258=VECTOR('',#1083,0.0480000000000011);
#259=VECTOR('',#1086,0.0480000000000011);
#260=VECTOR('',#1089,0.002);
#261=VECTOR('',#1090,0.0480000000000011);
#262=VECTOR('',#1091,0.002);
#263=VECTOR('',#1092,0.0480000000000011);
#264=VECTOR('',#1099,0.0480000000000011);
#265=VECTOR('',#1102,0.016);
#266=VECTOR('',#1103,0.0280000000000001);
#267=VECTOR('',#1104,0.002);
#268=VECTOR('',#1109,0.002);
#269=VECTOR('',#1110,0.0480000000000011);
#270=VECTOR('',#1113,0.016);
#271=VECTOR('',#1114,0.0280000000000001);
#272=VECTOR('',#1125,0.00324999999999998);
#273=VECTOR('',#1130,0.00649999999999995);
#274=VECTOR('',#1137,0.00324999999999998);
#275=VECTOR('',#1142,0.00649999999999995);
#276=VECTOR('',#1149,0.00324999999999998);
#277=VECTOR('',#1154,0.00649999999999995);
#278=VECTOR('',#1159,0.016);
#279=VECTOR('',#1162,0.002);
#280=VECTOR('',#1163,0.028);
#281=VECTOR('',#1166,0.002);
#282=VECTOR('',#1173,0.5);
#283=VECTOR('',#1174,0.5);
#284=VECTOR('',#1177,0.028);
#285=VECTOR('',#1178,0.5);
#286=VECTOR('',#1181,0.002);
#287=VECTOR('',#1182,0.5);
#288=VECTOR('',#1187,0.5);
#289=VECTOR('',#1190,0.016);
#290=VECTOR('',#1191,0.5);
#291=VECTOR('',#1194,0.002);
#292=VECTOR('',#1203,0.008);
#293=VECTOR('',#1210,0.008);
#294=VECTOR('',#1227,0.00499999999999989);
#295=VECTOR('',#1242,0.00499999999999989);
#296=CIRCLE('',#890,0.00324999999999998);
#297=CIRCLE('',#891,0.00324999999999998);
#298=CIRCLE('',#893,0.00324999999999998);
#299=CIRCLE('',#894,0.00324999999999998);
#300=CIRCLE('',#896,0.00649999999999995);
#301=CIRCLE('',#898,0.00649999999999995);
#302=CIRCLE('',#900,0.00800000000000001);
#303=CIRCLE('',#901,0.00800000000000001);
#304=CIRCLE('',#904,0.004);
#305=CIRCLE('',#905,0.004);
#306=CIRCLE('',#907,0.00399999999999999);
#307=CIRCLE('',#910,0.00399999999999999);
#308=CIRCLE('',#914,0.00324999999999998);
#309=CIRCLE('',#915,0.00324999999999998);
#310=CIRCLE('',#917,0.00324999999999998);
#311=CIRCLE('',#918,0.00324999999999998);
#312=CIRCLE('',#920,0.00649999999999995);
#313=CIRCLE('',#922,0.00649999999999995);
#314=CIRCLE('',#924,0.00800000000000001);
#315=CIRCLE('',#925,0.00800000000000001);
#316=CIRCLE('',#928,0.004);
#317=CIRCLE('',#929,0.004);
#318=CIRCLE('',#931,0.00399999999999999);
#319=CIRCLE('',#934,0.00399999999999999);
#320=CIRCLE('',#938,0.00324999999999998);
#321=CIRCLE('',#939,0.00324999999999998);
#322=CIRCLE('',#941,0.00649999999999995);
#323=CIRCLE('',#943,0.00324999999999998);
#324=CIRCLE('',#944,0.00324999999999998);
#325=CIRCLE('',#946,0.00649999999999995);
#326=CIRCLE('',#948,0.00324999999999998);
#327=CIRCLE('',#949,0.00324999999999998);
#328=CIRCLE('',#951,0.00649999999999995);
#329=CIRCLE('',#953,0.004);
#330=CIRCLE('',#954,0.00800000000000001);
#331=CIRCLE('',#955,0.00399999999999999);
#332=CIRCLE('',#957,0.00800000000000001);
#333=CIRCLE('',#961,0.004);
#334=CIRCLE('',#964,0.00399999999999999);
#335=CIRCLE('',#967,0.008);
#336=CIRCLE('',#968,0.008);
#337=CIRCLE('',#970,0.008);
#338=CIRCLE('',#971,0.008);
#339=CIRCLE('',#973,0.00405857864376245);
#340=CIRCLE('',#974,0.000200000000000337);
#341=CIRCLE('',#975,0.00391715728752406);
#342=CIRCLE('',#976,0.00405857864376245);
#343=CIRCLE('',#978,0.00499999999999989);
#344=CIRCLE('',#981,0.00405857864376245);
#345=CIRCLE('',#982,0.000200000000000337);
#346=CIRCLE('',#983,0.00391715728752406);
#347=CIRCLE('',#985,0.00499999999999989);
#348=VERTEX_POINT('',#1247);
#349=VERTEX_POINT('',#1249);
#350=VERTEX_POINT('',#1253);
#351=VERTEX_POINT('',#1255);
#352=VERTEX_POINT('',#1259);
#353=VERTEX_POINT('',#1263);
#354=VERTEX_POINT('',#1267);
#355=VERTEX_POINT('',#1268);
#356=VERTEX_POINT('',#1270);
#357=VERTEX_POINT('',#1272);
#358=VERTEX_POINT('',#1276);
#359=VERTEX_POINT('',#1277);
#360=VERTEX_POINT('',#1279);
#361=VERTEX_POINT('',#1281);
#362=VERTEX_POINT('',#1285);
#363=VERTEX_POINT('',#1287);
#364=VERTEX_POINT('',#1291);
#365=VERTEX_POINT('',#1295);
#366=VERTEX_POINT('',#1298);
#367=VERTEX_POINT('',#1304);
#368=VERTEX_POINT('',#1309);
#369=VERTEX_POINT('',#1311);
#370=VERTEX_POINT('',#1315);
#371=VERTEX_POINT('',#1317);
#372=VERTEX_POINT('',#1321);
#373=VERTEX_POINT('',#1325);
#374=VERTEX_POINT('',#1329);
#375=VERTEX_POINT('',#1330);
#376=VERTEX_POINT('',#1332);
#377=VERTEX_POINT('',#1334);
#378=VERTEX_POINT('',#1338);
#379=VERTEX_POINT('',#1339);
#380=VERTEX_POINT('',#1341);
#381=VERTEX_POINT('',#1343);
#382=VERTEX_POINT('',#1347);
#383=VERTEX_POINT('',#1349);
#384=VERTEX_POINT('',#1353);
#385=VERTEX_POINT('',#1357);
#386=VERTEX_POINT('',#1360);
#387=VERTEX_POINT('',#1366);
#388=VERTEX_POINT('',#1371);
#389=VERTEX_POINT('',#1373);
#390=VERTEX_POINT('',#1377);
#391=VERTEX_POINT('',#1381);
#392=VERTEX_POINT('',#1383);
#393=VERTEX_POINT('',#1387);
#394=VERTEX_POINT('',#1391);
#395=VERTEX_POINT('',#1393);
#396=VERTEX_POINT('',#1397);
#397=VERTEX_POINT('',#1401);
#398=VERTEX_POINT('',#1402);
#399=VERTEX_POINT('',#1404);
#400=VERTEX_POINT('',#1406);
#401=VERTEX_POINT('',#1408);
#402=VERTEX_POINT('',#1410);
#403=VERTEX_POINT('',#1413);
#404=VERTEX_POINT('',#1416);
#405=VERTEX_POINT('',#1417);
#406=VERTEX_POINT('',#1422);
#407=VERTEX_POINT('',#1426);
#408=VERTEX_POINT('',#1430);
#409=VERTEX_POINT('',#1434);
#410=VERTEX_POINT('',#1439);
#411=VERTEX_POINT('',#1443);
#412=VERTEX_POINT('',#1445);
#413=VERTEX_POINT('',#1449);
#414=VERTEX_POINT('',#1451);
#415=VERTEX_POINT('',#1455);
#416=VERTEX_POINT('',#1456);
#417=VERTEX_POINT('',#1458);
#418=VERTEX_POINT('',#1463);
#419=VERTEX_POINT('',#1468);
#420=VERTEX_POINT('',#1470);
#421=VERTEX_POINT('',#1474);
#422=EDGE_CURVE('',#348,#348,#296,.T.);
#423=EDGE_CURVE('',#348,#349,#176,.T.);
#424=EDGE_CURVE('',#349,#349,#297,.T.);
#425=EDGE_CURVE('',#350,#350,#298,.T.);
#426=EDGE_CURVE('',#350,#351,#177,.T.);
#427=EDGE_CURVE('',#351,#351,#299,.T.);
#428=EDGE_CURVE('',#351,#352,#178,.T.);
#429=EDGE_CURVE('',#352,#352,#300,.T.);
#430=EDGE_CURVE('',#349,#353,#179,.T.);
#431=EDGE_CURVE('',#353,#353,#301,.T.);
#432=EDGE_CURVE('',#354,#355,#302,.T.);
#433=EDGE_CURVE('',#356,#355,#180,.T.);
#434=EDGE_CURVE('',#357,#356,#303,.T.);
#435=EDGE_CURVE('',#357,#354,#181,.T.);
#436=EDGE_CURVE('',#358,#359,#182,.T.);
#437=EDGE_CURVE('',#360,#359,#183,.T.);
#438=EDGE_CURVE('',#361,#360,#184,.T.);
#439=EDGE_CURVE('',#361,#358,#185,.T.);
#440=EDGE_CURVE('',#362,#358,#304,.T.);
#441=EDGE_CURVE('',#363,#361,#305,.T.);
#442=EDGE_CURVE('',#363,#362,#186,.T.);
#443=EDGE_CURVE('',#364,#363,#187,.T.);
#444=EDGE_CURVE('',#360,#357,#188,.T.);
#445=EDGE_CURVE('',#356,#364,#189,.T.);
#446=EDGE_CURVE('',#365,#365,#306,.T.);
#447=EDGE_CURVE('',#355,#366,#190,.T.);
#448=EDGE_CURVE('',#364,#366,#191,.T.);
#449=EDGE_CURVE('',#366,#362,#192,.T.);
#450=EDGE_CURVE('',#359,#354,#193,.T.);
#451=EDGE_CURVE('',#367,#367,#307,.T.);
#452=EDGE_CURVE('',#368,#368,#308,.T.);
#453=EDGE_CURVE('',#368,#369,#194,.T.);
#454=EDGE_CURVE('',#369,#369,#309,.T.);
#455=EDGE_CURVE('',#370,#370,#310,.T.);
#456=EDGE_CURVE('',#370,#371,#195,.T.);
#457=EDGE_CURVE('',#371,#371,#311,.T.);
#458=EDGE_CURVE('',#371,#372,#196,.T.);
#459=EDGE_CURVE('',#372,#372,#312,.T.);
#460=EDGE_CURVE('',#369,#373,#197,.T.);
#461=EDGE_CURVE('',#373,#373,#313,.T.);
#462=EDGE_CURVE('',#374,#375,#314,.T.);
#463=EDGE_CURVE('',#376,#375,#198,.T.);
#464=EDGE_CURVE('',#377,#376,#315,.T.);
#465=EDGE_CURVE('',#377,#374,#199,.T.);
#466=EDGE_CURVE('',#378,#379,#200,.T.);
#467=EDGE_CURVE('',#380,#379,#201,.T.);
#468=EDGE_CURVE('',#381,#380,#202,.T.);
#469=EDGE_CURVE('',#381,#378,#203,.T.);
#470=EDGE_CURVE('',#382,#378,#316,.T.);
#471=EDGE_CURVE('',#383,#381,#317,.T.);
#472=EDGE_CURVE('',#383,#382,#204,.T.);
#473=EDGE_CURVE('',#384,#383,#205,.T.);
#474=EDGE_CURVE('',#380,#377,#206,.T.);
#475=EDGE_CURVE('',#376,#384,#207,.T.);
#476=EDGE_CURVE('',#385,#385,#318,.T.);
#477=EDGE_CURVE('',#375,#386,#208,.T.);
#478=EDGE_CURVE('',#384,#386,#209,.T.);
#479=EDGE_CURVE('',#386,#382,#210,.T.);
#480=EDGE_CURVE('',#379,#374,#211,.T.);
#481=EDGE_CURVE('',#387,#387,#319,.T.);
#482=EDGE_CURVE('',#388,#388,#320,.T.);
#483=EDGE_CURVE('',#388,#389,#212,.T.);
#484=EDGE_CURVE('',#389,#389,#321,.T.);
#485=EDGE_CURVE('',#389,#390,#213,.T.);
#486=EDGE_CURVE('',#390,#390,#322,.T.);
#487=EDGE_CURVE('',#391,#391,#323,.T.);
#488=EDGE_CURVE('',#391,#392,#214,.T.);
#489=EDGE_CURVE('',#392,#392,#324,.T.);
#490=EDGE_CURVE('',#392,#393,#215,.T.);
#491=EDGE_CURVE('',#393,#393,#325,.T.);
#492=EDGE_CURVE('',#394,#394,#326,.T.);
#493=EDGE_CURVE('',#394,#395,#216,.T.);
#494=EDGE_CURVE('',#395,#395,#327,.T.);
#495=EDGE_CURVE('',#395,#396,#217,.T.);
#496=EDGE_CURVE('',#396,#396,#328,.T.);
#497=EDGE_CURVE('',#397,#398,#218,.T.);
#498=EDGE_CURVE('',#398,#399,#329,.T.);
#499=EDGE_CURVE('',#399,#400,#219,.T.);
#500=EDGE_CURVE('',#400,#401,#220,.T.);
#501=EDGE_CURVE('',#401,#402,#330,.T.);
#502=EDGE_CURVE('',#402,#397,#221,.T.);
#503=EDGE_CURVE('',#403,#403,#331,.T.);
#504=EDGE_CURVE('',#404,#405,#332,.T.);
#505=EDGE_CURVE('',#402,#405,#222,.T.);
#506=EDGE_CURVE('',#401,#404,#223,.T.);
#507=EDGE_CURVE('',#406,#404,#224,.T.);
#508=EDGE_CURVE('',#400,#406,#225,.T.);
#509=EDGE_CURVE('',#407,#406,#226,.T.);
#510=EDGE_CURVE('',#399,#407,#227,.T.);
#511=EDGE_CURVE('',#408,#407,#333,.T.);
#512=EDGE_CURVE('',#398,#408,#228,.T.);
#513=EDGE_CURVE('',#409,#408,#229,.T.);
#514=EDGE_CURVE('',#397,#409,#230,.T.);
#515=EDGE_CURVE('',#405,#409,#231,.T.);
#516=EDGE_CURVE('',#410,#410,#334,.T.);
#517=EDGE_CURVE('',#411,#411,#335,.T.);
#518=EDGE_CURVE('',#411,#412,#232,.T.);
#519=EDGE_CURVE('',#412,#412,#336,.T.);
#520=EDGE_CURVE('',#413,#413,#337,.T.);
#521=EDGE_CURVE('',#413,#414,#233,.T.);
#522=EDGE_CURVE('',#414,#414,#338,.T.);
#523=EDGE_CURVE('',#415,#416,#339,.T.);
#524=EDGE_CURVE('',#415,#417,#340,.T.);
#525=EDGE_CURVE('',#417,#417,#341,.T.);
#526=EDGE_CURVE('',#416,#415,#342,.T.);
#527=EDGE_CURVE('',#418,#418,#343,.T.);
#528=EDGE_CURVE('',#418,#416,#234,.T.);
#529=EDGE_CURVE('',#419,#419,#344,.T.);
#530=EDGE_CURVE('',#419,#420,#345,.T.);
#531=EDGE_CURVE('',#420,#420,#346,.T.);
#532=EDGE_CURVE('',#421,#421,#347,.T.);
#533=EDGE_CURVE('',#421,#419,#235,.T.);
#534=ORIENTED_EDGE('',*,*,#422,.F.);
#535=ORIENTED_EDGE('',*,*,#423,.T.);
#536=ORIENTED_EDGE('',*,*,#424,.T.);
#537=ORIENTED_EDGE('',*,*,#423,.F.);
#538=ORIENTED_EDGE('',*,*,#425,.F.);
#539=ORIENTED_EDGE('',*,*,#426,.T.);
#540=ORIENTED_EDGE('',*,*,#427,.T.);
#541=ORIENTED_EDGE('',*,*,#426,.F.);
#542=ORIENTED_EDGE('',*,*,#427,.F.);
#543=ORIENTED_EDGE('',*,*,#428,.T.);
#544=ORIENTED_EDGE('',*,*,#429,.T.);
#545=ORIENTED_EDGE('',*,*,#428,.F.);
#546=ORIENTED_EDGE('',*,*,#424,.F.);
#547=ORIENTED_EDGE('',*,*,#430,.T.);
#548=ORIENTED_EDGE('',*,*,#431,.T.);
#549=ORIENTED_EDGE('',*,*,#430,.F.);
#550=ORIENTED_EDGE('',*,*,#432,.T.);
#551=ORIENTED_EDGE('',*,*,#433,.F.);
#552=ORIENTED_EDGE('',*,*,#434,.F.);
#553=ORIENTED_EDGE('',*,*,#435,.T.);
#554=ORIENTED_EDGE('',*,*,#436,.T.);
#555=ORIENTED_EDGE('',*,*,#437,.F.);
#556=ORIENTED_EDGE('',*,*,#438,.F.);
#557=ORIENTED_EDGE('',*,*,#439,.T.);
#558=ORIENTED_EDGE('',*,*,#440,.T.);
#559=ORIENTED_EDGE('',*,*,#439,.F.);
#560=ORIENTED_EDGE('',*,*,#441,.F.);
#561=ORIENTED_EDGE('',*,*,#442,.T.);
#562=ORIENTED_EDGE('',*,*,#443,.T.);
#563=ORIENTED_EDGE('',*,*,#441,.T.);
#564=ORIENTED_EDGE('',*,*,#438,.T.);
#565=ORIENTED_EDGE('',*,*,#444,.T.);
#566=ORIENTED_EDGE('',*,*,#434,.T.);
#567=ORIENTED_EDGE('',*,*,#445,.T.);
#568=ORIENTED_EDGE('',*,*,#446,.F.);
#569=ORIENTED_EDGE('',*,*,#447,.T.);
#570=ORIENTED_EDGE('',*,*,#448,.F.);
#571=ORIENTED_EDGE('',*,*,#445,.F.);
#572=ORIENTED_EDGE('',*,*,#433,.T.);
#573=ORIENTED_EDGE('',*,*,#449,.F.);
#574=ORIENTED_EDGE('',*,*,#447,.F.);
#575=ORIENTED_EDGE('',*,*,#432,.F.);
#576=ORIENTED_EDGE('',*,*,#450,.F.);
#577=ORIENTED_EDGE('',*,*,#436,.F.);
#578=ORIENTED_EDGE('',*,*,#440,.F.);
#579=ORIENTED_EDGE('',*,*,#451,.T.);
#580=ORIENTED_EDGE('',*,*,#449,.T.);
#581=ORIENTED_EDGE('',*,*,#442,.F.);
#582=ORIENTED_EDGE('',*,*,#443,.F.);
#583=ORIENTED_EDGE('',*,*,#448,.T.);
#584=ORIENTED_EDGE('',*,*,#429,.F.);
#585=ORIENTED_EDGE('',*,*,#431,.F.);
#586=ORIENTED_EDGE('',*,*,#450,.T.);
#587=ORIENTED_EDGE('',*,*,#435,.F.);
#588=ORIENTED_EDGE('',*,*,#444,.F.);
#589=ORIENTED_EDGE('',*,*,#437,.T.);
#590=ORIENTED_EDGE('',*,*,#425,.T.);
#591=ORIENTED_EDGE('',*,*,#422,.T.);
#592=ORIENTED_EDGE('',*,*,#452,.F.);
#593=ORIENTED_EDGE('',*,*,#453,.T.);
#594=ORIENTED_EDGE('',*,*,#454,.T.);
#595=ORIENTED_EDGE('',*,*,#453,.F.);
#596=ORIENTED_EDGE('',*,*,#455,.F.);
#597=ORIENTED_EDGE('',*,*,#456,.T.);
#598=ORIENTED_EDGE('',*,*,#457,.T.);
#599=ORIENTED_EDGE('',*,*,#456,.F.);
#600=ORIENTED_EDGE('',*,*,#457,.F.);
#601=ORIENTED_EDGE('',*,*,#458,.T.);
#602=ORIENTED_EDGE('',*,*,#459,.T.);
#603=ORIENTED_EDGE('',*,*,#458,.F.);
#604=ORIENTED_EDGE('',*,*,#454,.F.);
#605=ORIENTED_EDGE('',*,*,#460,.T.);
#606=ORIENTED_EDGE('',*,*,#461,.T.);
#607=ORIENTED_EDGE('',*,*,#460,.F.);
#608=ORIENTED_EDGE('',*,*,#462,.T.);
#609=ORIENTED_EDGE('',*,*,#463,.F.);
#610=ORIENTED_EDGE('',*,*,#464,.F.);
#611=ORIENTED_EDGE('',*,*,#465,.T.);
#612=ORIENTED_EDGE('',*,*,#466,.T.);
#613=ORIENTED_EDGE('',*,*,#467,.F.);
#614=ORIENTED_EDGE('',*,*,#468,.F.);
#615=ORIENTED_EDGE('',*,*,#469,.T.);
#616=ORIENTED_EDGE('',*,*,#470,.T.);
#617=ORIENTED_EDGE('',*,*,#469,.F.);
#618=ORIENTED_EDGE('',*,*,#471,.F.);
#619=ORIENTED_EDGE('',*,*,#472,.T.);
#620=ORIENTED_EDGE('',*,*,#473,.T.);
#621=ORIENTED_EDGE('',*,*,#471,.T.);
#622=ORIENTED_EDGE('',*,*,#468,.T.);
#623=ORIENTED_EDGE('',*,*,#474,.T.);
#624=ORIENTED_EDGE('',*,*,#464,.T.);
#625=ORIENTED_EDGE('',*,*,#475,.T.);
#626=ORIENTED_EDGE('',*,*,#476,.F.);
#627=ORIENTED_EDGE('',*,*,#477,.T.);
#628=ORIENTED_EDGE('',*,*,#478,.F.);
#629=ORIENTED_EDGE('',*,*,#475,.F.);
#630=ORIENTED_EDGE('',*,*,#463,.T.);
#631=ORIENTED_EDGE('',*,*,#479,.F.);
#632=ORIENTED_EDGE('',*,*,#477,.F.);
#633=ORIENTED_EDGE('',*,*,#462,.F.);
#634=ORIENTED_EDGE('',*,*,#480,.F.);
#635=ORIENTED_EDGE('',*,*,#466,.F.);
#636=ORIENTED_EDGE('',*,*,#470,.F.);
#637=ORIENTED_EDGE('',*,*,#481,.T.);
#638=ORIENTED_EDGE('',*,*,#479,.T.);
#639=ORIENTED_EDGE('',*,*,#472,.F.);
#640=ORIENTED_EDGE('',*,*,#473,.F.);
#641=ORIENTED_EDGE('',*,*,#478,.T.);
#642=ORIENTED_EDGE('',*,*,#459,.F.);
#643=ORIENTED_EDGE('',*,*,#461,.F.);
#644=ORIENTED_EDGE('',*,*,#480,.T.);
#645=ORIENTED_EDGE('',*,*,#465,.F.);
#646=ORIENTED_EDGE('',*,*,#474,.F.);
#647=ORIENTED_EDGE('',*,*,#467,.T.);
#648=ORIENTED_EDGE('',*,*,#455,.T.);
#649=ORIENTED_EDGE('',*,*,#452,.T.);
#650=ORIENTED_EDGE('',*,*,#482,.F.);
#651=ORIENTED_EDGE('',*,*,#483,.T.);
#652=ORIENTED_EDGE('',*,*,#484,.T.);
#653=ORIENTED_EDGE('',*,*,#483,.F.);
#654=ORIENTED_EDGE('',*,*,#484,.F.);
#655=ORIENTED_EDGE('',*,*,#485,.T.);
#656=ORIENTED_EDGE('',*,*,#486,.T.);
#657=ORIENTED_EDGE('',*,*,#485,.F.);
#658=ORIENTED_EDGE('',*,*,#487,.F.);
#659=ORIENTED_EDGE('',*,*,#488,.T.);
#660=ORIENTED_EDGE('',*,*,#489,.T.);
#661=ORIENTED_EDGE('',*,*,#488,.F.);
#662=ORIENTED_EDGE('',*,*,#489,.F.);
#663=ORIENTED_EDGE('',*,*,#490,.T.);
#664=ORIENTED_EDGE('',*,*,#491,.T.);
#665=ORIENTED_EDGE('',*,*,#490,.F.);
#666=ORIENTED_EDGE('',*,*,#492,.F.);
#667=ORIENTED_EDGE('',*,*,#493,.T.);
#668=ORIENTED_EDGE('',*,*,#494,.T.);
#669=ORIENTED_EDGE('',*,*,#493,.F.);
#670=ORIENTED_EDGE('',*,*,#494,.F.);
#671=ORIENTED_EDGE('',*,*,#495,.T.);
#672=ORIENTED_EDGE('',*,*,#496,.T.);
#673=ORIENTED_EDGE('',*,*,#495,.F.);
#674=ORIENTED_EDGE('',*,*,#497,.T.);
#675=ORIENTED_EDGE('',*,*,#498,.T.);
#676=ORIENTED_EDGE('',*,*,#499,.T.);
#677=ORIENTED_EDGE('',*,*,#500,.T.);
#678=ORIENTED_EDGE('',*,*,#501,.T.);
#679=ORIENTED_EDGE('',*,*,#502,.T.);
#680=ORIENTED_EDGE('',*,*,#503,.F.);
#681=ORIENTED_EDGE('',*,*,#504,.T.);
#682=ORIENTED_EDGE('',*,*,#505,.F.);
#683=ORIENTED_EDGE('',*,*,#501,.F.);
#684=ORIENTED_EDGE('',*,*,#506,.T.);
#685=ORIENTED_EDGE('',*,*,#507,.T.);
#686=ORIENTED_EDGE('',*,*,#506,.F.);
#687=ORIENTED_EDGE('',*,*,#500,.F.);
#688=ORIENTED_EDGE('',*,*,#508,.T.);
#689=ORIENTED_EDGE('',*,*,#482,.T.);
#690=ORIENTED_EDGE('',*,*,#487,.T.);
#691=ORIENTED_EDGE('',*,*,#492,.T.);
#692=ORIENTED_EDGE('',*,*,#509,.T.);
#693=ORIENTED_EDGE('',*,*,#508,.F.);
#694=ORIENTED_EDGE('',*,*,#499,.F.);
#695=ORIENTED_EDGE('',*,*,#510,.T.);
#696=ORIENTED_EDGE('',*,*,#511,.T.);
#697=ORIENTED_EDGE('',*,*,#510,.F.);
#698=ORIENTED_EDGE('',*,*,#498,.F.);
#699=ORIENTED_EDGE('',*,*,#512,.T.);
#700=ORIENTED_EDGE('',*,*,#513,.T.);
#701=ORIENTED_EDGE('',*,*,#512,.F.);
#702=ORIENTED_EDGE('',*,*,#497,.F.);
#703=ORIENTED_EDGE('',*,*,#514,.T.);
#704=ORIENTED_EDGE('',*,*,#496,.F.);
#705=ORIENTED_EDGE('',*,*,#491,.F.);
#706=ORIENTED_EDGE('',*,*,#486,.F.);
#707=ORIENTED_EDGE('',*,*,#513,.F.);
#708=ORIENTED_EDGE('',*,*,#515,.F.);
#709=ORIENTED_EDGE('',*,*,#504,.F.);
#710=ORIENTED_EDGE('',*,*,#507,.F.);
#711=ORIENTED_EDGE('',*,*,#509,.F.);
#712=ORIENTED_EDGE('',*,*,#511,.F.);
#713=ORIENTED_EDGE('',*,*,#516,.T.);
#714=ORIENTED_EDGE('',*,*,#515,.T.);
#715=ORIENTED_EDGE('',*,*,#514,.F.);
#716=ORIENTED_EDGE('',*,*,#502,.F.);
#717=ORIENTED_EDGE('',*,*,#505,.T.);
#718=ORIENTED_EDGE('',*,*,#517,.T.);
#719=ORIENTED_EDGE('',*,*,#518,.T.);
#720=ORIENTED_EDGE('',*,*,#519,.F.);
#721=ORIENTED_EDGE('',*,*,#518,.F.);
#722=ORIENTED_EDGE('',*,*,#520,.T.);
#723=ORIENTED_EDGE('',*,*,#521,.T.);
#724=ORIENTED_EDGE('',*,*,#522,.F.);
#725=ORIENTED_EDGE('',*,*,#521,.F.);
#726=ORIENTED_EDGE('',*,*,#523,.F.);
#727=ORIENTED_EDGE('',*,*,#524,.T.);
#728=ORIENTED_EDGE('',*,*,#525,.T.);
#729=ORIENTED_EDGE('',*,*,#524,.F.);
#730=ORIENTED_EDGE('',*,*,#526,.F.);
#731=ORIENTED_EDGE('',*,*,#527,.F.);
#732=ORIENTED_EDGE('',*,*,#528,.T.);
#733=ORIENTED_EDGE('',*,*,#526,.T.);
#734=ORIENTED_EDGE('',*,*,#523,.T.);
#735=ORIENTED_EDGE('',*,*,#528,.F.);
#736=ORIENTED_EDGE('',*,*,#525,.F.);
#737=ORIENTED_EDGE('',*,*,#529,.F.);
#738=ORIENTED_EDGE('',*,*,#530,.T.);
#739=ORIENTED_EDGE('',*,*,#531,.T.);
#740=ORIENTED_EDGE('',*,*,#530,.F.);
#741=ORIENTED_EDGE('',*,*,#532,.F.);
#742=ORIENTED_EDGE('',*,*,#533,.T.);
#743=ORIENTED_EDGE('',*,*,#529,.T.);
#744=ORIENTED_EDGE('',*,*,#533,.F.);
#745=ORIENTED_EDGE('',*,*,#531,.F.);
#746=CYLINDRICAL_SURFACE('',#889,0.00324999999999998);
#747=CYLINDRICAL_SURFACE('',#892,0.00324999999999998);
#748=CYLINDRICAL_SURFACE('',#899,0.00800000000000001);
#749=CYLINDRICAL_SURFACE('',#903,0.004);
#750=CYLINDRICAL_SURFACE('',#913,0.00324999999999998);
#751=CYLINDRICAL_SURFACE('',#916,0.00324999999999998);
#752=CYLINDRICAL_SURFACE('',#923,0.00800000000000001);
#753=CYLINDRICAL_SURFACE('',#927,0.004);
#754=CYLINDRICAL_SURFACE('',#937,0.00324999999999998);
#755=CYLINDRICAL_SURFACE('',#942,0.00324999999999998);
#756=CYLINDRICAL_SURFACE('',#947,0.00324999999999998);
#757=CYLINDRICAL_SURFACE('',#956,0.00800000000000001);
#758=CYLINDRICAL_SURFACE('',#960,0.004);
#759=CYLINDRICAL_SURFACE('',#966,0.008);
#760=CYLINDRICAL_SURFACE('',#969,0.008);
#761=STYLED_ITEM('',(#1498),#807);
#762=STYLED_ITEM('',(#1498),#808);
#763=STYLED_ITEM('',(#1498),#809);
#764=STYLED_ITEM('',(#1498),#810);
#765=STYLED_ITEM('',(#1498),#811);
#766=STYLED_ITEM('',(#1498),#812);
#767=STYLED_ITEM('',(#1498),#813);
#768=STYLED_ITEM('',(#1498),#814);
#769=STYLED_ITEM('',(#1498),#815);
#770=STYLED_ITEM('',(#1498),#816);
#771=STYLED_ITEM('',(#1498),#817);
#772=STYLED_ITEM('',(#1498),#818);
#773=STYLED_ITEM('',(#1498),#819);
#774=STYLED_ITEM('',(#1498),#820);
#775=STYLED_ITEM('',(#1498),#821);
#776=STYLED_ITEM('',(#1498),#822);
#777=STYLED_ITEM('',(#1498),#823);
#778=STYLED_ITEM('',(#1498),#824);
#779=STYLED_ITEM('',(#1498),#825);
#780=STYLED_ITEM('',(#1498),#826);
#781=STYLED_ITEM('',(#1498),#827);
#782=STYLED_ITEM('',(#1498),#828);
#783=STYLED_ITEM('',(#1498),#829);
#784=STYLED_ITEM('',(#1498),#830);
#785=STYLED_ITEM('',(#1498),#831);
#786=STYLED_ITEM('',(#1498),#832);
#787=STYLED_ITEM('',(#1498),#833);
#788=STYLED_ITEM('',(#1498),#834);
#789=STYLED_ITEM('',(#1498),#835);
#790=STYLED_ITEM('',(#1498),#836);
#791=STYLED_ITEM('',(#1498),#837);
#792=STYLED_ITEM('',(#1498),#838);
#793=STYLED_ITEM('',(#1498),#839);
#794=STYLED_ITEM('',(#1498),#840);
#795=STYLED_ITEM('',(#1498),#841);
#796=STYLED_ITEM('',(#1498),#842);
#797=STYLED_ITEM('',(#1498),#843);
#798=STYLED_ITEM('',(#1498),#844);
#799=STYLED_ITEM('',(#1498),#845);
#800=STYLED_ITEM('',(#1498),#846);
#801=STYLED_ITEM('',(#1498),#847);
#802=STYLED_ITEM('',(#1498),#848);
#803=STYLED_ITEM('',(#1498),#849);
#804=STYLED_ITEM('',(#1498),#850);
#805=STYLED_ITEM('',(#1498),#851);
#806=STYLED_ITEM('',(#1498),#852);
#807=ADVANCED_FACE('',(#64),#746,.F.);
#808=ADVANCED_FACE('',(#65),#747,.F.);
#809=ADVANCED_FACE('',(#66),#55,.F.);
#810=ADVANCED_FACE('',(#67),#56,.F.);
#811=ADVANCED_FACE('',(#68),#748,.T.);
#812=ADVANCED_FACE('',(#69),#35,.F.);
#813=ADVANCED_FACE('',(#70),#749,.T.);
#814=ADVANCED_FACE('',(#71,#15),#36,.T.);
#815=ADVANCED_FACE('',(#72),#37,.F.);
#816=ADVANCED_FACE('',(#73,#16),#38,.F.);
#817=ADVANCED_FACE('',(#74,#17,#18),#39,.F.);
#818=ADVANCED_FACE('',(#75,#19,#20),#40,.F.);
#819=ADVANCED_FACE('',(#76),#750,.F.);
#820=ADVANCED_FACE('',(#77),#751,.F.);
#821=ADVANCED_FACE('',(#78),#57,.F.);
#822=ADVANCED_FACE('',(#79),#58,.F.);
#823=ADVANCED_FACE('',(#80),#752,.T.);
#824=ADVANCED_FACE('',(#81),#41,.F.);
#825=ADVANCED_FACE('',(#82),#753,.T.);
#826=ADVANCED_FACE('',(#83,#21),#42,.T.);
#827=ADVANCED_FACE('',(#84),#43,.F.);
#828=ADVANCED_FACE('',(#85,#22),#44,.F.);
#829=ADVANCED_FACE('',(#86,#23,#24),#45,.F.);
#830=ADVANCED_FACE('',(#87,#25,#26),#46,.F.);
#831=ADVANCED_FACE('',(#88),#754,.F.);
#832=ADVANCED_FACE('',(#89),#59,.F.);
#833=ADVANCED_FACE('',(#90),#755,.F.);
#834=ADVANCED_FACE('',(#91),#60,.F.);
#835=ADVANCED_FACE('',(#92),#756,.F.);
#836=ADVANCED_FACE('',(#93),#61,.F.);
#837=ADVANCED_FACE('',(#94,#27),#47,.T.);
#838=ADVANCED_FACE('',(#95),#757,.T.);
#839=ADVANCED_FACE('',(#96,#28,#29,#30),#48,.F.);
#840=ADVANCED_FACE('',(#97),#49,.F.);
#841=ADVANCED_FACE('',(#98),#758,.T.);
#842=ADVANCED_FACE('',(#99,#31,#32,#33),#50,.F.);
#843=ADVANCED_FACE('',(#100,#34),#51,.F.);
#844=ADVANCED_FACE('',(#101),#52,.F.);
#845=ADVANCED_FACE('',(#102),#759,.T.);
#846=ADVANCED_FACE('',(#103),#760,.T.);
#847=ADVANCED_FACE('',(#104),#13,.T.);
#848=ADVANCED_FACE('',(#105),#62,.T.);
#849=ADVANCED_FACE('',(#106),#53,.T.);
#850=ADVANCED_FACE('',(#107),#14,.T.);
#851=ADVANCED_FACE('',(#108),#63,.T.);
#852=ADVANCED_FACE('',(#109),#54,.T.);
#853=OPEN_SHELL('',(#807,#808,#809,#810,#811,#812,#813,#814,#815,#816,#817,
#818));
#854=OPEN_SHELL('',(#819,#820,#821,#822,#823,#824,#825,#826,#827,#828,#829,
#830));
#855=OPEN_SHELL('',(#831,#832,#833,#834,#835,#836,#837,#838,#839,#840,#841,
#842,#843,#844));
#856=OPEN_SHELL('',(#845));
#857=OPEN_SHELL('',(#846));
#858=OPEN_SHELL('',(#847,#848,#849));
#859=OPEN_SHELL('',(#850,#851,#852));
#860=SHELL_BASED_SURFACE_MODEL('Sup1',(#853));
#861=SHELL_BASED_SURFACE_MODEL('Sup1',(#854));
#862=SHELL_BASED_SURFACE_MODEL('Sup1',(#855));
#863=SHELL_BASED_SURFACE_MODEL('Sup1',(#856));
#864=SHELL_BASED_SURFACE_MODEL('Sup1',(#857));
#865=SHELL_BASED_SURFACE_MODEL('Sup1',(#858));
#866=SHELL_BASED_SURFACE_MODEL('Sup1',(#859));
#867=DERIVED_UNIT_ELEMENT(#870,1.);
#868=DERIVED_UNIT_ELEMENT(#1483,-3.);
#869=DIMENSIONAL_EXPONENTS(1.,0.,0.,0.,0.,0.,0.);
#870=(
CONVERSION_BASED_UNIT('gram',#872)
MASS_UNIT()
NAMED_UNIT(#869)
);
#871=(
MASS_UNIT()
NAMED_UNIT(*)
SI_UNIT(.KILO.,.GRAM.)
);
#872=MASS_MEASURE_WITH_UNIT(MASS_MEASURE(0.001),#871);
#873=DERIVED_UNIT((#867,#868));
#874=MEASURE_REPRESENTATION_ITEM('density measure',
POSITIVE_RATIO_MEASURE(1.),#873);
#875=PROPERTY_DEFINITION_REPRESENTATION(#880,#877);
#876=PROPERTY_DEFINITION_REPRESENTATION(#881,#878);
#877=REPRESENTATION('material name',(#879),#1480);
#878=REPRESENTATION('density',(#874),#1480);
#879=DESCRIPTIVE_REPRESENTATION_ITEM('Gen\X\E9rico','Gen\X\E9rico');
#880=PROPERTY_DEFINITION('material property','material name',#1490);
#881=PROPERTY_DEFINITION('material property','density of part',#1490);
#882=DATE_TIME_ROLE('creation_date');
#883=APPLIED_DATE_AND_TIME_ASSIGNMENT(#884,#882,(#1490));
#884=DATE_AND_TIME(#885,#886);
#885=CALENDAR_DATE(2019,28,2);
#886=LOCAL_TIME(12,15,14.,#887);
#887=COORDINATED_UNIVERSAL_TIME_OFFSET(0,0,.BEHIND.);
#888=AXIS2_PLACEMENT_3D('placement',#1245,#987,#988);
#889=AXIS2_PLACEMENT_3D('',#1246,#989,#990);
#890=AXIS2_PLACEMENT_3D('',#1248,#991,#992);
#891=AXIS2_PLACEMENT_3D('',#1251,#994,#995);
#892=AXIS2_PLACEMENT_3D('',#1252,#996,#997);
#893=AXIS2_PLACEMENT_3D('',#1254,#998,#999);
#894=AXIS2_PLACEMENT_3D('',#1257,#1001,#1002);
#895=AXIS2_PLACEMENT_3D('',#1258,#1003,#1004);
#896=AXIS2_PLACEMENT_3D('',#1261,#1006,#1007);
#897=AXIS2_PLACEMENT_3D('',#1262,#1008,#1009);
#898=AXIS2_PLACEMENT_3D('',#1265,#1011,#1012);
#899=AXIS2_PLACEMENT_3D('',#1266,#1013,#1014);
#900=AXIS2_PLACEMENT_3D('',#1269,#1015,#1016);
#901=AXIS2_PLACEMENT_3D('',#1273,#1018,#1019);
#902=AXIS2_PLACEMENT_3D('',#1275,#1021,#1022);
#903=AXIS2_PLACEMENT_3D('',#1284,#1027,#1028);
#904=AXIS2_PLACEMENT_3D('',#1286,#1029,#1030);
#905=AXIS2_PLACEMENT_3D('',#1288,#1031,#1032);
#906=AXIS2_PLACEMENT_3D('',#1290,#1034,#1035);
#907=AXIS2_PLACEMENT_3D('',#1296,#1039,#1040);
#908=AXIS2_PLACEMENT_3D('',#1297,#1041,#1042);
#909=AXIS2_PLACEMENT_3D('',#1301,#1045,#1046);
#910=AXIS2_PLACEMENT_3D('',#1305,#1049,#1050);
#911=AXIS2_PLACEMENT_3D('',#1306,#1051,#1052);
#912=AXIS2_PLACEMENT_3D('',#1307,#1053,#1054);
#913=AXIS2_PLACEMENT_3D('',#1308,#1055,#1056);
#914=AXIS2_PLACEMENT_3D('',#1310,#1057,#1058);
#915=AXIS2_PLACEMENT_3D('',#1313,#1060,#1061);
#916=AXIS2_PLACEMENT_3D('',#1314,#1062,#1063);
#917=AXIS2_PLACEMENT_3D('',#1316,#1064,#1065);
#918=AXIS2_PLACEMENT_3D('',#1319,#1067,#1068);
#919=AXIS2_PLACEMENT_3D('',#1320,#1069,#1070);
#920=AXIS2_PLACEMENT_3D('',#1323,#1072,#1073);
#921=AXIS2_PLACEMENT_3D('',#1324,#1074,#1075);
#922=AXIS2_PLACEMENT_3D('',#1327,#1077,#1078);
#923=AXIS2_PLACEMENT_3D('',#1328,#1079,#1080);
#924=AXIS2_PLACEMENT_3D('',#1331,#1081,#1082);
#925=AXIS2_PLACEMENT_3D('',#1335,#1084,#1085);
#926=AXIS2_PLACEMENT_3D('',#1337,#1087,#1088);
#927=AXIS2_PLACEMENT_3D('',#1346,#1093,#1094);
#928=AXIS2_PLACEMENT_3D('',#1348,#1095,#1096);
#929=AXIS2_PLACEMENT_3D('',#1350,#1097,#1098);
#930=AXIS2_PLACEMENT_3D('',#1352,#1100,#1101);
#931=AXIS2_PLACEMENT_3D('',#1358,#1105,#1106);
#932=AXIS2_PLACEMENT_3D('',#1359,#1107,#1108);
#933=AXIS2_PLACEMENT_3D('',#1363,#1111,#1112);
#934=AXIS2_PLACEMENT_3D('',#1367,#1115,#1116);
#935=AXIS2_PLACEMENT_3D('',#1368,#1117,#1118);
#936=AXIS2_PLACEMENT_3D('',#1369,#1119,#1120);
#937=AXIS2_PLACEMENT_3D('',#1370,#1121,#1122);
#938=AXIS2_PLACEMENT_3D('',#1372,#1123,#1124);
#939=AXIS2_PLACEMENT_3D('',#1375,#1126,#1127);
#940=AXIS2_PLACEMENT_3D('',#1376,#1128,#1129);
#941=AXIS2_PLACEMENT_3D('',#1379,#1131,#1132);
#942=AXIS2_PLACEMENT_3D('',#1380,#1133,#1134);
#943=AXIS2_PLACEMENT_3D('',#1382,#1135,#1136);
#944=AXIS2_PLACEMENT_3D('',#1385,#1138,#1139);
#945=AXIS2_PLACEMENT_3D('',#1386,#1140,#1141);
#946=AXIS2_PLACEMENT_3D('',#1389,#1143,#1144);
#947=AXIS2_PLACEMENT_3D('',#1390,#1145,#1146);
#948=AXIS2_PLACEMENT_3D('',#1392,#1147,#1148);
#949=AXIS2_PLACEMENT_3D('',#1395,#1150,#1151);
#950=AXIS2_PLACEMENT_3D('',#1396,#1152,#1153);
#951=AXIS2_PLACEMENT_3D('',#1399,#1155,#1156);
#952=AXIS2_PLACEMENT_3D('',#1400,#1157,#1158);
#953=AXIS2_PLACEMENT_3D('',#1405,#1160,#1161);
#954=AXIS2_PLACEMENT_3D('',#1411,#1164,#1165);
#955=AXIS2_PLACEMENT_3D('',#1414,#1167,#1168);
#956=AXIS2_PLACEMENT_3D('',#1415,#1169,#1170);
#957=AXIS2_PLACEMENT_3D('',#1418,#1171,#1172);
#958=AXIS2_PLACEMENT_3D('',#1421,#1175,#1176);
#959=AXIS2_PLACEMENT_3D('',#1425,#1179,#1180);
#960=AXIS2_PLACEMENT_3D('',#1429,#1183,#1184);
#961=AXIS2_PLACEMENT_3D('',#1431,#1185,#1186);
#962=AXIS2_PLACEMENT_3D('',#1433,#1188,#1189);
#963=AXIS2_PLACEMENT_3D('',#1437,#1192,#1193);
#964=AXIS2_PLACEMENT_3D('',#1440,#1195,#1196);
#965=AXIS2_PLACEMENT_3D('',#1441,#1197,#1198);
#966=AXIS2_PLACEMENT_3D('',#1442,#1199,#1200);
#967=AXIS2_PLACEMENT_3D('',#1444,#1201,#1202);
#968=AXIS2_PLACEMENT_3D('',#1447,#1204,#1205);
#969=AXIS2_PLACEMENT_3D('',#1448,#1206,#1207);
#970=AXIS2_PLACEMENT_3D('',#1450,#1208,#1209);
#971=AXIS2_PLACEMENT_3D('',#1453,#1211,#1212);
#972=AXIS2_PLACEMENT_3D('',#1454,#1213,#1214);
#973=AXIS2_PLACEMENT_3D('',#1457,#1215,#1216);
#974=AXIS2_PLACEMENT_3D('',#1459,#1217,#1218);
#975=AXIS2_PLACEMENT_3D('',#1460,#1219,#1220);
#976=AXIS2_PLACEMENT_3D('',#1461,#1221,#1222);
#977=AXIS2_PLACEMENT_3D('',#1462,#1223,#1224);
#978=AXIS2_PLACEMENT_3D('',#1464,#1225,#1226);
#979=AXIS2_PLACEMENT_3D('',#1466,#1228,#1229);
#980=AXIS2_PLACEMENT_3D('',#1467,#1230,#1231);
#981=AXIS2_PLACEMENT_3D('',#1469,#1232,#1233);
#982=AXIS2_PLACEMENT_3D('',#1471,#1234,#1235);
#983=AXIS2_PLACEMENT_3D('',#1472,#1236,#1237);
#984=AXIS2_PLACEMENT_3D('',#1473,#1238,#1239);
#985=AXIS2_PLACEMENT_3D('',#1475,#1240,#1241);
#986=AXIS2_PLACEMENT_3D('',#1477,#1243,#1244);
#987=DIRECTION('axis',(0.,0.,1.));
#988=DIRECTION('refdir',(1.,0.,0.));
#989=DIRECTION('center_axis',(0.,1.,0.));
#990=DIRECTION('ref_axis',(0.,0.,1.));
#991=DIRECTION('center_axis',(0.,1.,0.));
#992=DIRECTION('ref_axis',(0.,0.,1.));
#993=DIRECTION('',(0.,1.,0.));
#994=DIRECTION('center_axis',(0.,1.,0.));
#995=DIRECTION('ref_axis',(0.,0.,1.));
#996=DIRECTION('center_axis',(0.,1.,0.));
#997=DIRECTION('ref_axis',(0.,0.,1.));
#998=DIRECTION('center_axis',(0.,1.,0.));
#999=DIRECTION('ref_axis',(0.,0.,1.));
#1000=DIRECTION('',(0.,1.,0.));
#1001=DIRECTION('center_axis',(0.,1.,0.));
#1002=DIRECTION('ref_axis',(0.,0.,1.));
#1003=DIRECTION('center_axis',(0.,1.,0.));
#1004=DIRECTION('ref_axis',(0.,0.,1.));
#1005=DIRECTION('',(-8.65956056235493E-17,0.707106781186548,-0.707106781186547));
#1006=DIRECTION('center_axis',(0.,1.,0.));
#1007=DIRECTION('ref_axis',(0.,0.,1.));
#1008=DIRECTION('center_axis',(0.,1.,0.));
#1009=DIRECTION('ref_axis',(0.,0.,1.));
#1010=DIRECTION('',(-8.65956056235493E-17,0.707106781186548,-0.707106781186547));
#1011=DIRECTION('center_axis',(0.,1.,0.));
#1012=DIRECTION('ref_axis',(0.,0.,1.));
#1013=DIRECTION('center_axis',(0.,0.,-1.));
#1014=DIRECTION('ref_axis',(0.707106781186547,0.707106781186548,0.));
#1015=DIRECTION('center_axis',(0.,0.,1.));
#1016=DIRECTION('ref_axis',(1.,0.,0.));
#1017=DIRECTION('',(0.,0.,-1.));
#1018=DIRECTION('center_axis',(0.,0.,1.));
#1019=DIRECTION('ref_axis',(1.,0.,0.));
#1020=DIRECTION('',(0.,0.,-1.));
#1021=DIRECTION('center_axis',(1.,0.,0.));
#1022=DIRECTION('ref_axis',(0.,0.,-1.));
#1023=DIRECTION('',(0.,-1.,0.));
#1024=DIRECTION('',(0.,0.,-1.));
#1025=DIRECTION('',(0.,-1.,0.));
#1026=DIRECTION('',(0.,0.,-1.));
#1027=DIRECTION('center_axis',(0.,0.,-1.));
#1028=DIRECTION('ref_axis',(-1.,0.,0.));
#1029=DIRECTION('center_axis',(0.,0.,1.));
#1030=DIRECTION('ref_axis',(1.,0.,0.));
#1031=DIRECTION('center_axis',(0.,0.,1.));
#1032=DIRECTION('ref_axis',(1.,0.,0.));
#1033=DIRECTION('',(0.,0.,-1.));
#1034=DIRECTION('center_axis',(0.,0.,1.));
#1035=DIRECTION('ref_axis',(1.,0.,0.));
#1036=DIRECTION('',(-1.,0.,0.));
#1037=DIRECTION('',(1.,0.,0.));
#1038=DIRECTION('',(0.,-1.,0.));
#1039=DIRECTION('center_axis',(0.,0.,1.));
#1040=DIRECTION('ref_axis',(1.,0.,0.));
#1041=DIRECTION('center_axis',(1.,0.,0.));
#1042=DIRECTION('ref_axis',(0.,0.,-1.));
#1043=DIRECTION('',(0.,-1.,0.));
#1044=DIRECTION('',(0.,0.,-1.));
#1045=DIRECTION('center_axis',(0.,0.,1.));
#1046=DIRECTION('ref_axis',(1.,0.,0.));
#1047=DIRECTION('',(-1.,0.,0.));
#1048=DIRECTION('',(1.,0.,0.));
#1049=DIRECTION('center_axis',(0.,0.,1.));
#1050=DIRECTION('ref_axis',(1.,0.,0.));
#1051=DIRECTION('center_axis',(0.,-1.,0.));
#1052=DIRECTION('ref_axis',(0.,0.,-1.));
#1053=DIRECTION('center_axis',(0.,1.,0.));
#1054=DIRECTION('ref_axis',(0.,0.,1.));
#1055=DIRECTION('center_axis',(0.,1.,0.));
#1056=DIRECTION('ref_axis',(0.,0.,1.));
#1057=DIRECTION('center_axis',(0.,1.,0.));
#1058=DIRECTION('ref_axis',(0.,0.,1.));
#1059=DIRECTION('',(0.,1.,0.));
#1060=DIRECTION('center_axis',(0.,1.,0.));
#1061=DIRECTION('ref_axis',(0.,0.,1.));
#1062=DIRECTION('center_axis',(0.,1.,0.));
#1063=DIRECTION('ref_axis',(0.,0.,1.));
#1064=DIRECTION('center_axis',(0.,1.,0.));
#1065=DIRECTION('ref_axis',(0.,0.,1.));
#1066=DIRECTION('',(0.,1.,0.));
#1067=DIRECTION('center_axis',(0.,1.,0.));
#1068=DIRECTION('ref_axis',(0.,0.,1.));
#1069=DIRECTION('center_axis',(0.,1.,0.));
#1070=DIRECTION('ref_axis',(0.,0.,1.));
#1071=DIRECTION('',(-8.65956056235493E-17,0.707106781186548,-0.707106781186547));
#1072=DIRECTION('center_axis',(0.,1.,0.));
#1073=DIRECTION('ref_axis',(0.,0.,1.));
#1074=DIRECTION('center_axis',(0.,1.,0.));
#1075=DIRECTION('ref_axis',(0.,0.,1.));
#1076=DIRECTION('',(-8.65956056235493E-17,0.707106781186548,-0.707106781186547));
#1077=DIRECTION('center_axis',(0.,1.,0.));
#1078=DIRECTION('ref_axis',(0.,0.,1.));
#1079=DIRECTION('center_axis',(0.,0.,-1.));
#1080=DIRECTION('ref_axis',(0.707106781186547,0.707106781186548,0.));
#1081=DIRECTION('center_axis',(0.,0.,1.));
#1082=DIRECTION('ref_axis',(1.,0.,0.));
#1083=DIRECTION('',(0.,0.,-1.));
#1084=DIRECTION('center_axis',(0.,0.,1.));
#1085=DIRECTION('ref_axis',(1.,0.,0.));
#1086=DIRECTION('',(0.,0.,-1.));
#1087=DIRECTION('center_axis',(1.,0.,0.));
#1088=DIRECTION('ref_axis',(0.,0.,-1.));
#1089=DIRECTION('',(0.,-1.,0.));
#1090=DIRECTION('',(0.,0.,-1.));
#1091=DIRECTION('',(0.,-1.,0.));
#1092=DIRECTION('',(0.,0.,-1.));
#1093=DIRECTION('center_axis',(0.,0.,-1.));
#1094=DIRECTION('ref_axis',(-1.,0.,0.));
#1095=DIRECTION('center_axis',(0.,0.,1.));
#1096=DIRECTION('ref_axis',(1.,0.,0.));
#1097=DIRECTION('center_axis',(0.,0.,1.));
#1098=DIRECTION('ref_axis',(1.,0.,0.));
#1099=DIRECTION('',(0.,0.,-1.));
#1100=DIRECTION('center_axis',(0.,0.,1.));
#1101=DIRECTION('ref_axis',(1.,0.,0.));
#1102=DIRECTION('',(-1.,0.,0.));
#1103=DIRECTION('',(1.,0.,0.));
#1104=DIRECTION('',(0.,-1.,0.));
#1105=DIRECTION('center_axis',(0.,0.,1.));
#1106=DIRECTION('ref_axis',(1.,0.,0.));
#1107=DIRECTION('center_axis',(1.,0.,0.));
#1108=DIRECTION('ref_axis',(0.,0.,-1.));
#1109=DIRECTION('',(0.,-1.,0.));
#1110=DIRECTION('',(0.,0.,-1.));
#1111=DIRECTION('center_axis',(0.,0.,1.));
#1112=DIRECTION('ref_axis',(1.,0.,0.));
#1113=DIRECTION('',(-1.,0.,0.));
#1114=DIRECTION('',(1.,0.,0.));
#1115=DIRECTION('center_axis',(0.,0.,1.));
#1116=DIRECTION('ref_axis',(1.,0.,0.));
#1117=DIRECTION('center_axis',(0.,-1.,0.));
#1118=DIRECTION('ref_axis',(0.,0.,-1.));
#1119=DIRECTION('center_axis',(0.,1.,0.));
#1120=DIRECTION('ref_axis',(0.,0.,1.));
#1121=DIRECTION('center_axis',(2.22044604925031E-16,1.,0.));
#1122=DIRECTION('ref_axis',(0.,0.,-1.));
#1123=DIRECTION('center_axis',(2.22044604925031E-16,1.,0.));
#1124=DIRECTION('ref_axis',(0.,0.,-1.));
#1125=DIRECTION('',(2.22044604925031E-16,1.,0.));
#1126=DIRECTION('center_axis',(2.22044604925031E-16,1.,0.));
#1127=DIRECTION('ref_axis',(0.,0.,-1.));
#1128=DIRECTION('center_axis',(2.22044604925031E-16,1.,0.));
#1129=DIRECTION('ref_axis',(0.,0.,-1.));
#1130=DIRECTION('',(2.43604851491927E-16,0.707106781186548,0.707106781186547));
#1131=DIRECTION('center_axis',(2.22044604925031E-16,1.,0.));
#1132=DIRECTION('ref_axis',(0.,0.,-1.));
#1133=DIRECTION('center_axis',(2.22044604925031E-16,1.,0.));
#1134=DIRECTION('ref_axis',(0.,0.,-1.));
#1135=DIRECTION('center_axis',(2.22044604925031E-16,1.,0.));
#1136=DIRECTION('ref_axis',(0.,0.,-1.));
#1137=DIRECTION('',(2.22044604925031E-16,1.,0.));
#1138=DIRECTION('center_axis',(2.22044604925031E-16,1.,0.));
#1139=DIRECTION('ref_axis',(0.,0.,-1.));
#1140=DIRECTION('center_axis',(2.22044604925031E-16,1.,0.));
#1141=DIRECTION('ref_axis',(0.,0.,-1.));
#1142=DIRECTION('',(2.43604851491927E-16,0.707106781186548,0.707106781186547));
#1143=DIRECTION('center_axis',(2.22044604925031E-16,1.,0.));
#1144=DIRECTION('ref_axis',(0.,0.,-1.));
#1145=DIRECTION('center_axis',(2.22044604925031E-16,1.,0.));
#1146=DIRECTION('ref_axis',(0.,0.,-1.));
#1147=DIRECTION('center_axis',(2.22044604925031E-16,1.,0.));
#1148=DIRECTION('ref_axis',(0.,0.,-1.));
#1149=DIRECTION('',(2.22044604925031E-16,1.,0.));
#1150=DIRECTION('center_axis',(2.22044604925031E-16,1.,0.));
#1151=DIRECTION('ref_axis',(0.,0.,-1.));
#1152=DIRECTION('center_axis',(2.22044604925031E-16,1.,0.));
#1153=DIRECTION('ref_axis',(0.,0.,-1.));
#1154=DIRECTION('',(2.43604851491927E-16,0.707106781186548,0.707106781186547));
#1155=DIRECTION('center_axis',(2.22044604925031E-16,1.,0.));
#1156=DIRECTION('ref_axis',(0.,0.,-1.));
#1157=DIRECTION('center_axis',(0.,0.,-1.));
#1158=DIRECTION('ref_axis',(-1.,0.,0.));
#1159=DIRECTION('',(1.,-2.08166817117217E-16,0.));
#1160=DIRECTION('center_axis',(0.,0.,-1.));
#1161=DIRECTION('ref_axis',(-1.,2.16840434497101E-16,0.));
#1162=DIRECTION('',(0.,-1.,0.));
#1163=DIRECTION('',(-1.,2.37904933848248E-16,0.));
#1164=DIRECTION('center_axis',(0.,0.,-1.));
#1165=DIRECTION('ref_axis',(-1.,2.16840434497101E-16,0.));
#1166=DIRECTION('',(0.,-1.,0.));
#1167=DIRECTION('center_axis',(0.,0.,-1.));
#1168=DIRECTION('ref_axis',(-1.,2.16840434497101E-16,0.));
#1169=DIRECTION('center_axis',(0.,0.,1.));
#1170=DIRECTION('ref_axis',(-0.707106781186547,0.707106781186548,0.));
#1171=DIRECTION('center_axis',(0.,0.,-1.));
#1172=DIRECTION('ref_axis',(-1.,2.16840434497101E-16,0.));
#1173=DIRECTION('',(0.,0.,1.));
#1174=DIRECTION('',(0.,0.,1.));
#1175=DIRECTION('center_axis',(2.22044604925031E-16,1.,0.));
#1176=DIRECTION('ref_axis',(0.,0.,1.));
#1177=DIRECTION('',(-1.,2.37904933848248E-16,0.));
#1178=DIRECTION('',(0.,0.,1.));
#1179=DIRECTION('center_axis',(-1.,2.22044604925031E-16,0.));
#1180=DIRECTION('ref_axis',(0.,0.,1.));
#1181=DIRECTION('',(0.,-1.,0.));
#1182=DIRECTION('',(0.,0.,1.));
#1183=DIRECTION('center_axis',(0.,0.,1.));
#1184=DIRECTION('ref_axis',(1.,-2.16840434497101E-16,0.));
#1185=DIRECTION('center_axis',(0.,0.,-1.));
#1186=DIRECTION('ref_axis',(-1.,2.16840434497101E-16,0.));
#1187=DIRECTION('',(0.,0.,1.));
#1188=DIRECTION('center_axis',(-2.22044604925031E-16,-1.,0.));
#1189=DIRECTION('ref_axis',(0.,0.,-1.));
#1190=DIRECTION('',(1.,-2.08166817117217E-16,0.));
#1191=DIRECTION('',(0.,0.,1.));
#1192=DIRECTION('center_axis',(0.,0.,-1.));
#1193=DIRECTION('ref_axis',(-1.,0.,0.));
#1194=DIRECTION('',(0.,-1.,0.));
#1195=DIRECTION('center_axis',(0.,0.,-1.));
#1196=DIRECTION('ref_axis',(-1.,2.16840434497101E-16,0.));
#1197=DIRECTION('center_axis',(-1.,2.22044604925031E-16,0.));
#1198=DIRECTION('ref_axis',(0.,0.,1.));
#1199=DIRECTION('center_axis',(0.,0.,1.));
#1200=DIRECTION('ref_axis',(0.923728021347068,0.383049008063238,0.));
#1201=DIRECTION('center_axis',(0.,0.,-1.));
#1202=DIRECTION('ref_axis',(-0.923728021347068,-0.383049008063238,0.));
#1203=DIRECTION('',(0.,0.,-1.));
#1204=DIRECTION('center_axis',(0.,0.,-1.));
#1205=DIRECTION('ref_axis',(-0.923728021347068,-0.383049008063238,0.));
#1206=DIRECTION('center_axis',(0.,0.,1.));
#1207=DIRECTION('ref_axis',(0.923728021347068,0.383049008063238,0.));
#1208=DIRECTION('center_axis',(0.,0.,-1.));
#1209=DIRECTION('ref_axis',(-0.923728021347068,-0.383049008063238,0.));
#1210=DIRECTION('',(0.,0.,-1.));
#1211=DIRECTION('center_axis',(0.,0.,-1.));
#1212=DIRECTION('ref_axis',(-0.923728021347068,-0.383049008063238,0.));
#1213=DIRECTION('center_axis',(0.,0.,1.));
#1214=DIRECTION('ref_axis',(1.,0.,0.));
#1215=DIRECTION('center_axis',(0.,0.,1.));
#1216=DIRECTION('ref_axis',(-1.,-3.33068147079633E-13,0.));
#1217=DIRECTION('center_axis',(1.17975228866122E-16,-1.,0.));
#1218=DIRECTION('ref_axis',(-1.,-1.17975228866122E-16,0.));
#1219=DIRECTION('center_axis',(0.,0.,1.));
#1220=DIRECTION('ref_axis',(-1.,-3.3308054760133E-13,0.));
#1221=DIRECTION('center_axis',(0.,0.,1.));
#1222=DIRECTION('ref_axis',(-1.,-3.33068147079633E-13,0.));
#1223=DIRECTION('center_axis',(0.,0.,1.));
#1224=DIRECTION('ref_axis',(-1.,-3.33066907387554E-13,0.));
#1225=DIRECTION('center_axis',(0.,0.,1.));
#1226=DIRECTION('ref_axis',(-1.,-3.33066907387554E-13,0.));
#1227=DIRECTION('',(-0.707106781186298,-2.35600464408112E-13,-0.707106781186797));
#1228=DIRECTION('center_axis',(0.,0.,-1.));
#1229=DIRECTION('ref_axis',(-1.,0.,0.));
#1230=DIRECTION('center_axis',(0.,0.,-1.));
#1231=DIRECTION('ref_axis',(-1.,0.,0.));
#1232=DIRECTION('center_axis',(0.,0.,-1.));
#1233=DIRECTION('ref_axis',(-1.,-3.33068147079633E-13,0.));
#1234=DIRECTION('center_axis',(-1.17975228866122E-16,-1.,0.));
#1235=DIRECTION('ref_axis',(1.,-1.17975228866122E-16,0.));
#1236=DIRECTION('center_axis',(0.,0.,-1.));
#1237=DIRECTION('ref_axis',(-1.,-3.3308054760133E-13,0.));
#1238=DIRECTION('center_axis',(0.,0.,-1.));
#1239=DIRECTION('ref_axis',(-1.,-3.33066907387554E-13,0.));
#1240=DIRECTION('center_axis',(0.,0.,-1.));
#1241=DIRECTION('ref_axis',(-1.,-3.33066907387554E-13,0.));
#1242=DIRECTION('',(-0.707106781186298,-2.35427273196865E-13,0.707106781186797));
#1243=DIRECTION('center_axis',(0.,0.,1.));
#1244=DIRECTION('ref_axis',(1.,0.,0.));
#1245=CARTESIAN_POINT('',(0.,0.,0.));
#1246=CARTESIAN_POINT('Origin',(0.00534967831151334,-0.00255428362168186,
-0.0165803654299566));
#1247=CARTESIAN_POINT('',(0.00534967831151334,-0.00855428362168187,-0.0198303654299566));
#1248=CARTESIAN_POINT('Origin',(0.00534967831151334,-0.00855428362168187,
-0.0165803654299566));
#1249=CARTESIAN_POINT('',(0.00534967831151334,-0.00580428362168184,-0.0198303654299566));
#1250=CARTESIAN_POINT('',(0.00534967831151334,-0.00255428362168186,-0.0198303654299566));
#1251=CARTESIAN_POINT('Origin',(0.00534967831151334,-0.00580428362168184,
-0.0165803654299566));
#1252=CARTESIAN_POINT('Origin',(0.00534967831151334,-0.00255428362168186,
0.0084196345700434));
#1253=CARTESIAN_POINT('',(0.00534967831151334,-0.00855428362168187,0.00516963457004342));
#1254=CARTESIAN_POINT('Origin',(0.00534967831151334,-0.00855428362168187,
0.0084196345700434));
#1255=CARTESIAN_POINT('',(0.00534967831151334,-0.00580428362168184,0.00516963457004342));
#1256=CARTESIAN_POINT('',(0.00534967831151334,-0.00255428362168186,0.00516963457004342));
#1257=CARTESIAN_POINT('Origin',(0.00534967831151334,-0.00580428362168184,
0.0084196345700434));
#1258=CARTESIAN_POINT('Origin',(0.00534967831151334,-0.00255428362168186,
0.0084196345700434));
#1259=CARTESIAN_POINT('',(0.00534967831151334,-0.00255428362168186,0.00191963457004345));
#1260=CARTESIAN_POINT('',(0.00534967831151334,-0.00255428362168186,0.00191963457004345));
#1261=CARTESIAN_POINT('Origin',(0.00534967831151334,-0.00255428362168186,
0.0084196345700434));
#1262=CARTESIAN_POINT('Origin',(0.00534967831151334,-0.00255428362168186,
-0.0165803654299566));
#1263=CARTESIAN_POINT('',(0.00534967831151334,-0.00255428362168186,-0.0230803654299566));
#1264=CARTESIAN_POINT('',(0.00534967831151334,-0.00255428362168186,-0.0230803654299566));
#1265=CARTESIAN_POINT('Origin',(0.00534967831151334,-0.00255428362168186,
-0.0165803654299566));
#1266=CARTESIAN_POINT('Origin',(0.0203496783115134,-0.000554283621681861,
0.0199196345700434));
#1267=CARTESIAN_POINT('',(0.0203496783115134,-0.00855428362168187,-0.0280803654299566));
#1268=CARTESIAN_POINT('',(0.0123496783115133,-0.000554283621681861,-0.0280803654299566));
#1269=CARTESIAN_POINT('Origin',(0.0203496783115134,-0.000554283621681861,
-0.0280803654299566));
#1270=CARTESIAN_POINT('',(0.0123496783115133,-0.000554283621681861,0.0199196345700434));
#1271=CARTESIAN_POINT('',(0.0123496783115133,-0.000554283621681861,0.0199196345700434));
#1272=CARTESIAN_POINT('',(0.0203496783115134,-0.00855428362168187,0.0199196345700434));
#1273=CARTESIAN_POINT('Origin',(0.0203496783115134,-0.000554283621681861,
0.0199196345700434));
#1274=CARTESIAN_POINT('',(0.0203496783115134,-0.00855428362168187,0.0199196345700434));
#1275=CARTESIAN_POINT('Origin',(-0.00765032168848667,-0.00855428362168187,
0.0199196345700434));
#1276=CARTESIAN_POINT('',(-0.00765032168848667,-0.00655428362168187,-0.0280803654299566));
#1277=CARTESIAN_POINT('',(-0.00765032168848667,-0.00855428362168187,-0.0280803654299566));
#1278=CARTESIAN_POINT('',(-0.00765032168848667,-0.00655428362168187,-0.0280803654299566));
#1279=CARTESIAN_POINT('',(-0.00765032168848667,-0.00855428362168187,0.0199196345700434));
#1280=CARTESIAN_POINT('',(-0.00765032168848667,-0.00855428362168187,0.0199196345700434));
#1281=CARTESIAN_POINT('',(-0.00765032168848667,-0.00655428362168187,0.0199196345700434));
#1282=CARTESIAN_POINT('',(-0.00765032168848667,-0.00655428362168187,0.0199196345700434));
#1283=CARTESIAN_POINT('',(-0.00765032168848667,-0.00655428362168187,0.0199196345700434));
#1284=CARTESIAN_POINT('Origin',(-0.00365032168848667,-0.00655428362168187,
0.0199196345700434));
#1285=CARTESIAN_POINT('',(-0.00365032168848667,-0.00255428362168186,-0.0280803654299566));
#1286=CARTESIAN_POINT('Origin',(-0.00365032168848667,-0.00655428362168187,
-0.0280803654299566));
#1287=CARTESIAN_POINT('',(-0.00365032168848667,-0.00255428362168186,0.0199196345700434));
#1288=CARTESIAN_POINT('Origin',(-0.00365032168848667,-0.00655428362168187,
0.0199196345700434));
#1289=CARTESIAN_POINT('',(-0.00365032168848667,-0.00255428362168186,0.0199196345700434));
#1290=CARTESIAN_POINT('Origin',(0.0203496783115134,-0.000554283621681861,
0.0199196345700434));
#1291=CARTESIAN_POINT('',(0.0123496783115133,-0.00255428362168186,0.0199196345700434));
#1292=CARTESIAN_POINT('',(0.0123496783115133,-0.00255428362168186,0.0199196345700434));
#1293=CARTESIAN_POINT('',(-0.00765032168848667,-0.00855428362168187,0.0199196345700434));
#1294=CARTESIAN_POINT('',(0.0123496783115133,-0.000554283621681861,0.0199196345700434));
#1295=CARTESIAN_POINT('',(0.0243496783115134,-0.000554283621681861,0.0199196345700434));
#1296=CARTESIAN_POINT('Origin',(0.0203496783115134,-0.000554283621681861,
0.0199196345700434));
#1297=CARTESIAN_POINT('Origin',(0.0123496783115133,-0.00255428362168186,
0.0199196345700434));
#1298=CARTESIAN_POINT('',(0.0123496783115133,-0.00255428362168186,-0.0280803654299566));
#1299=CARTESIAN_POINT('',(0.0123496783115133,-0.000554283621681861,-0.0280803654299566));
#1300=CARTESIAN_POINT('',(0.0123496783115133,-0.00255428362168186,0.0199196345700434));
#1301=CARTESIAN_POINT('Origin',(0.0203496783115134,-0.000554283621681861,
-0.0280803654299566));
#1302=CARTESIAN_POINT('',(0.0123496783115133,-0.00255428362168186,-0.0280803654299566));
#1303=CARTESIAN_POINT('',(-0.00765032168848667,-0.00855428362168187,-0.0280803654299566));
#1304=CARTESIAN_POINT('',(0.0243496783115134,-0.000554283621681861,-0.0280803654299566));
#1305=CARTESIAN_POINT('Origin',(0.0203496783115134,-0.000554283621681861,
-0.0280803654299566));
#1306=CARTESIAN_POINT('Origin',(-0.00365032168848667,-0.00255428362168186,
0.0199196345700434));
#1307=CARTESIAN_POINT('Origin',(0.0203496783115134,-0.00855428362168187,
0.0199196345700434));
#1308=CARTESIAN_POINT('Origin',(0.00534967831151334,-0.00255428362168186,
0.535419634570043));
#1309=CARTESIAN_POINT('',(0.00534967831151334,-0.00855428362168187,0.532169634570043));
#1310=CARTESIAN_POINT('Origin',(0.00534967831151334,-0.00855428362168187,
0.535419634570043));
#1311=CARTESIAN_POINT('',(0.00534967831151334,-0.00580428362168184,0.532169634570043));
#1312=CARTESIAN_POINT('',(0.00534967831151334,-0.00255428362168186,0.532169634570043));
#1313=CARTESIAN_POINT('Origin',(0.00534967831151334,-0.00580428362168184,
0.535419634570043));
#1314=CARTESIAN_POINT('Origin',(0.00534967831151334,-0.00255428362168186,
0.560419634570043));
#1315=CARTESIAN_POINT('',(0.00534967831151334,-0.00855428362168187,0.557169634570043));
#1316=CARTESIAN_POINT('Origin',(0.00534967831151334,-0.00855428362168187,
0.560419634570043));
#1317=CARTESIAN_POINT('',(0.00534967831151334,-0.00580428362168184,0.557169634570043));
#1318=CARTESIAN_POINT('',(0.00534967831151334,-0.00255428362168186,0.557169634570043));
#1319=CARTESIAN_POINT('Origin',(0.00534967831151334,-0.00580428362168184,
0.560419634570043));
#1320=CARTESIAN_POINT('Origin',(0.00534967831151334,-0.00255428362168186,
0.560419634570043));
#1321=CARTESIAN_POINT('',(0.00534967831151334,-0.00255428362168184,0.553919634570043));
#1322=CARTESIAN_POINT('',(0.00534967831151334,-0.00255428362168186,0.553919634570043));
#1323=CARTESIAN_POINT('Origin',(0.00534967831151334,-0.00255428362168186,
0.560419634570043));
#1324=CARTESIAN_POINT('Origin',(0.00534967831151334,-0.00255428362168186,
0.535419634570043));
#1325=CARTESIAN_POINT('',(0.00534967831151334,-0.00255428362168184,0.528919634570043));
#1326=CARTESIAN_POINT('',(0.00534967831151334,-0.00255428362168186,0.528919634570043));
#1327=CARTESIAN_POINT('Origin',(0.00534967831151334,-0.00255428362168186,
0.535419634570043));
#1328=CARTESIAN_POINT('Origin',(0.0203496783115134,-0.000554283621681861,
0.571919634570044));
#1329=CARTESIAN_POINT('',(0.0203496783115134,-0.00855428362168187,0.523919634570043));
#1330=CARTESIAN_POINT('',(0.0123496783115133,-0.000554283621681861,0.523919634570043));
#1331=CARTESIAN_POINT('Origin',(0.0203496783115134,-0.000554283621681861,
0.523919634570043));
#1332=CARTESIAN_POINT('',(0.0123496783115133,-0.000554283621681861,0.571919634570044));
#1333=CARTESIAN_POINT('',(0.0123496783115133,-0.000554283621681861,0.571919634570044));
#1334=CARTESIAN_POINT('',(0.0203496783115134,-0.00855428362168187,0.571919634570044));
#1335=CARTESIAN_POINT('Origin',(0.0203496783115134,-0.000554283621681861,
0.571919634570044));
#1336=CARTESIAN_POINT('',(0.0203496783115134,-0.00855428362168187,0.571919634570044));
#1337=CARTESIAN_POINT('Origin',(-0.00765032168848667,-0.00855428362168187,
0.571919634570044));
#1338=CARTESIAN_POINT('',(-0.00765032168848667,-0.00655428362168187,0.523919634570043));
#1339=CARTESIAN_POINT('',(-0.00765032168848667,-0.00855428362168187,0.523919634570043));
#1340=CARTESIAN_POINT('',(-0.00765032168848667,-0.00655428362168187,0.523919634570043));
#1341=CARTESIAN_POINT('',(-0.00765032168848667,-0.00855428362168187,0.571919634570044));
#1342=CARTESIAN_POINT('',(-0.00765032168848667,-0.00855428362168187,0.571919634570044));
#1343=CARTESIAN_POINT('',(-0.00765032168848667,-0.00655428362168187,0.571919634570044));
#1344=CARTESIAN_POINT('',(-0.00765032168848667,-0.00655428362168187,0.571919634570044));
#1345=CARTESIAN_POINT('',(-0.00765032168848667,-0.00655428362168187,0.571919634570044));
#1346=CARTESIAN_POINT('Origin',(-0.00365032168848667,-0.00655428362168187,
0.571919634570044));
#1347=CARTESIAN_POINT('',(-0.00365032168848667,-0.00255428362168186,0.523919634570043));
#1348=CARTESIAN_POINT('Origin',(-0.00365032168848667,-0.00655428362168187,
0.523919634570043));
#1349=CARTESIAN_POINT('',(-0.00365032168848667,-0.00255428362168186,0.571919634570044));
#1350=CARTESIAN_POINT('Origin',(-0.00365032168848667,-0.00655428362168187,
0.571919634570044));
#1351=CARTESIAN_POINT('',(-0.00365032168848667,-0.00255428362168186,0.571919634570044));
#1352=CARTESIAN_POINT('Origin',(0.0203496783115134,-0.000554283621681861,
0.571919634570044));
#1353=CARTESIAN_POINT('',(0.0123496783115133,-0.00255428362168186,0.571919634570044));
#1354=CARTESIAN_POINT('',(0.0123496783115133,-0.00255428362168186,0.571919634570044));
#1355=CARTESIAN_POINT('',(-0.00765032168848667,-0.00855428362168187,0.571919634570044));
#1356=CARTESIAN_POINT('',(0.0123496783115133,-0.000554283621681861,0.571919634570044));
#1357=CARTESIAN_POINT('',(0.0243496783115134,-0.000554283621681861,0.571919634570044));
#1358=CARTESIAN_POINT('Origin',(0.0203496783115134,-0.000554283621681861,
0.571919634570044));
#1359=CARTESIAN_POINT('Origin',(0.0123496783115133,-0.00255428362168186,
0.571919634570044));
#1360=CARTESIAN_POINT('',(0.0123496783115133,-0.00255428362168186,0.523919634570043));
#1361=CARTESIAN_POINT('',(0.0123496783115133,-0.000554283621681861,0.523919634570043));
#1362=CARTESIAN_POINT('',(0.0123496783115133,-0.00255428362168186,0.571919634570044));
#1363=CARTESIAN_POINT('Origin',(0.0203496783115134,-0.000554283621681861,
0.523919634570043));
#1364=CARTESIAN_POINT('',(0.0123496783115133,-0.00255428362168186,0.523919634570043));
#1365=CARTESIAN_POINT('',(-0.00765032168848667,-0.00855428362168187,0.523919634570043));
#1366=CARTESIAN_POINT('',(0.0243496783115134,-0.000554283621681861,0.523919634570043));
#1367=CARTESIAN_POINT('Origin',(0.0203496783115134,-0.000554283621681861,
0.523919634570043));
#1368=CARTESIAN_POINT('Origin',(-0.00365032168848667,-0.00255428362168186,
0.571919634570044));
#1369=CARTESIAN_POINT('Origin',(0.0203496783115134,-0.00855428362168187,
0.571919634570044));
#1370=CARTESIAN_POINT('Origin',(0.0353496783115136,-0.00255428362168197,
0.0334196345700434));
#1371=CARTESIAN_POINT('',(0.0353496783115136,-0.00855428362168198,0.0366696345700434));
#1372=CARTESIAN_POINT('Origin',(0.0353496783115136,-0.00855428362168198,
0.0334196345700434));
#1373=CARTESIAN_POINT('',(0.0353496783115136,-0.00580428362168195,0.0366696345700434));
#1374=CARTESIAN_POINT('',(0.0353496783115136,-0.00255428362168197,0.0366696345700434));
#1375=CARTESIAN_POINT('Origin',(0.0353496783115136,-0.00580428362168195,
0.0334196345700434));
#1376=CARTESIAN_POINT('Origin',(0.0353496783115136,-0.00255428362168197,
0.0334196345700434));
#1377=CARTESIAN_POINT('',(0.0353496783115136,-0.00255428362168197,0.0399196345700433));
#1378=CARTESIAN_POINT('',(0.0353496783115136,-0.00255428362168197,0.0399196345700433));
#1379=CARTESIAN_POINT('Origin',(0.0353496783115136,-0.00255428362168197,
0.0334196345700434));
#1380=CARTESIAN_POINT('Origin',(0.0353496783115136,-0.00255428362168197,
0.271919634570043));
#1381=CARTESIAN_POINT('',(0.0353496783115136,-0.00855428362168198,0.275169634570043));
#1382=CARTESIAN_POINT('Origin',(0.0353496783115136,-0.00855428362168198,
0.271919634570043));
#1383=CARTESIAN_POINT('',(0.0353496783115136,-0.00580428362168195,0.275169634570043));
#1384=CARTESIAN_POINT('',(0.0353496783115136,-0.00255428362168197,0.275169634570043));
#1385=CARTESIAN_POINT('Origin',(0.0353496783115136,-0.00580428362168195,
0.271919634570043));
#1386=CARTESIAN_POINT('Origin',(0.0353496783115136,-0.00255428362168197,
0.271919634570043));
#1387=CARTESIAN_POINT('',(0.0353496783115136,-0.00255428362168197,0.278419634570043));
#1388=CARTESIAN_POINT('',(0.0353496783115136,-0.00255428362168197,0.278419634570043));
#1389=CARTESIAN_POINT('Origin',(0.0353496783115136,-0.00255428362168197,
0.271919634570043));
#1390=CARTESIAN_POINT('Origin',(0.0353496783115136,-0.00255428362168197,
0.510419634570043));
#1391=CARTESIAN_POINT('',(0.0353496783115136,-0.00855428362168198,0.513669634570043));
#1392=CARTESIAN_POINT('Origin',(0.0353496783115136,-0.00855428362168198,
0.510419634570043));
#1393=CARTESIAN_POINT('',(0.0353496783115136,-0.00580428362168195,0.513669634570043));
#1394=CARTESIAN_POINT('',(0.0353496783115136,-0.00255428362168197,0.513669634570043));
#1395=CARTESIAN_POINT('Origin',(0.0353496783115136,-0.00580428362168195,
0.510419634570043));
#1396=CARTESIAN_POINT('Origin',(0.0353496783115136,-0.00255428362168197,
0.510419634570043));
#1397=CARTESIAN_POINT('',(0.0353496783115136,-0.00255428362168197,0.516919634570043));
#1398=CARTESIAN_POINT('',(0.0353496783115136,-0.00255428362168197,0.516919634570043));
#1399=CARTESIAN_POINT('Origin',(0.0353496783115136,-0.00255428362168197,
0.510419634570043));
#1400=CARTESIAN_POINT('Origin',(0.0203496783115136,-0.000554283621681972,
0.0219196345700434));
#1401=CARTESIAN_POINT('',(0.0283496783115136,-0.00255428362168197,0.0219196345700434));
#1402=CARTESIAN_POINT('',(0.0443496783115136,-0.00255428362168197,0.0219196345700434));
#1403=CARTESIAN_POINT('',(0.0283496783115136,-0.00255428362168197,0.0219196345700434));
#1404=CARTESIAN_POINT('',(0.0483496783115136,-0.00655428362168198,0.0219196345700434));
#1405=CARTESIAN_POINT('Origin',(0.0443496783115136,-0.00655428362168198,
0.0219196345700434));
#1406=CARTESIAN_POINT('',(0.0483496783115136,-0.00855428362168198,0.0219196345700434));
#1407=CARTESIAN_POINT('',(0.0483496783115136,-0.00655428362168198,0.0219196345700434));
#1408=CARTESIAN_POINT('',(0.0203496783115136,-0.00855428362168198,0.0219196345700434));
#1409=CARTESIAN_POINT('',(0.0483496783115136,-0.00855428362168199,0.0219196345700434));
#1410=CARTESIAN_POINT('',(0.0283496783115136,-0.000554283621681972,0.0219196345700434));
#1411=CARTESIAN_POINT('Origin',(0.0203496783115136,-0.000554283621681972,
0.0219196345700434));
#1412=CARTESIAN_POINT('',(0.0283496783115136,-0.000554283621681972,0.0219196345700434));
#1413=CARTESIAN_POINT('',(0.0163496783115136,-0.000554283621681971,0.0219196345700434));
#1414=CARTESIAN_POINT('Origin',(0.0203496783115136,-0.000554283621681972,
0.0219196345700434));
#1415=CARTESIAN_POINT('Origin',(0.0203496783115136,-0.000554283621681972,
0.0219196345700434));
#1416=CARTESIAN_POINT('',(0.0203496783115136,-0.00855428362168198,0.521919634570043));
#1417=CARTESIAN_POINT('',(0.0283496783115136,-0.000554283621681972,0.521919634570043));
#1418=CARTESIAN_POINT('Origin',(0.0203496783115136,-0.000554283621681972,
0.521919634570043));
#1419=CARTESIAN_POINT('',(0.0283496783115136,-0.000554283621681972,0.0219196345700434));
#1420=CARTESIAN_POINT('',(0.0203496783115136,-0.00855428362168198,0.0219196345700434));
#1421=CARTESIAN_POINT('Origin',(0.0203496783115136,-0.00855428362168198,
0.0219196345700434));
#1422=CARTESIAN_POINT('',(0.0483496783115136,-0.00855428362168198,0.521919634570043));
#1423=CARTESIAN_POINT('',(0.0483496783115136,-0.00855428362168199,0.521919634570043));
#1424=CARTESIAN_POINT('',(0.0483496783115136,-0.00855428362168198,0.0219196345700434));
#1425=CARTESIAN_POINT('Origin',(0.0483496783115136,-0.00855428362168198,
0.0219196345700434));
#1426=CARTESIAN_POINT('',(0.0483496783115136,-0.00655428362168198,0.521919634570043));
#1427=CARTESIAN_POINT('',(0.0483496783115136,-0.00655428362168198,0.521919634570043));
#1428=CARTESIAN_POINT('',(0.0483496783115136,-0.00655428362168198,0.0219196345700434));
#1429=CARTESIAN_POINT('Origin',(0.0443496783115136,-0.00655428362168198,
0.0219196345700434));
#1430=CARTESIAN_POINT('',(0.0443496783115136,-0.00255428362168197,0.521919634570043));
#1431=CARTESIAN_POINT('Origin',(0.0443496783115136,-0.00655428362168198,
0.521919634570043));
#1432=CARTESIAN_POINT('',(0.0443496783115136,-0.00255428362168197,0.0219196345700434));
#1433=CARTESIAN_POINT('Origin',(0.0443496783115136,-0.00255428362168197,
0.0219196345700434));
#1434=CARTESIAN_POINT('',(0.0283496783115136,-0.00255428362168197,0.521919634570043));
#1435=CARTESIAN_POINT('',(0.0283496783115136,-0.00255428362168197,0.521919634570043));
#1436=CARTESIAN_POINT('',(0.0283496783115136,-0.00255428362168197,0.0219196345700434));
#1437=CARTESIAN_POINT('Origin',(0.0203496783115136,-0.000554283621681972,
0.521919634570043));
#1438=CARTESIAN_POINT('',(0.0283496783115136,-0.000554283621681972,0.521919634570043));
#1439=CARTESIAN_POINT('',(0.0163496783115136,-0.000554283621681971,0.521919634570043));
#1440=CARTESIAN_POINT('Origin',(0.0203496783115136,-0.000554283621681972,
0.521919634570043));
#1441=CARTESIAN_POINT('Origin',(0.0283496783115136,-0.00255428362168197,
0.0219196345700434));
#1442=CARTESIAN_POINT('Origin',(0.0203496783115134,-0.000554283621681861,
0.0199196345700434));
#1443=CARTESIAN_POINT('',(0.0129598541407369,-0.00361867568618777,0.0219196345700434));
#1444=CARTESIAN_POINT('Origin',(0.0203496783115134,-0.000554283621681861,
0.0219196345700434));
#1445=CARTESIAN_POINT('',(0.0129598541407369,-0.00361867568618777,0.0199196345700434));
#1446=CARTESIAN_POINT('',(0.0129598541407369,-0.00361867568618777,0.0199196345700434));
#1447=CARTESIAN_POINT('Origin',(0.0203496783115134,-0.000554283621681861,
0.0199196345700434));
#1448=CARTESIAN_POINT('Origin',(0.0203496783115134,-0.000554283621681861,
0.521919634570043));
#1449=CARTESIAN_POINT('',(0.0129598541407369,-0.00361867568618777,0.523919634570043));
#1450=CARTESIAN_POINT('Origin',(0.0203496783115134,-0.000554283621681861,
0.523919634570043));
#1451=CARTESIAN_POINT('',(0.0129598541407369,-0.00361867568618777,0.521919634570043));
#1452=CARTESIAN_POINT('',(0.0129598541407369,-0.00361867568618777,0.521919634570043));
#1453=CARTESIAN_POINT('Origin',(0.0203496783115134,-0.000554283621681861,
0.521919634570043));
#1454=CARTESIAN_POINT('Origin',(0.0203496783115134,-0.000554283621681863,
-0.028880365429957));
#1455=CARTESIAN_POINT('',(0.016291099667751,-0.000554283621683215,-0.0290217867861945));
#1456=CARTESIAN_POINT('',(0.0244082569552759,-0.000554283621680511,-0.0290217867861945));
#1457=CARTESIAN_POINT('Origin',(0.0203496783115134,-0.000554283621681863,
-0.0290217867861945));
#1458=CARTESIAN_POINT('',(0.0164325210239893,-0.000554283621683168,-0.0290803654299573));
#1459=CARTESIAN_POINT('Origin',(0.0164325210239894,-0.000554283621681863,
-0.028880365429957));
#1460=CARTESIAN_POINT('Origin',(0.0203496783115134,-0.000554283621681863,
-0.0290803654299573));
#1461=CARTESIAN_POINT('Origin',(0.0203496783115134,-0.000554283621681863,
-0.0290217867861945));
#1462=CARTESIAN_POINT('Origin',(0.0203496783115134,-0.000554283621681863,
-0.0280803654299564));
#1463=CARTESIAN_POINT('',(0.0253496783115133,-0.000554283621680197,-0.0280803654299564));
#1464=CARTESIAN_POINT('Origin',(0.0203496783115134,-0.000554283621681863,
-0.0280803654299564));
#1465=CARTESIAN_POINT('',(0.0253496783115133,-0.000554283621680197,-0.0280803654299564));
#1466=CARTESIAN_POINT('Origin',(0.0203496783115134,-0.000554283621681863,
-0.0290803654299576));
#1467=CARTESIAN_POINT('Origin',(0.0203496783115134,-0.000554283621681863,
0.572719634570044));
#1468=CARTESIAN_POINT('',(0.0244082569552759,-0.000554283621681863,0.572861055926281));
#1469=CARTESIAN_POINT('Origin',(0.0203496783115134,-0.000554283621681863,
0.572861055926281));
#1470=CARTESIAN_POINT('',(0.0242668355990375,-0.000554283621681863,0.572919634570044));
#1471=CARTESIAN_POINT('Origin',(0.0242668355990374,-0.000554283621681863,
0.572719634570044));
#1472=CARTESIAN_POINT('Origin',(0.0203496783115134,-0.000554283621681863,
0.572919634570044));
#1473=CARTESIAN_POINT('Origin',(0.0203496783115134,-0.000554283621681863,
0.571919634570043));
#1474=CARTESIAN_POINT('',(0.0253496783115133,-0.000554283621680198,0.571919634570043));
#1475=CARTESIAN_POINT('Origin',(0.0203496783115134,-0.000554283621681863,
0.571919634570043));
#1476=CARTESIAN_POINT('',(0.0253496783115133,-0.000554283621680198,0.571919634570043));
#1477=CARTESIAN_POINT('Origin',(0.0203496783115134,-0.000554283621681863,
0.572919634570044));
#1478=UNCERTAINTY_MEASURE_WITH_UNIT(LENGTH_MEASURE(1.E-5),#1482,
'DISTANCE_ACCURACY_VALUE',
'Maximum model space distance between geometric entities at asserted c
onnectivities');
#1479=UNCERTAINTY_MEASURE_WITH_UNIT(LENGTH_MEASURE(1.E-5),#1482,
'DISTANCE_ACCURACY_VALUE',
'Maximum model space distance between geometric entities at asserted c
onnectivities');
#1480=(
GEOMETRIC_REPRESENTATION_CONTEXT(3)
GLOBAL_UNCERTAINTY_ASSIGNED_CONTEXT((#1478))
GLOBAL_UNIT_ASSIGNED_CONTEXT((#1482,#1484,#1485))
REPRESENTATION_CONTEXT('','3D')
);
#1481=(
GEOMETRIC_REPRESENTATION_CONTEXT(3)
GLOBAL_UNCERTAINTY_ASSIGNED_CONTEXT((#1479))
GLOBAL_UNIT_ASSIGNED_CONTEXT((#1482,#1484,#1485))
REPRESENTATION_CONTEXT('','3D')
);
#1482=(
LENGTH_UNIT()
NAMED_UNIT(*)
SI_UNIT($,.METRE.)
);
#1483=(
LENGTH_UNIT()
NAMED_UNIT(*)
SI_UNIT(.CENTI.,.METRE.)
);
#1484=(
NAMED_UNIT(*)
PLANE_ANGLE_UNIT()
SI_UNIT($,.RADIAN.)
);
#1485=(
NAMED_UNIT(*)
SI_UNIT($,.STERADIAN.)
SOLID_ANGLE_UNIT()
);
#1486=SHAPE_DEFINITION_REPRESENTATION(#1487,#1488);
#1487=PRODUCT_DEFINITION_SHAPE('',$,#1490);
#1488=SHAPE_REPRESENTATION('',(#888,#860,#861,#862,#863,#864,#865,#866),
#1480);
#1489=PRODUCT_DEFINITION_CONTEXT('part definition',#1494,'design');
#1490=PRODUCT_DEFINITION('GLR3030','GLR3030',#1491,#1489);
#1491=PRODUCT_DEFINITION_FORMATION('',$,#1496);
#1492=PRODUCT_RELATED_PRODUCT_CATEGORY('GLR3030','GLR3030',(#1496));
#1493=APPLICATION_PROTOCOL_DEFINITION('international standard',
'automotive_design',2009,#1494);
#1494=APPLICATION_CONTEXT(
'Core Data for Automotive Mechanical Design Process');
#1495=PRODUCT_CONTEXT('part definition',#1494,'mechanical');
#1496=PRODUCT('GLR3030','GLR3030',$,(#1495));
#1497=PRESENTATION_STYLE_ASSIGNMENT((#1499));
#1498=PRESENTATION_STYLE_ASSIGNMENT((#1500));
#1499=SURFACE_STYLE_USAGE(.BOTH.,#1505);
#1500=SURFACE_STYLE_USAGE(.BOTH.,#1506);
#1501=SURFACE_STYLE_RENDERING_WITH_PROPERTIES($,#1513,(#1503));
#1502=SURFACE_STYLE_RENDERING_WITH_PROPERTIES($,#1514,(#1504));
#1503=SURFACE_STYLE_TRANSPARENT(0.);
#1504=SURFACE_STYLE_TRANSPARENT(0.);
#1505=SURFACE_SIDE_STYLE('',(#1507,#1501));
#1506=SURFACE_SIDE_STYLE('',(#1508,#1502));
#1507=SURFACE_STYLE_FILL_AREA(#1509);
#1508=SURFACE_STYLE_FILL_AREA(#1510);
#1509=FILL_AREA_STYLE('',(#1511));
#1510=FILL_AREA_STYLE('',(#1512));
#1511=FILL_AREA_STYLE_COLOUR('',#1513);
#1512=FILL_AREA_STYLE_COLOUR('',#1514);
#1513=COLOUR_RGB('',0.749019607843137,0.749019607843137,0.749019607843137);
#1514=COLOUR_RGB('',0.698039215686274,0.698039215686274,0.698039215686274);
ENDSEC;
END-ISO-10303-21;
