ISO-10303-21;
HEADER;
/* Generated by software containing ST-Developer
 * from STEP Tools, Inc. (www.steptools.com) 
 */

FILE_DESCRIPTION(
/* description */ (''),
/* implementation_level */ '2;1');

FILE_NAME(
/* name */ 
'C:\\Users\\Jo\X\E3o Tinoco\\Desktop\\Wolweiss - STEP\\G. Door and Win
dow Elements\\17. GSD\\GSD082.3000KIT.step',
/* time_stamp */ '2024-04-30T14:01:48+01:00',
/* author */ ('project'),
/* organization */ (''),
/* preprocessor_version */ 'ST-DEVELOPER v19',
/* originating_system */ 'Autodesk Inventor 2023',
/* authorisation */ '');

FILE_SCHEMA (('AUTOMOTIVE_DESIGN { 1 0 10303 214 3 1 1 }'));
ENDSEC;

DATA;
#10=MECHANICAL_DESIGN_GEOMETRIC_PRESENTATION_REPRESENTATION('',(#17,#18,
#19,#20,#21,#22,#23,#24,#25,#26,#27,#28,#29,#30,#31,#32,#33,#34,#35,#36,
#37,#38,#39,#40,#41,#42,#43,#44,#45,#46,#47,#48,#49,#50,#51,#52,#53,#54,
#55,#56,#57,#58,#59,#60),#1647);
#11=APPLIED_GROUP_ASSIGNMENT(#12,(#16));
#12=GROUP('Composto1',$);
#13=SHAPE_REPRESENTATION_RELATIONSHIP('SRR','None',#1654,#14);
#14=ADVANCED_BREP_SHAPE_REPRESENTATION('',(#61,#62),#1646);
#15=OPEN_SHELL('',(#943,#944,#945,#946,#947,#948,#949,#950,#951,#952,#953,
#954,#955,#956,#957,#958,#959,#960,#961,#962,#963,#964,#965,#966,#967,#968,
#969,#970,#971,#972,#973,#974,#975,#976,#977,#978,#979,#980,#981,#982,#983,
#984));
#16=SHELL_BASED_SURFACE_MODEL('Sup1',(#15));
#17=STYLED_ITEM('',(#1664),#61);
#18=STYLED_ITEM('',(#1664),#62);
#19=STYLED_ITEM('',(#1664),#943);
#20=STYLED_ITEM('',(#1664),#944);
#21=STYLED_ITEM('',(#1664),#945);
#22=STYLED_ITEM('',(#1664),#946);
#23=STYLED_ITEM('',(#1664),#947);
#24=STYLED_ITEM('',(#1664),#948);
#25=STYLED_ITEM('',(#1664),#949);
#26=STYLED_ITEM('',(#1664),#950);
#27=STYLED_ITEM('',(#1664),#951);
#28=STYLED_ITEM('',(#1664),#952);
#29=STYLED_ITEM('',(#1664),#953);
#30=STYLED_ITEM('',(#1664),#954);
#31=STYLED_ITEM('',(#1664),#955);
#32=STYLED_ITEM('',(#1664),#956);
#33=STYLED_ITEM('',(#1664),#957);
#34=STYLED_ITEM('',(#1664),#958);
#35=STYLED_ITEM('',(#1664),#959);
#36=STYLED_ITEM('',(#1664),#960);
#37=STYLED_ITEM('',(#1664),#961);
#38=STYLED_ITEM('',(#1664),#962);
#39=STYLED_ITEM('',(#1664),#963);
#40=STYLED_ITEM('',(#1664),#964);
#41=STYLED_ITEM('',(#1664),#965);
#42=STYLED_ITEM('',(#1664),#966);
#43=STYLED_ITEM('',(#1664),#967);
#44=STYLED_ITEM('',(#1664),#968);
#45=STYLED_ITEM('',(#1664),#969);
#46=STYLED_ITEM('',(#1664),#970);
#47=STYLED_ITEM('',(#1664),#971);
#48=STYLED_ITEM('',(#1664),#972);
#49=STYLED_ITEM('',(#1664),#973);
#50=STYLED_ITEM('',(#1664),#974);
#51=STYLED_ITEM('',(#1664),#975);
#52=STYLED_ITEM('',(#1664),#976);
#53=STYLED_ITEM('',(#1664),#977);
#54=STYLED_ITEM('',(#1664),#978);
#55=STYLED_ITEM('',(#1664),#979);
#56=STYLED_ITEM('',(#1664),#980);
#57=STYLED_ITEM('',(#1664),#981);
#58=STYLED_ITEM('',(#1664),#982);
#59=STYLED_ITEM('',(#1664),#983);
#60=STYLED_ITEM('',(#1664),#984);
#61=MANIFOLD_SOLID_BREP('S\X\F3lido1',#985);
#62=MANIFOLD_SOLID_BREP('S\X\F3lido1',#986);
#63=PLANE('',#1012);
#64=PLANE('',#1013);
#65=PLANE('',#1014);
#66=PLANE('',#1018);
#67=PLANE('',#1022);
#68=PLANE('',#1023);
#69=PLANE('',#1024);
#70=PLANE('',#1025);
#71=PLANE('',#1026);
#72=PLANE('',#1030);
#73=PLANE('',#1034);
#74=PLANE('',#1035);
#75=PLANE('',#1036);
#76=PLANE('',#1037);
#77=PLANE('',#1038);
#78=PLANE('',#1042);
#79=PLANE('',#1046);
#80=PLANE('',#1050);
#81=PLANE('',#1051);
#82=PLANE('',#1052);
#83=PLANE('',#1053);
#84=PLANE('',#1057);
#85=PLANE('',#1058);
#86=PLANE('',#1062);
#87=PLANE('',#1066);
#88=PLANE('',#1067);
#89=PLANE('',#1068);
#90=PLANE('',#1069);
#91=PLANE('',#1070);
#92=PLANE('',#1071);
#93=PLANE('',#1075);
#94=PLANE('',#1079);
#95=PLANE('',#1080);
#96=PLANE('',#1088);
#97=FACE_OUTER_BOUND('',#145,.T.);
#98=FACE_OUTER_BOUND('',#146,.T.);
#99=FACE_OUTER_BOUND('',#147,.T.);
#100=FACE_OUTER_BOUND('',#148,.T.);
#101=FACE_OUTER_BOUND('',#149,.T.);
#102=FACE_OUTER_BOUND('',#150,.T.);
#103=FACE_OUTER_BOUND('',#151,.T.);
#104=FACE_OUTER_BOUND('',#152,.T.);
#105=FACE_OUTER_BOUND('',#153,.T.);
#106=FACE_OUTER_BOUND('',#154,.T.);
#107=FACE_OUTER_BOUND('',#155,.T.);
#108=FACE_OUTER_BOUND('',#156,.T.);
#109=FACE_OUTER_BOUND('',#157,.T.);
#110=FACE_OUTER_BOUND('',#158,.T.);
#111=FACE_OUTER_BOUND('',#159,.T.);
#112=FACE_OUTER_BOUND('',#160,.T.);
#113=FACE_OUTER_BOUND('',#161,.T.);
#114=FACE_OUTER_BOUND('',#162,.T.);
#115=FACE_OUTER_BOUND('',#163,.T.);
#116=FACE_OUTER_BOUND('',#164,.T.);
#117=FACE_OUTER_BOUND('',#165,.T.);
#118=FACE_OUTER_BOUND('',#166,.T.);
#119=FACE_OUTER_BOUND('',#167,.T.);
#120=FACE_OUTER_BOUND('',#168,.T.);
#121=FACE_OUTER_BOUND('',#169,.T.);
#122=FACE_OUTER_BOUND('',#170,.T.);
#123=FACE_OUTER_BOUND('',#171,.T.);
#124=FACE_OUTER_BOUND('',#172,.T.);
#125=FACE_OUTER_BOUND('',#173,.T.);
#126=FACE_OUTER_BOUND('',#174,.T.);
#127=FACE_OUTER_BOUND('',#175,.T.);
#128=FACE_OUTER_BOUND('',#176,.T.);
#129=FACE_OUTER_BOUND('',#177,.T.);
#130=FACE_OUTER_BOUND('',#178,.T.);
#131=FACE_OUTER_BOUND('',#179,.T.);
#132=FACE_OUTER_BOUND('',#180,.T.);
#133=FACE_OUTER_BOUND('',#181,.T.);
#134=FACE_OUTER_BOUND('',#182,.T.);
#135=FACE_OUTER_BOUND('',#183,.T.);
#136=FACE_OUTER_BOUND('',#184,.T.);
#137=FACE_OUTER_BOUND('',#185,.T.);
#138=FACE_OUTER_BOUND('',#186,.T.);
#139=FACE_OUTER_BOUND('',#187,.T.);
#140=FACE_OUTER_BOUND('',#188,.T.);
#141=FACE_OUTER_BOUND('',#189,.T.);
#142=FACE_OUTER_BOUND('',#190,.T.);
#143=FACE_OUTER_BOUND('',#191,.T.);
#144=FACE_OUTER_BOUND('',#192,.T.);
#145=EDGE_LOOP('',(#663,#664,#665,#666));
#146=EDGE_LOOP('',(#667));
#147=EDGE_LOOP('',(#668));
#148=EDGE_LOOP('',(#669));
#149=EDGE_LOOP('',(#670,#671,#672,#673));
#150=EDGE_LOOP('',(#674));
#151=EDGE_LOOP('',(#675,#676,#677,#678));
#152=EDGE_LOOP('',(#679,#680,#681,#682));
#153=EDGE_LOOP('',(#683,#684,#685,#686));
#154=EDGE_LOOP('',(#687,#688,#689,#690));
#155=EDGE_LOOP('',(#691,#692,#693,#694));
#156=EDGE_LOOP('',(#695,#696,#697,#698));
#157=EDGE_LOOP('',(#699,#700,#701,#702));
#158=EDGE_LOOP('',(#703,#704,#705,#706));
#159=EDGE_LOOP('',(#707,#708,#709,#710));
#160=EDGE_LOOP('',(#711,#712,#713,#714));
#161=EDGE_LOOP('',(#715,#716,#717,#718));
#162=EDGE_LOOP('',(#719,#720,#721,#722));
#163=EDGE_LOOP('',(#723,#724,#725,#726));
#164=EDGE_LOOP('',(#727,#728,#729,#730));
#165=EDGE_LOOP('',(#731,#732,#733,#734));
#166=EDGE_LOOP('',(#735,#736,#737,#738));
#167=EDGE_LOOP('',(#739,#740,#741,#742));
#168=EDGE_LOOP('',(#743,#744,#745,#746));
#169=EDGE_LOOP('',(#747,#748,#749,#750));
#170=EDGE_LOOP('',(#751,#752,#753,#754));
#171=EDGE_LOOP('',(#755,#756,#757,#758));
#172=EDGE_LOOP('',(#759,#760,#761,#762));
#173=EDGE_LOOP('',(#763,#764,#765,#766));
#174=EDGE_LOOP('',(#767,#768,#769,#770));
#175=EDGE_LOOP('',(#771,#772,#773,#774));
#176=EDGE_LOOP('',(#775,#776,#777,#778));
#177=EDGE_LOOP('',(#779,#780,#781,#782));
#178=EDGE_LOOP('',(#783,#784,#785,#786));
#179=EDGE_LOOP('',(#787,#788,#789,#790));
#180=EDGE_LOOP('',(#791,#792,#793,#794));
#181=EDGE_LOOP('',(#795,#796,#797,#798));
#182=EDGE_LOOP('',(#799,#800,#801,#802));
#183=EDGE_LOOP('',(#803,#804,#805,#806));
#184=EDGE_LOOP('',(#807,#808,#809,#810));
#185=EDGE_LOOP('',(#811,#812,#813,#814));
#186=EDGE_LOOP('',(#815,#816,#817,#818));
#187=EDGE_LOOP('',(#819,#820,#821,#822));
#188=EDGE_LOOP('',(#823,#824,#825,#826));
#189=EDGE_LOOP('',(#827,#828,#829,#830));
#190=EDGE_LOOP('',(#831,#832,#833,#834,#835,#836,#837,#838,#839,#840,#841,
#842,#843,#844,#845,#846,#847,#848,#849,#850,#851,#852,#853,#854,#855,#856,
#857,#858,#859,#860,#861,#862,#863,#864,#865,#866,#867,#868,#869,#870,#871,
#872,#873,#874));
#191=EDGE_LOOP('',(#875,#876,#877,#878));
#192=EDGE_LOOP('',(#879,#880,#881,#882,#883,#884,#885,#886,#887,#888,#889,
#890,#891,#892,#893,#894,#895,#896,#897,#898,#899,#900,#901,#902,#903,#904,
#905,#906,#907,#908,#909,#910,#911,#912,#913,#914,#915,#916,#917,#918,#919,
#920,#921,#922));
#193=LINE('',#1370,#295);
#194=LINE('',#1380,#296);
#195=LINE('',#1387,#297);
#196=LINE('',#1390,#298);
#197=LINE('',#1394,#299);
#198=LINE('',#1396,#300);
#199=LINE('',#1398,#301);
#200=LINE('',#1399,#302);
#201=LINE('',#1402,#303);
#202=LINE('',#1404,#304);
#203=LINE('',#1405,#305);
#204=LINE('',#1409,#306);
#205=LINE('',#1411,#307);
#206=LINE('',#1413,#308);
#207=LINE('',#1414,#309);
#208=LINE('',#1418,#310);
#209=LINE('',#1420,#311);
#210=LINE('',#1422,#312);
#211=LINE('',#1423,#313);
#212=LINE('',#1426,#314);
#213=LINE('',#1428,#315);
#214=LINE('',#1429,#316);
#215=LINE('',#1434,#317);
#216=LINE('',#1438,#318);
#217=LINE('',#1440,#319);
#218=LINE('',#1441,#320);
#219=LINE('',#1446,#321);
#220=LINE('',#1450,#322);
#221=LINE('',#1452,#323);
#222=LINE('',#1453,#324);
#223=LINE('',#1456,#325);
#224=LINE('',#1458,#326);
#225=LINE('',#1459,#327);
#226=LINE('',#1463,#328);
#227=LINE('',#1465,#329);
#228=LINE('',#1467,#330);
#229=LINE('',#1468,#331);
#230=LINE('',#1472,#332);
#231=LINE('',#1474,#333);
#232=LINE('',#1476,#334);
#233=LINE('',#1477,#335);
#234=LINE('',#1480,#336);
#235=LINE('',#1482,#337);
#236=LINE('',#1483,#338);
#237=LINE('',#1488,#339);
#238=LINE('',#1492,#340);
#239=LINE('',#1494,#341);
#240=LINE('',#1495,#342);
#241=LINE('',#1500,#343);
#242=LINE('',#1504,#344);
#243=LINE('',#1506,#345);
#244=LINE('',#1507,#346);
#245=LINE('',#1512,#347);
#246=LINE('',#1516,#348);
#247=LINE('',#1518,#349);
#248=LINE('',#1519,#350);
#249=LINE('',#1522,#351);
#250=LINE('',#1524,#352);
#251=LINE('',#1525,#353);
#252=LINE('',#1528,#354);
#253=LINE('',#1530,#355);
#254=LINE('',#1531,#356);
#255=LINE('',#1534,#357);
#256=LINE('',#1536,#358);
#257=LINE('',#1537,#359);
#258=LINE('',#1542,#360);
#259=LINE('',#1546,#361);
#260=LINE('',#1548,#362);
#261=LINE('',#1549,#363);
#262=LINE('',#1552,#364);
#263=LINE('',#1554,#365);
#264=LINE('',#1555,#366);
#265=LINE('',#1560,#367);
#266=LINE('',#1564,#368);
#267=LINE('',#1566,#369);
#268=LINE('',#1567,#370);
#269=LINE('',#1572,#371);
#270=LINE('',#1576,#372);
#271=LINE('',#1578,#373);
#272=LINE('',#1579,#374);
#273=LINE('',#1581,#375);
#274=LINE('',#1582,#376);
#275=LINE('',#1585,#377);
#276=LINE('',#1587,#378);
#277=LINE('',#1588,#379);
#278=LINE('',#1591,#380);
#279=LINE('',#1593,#381);
#280=LINE('',#1594,#382);
#281=LINE('',#1597,#383);
#282=LINE('',#1599,#384);
#283=LINE('',#1600,#385);
#284=LINE('',#1603,#386);
#285=LINE('',#1605,#387);
#286=LINE('',#1606,#388);
#287=LINE('',#1611,#389);
#288=LINE('',#1615,#390);
#289=LINE('',#1617,#391);
#290=LINE('',#1618,#392);
#291=LINE('',#1623,#393);
#292=LINE('',#1627,#394);
#293=LINE('',#1629,#395);
#294=LINE('',#1630,#396);
#295=VECTOR('',#1099,0.004);
#296=VECTOR('',#1114,0.004);
#297=VECTOR('',#1121,1.);
#298=VECTOR('',#1124,1.);
#299=VECTOR('',#1127,0.00190630193338332);
#300=VECTOR('',#1128,1.);
#301=VECTOR('',#1129,0.00190630193338332);
#302=VECTOR('',#1130,1.);
#303=VECTOR('',#1133,0.0140000000000018);
#304=VECTOR('',#1134,1.);
#305=VECTOR('',#1135,0.0140000000000018);
#306=VECTOR('',#1138,0.0075);
#307=VECTOR('',#1139,1.);
#308=VECTOR('',#1140,0.0075);
#309=VECTOR('',#1141,1.);
#310=VECTOR('',#1144,0.0140000000000018);
#311=VECTOR('',#1145,1.);
#312=VECTOR('',#1146,0.0140000000000018);
#313=VECTOR('',#1147,1.);
#314=VECTOR('',#1150,0.00190539753152774);
#315=VECTOR('',#1151,1.);
#316=VECTOR('',#1152,0.00190539753152774);
#317=VECTOR('',#1157,1.);
#318=VECTOR('',#1162,0.00068506795883805);
#319=VECTOR('',#1163,1.);
#320=VECTOR('',#1164,0.00068506795883805);
#321=VECTOR('',#1169,1.);
#322=VECTOR('',#1174,0.00190603503016964);
#323=VECTOR('',#1175,1.);
#324=VECTOR('',#1176,0.00190603503016964);
#325=VECTOR('',#1179,0.0140000002454336);
#326=VECTOR('',#1180,1.);
#327=VECTOR('',#1181,0.0140000002454336);
#328=VECTOR('',#1184,0.00750262147859396);
#329=VECTOR('',#1185,1.);
#330=VECTOR('',#1186,0.00750262147859396);
#331=VECTOR('',#1187,1.);
#332=VECTOR('',#1190,0.0140000000000018);
#333=VECTOR('',#1191,1.);
#334=VECTOR('',#1192,0.0140000000000018);
#335=VECTOR('',#1193,1.);
#336=VECTOR('',#1196,0.00190539753152834);
#337=VECTOR('',#1197,1.);
#338=VECTOR('',#1198,0.00190539753152834);
#339=VECTOR('',#1203,1.);
#340=VECTOR('',#1208,0.0016438447187211);
#341=VECTOR('',#1209,1.);
#342=VECTOR('',#1210,0.0016438447187211);
#343=VECTOR('',#1215,1.);
#344=VECTOR('',#1220,0.0188000000000002);
#345=VECTOR('',#1221,1.);
#346=VECTOR('',#1222,0.0188000000000002);
#347=VECTOR('',#1227,1.);
#348=VECTOR('',#1232,0.00828791935755724);
#349=VECTOR('',#1233,1.);
#350=VECTOR('',#1234,0.00828791935755724);
#351=VECTOR('',#1237,0.0022339385461495);
#352=VECTOR('',#1238,1.);
#353=VECTOR('',#1239,0.0022339385461495);
#354=VECTOR('',#1242,0.000591480276433197);
#355=VECTOR('',#1243,1.);
#356=VECTOR('',#1244,0.000591480276433197);
#357=VECTOR('',#1247,0.00206433096183266);
#358=VECTOR('',#1248,1.);
#359=VECTOR('',#1249,0.00206433096183266);
#360=VECTOR('',#1254,1.);
#361=VECTOR('',#1259,0.00138564064605142);
#362=VECTOR('',#1260,1.);
#363=VECTOR('',#1261,0.00138564064605142);
#364=VECTOR('',#1264,0.00242364469769476);
#365=VECTOR('',#1265,1.);
#366=VECTOR('',#1266,0.00242364469769476);
#367=VECTOR('',#1271,1.);
#368=VECTOR('',#1276,0.00455420842993408);
#369=VECTOR('',#1277,1.);
#370=VECTOR('',#1278,0.00455420842993408);
#371=VECTOR('',#1283,1.);
#372=VECTOR('',#1288,0.00242364469769522);
#373=VECTOR('',#1289,1.);
#374=VECTOR('',#1290,0.00242364469769522);
#375=VECTOR('',#1293,0.00138564064605054);
#376=VECTOR('',#1294,0.00138564064605054);
#377=VECTOR('',#1297,0.00206433096183299);
#378=VECTOR('',#1298,1.);
#379=VECTOR('',#1299,0.00206433096183299);
#380=VECTOR('',#1302,0.000591480276431615);
#381=VECTOR('',#1303,1.);
#382=VECTOR('',#1304,0.000591480276431615);
#383=VECTOR('',#1307,0.00223393854615066);
#384=VECTOR('',#1308,1.);
#385=VECTOR('',#1309,0.00223393854615066);
#386=VECTOR('',#1312,0.00828791935755725);
#387=VECTOR('',#1313,1.);
#388=VECTOR('',#1314,0.00828791935755725);
#389=VECTOR('',#1319,1.);
#390=VECTOR('',#1324,0.0188000000000001);
#391=VECTOR('',#1325,1.);
#392=VECTOR('',#1326,0.0188000000000001);
#393=VECTOR('',#1331,1.);
#394=VECTOR('',#1336,0.00164122305654745);
#395=VECTOR('',#1337,1.);
#396=VECTOR('',#1338,0.00164122305654745);
#397=CIRCLE('',#1010,0.004);
#398=CIRCLE('',#1011,0.004);
#399=CIRCLE('',#1015,0.004);
#400=CIRCLE('',#1017,0.004);
#401=CIRCLE('',#1020,0.000500000000000002);
#402=CIRCLE('',#1021,0.000500000000000002);
#403=CIRCLE('',#1028,0.000200000000000004);
#404=CIRCLE('',#1029,0.000200000000000004);
#405=CIRCLE('',#1032,0.00020000000000099);
#406=CIRCLE('',#1033,0.00020000000000099);
#407=CIRCLE('',#1040,0.000199999999999229);
#408=CIRCLE('',#1041,0.000199999999999229);
#409=CIRCLE('',#1044,0.000199999999999905);
#410=CIRCLE('',#1045,0.000199999999999905);
#411=CIRCLE('',#1048,0.001);
#412=CIRCLE('',#1049,0.001);
#413=CIRCLE('',#1055,0.000499999999999948);
#414=CIRCLE('',#1056,0.000499999999999948);
#415=CIRCLE('',#1060,0.000499999999999999);
#416=CIRCLE('',#1061,0.000499999999999999);
#417=CIRCLE('',#1064,0.000500000000000001);
#418=CIRCLE('',#1065,0.000500000000000001);
#419=CIRCLE('',#1073,0.000999999999999545);
#420=CIRCLE('',#1074,0.000999999999999545);
#421=CIRCLE('',#1077,0.000200000000000365);
#422=CIRCLE('',#1078,0.000200000000000365);
#423=CIRCLE('',#1081,0.000200000000000364);
#424=CIRCLE('',#1082,0.000999999999999996);
#425=CIRCLE('',#1083,0.000999999999999997);
#426=CIRCLE('',#1084,0.000999999999999996);
#427=CIRCLE('',#1085,0.000999999999999996);
#428=CIRCLE('',#1087,0.000200000000000364);
#429=CIRCLE('',#1089,0.000999999999999996);
#430=CIRCLE('',#1090,0.000999999999999996);
#431=CIRCLE('',#1091,0.000999999999999997);
#432=CIRCLE('',#1092,0.000999999999999996);
#433=VERTEX_POINT('',#1367);
#434=VERTEX_POINT('',#1369);
#435=VERTEX_POINT('',#1375);
#436=VERTEX_POINT('',#1378);
#437=VERTEX_POINT('',#1383);
#438=VERTEX_POINT('',#1384);
#439=VERTEX_POINT('',#1386);
#440=VERTEX_POINT('',#1388);
#441=VERTEX_POINT('',#1392);
#442=VERTEX_POINT('',#1393);
#443=VERTEX_POINT('',#1395);
#444=VERTEX_POINT('',#1397);
#445=VERTEX_POINT('',#1401);
#446=VERTEX_POINT('',#1403);
#447=VERTEX_POINT('',#1407);
#448=VERTEX_POINT('',#1408);
#449=VERTEX_POINT('',#1410);
#450=VERTEX_POINT('',#1412);
#451=VERTEX_POINT('',#1416);
#452=VERTEX_POINT('',#1417);
#453=VERTEX_POINT('',#1419);
#454=VERTEX_POINT('',#1421);
#455=VERTEX_POINT('',#1425);
#456=VERTEX_POINT('',#1427);
#457=VERTEX_POINT('',#1431);
#458=VERTEX_POINT('',#1433);
#459=VERTEX_POINT('',#1437);
#460=VERTEX_POINT('',#1439);
#461=VERTEX_POINT('',#1443);
#462=VERTEX_POINT('',#1445);
#463=VERTEX_POINT('',#1449);
#464=VERTEX_POINT('',#1451);
#465=VERTEX_POINT('',#1455);
#466=VERTEX_POINT('',#1457);
#467=VERTEX_POINT('',#1461);
#468=VERTEX_POINT('',#1462);
#469=VERTEX_POINT('',#1464);
#470=VERTEX_POINT('',#1466);
#471=VERTEX_POINT('',#1470);
#472=VERTEX_POINT('',#1471);
#473=VERTEX_POINT('',#1473);
#474=VERTEX_POINT('',#1475);
#475=VERTEX_POINT('',#1479);
#476=VERTEX_POINT('',#1481);
#477=VERTEX_POINT('',#1485);
#478=VERTEX_POINT('',#1487);
#479=VERTEX_POINT('',#1491);
#480=VERTEX_POINT('',#1493);
#481=VERTEX_POINT('',#1497);
#482=VERTEX_POINT('',#1499);
#483=VERTEX_POINT('',#1503);
#484=VERTEX_POINT('',#1505);
#485=VERTEX_POINT('',#1509);
#486=VERTEX_POINT('',#1511);
#487=VERTEX_POINT('',#1515);
#488=VERTEX_POINT('',#1517);
#489=VERTEX_POINT('',#1521);
#490=VERTEX_POINT('',#1523);
#491=VERTEX_POINT('',#1527);
#492=VERTEX_POINT('',#1529);
#493=VERTEX_POINT('',#1533);
#494=VERTEX_POINT('',#1535);
#495=VERTEX_POINT('',#1539);
#496=VERTEX_POINT('',#1541);
#497=VERTEX_POINT('',#1545);
#498=VERTEX_POINT('',#1547);
#499=VERTEX_POINT('',#1551);
#500=VERTEX_POINT('',#1553);
#501=VERTEX_POINT('',#1557);
#502=VERTEX_POINT('',#1559);
#503=VERTEX_POINT('',#1563);
#504=VERTEX_POINT('',#1565);
#505=VERTEX_POINT('',#1569);
#506=VERTEX_POINT('',#1571);
#507=VERTEX_POINT('',#1575);
#508=VERTEX_POINT('',#1577);
#509=VERTEX_POINT('',#1584);
#510=VERTEX_POINT('',#1586);
#511=VERTEX_POINT('',#1590);
#512=VERTEX_POINT('',#1592);
#513=VERTEX_POINT('',#1596);
#514=VERTEX_POINT('',#1598);
#515=VERTEX_POINT('',#1602);
#516=VERTEX_POINT('',#1604);
#517=VERTEX_POINT('',#1608);
#518=VERTEX_POINT('',#1610);
#519=VERTEX_POINT('',#1614);
#520=VERTEX_POINT('',#1616);
#521=VERTEX_POINT('',#1620);
#522=VERTEX_POINT('',#1622);
#523=VERTEX_POINT('',#1626);
#524=VERTEX_POINT('',#1628);
#525=EDGE_CURVE('',#433,#433,#397,.T.);
#526=EDGE_CURVE('',#433,#434,#193,.T.);
#527=EDGE_CURVE('',#434,#434,#398,.T.);
#528=EDGE_CURVE('',#435,#435,#399,.T.);
#529=EDGE_CURVE('',#436,#436,#400,.T.);
#530=EDGE_CURVE('',#436,#435,#194,.T.);
#531=EDGE_CURVE('',#437,#438,#401,.T.);
#532=EDGE_CURVE('',#437,#439,#195,.T.);
#533=EDGE_CURVE('',#439,#440,#402,.T.);
#534=EDGE_CURVE('',#438,#440,#196,.T.);
#535=EDGE_CURVE('',#441,#442,#197,.T.);
#536=EDGE_CURVE('',#443,#442,#198,.T.);
#537=EDGE_CURVE('',#444,#443,#199,.T.);
#538=EDGE_CURVE('',#444,#441,#200,.T.);
#539=EDGE_CURVE('',#442,#445,#201,.T.);
#540=EDGE_CURVE('',#446,#445,#202,.T.);
#541=EDGE_CURVE('',#443,#446,#203,.T.);
#542=EDGE_CURVE('',#447,#448,#204,.T.);
#543=EDGE_CURVE('',#449,#448,#205,.T.);
#544=EDGE_CURVE('',#450,#449,#206,.T.);
#545=EDGE_CURVE('',#450,#447,#207,.T.);
#546=EDGE_CURVE('',#451,#452,#208,.T.);
#547=EDGE_CURVE('',#453,#452,#209,.T.);
#548=EDGE_CURVE('',#454,#453,#210,.T.);
#549=EDGE_CURVE('',#454,#451,#211,.T.);
#550=EDGE_CURVE('',#452,#455,#212,.T.);
#551=EDGE_CURVE('',#456,#455,#213,.T.);
#552=EDGE_CURVE('',#453,#456,#214,.T.);
#553=EDGE_CURVE('',#455,#457,#403,.T.);
#554=EDGE_CURVE('',#458,#457,#215,.T.);
#555=EDGE_CURVE('',#456,#458,#404,.T.);
#556=EDGE_CURVE('',#457,#459,#216,.T.);
#557=EDGE_CURVE('',#460,#459,#217,.T.);
#558=EDGE_CURVE('',#458,#460,#218,.T.);
#559=EDGE_CURVE('',#459,#461,#405,.T.);
#560=EDGE_CURVE('',#462,#461,#219,.T.);
#561=EDGE_CURVE('',#460,#462,#406,.T.);
#562=EDGE_CURVE('',#461,#463,#220,.T.);
#563=EDGE_CURVE('',#464,#463,#221,.T.);
#564=EDGE_CURVE('',#462,#464,#222,.T.);
#565=EDGE_CURVE('',#463,#465,#223,.T.);
#566=EDGE_CURVE('',#466,#465,#224,.T.);
#567=EDGE_CURVE('',#464,#466,#225,.T.);
#568=EDGE_CURVE('',#467,#468,#226,.T.);
#569=EDGE_CURVE('',#469,#468,#227,.T.);
#570=EDGE_CURVE('',#470,#469,#228,.T.);
#571=EDGE_CURVE('',#470,#467,#229,.T.);
#572=EDGE_CURVE('',#471,#472,#230,.T.);
#573=EDGE_CURVE('',#473,#472,#231,.T.);
#574=EDGE_CURVE('',#474,#473,#232,.T.);
#575=EDGE_CURVE('',#474,#471,#233,.T.);
#576=EDGE_CURVE('',#472,#475,#234,.T.);
#577=EDGE_CURVE('',#476,#475,#235,.T.);
#578=EDGE_CURVE('',#473,#476,#236,.T.);
#579=EDGE_CURVE('',#475,#477,#407,.T.);
#580=EDGE_CURVE('',#478,#477,#237,.T.);
#581=EDGE_CURVE('',#476,#478,#408,.T.);
#582=EDGE_CURVE('',#477,#479,#238,.T.);
#583=EDGE_CURVE('',#480,#479,#239,.T.);
#584=EDGE_CURVE('',#478,#480,#240,.T.);
#585=EDGE_CURVE('',#479,#481,#409,.T.);
#586=EDGE_CURVE('',#482,#481,#241,.T.);
#587=EDGE_CURVE('',#480,#482,#410,.T.);
#588=EDGE_CURVE('',#481,#483,#242,.T.);
#589=EDGE_CURVE('',#484,#483,#243,.T.);
#590=EDGE_CURVE('',#482,#484,#244,.T.);
#591=EDGE_CURVE('',#483,#485,#411,.T.);
#592=EDGE_CURVE('',#486,#485,#245,.T.);
#593=EDGE_CURVE('',#484,#486,#412,.T.);
#594=EDGE_CURVE('',#485,#487,#246,.T.);
#595=EDGE_CURVE('',#488,#487,#247,.T.);
#596=EDGE_CURVE('',#486,#488,#248,.T.);
#597=EDGE_CURVE('',#487,#489,#249,.T.);
#598=EDGE_CURVE('',#490,#489,#250,.T.);
#599=EDGE_CURVE('',#488,#490,#251,.T.);
#600=EDGE_CURVE('',#489,#491,#252,.T.);
#601=EDGE_CURVE('',#492,#491,#253,.T.);
#602=EDGE_CURVE('',#490,#492,#254,.T.);
#603=EDGE_CURVE('',#491,#493,#255,.T.);
#604=EDGE_CURVE('',#494,#493,#256,.T.);
#605=EDGE_CURVE('',#492,#494,#257,.T.);
#606=EDGE_CURVE('',#493,#495,#413,.T.);
#607=EDGE_CURVE('',#496,#495,#258,.T.);
#608=EDGE_CURVE('',#494,#496,#414,.T.);
#609=EDGE_CURVE('',#495,#497,#259,.T.);
#610=EDGE_CURVE('',#498,#497,#260,.T.);
#611=EDGE_CURVE('',#496,#498,#261,.T.);
#612=EDGE_CURVE('',#497,#499,#262,.T.);
#613=EDGE_CURVE('',#500,#499,#263,.T.);
#614=EDGE_CURVE('',#498,#500,#264,.T.);
#615=EDGE_CURVE('',#499,#501,#415,.T.);
#616=EDGE_CURVE('',#502,#501,#265,.T.);
#617=EDGE_CURVE('',#500,#502,#416,.T.);
#618=EDGE_CURVE('',#501,#503,#266,.T.);
#619=EDGE_CURVE('',#504,#503,#267,.T.);
#620=EDGE_CURVE('',#502,#504,#268,.T.);
#621=EDGE_CURVE('',#503,#505,#417,.T.);
#622=EDGE_CURVE('',#506,#505,#269,.T.);
#623=EDGE_CURVE('',#504,#506,#418,.T.);
#624=EDGE_CURVE('',#505,#507,#270,.T.);
#625=EDGE_CURVE('',#508,#507,#271,.T.);
#626=EDGE_CURVE('',#506,#508,#272,.T.);
#627=EDGE_CURVE('',#507,#439,#273,.T.);
#628=EDGE_CURVE('',#508,#437,#274,.T.);
#629=EDGE_CURVE('',#440,#509,#275,.T.);
#630=EDGE_CURVE('',#510,#509,#276,.T.);
#631=EDGE_CURVE('',#438,#510,#277,.T.);
#632=EDGE_CURVE('',#509,#511,#278,.T.);
#633=EDGE_CURVE('',#512,#511,#279,.T.);
#634=EDGE_CURVE('',#510,#512,#280,.T.);
#635=EDGE_CURVE('',#511,#513,#281,.T.);
#636=EDGE_CURVE('',#514,#513,#282,.T.);
#637=EDGE_CURVE('',#512,#514,#283,.T.);
#638=EDGE_CURVE('',#513,#515,#284,.T.);
#639=EDGE_CURVE('',#516,#515,#285,.T.);
#640=EDGE_CURVE('',#514,#516,#286,.T.);
#641=EDGE_CURVE('',#515,#517,#419,.T.);
#642=EDGE_CURVE('',#518,#517,#287,.T.);
#643=EDGE_CURVE('',#516,#518,#420,.T.);
#644=EDGE_CURVE('',#517,#519,#288,.T.);
#645=EDGE_CURVE('',#520,#519,#289,.T.);
#646=EDGE_CURVE('',#518,#520,#290,.T.);
#647=EDGE_CURVE('',#519,#521,#421,.T.);
#648=EDGE_CURVE('',#522,#521,#291,.T.);
#649=EDGE_CURVE('',#520,#522,#422,.T.);
#650=EDGE_CURVE('',#521,#523,#292,.T.);
#651=EDGE_CURVE('',#524,#523,#293,.T.);
#652=EDGE_CURVE('',#522,#524,#294,.T.);
#653=EDGE_CURVE('',#523,#441,#423,.T.);
#654=EDGE_CURVE('',#468,#471,#424,.T.);
#655=EDGE_CURVE('',#465,#467,#425,.T.);
#656=EDGE_CURVE('',#448,#451,#426,.T.);
#657=EDGE_CURVE('',#445,#447,#427,.T.);
#658=EDGE_CURVE('',#524,#444,#428,.T.);
#659=EDGE_CURVE('',#446,#450,#429,.T.);
#660=EDGE_CURVE('',#449,#454,#430,.T.);
#661=EDGE_CURVE('',#466,#470,#431,.T.);
#662=EDGE_CURVE('',#469,#474,#432,.T.);
#663=ORIENTED_EDGE('',*,*,#525,.T.);
#664=ORIENTED_EDGE('',*,*,#526,.T.);
#665=ORIENTED_EDGE('',*,*,#527,.F.);
#666=ORIENTED_EDGE('',*,*,#526,.F.);
#667=ORIENTED_EDGE('',*,*,#525,.F.);
#668=ORIENTED_EDGE('',*,*,#527,.T.);
#669=ORIENTED_EDGE('',*,*,#528,.T.);
#670=ORIENTED_EDGE('',*,*,#529,.T.);
#671=ORIENTED_EDGE('',*,*,#530,.T.);
#672=ORIENTED_EDGE('',*,*,#528,.F.);
#673=ORIENTED_EDGE('',*,*,#530,.F.);
#674=ORIENTED_EDGE('',*,*,#529,.F.);
#675=ORIENTED_EDGE('',*,*,#531,.F.);
#676=ORIENTED_EDGE('',*,*,#532,.T.);
#677=ORIENTED_EDGE('',*,*,#533,.T.);
#678=ORIENTED_EDGE('',*,*,#534,.F.);
#679=ORIENTED_EDGE('',*,*,#535,.T.);
#680=ORIENTED_EDGE('',*,*,#536,.F.);
#681=ORIENTED_EDGE('',*,*,#537,.F.);
#682=ORIENTED_EDGE('',*,*,#538,.T.);
#683=ORIENTED_EDGE('',*,*,#539,.T.);
#684=ORIENTED_EDGE('',*,*,#540,.F.);
#685=ORIENTED_EDGE('',*,*,#541,.F.);
#686=ORIENTED_EDGE('',*,*,#536,.T.);
#687=ORIENTED_EDGE('',*,*,#542,.T.);
#688=ORIENTED_EDGE('',*,*,#543,.F.);
#689=ORIENTED_EDGE('',*,*,#544,.F.);
#690=ORIENTED_EDGE('',*,*,#545,.T.);
#691=ORIENTED_EDGE('',*,*,#546,.T.);
#692=ORIENTED_EDGE('',*,*,#547,.F.);
#693=ORIENTED_EDGE('',*,*,#548,.F.);
#694=ORIENTED_EDGE('',*,*,#549,.T.);
#695=ORIENTED_EDGE('',*,*,#550,.T.);
#696=ORIENTED_EDGE('',*,*,#551,.F.);
#697=ORIENTED_EDGE('',*,*,#552,.F.);
#698=ORIENTED_EDGE('',*,*,#547,.T.);
#699=ORIENTED_EDGE('',*,*,#553,.T.);
#700=ORIENTED_EDGE('',*,*,#554,.F.);
#701=ORIENTED_EDGE('',*,*,#555,.F.);
#702=ORIENTED_EDGE('',*,*,#551,.T.);
#703=ORIENTED_EDGE('',*,*,#556,.T.);
#704=ORIENTED_EDGE('',*,*,#557,.F.);
#705=ORIENTED_EDGE('',*,*,#558,.F.);
#706=ORIENTED_EDGE('',*,*,#554,.T.);
#707=ORIENTED_EDGE('',*,*,#559,.T.);
#708=ORIENTED_EDGE('',*,*,#560,.F.);
#709=ORIENTED_EDGE('',*,*,#561,.F.);
#710=ORIENTED_EDGE('',*,*,#557,.T.);
#711=ORIENTED_EDGE('',*,*,#562,.T.);
#712=ORIENTED_EDGE('',*,*,#563,.F.);
#713=ORIENTED_EDGE('',*,*,#564,.F.);
#714=ORIENTED_EDGE('',*,*,#560,.T.);
#715=ORIENTED_EDGE('',*,*,#565,.T.);
#716=ORIENTED_EDGE('',*,*,#566,.F.);
#717=ORIENTED_EDGE('',*,*,#567,.F.);
#718=ORIENTED_EDGE('',*,*,#563,.T.);
#719=ORIENTED_EDGE('',*,*,#568,.T.);
#720=ORIENTED_EDGE('',*,*,#569,.F.);
#721=ORIENTED_EDGE('',*,*,#570,.F.);
#722=ORIENTED_EDGE('',*,*,#571,.T.);
#723=ORIENTED_EDGE('',*,*,#572,.T.);
#724=ORIENTED_EDGE('',*,*,#573,.F.);
#725=ORIENTED_EDGE('',*,*,#574,.F.);
#726=ORIENTED_EDGE('',*,*,#575,.T.);
#727=ORIENTED_EDGE('',*,*,#576,.T.);
#728=ORIENTED_EDGE('',*,*,#577,.F.);
#729=ORIENTED_EDGE('',*,*,#578,.F.);
#730=ORIENTED_EDGE('',*,*,#573,.T.);
#731=ORIENTED_EDGE('',*,*,#579,.T.);
#732=ORIENTED_EDGE('',*,*,#580,.F.);
#733=ORIENTED_EDGE('',*,*,#581,.F.);
#734=ORIENTED_EDGE('',*,*,#577,.T.);
#735=ORIENTED_EDGE('',*,*,#582,.T.);
#736=ORIENTED_EDGE('',*,*,#583,.F.);
#737=ORIENTED_EDGE('',*,*,#584,.F.);
#738=ORIENTED_EDGE('',*,*,#580,.T.);
#739=ORIENTED_EDGE('',*,*,#585,.T.);
#740=ORIENTED_EDGE('',*,*,#586,.F.);
#741=ORIENTED_EDGE('',*,*,#587,.F.);
#742=ORIENTED_EDGE('',*,*,#583,.T.);
#743=ORIENTED_EDGE('',*,*,#588,.T.);
#744=ORIENTED_EDGE('',*,*,#589,.F.);
#745=ORIENTED_EDGE('',*,*,#590,.F.);
#746=ORIENTED_EDGE('',*,*,#586,.T.);
#747=ORIENTED_EDGE('',*,*,#591,.T.);
#748=ORIENTED_EDGE('',*,*,#592,.F.);
#749=ORIENTED_EDGE('',*,*,#593,.F.);
#750=ORIENTED_EDGE('',*,*,#589,.T.);
#751=ORIENTED_EDGE('',*,*,#594,.T.);
#752=ORIENTED_EDGE('',*,*,#595,.F.);
#753=ORIENTED_EDGE('',*,*,#596,.F.);
#754=ORIENTED_EDGE('',*,*,#592,.T.);
#755=ORIENTED_EDGE('',*,*,#597,.T.);
#756=ORIENTED_EDGE('',*,*,#598,.F.);
#757=ORIENTED_EDGE('',*,*,#599,.F.);
#758=ORIENTED_EDGE('',*,*,#595,.T.);
#759=ORIENTED_EDGE('',*,*,#600,.T.);
#760=ORIENTED_EDGE('',*,*,#601,.F.);
#761=ORIENTED_EDGE('',*,*,#602,.F.);
#762=ORIENTED_EDGE('',*,*,#598,.T.);
#763=ORIENTED_EDGE('',*,*,#603,.T.);
#764=ORIENTED_EDGE('',*,*,#604,.F.);
#765=ORIENTED_EDGE('',*,*,#605,.F.);
#766=ORIENTED_EDGE('',*,*,#601,.T.);
#767=ORIENTED_EDGE('',*,*,#606,.T.);
#768=ORIENTED_EDGE('',*,*,#607,.F.);
#769=ORIENTED_EDGE('',*,*,#608,.F.);
#770=ORIENTED_EDGE('',*,*,#604,.T.);
#771=ORIENTED_EDGE('',*,*,#609,.T.);
#772=ORIENTED_EDGE('',*,*,#610,.F.);
#773=ORIENTED_EDGE('',*,*,#611,.F.);
#774=ORIENTED_EDGE('',*,*,#607,.T.);
#775=ORIENTED_EDGE('',*,*,#612,.T.);
#776=ORIENTED_EDGE('',*,*,#613,.F.);
#777=ORIENTED_EDGE('',*,*,#614,.F.);
#778=ORIENTED_EDGE('',*,*,#610,.T.);
#779=ORIENTED_EDGE('',*,*,#615,.T.);
#780=ORIENTED_EDGE('',*,*,#616,.F.);
#781=ORIENTED_EDGE('',*,*,#617,.F.);
#782=ORIENTED_EDGE('',*,*,#613,.T.);
#783=ORIENTED_EDGE('',*,*,#618,.T.);
#784=ORIENTED_EDGE('',*,*,#619,.F.);
#785=ORIENTED_EDGE('',*,*,#620,.F.);
#786=ORIENTED_EDGE('',*,*,#616,.T.);
#787=ORIENTED_EDGE('',*,*,#621,.T.);
#788=ORIENTED_EDGE('',*,*,#622,.F.);
#789=ORIENTED_EDGE('',*,*,#623,.F.);
#790=ORIENTED_EDGE('',*,*,#619,.T.);
#791=ORIENTED_EDGE('',*,*,#624,.T.);
#792=ORIENTED_EDGE('',*,*,#625,.F.);
#793=ORIENTED_EDGE('',*,*,#626,.F.);
#794=ORIENTED_EDGE('',*,*,#622,.T.);
#795=ORIENTED_EDGE('',*,*,#627,.T.);
#796=ORIENTED_EDGE('',*,*,#532,.F.);
#797=ORIENTED_EDGE('',*,*,#628,.F.);
#798=ORIENTED_EDGE('',*,*,#625,.T.);
#799=ORIENTED_EDGE('',*,*,#629,.T.);
#800=ORIENTED_EDGE('',*,*,#630,.F.);
#801=ORIENTED_EDGE('',*,*,#631,.F.);
#802=ORIENTED_EDGE('',*,*,#534,.T.);
#803=ORIENTED_EDGE('',*,*,#632,.T.);
#804=ORIENTED_EDGE('',*,*,#633,.F.);
#805=ORIENTED_EDGE('',*,*,#634,.F.);
#806=ORIENTED_EDGE('',*,*,#630,.T.);
#807=ORIENTED_EDGE('',*,*,#635,.T.);
#808=ORIENTED_EDGE('',*,*,#636,.F.);
#809=ORIENTED_EDGE('',*,*,#637,.F.);
#810=ORIENTED_EDGE('',*,*,#633,.T.);
#811=ORIENTED_EDGE('',*,*,#638,.T.);
#812=ORIENTED_EDGE('',*,*,#639,.F.);
#813=ORIENTED_EDGE('',*,*,#640,.F.);
#814=ORIENTED_EDGE('',*,*,#636,.T.);
#815=ORIENTED_EDGE('',*,*,#641,.T.);
#816=ORIENTED_EDGE('',*,*,#642,.F.);
#817=ORIENTED_EDGE('',*,*,#643,.F.);
#818=ORIENTED_EDGE('',*,*,#639,.T.);
#819=ORIENTED_EDGE('',*,*,#644,.T.);
#820=ORIENTED_EDGE('',*,*,#645,.F.);
#821=ORIENTED_EDGE('',*,*,#646,.F.);
#822=ORIENTED_EDGE('',*,*,#642,.T.);
#823=ORIENTED_EDGE('',*,*,#647,.T.);
#824=ORIENTED_EDGE('',*,*,#648,.F.);
#825=ORIENTED_EDGE('',*,*,#649,.F.);
#826=ORIENTED_EDGE('',*,*,#645,.T.);
#827=ORIENTED_EDGE('',*,*,#650,.T.);
#828=ORIENTED_EDGE('',*,*,#651,.F.);
#829=ORIENTED_EDGE('',*,*,#652,.F.);
#830=ORIENTED_EDGE('',*,*,#648,.T.);
#831=ORIENTED_EDGE('',*,*,#653,.F.);
#832=ORIENTED_EDGE('',*,*,#650,.F.);
#833=ORIENTED_EDGE('',*,*,#647,.F.);
#834=ORIENTED_EDGE('',*,*,#644,.F.);
#835=ORIENTED_EDGE('',*,*,#641,.F.);
#836=ORIENTED_EDGE('',*,*,#638,.F.);
#837=ORIENTED_EDGE('',*,*,#635,.F.);
#838=ORIENTED_EDGE('',*,*,#632,.F.);
#839=ORIENTED_EDGE('',*,*,#629,.F.);
#840=ORIENTED_EDGE('',*,*,#533,.F.);
#841=ORIENTED_EDGE('',*,*,#627,.F.);
#842=ORIENTED_EDGE('',*,*,#624,.F.);
#843=ORIENTED_EDGE('',*,*,#621,.F.);
#844=ORIENTED_EDGE('',*,*,#618,.F.);
#845=ORIENTED_EDGE('',*,*,#615,.F.);
#846=ORIENTED_EDGE('',*,*,#612,.F.);
#847=ORIENTED_EDGE('',*,*,#609,.F.);
#848=ORIENTED_EDGE('',*,*,#606,.F.);
#849=ORIENTED_EDGE('',*,*,#603,.F.);
#850=ORIENTED_EDGE('',*,*,#600,.F.);
#851=ORIENTED_EDGE('',*,*,#597,.F.);
#852=ORIENTED_EDGE('',*,*,#594,.F.);
#853=ORIENTED_EDGE('',*,*,#591,.F.);
#854=ORIENTED_EDGE('',*,*,#588,.F.);
#855=ORIENTED_EDGE('',*,*,#585,.F.);
#856=ORIENTED_EDGE('',*,*,#582,.F.);
#857=ORIENTED_EDGE('',*,*,#579,.F.);
#858=ORIENTED_EDGE('',*,*,#576,.F.);
#859=ORIENTED_EDGE('',*,*,#572,.F.);
#860=ORIENTED_EDGE('',*,*,#654,.F.);
#861=ORIENTED_EDGE('',*,*,#568,.F.);
#862=ORIENTED_EDGE('',*,*,#655,.F.);
#863=ORIENTED_EDGE('',*,*,#565,.F.);
#864=ORIENTED_EDGE('',*,*,#562,.F.);
#865=ORIENTED_EDGE('',*,*,#559,.F.);
#866=ORIENTED_EDGE('',*,*,#556,.F.);
#867=ORIENTED_EDGE('',*,*,#553,.F.);
#868=ORIENTED_EDGE('',*,*,#550,.F.);
#869=ORIENTED_EDGE('',*,*,#546,.F.);
#870=ORIENTED_EDGE('',*,*,#656,.F.);
#871=ORIENTED_EDGE('',*,*,#542,.F.);
#872=ORIENTED_EDGE('',*,*,#657,.F.);
#873=ORIENTED_EDGE('',*,*,#539,.F.);
#874=ORIENTED_EDGE('',*,*,#535,.F.);
#875=ORIENTED_EDGE('',*,*,#653,.T.);
#876=ORIENTED_EDGE('',*,*,#538,.F.);
#877=ORIENTED_EDGE('',*,*,#658,.F.);
#878=ORIENTED_EDGE('',*,*,#651,.T.);
#879=ORIENTED_EDGE('',*,*,#658,.T.);
#880=ORIENTED_EDGE('',*,*,#537,.T.);
#881=ORIENTED_EDGE('',*,*,#541,.T.);
#882=ORIENTED_EDGE('',*,*,#659,.T.);
#883=ORIENTED_EDGE('',*,*,#544,.T.);
#884=ORIENTED_EDGE('',*,*,#660,.T.);
#885=ORIENTED_EDGE('',*,*,#548,.T.);
#886=ORIENTED_EDGE('',*,*,#552,.T.);
#887=ORIENTED_EDGE('',*,*,#555,.T.);
#888=ORIENTED_EDGE('',*,*,#558,.T.);
#889=ORIENTED_EDGE('',*,*,#561,.T.);
#890=ORIENTED_EDGE('',*,*,#564,.T.);
#891=ORIENTED_EDGE('',*,*,#567,.T.);
#892=ORIENTED_EDGE('',*,*,#661,.T.);
#893=ORIENTED_EDGE('',*,*,#570,.T.);
#894=ORIENTED_EDGE('',*,*,#662,.T.);
#895=ORIENTED_EDGE('',*,*,#574,.T.);
#896=ORIENTED_EDGE('',*,*,#578,.T.);
#897=ORIENTED_EDGE('',*,*,#581,.T.);
#898=ORIENTED_EDGE('',*,*,#584,.T.);
#899=ORIENTED_EDGE('',*,*,#587,.T.);
#900=ORIENTED_EDGE('',*,*,#590,.T.);
#901=ORIENTED_EDGE('',*,*,#593,.T.);
#902=ORIENTED_EDGE('',*,*,#596,.T.);
#903=ORIENTED_EDGE('',*,*,#599,.T.);
#904=ORIENTED_EDGE('',*,*,#602,.T.);
#905=ORIENTED_EDGE('',*,*,#605,.T.);
#906=ORIENTED_EDGE('',*,*,#608,.T.);
#907=ORIENTED_EDGE('',*,*,#611,.T.);
#908=ORIENTED_EDGE('',*,*,#614,.T.);
#909=ORIENTED_EDGE('',*,*,#617,.T.);
#910=ORIENTED_EDGE('',*,*,#620,.T.);
#911=ORIENTED_EDGE('',*,*,#623,.T.);
#912=ORIENTED_EDGE('',*,*,#626,.T.);
#913=ORIENTED_EDGE('',*,*,#628,.T.);
#914=ORIENTED_EDGE('',*,*,#531,.T.);
#915=ORIENTED_EDGE('',*,*,#631,.T.);
#916=ORIENTED_EDGE('',*,*,#634,.T.);
#917=ORIENTED_EDGE('',*,*,#637,.T.);
#918=ORIENTED_EDGE('',*,*,#640,.T.);
#919=ORIENTED_EDGE('',*,*,#643,.T.);
#920=ORIENTED_EDGE('',*,*,#646,.T.);
#921=ORIENTED_EDGE('',*,*,#649,.T.);
#922=ORIENTED_EDGE('',*,*,#652,.T.);
#923=CYLINDRICAL_SURFACE('',#1009,0.004);
#924=CYLINDRICAL_SURFACE('',#1016,0.004);
#925=CYLINDRICAL_SURFACE('',#1019,0.000500000000000002);
#926=CYLINDRICAL_SURFACE('',#1027,0.000200000000000004);
#927=CYLINDRICAL_SURFACE('',#1031,0.00020000000000099);
#928=CYLINDRICAL_SURFACE('',#1039,0.000199999999999229);
#929=CYLINDRICAL_SURFACE('',#1043,0.000199999999999905);
#930=CYLINDRICAL_SURFACE('',#1047,0.001);
#931=CYLINDRICAL_SURFACE('',#1054,0.000499999999999948);
#932=CYLINDRICAL_SURFACE('',#1059,0.000499999999999999);
#933=CYLINDRICAL_SURFACE('',#1063,0.000500000000000001);
#934=CYLINDRICAL_SURFACE('',#1072,0.000999999999999545);
#935=CYLINDRICAL_SURFACE('',#1076,0.000200000000000365);
#936=CYLINDRICAL_SURFACE('',#1086,0.000200000000000364);
#937=ADVANCED_FACE('',(#97),#923,.T.);
#938=ADVANCED_FACE('',(#98),#63,.F.);
#939=ADVANCED_FACE('',(#99),#64,.T.);
#940=ADVANCED_FACE('',(#100),#65,.T.);
#941=ADVANCED_FACE('',(#101),#924,.T.);
#942=ADVANCED_FACE('',(#102),#66,.F.);
#943=ADVANCED_FACE('',(#103),#925,.T.);
#944=ADVANCED_FACE('',(#104),#67,.F.);
#945=ADVANCED_FACE('',(#105),#68,.F.);
#946=ADVANCED_FACE('',(#106),#69,.F.);
#947=ADVANCED_FACE('',(#107),#70,.F.);
#948=ADVANCED_FACE('',(#108),#71,.F.);
#949=ADVANCED_FACE('',(#109),#926,.T.);
#950=ADVANCED_FACE('',(#110),#72,.F.);
#951=ADVANCED_FACE('',(#111),#927,.T.);
#952=ADVANCED_FACE('',(#112),#73,.F.);
#953=ADVANCED_FACE('',(#113),#74,.F.);
#954=ADVANCED_FACE('',(#114),#75,.F.);
#955=ADVANCED_FACE('',(#115),#76,.F.);
#956=ADVANCED_FACE('',(#116),#77,.F.);
#957=ADVANCED_FACE('',(#117),#928,.T.);
#958=ADVANCED_FACE('',(#118),#78,.F.);
#959=ADVANCED_FACE('',(#119),#929,.T.);
#960=ADVANCED_FACE('',(#120),#79,.F.);
#961=ADVANCED_FACE('',(#121),#930,.T.);
#962=ADVANCED_FACE('',(#122),#80,.F.);
#963=ADVANCED_FACE('',(#123),#81,.F.);
#964=ADVANCED_FACE('',(#124),#82,.F.);
#965=ADVANCED_FACE('',(#125),#83,.F.);
#966=ADVANCED_FACE('',(#126),#931,.T.);
#967=ADVANCED_FACE('',(#127),#84,.F.);
#968=ADVANCED_FACE('',(#128),#85,.F.);
#969=ADVANCED_FACE('',(#129),#932,.F.);
#970=ADVANCED_FACE('',(#130),#86,.F.);
#971=ADVANCED_FACE('',(#131),#933,.F.);
#972=ADVANCED_FACE('',(#132),#87,.F.);
#973=ADVANCED_FACE('',(#133),#88,.F.);
#974=ADVANCED_FACE('',(#134),#89,.F.);
#975=ADVANCED_FACE('',(#135),#90,.F.);
#976=ADVANCED_FACE('',(#136),#91,.F.);
#977=ADVANCED_FACE('',(#137),#92,.F.);
#978=ADVANCED_FACE('',(#138),#934,.T.);
#979=ADVANCED_FACE('',(#139),#93,.F.);
#980=ADVANCED_FACE('',(#140),#935,.T.);
#981=ADVANCED_FACE('',(#141),#94,.F.);
#982=ADVANCED_FACE('',(#142),#95,.F.);
#983=ADVANCED_FACE('',(#143),#936,.T.);
#984=ADVANCED_FACE('',(#144),#96,.T.);
#985=CLOSED_SHELL('',(#937,#938,#939));
#986=CLOSED_SHELL('',(#940,#941,#942));
#987=DERIVED_UNIT_ELEMENT(#990,1.);
#988=DERIVED_UNIT_ELEMENT(#1649,-3.);
#989=DIMENSIONAL_EXPONENTS(1.,0.,0.,0.,0.,0.,0.);
#990=(
CONVERSION_BASED_UNIT('gram',#992)
MASS_UNIT()
NAMED_UNIT(#989)
);
#991=(
MASS_UNIT()
NAMED_UNIT(*)
SI_UNIT(.KILO.,.GRAM.)
);
#992=MASS_MEASURE_WITH_UNIT(MASS_MEASURE(0.001),#991);
#993=DERIVED_UNIT((#987,#988));
#994=MEASURE_REPRESENTATION_ITEM('density measure',
POSITIVE_RATIO_MEASURE(1.),#993);
#995=PROPERTY_DEFINITION_REPRESENTATION(#1000,#997);
#996=PROPERTY_DEFINITION_REPRESENTATION(#1001,#998);
#997=REPRESENTATION('material name',(#999),#1646);
#998=REPRESENTATION('density',(#994),#1646);
#999=DESCRIPTIVE_REPRESENTATION_ITEM('Gen\X\E9rico','Gen\X\E9rico');
#1000=PROPERTY_DEFINITION('material property','material name',#1656);
#1001=PROPERTY_DEFINITION('material property','density of part',#1656);
#1002=DATE_TIME_ROLE('creation_date');
#1003=APPLIED_DATE_AND_TIME_ASSIGNMENT(#1004,#1002,(#1656));
#1004=DATE_AND_TIME(#1005,#1006);
#1005=CALENDAR_DATE(2019,28,2);
#1006=LOCAL_TIME(12,24,25.,#1007);
#1007=COORDINATED_UNIVERSAL_TIME_OFFSET(0,0,.BEHIND.);
#1008=AXIS2_PLACEMENT_3D('placement',#1365,#1093,#1094);
#1009=AXIS2_PLACEMENT_3D('',#1366,#1095,#1096);
#1010=AXIS2_PLACEMENT_3D('',#1368,#1097,#1098);
#1011=AXIS2_PLACEMENT_3D('',#1371,#1100,#1101);
#1012=AXIS2_PLACEMENT_3D('',#1372,#1102,#1103);
#1013=AXIS2_PLACEMENT_3D('',#1373,#1104,#1105);
#1014=AXIS2_PLACEMENT_3D('',#1374,#1106,#1107);
#1015=AXIS2_PLACEMENT_3D('',#1376,#1108,#1109);
#1016=AXIS2_PLACEMENT_3D('',#1377,#1110,#1111);
#1017=AXIS2_PLACEMENT_3D('',#1379,#1112,#1113);
#1018=AXIS2_PLACEMENT_3D('',#1381,#1115,#1116);
#1019=AXIS2_PLACEMENT_3D('',#1382,#1117,#1118);
#1020=AXIS2_PLACEMENT_3D('',#1385,#1119,#1120);
#1021=AXIS2_PLACEMENT_3D('',#1389,#1122,#1123);
#1022=AXIS2_PLACEMENT_3D('',#1391,#1125,#1126);
#1023=AXIS2_PLACEMENT_3D('',#1400,#1131,#1132);
#1024=AXIS2_PLACEMENT_3D('',#1406,#1136,#1137);
#1025=AXIS2_PLACEMENT_3D('',#1415,#1142,#1143);
#1026=AXIS2_PLACEMENT_3D('',#1424,#1148,#1149);
#1027=AXIS2_PLACEMENT_3D('',#1430,#1153,#1154);
#1028=AXIS2_PLACEMENT_3D('',#1432,#1155,#1156);
#1029=AXIS2_PLACEMENT_3D('',#1435,#1158,#1159);
#1030=AXIS2_PLACEMENT_3D('',#1436,#1160,#1161);
#1031=AXIS2_PLACEMENT_3D('',#1442,#1165,#1166);
#1032=AXIS2_PLACEMENT_3D('',#1444,#1167,#1168);
#1033=AXIS2_PLACEMENT_3D('',#1447,#1170,#1171);
#1034=AXIS2_PLACEMENT_3D('',#1448,#1172,#1173);
#1035=AXIS2_PLACEMENT_3D('',#1454,#1177,#1178);
#1036=AXIS2_PLACEMENT_3D('',#1460,#1182,#1183);
#1037=AXIS2_PLACEMENT_3D('',#1469,#1188,#1189);
#1038=AXIS2_PLACEMENT_3D('',#1478,#1194,#1195);
#1039=AXIS2_PLACEMENT_3D('',#1484,#1199,#1200);
#1040=AXIS2_PLACEMENT_3D('',#1486,#1201,#1202);
#1041=AXIS2_PLACEMENT_3D('',#1489,#1204,#1205);
#1042=AXIS2_PLACEMENT_3D('',#1490,#1206,#1207);
#1043=AXIS2_PLACEMENT_3D('',#1496,#1211,#1212);
#1044=AXIS2_PLACEMENT_3D('',#1498,#1213,#1214);
#1045=AXIS2_PLACEMENT_3D('',#1501,#1216,#1217);
#1046=AXIS2_PLACEMENT_3D('',#1502,#1218,#1219);
#1047=AXIS2_PLACEMENT_3D('',#1508,#1223,#1224);
#1048=AXIS2_PLACEMENT_3D('',#1510,#1225,#1226);
#1049=AXIS2_PLACEMENT_3D('',#1513,#1228,#1229);
#1050=AXIS2_PLACEMENT_3D('',#1514,#1230,#1231);
#1051=AXIS2_PLACEMENT_3D('',#1520,#1235,#1236);
#1052=AXIS2_PLACEMENT_3D('',#1526,#1240,#1241);
#1053=AXIS2_PLACEMENT_3D('',#1532,#1245,#1246);
#1054=AXIS2_PLACEMENT_3D('',#1538,#1250,#1251);
#1055=AXIS2_PLACEMENT_3D('',#1540,#1252,#1253);
#1056=AXIS2_PLACEMENT_3D('',#1543,#1255,#1256);
#1057=AXIS2_PLACEMENT_3D('',#1544,#1257,#1258);
#1058=AXIS2_PLACEMENT_3D('',#1550,#1262,#1263);
#1059=AXIS2_PLACEMENT_3D('',#1556,#1267,#1268);
#1060=AXIS2_PLACEMENT_3D('',#1558,#1269,#1270);
#1061=AXIS2_PLACEMENT_3D('',#1561,#1272,#1273);
#1062=AXIS2_PLACEMENT_3D('',#1562,#1274,#1275);
#1063=AXIS2_PLACEMENT_3D('',#1568,#1279,#1280);
#1064=AXIS2_PLACEMENT_3D('',#1570,#1281,#1282);
#1065=AXIS2_PLACEMENT_3D('',#1573,#1284,#1285);
#1066=AXIS2_PLACEMENT_3D('',#1574,#1286,#1287);
#1067=AXIS2_PLACEMENT_3D('',#1580,#1291,#1292);
#1068=AXIS2_PLACEMENT_3D('',#1583,#1295,#1296);
#1069=AXIS2_PLACEMENT_3D('',#1589,#1300,#1301);
#1070=AXIS2_PLACEMENT_3D('',#1595,#1305,#1306);
#1071=AXIS2_PLACEMENT_3D('',#1601,#1310,#1311);
#1072=AXIS2_PLACEMENT_3D('',#1607,#1315,#1316);
#1073=AXIS2_PLACEMENT_3D('',#1609,#1317,#1318);
#1074=AXIS2_PLACEMENT_3D('',#1612,#1320,#1321);
#1075=AXIS2_PLACEMENT_3D('',#1613,#1322,#1323);
#1076=AXIS2_PLACEMENT_3D('',#1619,#1327,#1328);
#1077=AXIS2_PLACEMENT_3D('',#1621,#1329,#1330);
#1078=AXIS2_PLACEMENT_3D('',#1624,#1332,#1333);
#1079=AXIS2_PLACEMENT_3D('',#1625,#1334,#1335);
#1080=AXIS2_PLACEMENT_3D('',#1631,#1339,#1340);
#1081=AXIS2_PLACEMENT_3D('',#1632,#1341,#1342);
#1082=AXIS2_PLACEMENT_3D('',#1633,#1343,#1344);
#1083=AXIS2_PLACEMENT_3D('',#1634,#1345,#1346);
#1084=AXIS2_PLACEMENT_3D('',#1635,#1347,#1348);
#1085=AXIS2_PLACEMENT_3D('',#1636,#1349,#1350);
#1086=AXIS2_PLACEMENT_3D('',#1637,#1351,#1352);
#1087=AXIS2_PLACEMENT_3D('',#1638,#1353,#1354);
#1088=AXIS2_PLACEMENT_3D('',#1639,#1355,#1356);
#1089=AXIS2_PLACEMENT_3D('',#1640,#1357,#1358);
#1090=AXIS2_PLACEMENT_3D('',#1641,#1359,#1360);
#1091=AXIS2_PLACEMENT_3D('',#1642,#1361,#1362);
#1092=AXIS2_PLACEMENT_3D('',#1643,#1363,#1364);
#1093=DIRECTION('axis',(0.,0.,1.));
#1094=DIRECTION('refdir',(1.,0.,0.));
#1095=DIRECTION('center_axis',(0.,0.,-1.));
#1096=DIRECTION('ref_axis',(-1.,0.,0.));
#1097=DIRECTION('center_axis',(0.,0.,1.));
#1098=DIRECTION('ref_axis',(1.,0.,0.));
#1099=DIRECTION('',(0.,0.,1.));
#1100=DIRECTION('center_axis',(0.,0.,1.));
#1101=DIRECTION('ref_axis',(1.,0.,0.));
#1102=DIRECTION('center_axis',(0.,0.,1.));
#1103=DIRECTION('ref_axis',(1.,0.,0.));
#1104=DIRECTION('center_axis',(0.,0.,1.));
#1105=DIRECTION('ref_axis',(1.,0.,0.));
#1106=DIRECTION('center_axis',(0.,0.,1.));
#1107=DIRECTION('ref_axis',(1.,0.,0.));
#1108=DIRECTION('center_axis',(0.,0.,1.));
#1109=DIRECTION('ref_axis',(1.,0.,0.));
#1110=DIRECTION('center_axis',(0.,0.,-1.));
#1111=DIRECTION('ref_axis',(-1.,0.,0.));
#1112=DIRECTION('center_axis',(0.,0.,1.));
#1113=DIRECTION('ref_axis',(1.,0.,0.));
#1114=DIRECTION('',(0.,0.,1.));
#1115=DIRECTION('center_axis',(0.,0.,1.));
#1116=DIRECTION('ref_axis',(1.,0.,0.));
#1117=DIRECTION('center_axis',(0.,0.,-1.));
#1118=DIRECTION('ref_axis',(-1.,0.,0.));
#1119=DIRECTION('center_axis',(0.,0.,1.));
#1120=DIRECTION('ref_axis',(1.,0.,0.));
#1121=DIRECTION('',(0.,0.,-1.));
#1122=DIRECTION('center_axis',(0.,0.,1.));
#1123=DIRECTION('ref_axis',(1.,0.,0.));
#1124=DIRECTION('',(0.,0.,-1.));
#1125=DIRECTION('center_axis',(0.969818023146521,-0.243829862773561,0.));
#1126=DIRECTION('ref_axis',(0.,0.,-1.));
#1127=DIRECTION('',(-0.243829862773561,-0.969818023146521,0.));
#1128=DIRECTION('',(0.,0.,-1.));
#1129=DIRECTION('',(-0.243829862773561,-0.969818023146521,0.));
#1130=DIRECTION('',(0.,0.,-1.));
#1131=DIRECTION('center_axis',(1.,0.,0.));
#1132=DIRECTION('ref_axis',(0.,0.,-1.));
#1133=DIRECTION('',(0.,-1.,0.));
#1134=DIRECTION('',(0.,0.,-1.));
#1135=DIRECTION('',(0.,-1.,0.));
#1136=DIRECTION('center_axis',(0.,-1.,0.));
#1137=DIRECTION('ref_axis',(0.,0.,-1.));
#1138=DIRECTION('',(-1.,0.,0.));
#1139=DIRECTION('',(0.,0.,-1.));
#1140=DIRECTION('',(-1.,0.,0.));
#1141=DIRECTION('',(0.,0.,-1.));
#1142=DIRECTION('center_axis',(-1.,0.,0.));
#1143=DIRECTION('ref_axis',(0.,0.,1.));
#1144=DIRECTION('',(0.,1.,0.));
#1145=DIRECTION('',(0.,0.,-1.));
#1146=DIRECTION('',(0.,1.,0.));
#1147=DIRECTION('',(0.,0.,-1.));
#1148=DIRECTION('center_axis',(-0.970142500145193,-0.242535625036889,0.));
#1149=DIRECTION('ref_axis',(0.,0.,1.));
#1150=DIRECTION('',(-0.242535625036889,0.970142500145193,0.));
#1151=DIRECTION('',(0.,0.,-1.));
#1152=DIRECTION('',(-0.242535625036889,0.970142500145193,0.));
#1153=DIRECTION('center_axis',(0.,0.,-1.));
#1154=DIRECTION('ref_axis',(-1.,0.,0.));
#1155=DIRECTION('center_axis',(0.,0.,1.));
#1156=DIRECTION('ref_axis',(1.,0.,0.));
#1157=DIRECTION('',(0.,0.,-1.));
#1158=DIRECTION('center_axis',(0.,0.,1.));
#1159=DIRECTION('ref_axis',(1.,0.,0.));
#1160=DIRECTION('center_axis',(0.,-1.,0.));
#1161=DIRECTION('ref_axis',(0.,0.,-1.));
#1162=DIRECTION('',(-1.,0.,0.));
#1163=DIRECTION('',(0.,0.,-1.));
#1164=DIRECTION('',(-1.,0.,0.));
#1165=DIRECTION('center_axis',(0.,0.,-1.));
#1166=DIRECTION('ref_axis',(-1.,0.,0.));
#1167=DIRECTION('center_axis',(0.,0.,1.));
#1168=DIRECTION('ref_axis',(1.,0.,0.));
#1169=DIRECTION('',(0.,0.,-1.));
#1170=DIRECTION('center_axis',(0.,0.,1.));
#1171=DIRECTION('ref_axis',(1.,0.,0.));
#1172=DIRECTION('center_axis',(0.969818023146448,-0.243829862773852,0.));
#1173=DIRECTION('ref_axis',(0.,0.,-1.));
#1174=DIRECTION('',(-0.243829862773853,-0.969818023146448,0.));
#1175=DIRECTION('',(0.,0.,-1.));
#1176=DIRECTION('',(-0.243829862773853,-0.969818023146448,0.));
#1177=DIRECTION('center_axis',(0.999999982469006,0.000187248467693927,0.));
#1178=DIRECTION('ref_axis',(0.,0.,-1.));
#1179=DIRECTION('',(0.000187248467693909,-0.999999982469006,0.));
#1180=DIRECTION('',(0.,0.,-1.));
#1181=DIRECTION('',(0.000187248467693909,-0.999999982469006,0.));
#1182=DIRECTION('center_axis',(-2.31215646547838E-16,-1.,0.));
#1183=DIRECTION('ref_axis',(0.,0.,-1.));
#1184=DIRECTION('',(-1.,2.21967020685926E-16,0.));
#1185=DIRECTION('',(0.,0.,-1.));
#1186=DIRECTION('',(-1.,2.21967020685926E-16,0.));
#1187=DIRECTION('',(0.,0.,-1.));
#1188=DIRECTION('center_axis',(-1.,0.,0.));
#1189=DIRECTION('ref_axis',(0.,0.,1.));
#1190=DIRECTION('',(0.,1.,0.));
#1191=DIRECTION('',(0.,0.,-1.));
#1192=DIRECTION('',(0.,1.,0.));
#1193=DIRECTION('',(0.,0.,-1.));
#1194=DIRECTION('center_axis',(-0.970142500144995,-0.24253562503768,0.));
#1195=DIRECTION('ref_axis',(0.,0.,1.));
#1196=DIRECTION('',(-0.242535625037679,0.970142500144995,0.));
#1197=DIRECTION('',(0.,0.,-1.));
#1198=DIRECTION('',(-0.242535625037679,0.970142500144995,0.));
#1199=DIRECTION('center_axis',(0.,0.,-1.));
#1200=DIRECTION('ref_axis',(-1.,0.,0.));
#1201=DIRECTION('center_axis',(0.,0.,1.));
#1202=DIRECTION('ref_axis',(1.,0.,0.));
#1203=DIRECTION('',(0.,0.,-1.));
#1204=DIRECTION('center_axis',(0.,0.,1.));
#1205=DIRECTION('ref_axis',(1.,0.,0.));
#1206=DIRECTION('center_axis',(0.,-1.,0.));
#1207=DIRECTION('ref_axis',(0.,0.,-1.));
#1208=DIRECTION('',(-1.,0.,0.));
#1209=DIRECTION('',(0.,0.,-1.));
#1210=DIRECTION('',(-1.,0.,0.));
#1211=DIRECTION('center_axis',(0.,0.,-1.));
#1212=DIRECTION('ref_axis',(-1.,0.,0.));
#1213=DIRECTION('center_axis',(0.,0.,1.));
#1214=DIRECTION('ref_axis',(1.,0.,0.));
#1215=DIRECTION('',(0.,0.,-1.));
#1216=DIRECTION('center_axis',(0.,0.,1.));
#1217=DIRECTION('ref_axis',(1.,0.,0.));
#1218=DIRECTION('center_axis',(1.,0.,0.));
#1219=DIRECTION('ref_axis',(0.,0.,-1.));
#1220=DIRECTION('',(0.,-1.,0.));
#1221=DIRECTION('',(0.,0.,-1.));
#1222=DIRECTION('',(0.,-1.,0.));
#1223=DIRECTION('center_axis',(0.,0.,-1.));
#1224=DIRECTION('ref_axis',(-1.,0.,0.));
#1225=DIRECTION('center_axis',(0.,0.,1.));
#1226=DIRECTION('ref_axis',(1.,0.,0.));
#1227=DIRECTION('',(0.,0.,-1.));
#1228=DIRECTION('center_axis',(0.,0.,1.));
#1229=DIRECTION('ref_axis',(1.,0.,0.));
#1230=DIRECTION('center_axis',(0.,1.,0.));
#1231=DIRECTION('ref_axis',(0.,0.,1.));
#1232=DIRECTION('',(1.,0.,0.));
#1233=DIRECTION('',(0.,0.,-1.));
#1234=DIRECTION('',(1.,0.,0.));
#1235=DIRECTION('center_axis',(0.984807753012155,-0.17364817766723,0.));
#1236=DIRECTION('ref_axis',(0.,0.,-1.));
#1237=DIRECTION('',(-0.17364817766723,-0.984807753012155,0.));
#1238=DIRECTION('',(0.,0.,-1.));
#1239=DIRECTION('',(-0.17364817766723,-0.984807753012155,0.));
#1240=DIRECTION('center_axis',(0.866025403784439,-0.5,0.));
#1241=DIRECTION('ref_axis',(0.,0.,-1.));
#1242=DIRECTION('',(-0.500000000000001,-0.866025403784438,0.));
#1243=DIRECTION('',(0.,0.,-1.));
#1244=DIRECTION('',(-0.500000000000001,-0.866025403784438,0.));
#1245=DIRECTION('center_axis',(0.866025403784439,0.499999999999999,0.));
#1246=DIRECTION('ref_axis',(0.,0.,-1.));
#1247=DIRECTION('',(0.5,-0.866025403784439,0.));
#1248=DIRECTION('',(0.,0.,-1.));
#1249=DIRECTION('',(0.5,-0.866025403784439,0.));
#1250=DIRECTION('center_axis',(0.,0.,-1.));
#1251=DIRECTION('ref_axis',(0.499999999997318,-0.866025403785987,0.));
#1252=DIRECTION('center_axis',(0.,0.,1.));
#1253=DIRECTION('ref_axis',(1.,0.,0.));
#1254=DIRECTION('',(0.,0.,-1.));
#1255=DIRECTION('center_axis',(0.,0.,1.));
#1256=DIRECTION('ref_axis',(1.,0.,0.));
#1257=DIRECTION('center_axis',(-0.866025403784439,-0.499999999999999,0.));
#1258=DIRECTION('ref_axis',(0.,0.,1.));
#1259=DIRECTION('',(-0.499999999999999,0.866025403784439,0.));
#1260=DIRECTION('',(0.,0.,-1.));
#1261=DIRECTION('',(-0.499999999999999,0.866025403784439,0.));
#1262=DIRECTION('center_axis',(-0.984807753012106,0.173648177667512,0.));
#1263=DIRECTION('ref_axis',(0.,0.,1.));
#1264=DIRECTION('',(0.173648177667512,0.984807753012106,0.));
#1265=DIRECTION('',(0.,0.,-1.));
#1266=DIRECTION('',(0.173648177667512,0.984807753012106,0.));
#1267=DIRECTION('center_axis',(0.,0.,-1.));
#1268=DIRECTION('ref_axis',(-1.,0.,0.));
#1269=DIRECTION('center_axis',(0.,0.,-1.));
#1270=DIRECTION('ref_axis',(1.,0.,0.));
#1271=DIRECTION('',(0.,0.,-1.));
#1272=DIRECTION('center_axis',(0.,0.,-1.));
#1273=DIRECTION('ref_axis',(1.,0.,0.));
#1274=DIRECTION('center_axis',(0.,1.,0.));
#1275=DIRECTION('ref_axis',(0.,0.,1.));
#1276=DIRECTION('',(1.,0.,0.));
#1277=DIRECTION('',(0.,0.,-1.));
#1278=DIRECTION('',(1.,0.,0.));
#1279=DIRECTION('center_axis',(0.,0.,-1.));
#1280=DIRECTION('ref_axis',(-1.,0.,0.));
#1281=DIRECTION('center_axis',(0.,0.,-1.));
#1282=DIRECTION('ref_axis',(1.,0.,0.));
#1283=DIRECTION('',(0.,0.,-1.));
#1284=DIRECTION('center_axis',(0.,0.,-1.));
#1285=DIRECTION('ref_axis',(1.,0.,0.));
#1286=DIRECTION('center_axis',(0.984807753012106,0.17364817766751,0.));
#1287=DIRECTION('ref_axis',(0.,0.,-1.));
#1288=DIRECTION('',(0.17364817766751,-0.984807753012106,0.));
#1289=DIRECTION('',(0.,0.,-1.));
#1290=DIRECTION('',(0.17364817766751,-0.984807753012106,0.));
#1291=DIRECTION('center_axis',(0.866025403784438,-0.500000000000001,0.));
#1292=DIRECTION('ref_axis',(0.,0.,-1.));
#1293=DIRECTION('',(-0.500000000000001,-0.866025403784438,0.));
#1294=DIRECTION('',(-0.500000000000001,-0.866025403784438,0.));
#1295=DIRECTION('center_axis',(-0.866025403784438,0.5,0.));
#1296=DIRECTION('ref_axis',(0.,0.,1.));
#1297=DIRECTION('',(0.5,0.866025403784438,0.));
#1298=DIRECTION('',(0.,0.,-1.));
#1299=DIRECTION('',(0.5,0.866025403784438,0.));
#1300=DIRECTION('center_axis',(-0.866025403784441,-0.499999999999996,0.));
#1301=DIRECTION('ref_axis',(0.,0.,1.));
#1302=DIRECTION('',(-0.499999999999996,0.866025403784441,0.));
#1303=DIRECTION('',(0.,0.,-1.));
#1304=DIRECTION('',(-0.499999999999996,0.866025403784441,0.));
#1305=DIRECTION('center_axis',(-0.984807753012458,-0.17364817766551,0.));
#1306=DIRECTION('ref_axis',(0.,0.,1.));
#1307=DIRECTION('',(-0.17364817766551,0.984807753012459,0.));
#1308=DIRECTION('',(0.,0.,-1.));
#1309=DIRECTION('',(-0.17364817766551,0.984807753012459,0.));
#1310=DIRECTION('center_axis',(0.,1.,0.));
#1311=DIRECTION('ref_axis',(0.,0.,1.));
#1312=DIRECTION('',(1.,0.,0.));
#1313=DIRECTION('',(0.,0.,-1.));
#1314=DIRECTION('',(1.,0.,0.));
#1315=DIRECTION('center_axis',(0.,0.,-1.));
#1316=DIRECTION('ref_axis',(-1.,0.,0.));
#1317=DIRECTION('center_axis',(0.,0.,1.));
#1318=DIRECTION('ref_axis',(1.,0.,0.));
#1319=DIRECTION('',(0.,0.,-1.));
#1320=DIRECTION('center_axis',(0.,0.,1.));
#1321=DIRECTION('ref_axis',(1.,0.,0.));
#1322=DIRECTION('center_axis',(-1.,0.,0.));
#1323=DIRECTION('ref_axis',(0.,0.,1.));
#1324=DIRECTION('',(0.,1.,0.));
#1325=DIRECTION('',(0.,0.,-1.));
#1326=DIRECTION('',(0.,1.,0.));
#1327=DIRECTION('center_axis',(0.,0.,-1.));
#1328=DIRECTION('ref_axis',(-1.,0.,0.));
#1329=DIRECTION('center_axis',(0.,0.,1.));
#1330=DIRECTION('ref_axis',(1.,0.,0.));
#1331=DIRECTION('',(0.,0.,-1.));
#1332=DIRECTION('center_axis',(0.,0.,1.));
#1333=DIRECTION('ref_axis',(1.,0.,0.));
#1334=DIRECTION('center_axis',(0.,-1.,0.));
#1335=DIRECTION('ref_axis',(0.,0.,-1.));
#1336=DIRECTION('',(-1.,0.,0.));
#1337=DIRECTION('',(0.,0.,-1.));
#1338=DIRECTION('',(-1.,0.,0.));
#1339=DIRECTION('center_axis',(0.,0.,1.));
#1340=DIRECTION('ref_axis',(1.,0.,0.));
#1341=DIRECTION('center_axis',(0.,0.,1.));
#1342=DIRECTION('ref_axis',(1.,0.,0.));
#1343=DIRECTION('center_axis',(0.,0.,-1.));
#1344=DIRECTION('ref_axis',(1.,0.,0.));
#1345=DIRECTION('center_axis',(0.,0.,-1.));
#1346=DIRECTION('ref_axis',(1.,0.,0.));
#1347=DIRECTION('center_axis',(0.,0.,-1.));
#1348=DIRECTION('ref_axis',(1.,0.,0.));
#1349=DIRECTION('center_axis',(0.,0.,-1.));
#1350=DIRECTION('ref_axis',(1.,0.,0.));
#1351=DIRECTION('center_axis',(0.,0.,-1.));
#1352=DIRECTION('ref_axis',(-1.,0.,0.));
#1353=DIRECTION('center_axis',(0.,0.,1.));
#1354=DIRECTION('ref_axis',(1.,0.,0.));
#1355=DIRECTION('center_axis',(0.,0.,1.));
#1356=DIRECTION('ref_axis',(1.,0.,0.));
#1357=DIRECTION('center_axis',(0.,0.,-1.));
#1358=DIRECTION('ref_axis',(1.,0.,0.));
#1359=DIRECTION('center_axis',(0.,0.,-1.));
#1360=DIRECTION('ref_axis',(1.,0.,0.));
#1361=DIRECTION('center_axis',(0.,0.,-1.));
#1362=DIRECTION('ref_axis',(1.,0.,0.));
#1363=DIRECTION('center_axis',(0.,0.,-1.));
#1364=DIRECTION('ref_axis',(1.,0.,0.));
#1365=CARTESIAN_POINT('',(0.,0.,0.));
#1366=CARTESIAN_POINT('Origin',(0.00103186274510085,0.00257177871148287,
0.5));
#1367=CARTESIAN_POINT('',(0.00503186274510085,0.00257177871148287,-0.5));
#1368=CARTESIAN_POINT('Origin',(0.00103186274510085,0.00257177871148287,
-0.5));
#1369=CARTESIAN_POINT('',(0.00503186274510085,0.00257177871148287,0.5));
#1370=CARTESIAN_POINT('',(0.00503186274510085,0.00257177871148287,0.5));
#1371=CARTESIAN_POINT('Origin',(0.00103186274510085,0.00257177871148287,
0.5));
#1372=CARTESIAN_POINT('Origin',(0.00103186274510085,0.00257177871148287,
-0.5));
#1373=CARTESIAN_POINT('Origin',(0.00103186274510085,0.00257177871148287,
0.5));
#1374=CARTESIAN_POINT('Origin',(-0.0104681372548991,0.00257177871148287,
0.5));
#1375=CARTESIAN_POINT('',(-0.0064681372548991,0.00257177871148287,0.5));
#1376=CARTESIAN_POINT('Origin',(-0.0104681372548991,0.00257177871148287,
0.5));
#1377=CARTESIAN_POINT('Origin',(-0.0104681372548991,0.00257177871148287,
0.5));
#1378=CARTESIAN_POINT('',(-0.0064681372548991,0.00257177871148287,-0.5));
#1379=CARTESIAN_POINT('Origin',(-0.0104681372548991,0.00257177871148287,
-0.5));
#1380=CARTESIAN_POINT('',(-0.0064681372548991,0.00257177871148287,0.5));
#1381=CARTESIAN_POINT('Origin',(-0.0104681372548991,0.00257177871148287,
-0.5));
#1382=CARTESIAN_POINT('Origin',(-0.00178757529949486,-0.00867822128851342,
0.5));
#1383=CARTESIAN_POINT('',(-0.00222058800138756,-0.00842822128851424,0.5));
#1384=CARTESIAN_POINT('',(-0.00135456259760217,-0.00892822128851259,0.5));
#1385=CARTESIAN_POINT('Origin',(-0.00178757529949486,-0.00867822128851342,
0.5));
#1386=CARTESIAN_POINT('',(-0.00222058800138756,-0.00842822128851424,-0.5));
#1387=CARTESIAN_POINT('',(-0.00222058800138756,-0.00842822128851424,0.5));
#1388=CARTESIAN_POINT('',(-0.00135456259760217,-0.00892822128851259,-0.5));
#1389=CARTESIAN_POINT('Origin',(-0.00178757529949486,-0.00867822128851342,
-0.5));
#1390=CARTESIAN_POINT('',(-0.00135456259760217,-0.00892822128851259,0.5));
#1391=CARTESIAN_POINT('Origin',(0.00624667608392206,0.0154205446840379,
0.5));
#1392=CARTESIAN_POINT('',(0.00624667608392206,0.0154205446840379,-0.5));
#1393=CARTESIAN_POINT('',(0.00578186274510022,0.0135717787114837,-0.5));
#1394=CARTESIAN_POINT('',(0.00624667608392206,0.0154205446840379,-0.5));
#1395=CARTESIAN_POINT('',(0.00578186274510022,0.0135717787114837,0.5));
#1396=CARTESIAN_POINT('',(0.00578186274510022,0.0135717787114837,0.5));
#1397=CARTESIAN_POINT('',(0.00624667608392206,0.0154205446840379,0.5));
#1398=CARTESIAN_POINT('',(0.00624667608392206,0.0154205446840379,0.5));
#1399=CARTESIAN_POINT('',(0.00624667608392206,0.0154205446840379,0.5));
#1400=CARTESIAN_POINT('Origin',(0.00578186274510022,-0.000428221288518142,
0.5));
#1401=CARTESIAN_POINT('',(0.00578186274510022,-0.000428221288518142,-0.5));
#1402=CARTESIAN_POINT('',(0.00578186274510022,0.0135717787114837,-0.5));
#1403=CARTESIAN_POINT('',(0.00578186274510022,-0.000428221288518142,0.5));
#1404=CARTESIAN_POINT('',(0.00578186274510022,-0.000428221288518142,0.5));
#1405=CARTESIAN_POINT('',(0.00578186274510022,0.0135717787114837,0.5));
#1406=CARTESIAN_POINT('Origin',(-0.00271813725489977,-0.00142822128851814,
0.5));
#1407=CARTESIAN_POINT('',(0.00478186274510023,-0.00142822128851814,-0.5));
#1408=CARTESIAN_POINT('',(-0.00271813725489977,-0.00142822128851814,-0.5));
#1409=CARTESIAN_POINT('',(0.00478186274510023,-0.00142822128851814,-0.5));
#1410=CARTESIAN_POINT('',(-0.00271813725489977,-0.00142822128851814,0.5));
#1411=CARTESIAN_POINT('',(-0.00271813725489977,-0.00142822128851814,0.5));
#1412=CARTESIAN_POINT('',(0.00478186274510023,-0.00142822128851814,0.5));
#1413=CARTESIAN_POINT('',(0.00478186274510023,-0.00142822128851814,0.5));
#1414=CARTESIAN_POINT('',(0.00478186274510023,-0.00142822128851814,0.5));
#1415=CARTESIAN_POINT('Origin',(-0.00371813725489977,-0.000428221288518142,
0.5));
#1416=CARTESIAN_POINT('',(-0.00371813725489977,-0.000428221288518142,-0.5));
#1417=CARTESIAN_POINT('',(-0.00371813725489977,0.0135717787114837,-0.5));
#1418=CARTESIAN_POINT('',(-0.00371813725489977,-0.000428221288518142,-0.5));
#1419=CARTESIAN_POINT('',(-0.00371813725489977,0.0135717787114837,0.5));
#1420=CARTESIAN_POINT('',(-0.00371813725489977,0.0135717787114837,0.5));
#1421=CARTESIAN_POINT('',(-0.00371813725489977,-0.000428221288518142,0.5));
#1422=CARTESIAN_POINT('',(-0.00371813725489977,-0.000428221288518142,0.5));
#1423=CARTESIAN_POINT('',(-0.00371813725489977,-0.000428221288518142,0.5));
#1424=CARTESIAN_POINT('Origin',(-0.00418026403615259,0.0154202858364905,
0.5));
#1425=CARTESIAN_POINT('',(-0.00418026403615259,0.0154202858364905,-0.5));
#1426=CARTESIAN_POINT('',(-0.00371813725489976,0.0135717787114837,-0.5));
#1427=CARTESIAN_POINT('',(-0.00418026403615259,0.0154202858364905,0.5));
#1428=CARTESIAN_POINT('',(-0.00418026403615259,0.0154202858364905,0.5));
#1429=CARTESIAN_POINT('',(-0.00371813725489976,0.0135717787114837,0.5));
#1430=CARTESIAN_POINT('Origin',(-0.0043742925361816,0.015371778711483,0.5));
#1431=CARTESIAN_POINT('',(-0.00437429253618232,0.015571778711483,-0.5));
#1432=CARTESIAN_POINT('Origin',(-0.0043742925361816,0.015371778711483,-0.5));
#1433=CARTESIAN_POINT('',(-0.00437429253618232,0.015571778711483,0.5));
#1434=CARTESIAN_POINT('',(-0.00437429253618232,0.015571778711483,0.5));
#1435=CARTESIAN_POINT('Origin',(-0.0043742925361816,0.015371778711483,0.5));
#1436=CARTESIAN_POINT('Origin',(-0.00505936049502037,0.015571778711483,
0.5));
#1437=CARTESIAN_POINT('',(-0.00505936049502037,0.015571778711483,-0.5));
#1438=CARTESIAN_POINT('',(-0.00437429253618232,0.015571778711483,-0.5));
#1439=CARTESIAN_POINT('',(-0.00505936049502037,0.015571778711483,0.5));
#1440=CARTESIAN_POINT('',(-0.00505936049502037,0.015571778711483,0.5));
#1441=CARTESIAN_POINT('',(-0.00437429253618232,0.015571778711483,0.5));
#1442=CARTESIAN_POINT('Origin',(-0.00505936049502037,0.015371778711482,
0.5));
#1443=CARTESIAN_POINT('',(-0.0052533889950504,0.0154202858364895,-0.5));
#1444=CARTESIAN_POINT('Origin',(-0.00505936049502037,0.015371778711482,
-0.5));
#1445=CARTESIAN_POINT('',(-0.0052533889950504,0.0154202858364895,0.5));
#1446=CARTESIAN_POINT('',(-0.0052533889950504,0.0154202858364895,0.5));
#1447=CARTESIAN_POINT('Origin',(-0.00505936049502037,0.015371778711482,
0.5));
#1448=CARTESIAN_POINT('Origin',(-0.0052533889950504,0.0154202858364895,
0.5));
#1449=CARTESIAN_POINT('',(-0.00571813725489882,0.0135717787114825,-0.5));
#1450=CARTESIAN_POINT('',(-0.0052533889950504,0.0154202858364895,-0.5));
#1451=CARTESIAN_POINT('',(-0.00571813725489882,0.0135717787114825,0.5));
#1452=CARTESIAN_POINT('',(-0.00571813725489882,0.0135717787114825,0.5));
#1453=CARTESIAN_POINT('',(-0.0052533889950504,0.0154202858364895,0.5));
#1454=CARTESIAN_POINT('Origin',(-0.00571813725489882,0.0135717787114825,
0.5));
#1455=CARTESIAN_POINT('',(-0.00571551577630515,-0.000428221288517135,-0.5));
#1456=CARTESIAN_POINT('',(-0.00571813725489882,0.0135717787114825,-0.5));
#1457=CARTESIAN_POINT('',(-0.00571551577630515,-0.000428221288517135,0.5));
#1458=CARTESIAN_POINT('',(-0.00571551577630515,-0.000428221288517135,0.5));
#1459=CARTESIAN_POINT('',(-0.00571813725489882,0.0135717787114825,0.5));
#1460=CARTESIAN_POINT('Origin',(-0.0142181372548991,-0.00142822128851713,
0.5));
#1461=CARTESIAN_POINT('',(-0.00671551577630514,-0.00142822128851713,-0.5));
#1462=CARTESIAN_POINT('',(-0.0142181372548991,-0.00142822128851713,-0.5));
#1463=CARTESIAN_POINT('',(-0.00671551577630514,-0.00142822128851713,-0.5));
#1464=CARTESIAN_POINT('',(-0.0142181372548991,-0.00142822128851713,0.5));
#1465=CARTESIAN_POINT('',(-0.0142181372548991,-0.00142822128851713,0.5));
#1466=CARTESIAN_POINT('',(-0.00671551577630514,-0.00142822128851713,0.5));
#1467=CARTESIAN_POINT('',(-0.00671551577630514,-0.00142822128851713,0.5));
#1468=CARTESIAN_POINT('',(-0.00671551577630514,-0.00142822128851713,0.5));
#1469=CARTESIAN_POINT('Origin',(-0.0152181372548991,-0.000428221288517136,
0.5));
#1470=CARTESIAN_POINT('',(-0.0152181372548991,-0.000428221288517136,-0.5));
#1471=CARTESIAN_POINT('',(-0.0152181372548991,0.0135717787114847,-0.5));
#1472=CARTESIAN_POINT('',(-0.0152181372548991,-0.000428221288517136,-0.5));
#1473=CARTESIAN_POINT('',(-0.0152181372548991,0.0135717787114847,0.5));
#1474=CARTESIAN_POINT('',(-0.0152181372548991,0.0135717787114847,0.5));
#1475=CARTESIAN_POINT('',(-0.0152181372548991,-0.000428221288517136,0.5));
#1476=CARTESIAN_POINT('',(-0.0152181372548991,-0.000428221288517136,0.5));
#1477=CARTESIAN_POINT('',(-0.0152181372548991,-0.000428221288517136,0.5));
#1478=CARTESIAN_POINT('Origin',(-0.0156802640361536,0.0154202858364917,
0.5));
#1479=CARTESIAN_POINT('',(-0.0156802640361536,0.0154202858364917,-0.5));
#1480=CARTESIAN_POINT('',(-0.0152181372548991,0.0135717787114847,-0.5));
#1481=CARTESIAN_POINT('',(-0.0156802640361536,0.0154202858364917,0.5));
#1482=CARTESIAN_POINT('',(-0.0156802640361536,0.0154202858364917,0.5));
#1483=CARTESIAN_POINT('',(-0.0152181372548991,0.0135717787114847,0.5));
#1484=CARTESIAN_POINT('Origin',(-0.0158742925361817,0.0153717787114838,
0.5));
#1485=CARTESIAN_POINT('',(-0.0158742925361817,0.015571778711483,-0.5));
#1486=CARTESIAN_POINT('Origin',(-0.0158742925361817,0.0153717787114838,
-0.5));
#1487=CARTESIAN_POINT('',(-0.0158742925361817,0.015571778711483,0.5));
#1488=CARTESIAN_POINT('',(-0.0158742925361817,0.015571778711483,0.5));
#1489=CARTESIAN_POINT('Origin',(-0.0158742925361817,0.0153717787114838,
0.5));
#1490=CARTESIAN_POINT('Origin',(-0.0175181372549028,0.015571778711483,0.5));
#1491=CARTESIAN_POINT('',(-0.0175181372549028,0.015571778711483,-0.5));
#1492=CARTESIAN_POINT('',(-0.0158742925361817,0.015571778711483,-0.5));
#1493=CARTESIAN_POINT('',(-0.0175181372549028,0.015571778711483,0.5));
#1494=CARTESIAN_POINT('',(-0.0175181372549028,0.015571778711483,0.5));
#1495=CARTESIAN_POINT('',(-0.0158742925361817,0.015571778711483,0.5));
#1496=CARTESIAN_POINT('Origin',(-0.0175181372549028,0.0153717787114831,
0.5));
#1497=CARTESIAN_POINT('',(-0.0177181372549027,0.0153717787114831,-0.5));
#1498=CARTESIAN_POINT('Origin',(-0.0175181372549028,0.0153717787114831,
-0.5));
#1499=CARTESIAN_POINT('',(-0.0177181372549027,0.0153717787114831,0.5));
#1500=CARTESIAN_POINT('',(-0.0177181372549027,0.0153717787114831,0.5));
#1501=CARTESIAN_POINT('Origin',(-0.0175181372549028,0.0153717787114831,
0.5));
#1502=CARTESIAN_POINT('Origin',(-0.0177181372549027,-0.00342822128851709,
0.5));
#1503=CARTESIAN_POINT('',(-0.0177181372549027,-0.00342822128851709,-0.5));
#1504=CARTESIAN_POINT('',(-0.0177181372549027,0.0153717787114831,-0.5));
#1505=CARTESIAN_POINT('',(-0.0177181372549027,-0.00342822128851709,0.5));
#1506=CARTESIAN_POINT('',(-0.0177181372549027,-0.00342822128851709,0.5));
#1507=CARTESIAN_POINT('',(-0.0177181372549027,0.0153717787114831,0.5));
#1508=CARTESIAN_POINT('Origin',(-0.0167181372549027,-0.00342822128851709,
0.5));
#1509=CARTESIAN_POINT('',(-0.0167181372549027,-0.00442822128851709,-0.5));
#1510=CARTESIAN_POINT('Origin',(-0.0167181372549027,-0.00342822128851709,
-0.5));
#1511=CARTESIAN_POINT('',(-0.0167181372549027,-0.00442822128851709,0.5));
#1512=CARTESIAN_POINT('',(-0.0167181372549027,-0.00442822128851709,0.5));
#1513=CARTESIAN_POINT('Origin',(-0.0167181372549027,-0.00342822128851709,
0.5));
#1514=CARTESIAN_POINT('Origin',(-0.0167181372549027,-0.00442822128851709,
0.5));
#1515=CARTESIAN_POINT('',(-0.00843021789734546,-0.00442822128851709,-0.5));
#1516=CARTESIAN_POINT('',(-0.0167181372549027,-0.00442822128851709,-0.5));
#1517=CARTESIAN_POINT('',(-0.00843021789734546,-0.00442822128851709,0.5));
#1518=CARTESIAN_POINT('',(-0.00843021789734546,-0.00442822128851709,0.5));
#1519=CARTESIAN_POINT('',(-0.0167181372549027,-0.00442822128851709,0.5));
#1520=CARTESIAN_POINT('Origin',(-0.00843021789734546,-0.00442822128851709,
0.5));
#1521=CARTESIAN_POINT('',(-0.0088181372549049,-0.00662822128851782,-0.5));
#1522=CARTESIAN_POINT('',(-0.00843021789734546,-0.00442822128851709,-0.5));
#1523=CARTESIAN_POINT('',(-0.0088181372549049,-0.00662822128851782,0.5));
#1524=CARTESIAN_POINT('',(-0.0088181372549049,-0.00662822128851782,0.5));
#1525=CARTESIAN_POINT('',(-0.00843021789734546,-0.00442822128851709,0.5));
#1526=CARTESIAN_POINT('Origin',(-0.0088181372549049,-0.00662822128851782,
0.5));
#1527=CARTESIAN_POINT('',(-0.0091138773931215,-0.00714045823374641,-0.5));
#1528=CARTESIAN_POINT('',(-0.0088181372549049,-0.00662822128851782,-0.5));
#1529=CARTESIAN_POINT('',(-0.0091138773931215,-0.00714045823374641,0.5));
#1530=CARTESIAN_POINT('',(-0.0091138773931215,-0.00714045823374641,0.5));
#1531=CARTESIAN_POINT('',(-0.0088181372549049,-0.00662822128851782,0.5));
#1532=CARTESIAN_POINT('Origin',(-0.0091138773931215,-0.00714045823374641,
0.5));
#1533=CARTESIAN_POINT('',(-0.00808171191220517,-0.00892822128851226,-0.5));
#1534=CARTESIAN_POINT('',(-0.0091138773931215,-0.00714045823374641,-0.5));
#1535=CARTESIAN_POINT('',(-0.00808171191220517,-0.00892822128851226,0.5));
#1536=CARTESIAN_POINT('',(-0.00808171191220517,-0.00892822128851226,0.5));
#1537=CARTESIAN_POINT('',(-0.0091138773931215,-0.00714045823374641,0.5));
#1538=CARTESIAN_POINT('Origin',(-0.00764869921031157,-0.00867822128851476,
0.5));
#1539=CARTESIAN_POINT('',(-0.00721568650841927,-0.00842822128851499,-0.5));
#1540=CARTESIAN_POINT('Origin',(-0.00764869921031157,-0.00867822128851476,
-0.5));
#1541=CARTESIAN_POINT('',(-0.00721568650841927,-0.00842822128851499,0.5));
#1542=CARTESIAN_POINT('',(-0.00721568650841927,-0.00842822128851499,0.5));
#1543=CARTESIAN_POINT('Origin',(-0.00764869921031157,-0.00867822128851476,
0.5));
#1544=CARTESIAN_POINT('Origin',(-0.00790850683144498,-0.00722822128851818,
0.5));
#1545=CARTESIAN_POINT('',(-0.00790850683144498,-0.00722822128851818,-0.5));
#1546=CARTESIAN_POINT('',(-0.00721568650841927,-0.00842822128851499,-0.5));
#1547=CARTESIAN_POINT('',(-0.00790850683144498,-0.00722822128851818,0.5));
#1548=CARTESIAN_POINT('',(-0.00790850683144498,-0.00722822128851818,0.5));
#1549=CARTESIAN_POINT('',(-0.00721568650841927,-0.00842822128851499,0.5));
#1550=CARTESIAN_POINT('Origin',(-0.00748764534637675,-0.0048413971996817,
0.5));
#1551=CARTESIAN_POINT('',(-0.00748764534637675,-0.0048413971996817,-0.5));
#1552=CARTESIAN_POINT('',(-0.00790850683144497,-0.00722822128851818,-0.5));
#1553=CARTESIAN_POINT('',(-0.00748764534637675,-0.0048413971996817,0.5));
#1554=CARTESIAN_POINT('',(-0.00748764534637675,-0.0048413971996817,0.5));
#1555=CARTESIAN_POINT('',(-0.00790850683144497,-0.00722822128851818,0.5));
#1556=CARTESIAN_POINT('Origin',(-0.00699524146987067,-0.00492822128851528,
0.5));
#1557=CARTESIAN_POINT('',(-0.00699524146987067,-0.00442822128851528,-0.5));
#1558=CARTESIAN_POINT('Origin',(-0.00699524146987067,-0.00492822128851528,
-0.5));
#1559=CARTESIAN_POINT('',(-0.00699524146987067,-0.00442822128851528,0.5));
#1560=CARTESIAN_POINT('',(-0.00699524146987067,-0.00442822128851528,0.5));
#1561=CARTESIAN_POINT('Origin',(-0.00699524146987067,-0.00492822128851528,
0.5));
#1562=CARTESIAN_POINT('Origin',(-0.00699524146987067,-0.00442822128851528,
0.5));
#1563=CARTESIAN_POINT('',(-0.00244103303993659,-0.00442822128851528,-0.5));
#1564=CARTESIAN_POINT('',(-0.00699524146987067,-0.00442822128851528,-0.5));
#1565=CARTESIAN_POINT('',(-0.00244103303993659,-0.00442822128851528,0.5));
#1566=CARTESIAN_POINT('',(-0.00244103303993659,-0.00442822128851528,0.5));
#1567=CARTESIAN_POINT('',(-0.00699524146987067,-0.00442822128851528,0.5));
#1568=CARTESIAN_POINT('Origin',(-0.00244103303993659,-0.00492822128851528,
0.5));
#1569=CARTESIAN_POINT('',(-0.00194862916343059,-0.00484139719968126,-0.5));
#1570=CARTESIAN_POINT('Origin',(-0.00244103303993659,-0.00492822128851528,
-0.5));
#1571=CARTESIAN_POINT('',(-0.00194862916343059,-0.00484139719968126,0.5));
#1572=CARTESIAN_POINT('',(-0.00194862916343059,-0.00484139719968126,0.5));
#1573=CARTESIAN_POINT('Origin',(-0.00244103303993659,-0.00492822128851528,
0.5));
#1574=CARTESIAN_POINT('Origin',(-0.00194862916343059,-0.00484139719968126,
0.5));
#1575=CARTESIAN_POINT('',(-0.00152776767836229,-0.00722822128851819,-0.5));
#1576=CARTESIAN_POINT('',(-0.00194862916343059,-0.00484139719968126,-0.5));
#1577=CARTESIAN_POINT('',(-0.00152776767836229,-0.00722822128851819,0.5));
#1578=CARTESIAN_POINT('',(-0.00152776767836229,-0.00722822128851819,0.5));
#1579=CARTESIAN_POINT('',(-0.00194862916343059,-0.00484139719968126,0.5));
#1580=CARTESIAN_POINT('Origin',(-0.00152776767836229,-0.00722822128851819,
0.5));
#1581=CARTESIAN_POINT('',(-0.00152776767836229,-0.00722822128851819,-0.5));
#1582=CARTESIAN_POINT('',(-0.00152776767836229,-0.00722822128851819,0.5));
#1583=CARTESIAN_POINT('Origin',(-0.000322397116685674,-0.00714045823374646,
0.5));
#1584=CARTESIAN_POINT('',(-0.000322397116685674,-0.00714045823374646,-0.5));
#1585=CARTESIAN_POINT('',(-0.00135456259760217,-0.00892822128851259,-0.5));
#1586=CARTESIAN_POINT('',(-0.000322397116685674,-0.00714045823374646,0.5));
#1587=CARTESIAN_POINT('',(-0.000322397116685674,-0.00714045823374646,0.5));
#1588=CARTESIAN_POINT('',(-0.00135456259760217,-0.00892822128851259,0.5));
#1589=CARTESIAN_POINT('Origin',(-0.000618137254901483,-0.00662822128851924,
0.5));
#1590=CARTESIAN_POINT('',(-0.000618137254901483,-0.00662822128851924,-0.5));
#1591=CARTESIAN_POINT('',(-0.000322397116685678,-0.00714045823374646,-0.5));
#1592=CARTESIAN_POINT('',(-0.000618137254901483,-0.00662822128851924,0.5));
#1593=CARTESIAN_POINT('',(-0.000618137254901483,-0.00662822128851924,0.5));
#1594=CARTESIAN_POINT('',(-0.000322397116685678,-0.00714045823374646,0.5));
#1595=CARTESIAN_POINT('Origin',(-0.00100605661245728,-0.00442822128851669,
0.5));
#1596=CARTESIAN_POINT('',(-0.00100605661245728,-0.00442822128851669,-0.5));
#1597=CARTESIAN_POINT('',(-0.000618137254901479,-0.00662822128851924,-0.5));
#1598=CARTESIAN_POINT('',(-0.00100605661245728,-0.00442822128851669,0.5));
#1599=CARTESIAN_POINT('',(-0.00100605661245728,-0.00442822128851669,0.5));
#1600=CARTESIAN_POINT('',(-0.000618137254901479,-0.00662822128851924,0.5));
#1601=CARTESIAN_POINT('Origin',(-0.00100605661245728,-0.00442822128851669,
0.5));
#1602=CARTESIAN_POINT('',(0.00728186274509997,-0.00442822128851669,-0.5));
#1603=CARTESIAN_POINT('',(-0.00100605661245728,-0.00442822128851669,-0.5));
#1604=CARTESIAN_POINT('',(0.00728186274509997,-0.00442822128851669,0.5));
#1605=CARTESIAN_POINT('',(0.00728186274509997,-0.00442822128851669,0.5));
#1606=CARTESIAN_POINT('',(-0.00100605661245728,-0.00442822128851669,0.5));
#1607=CARTESIAN_POINT('Origin',(0.00728186274509997,-0.00342822128851715,
0.5));
#1608=CARTESIAN_POINT('',(0.00828186274509952,-0.00342822128851715,-0.5));
#1609=CARTESIAN_POINT('Origin',(0.00728186274509997,-0.00342822128851715,
-0.5));
#1610=CARTESIAN_POINT('',(0.00828186274509952,-0.00342822128851715,0.5));
#1611=CARTESIAN_POINT('',(0.00828186274509952,-0.00342822128851715,0.5));
#1612=CARTESIAN_POINT('Origin',(0.00728186274509997,-0.00342822128851715,
0.5));
#1613=CARTESIAN_POINT('Origin',(0.00828186274509952,-0.00342822128851715,
0.5));
#1614=CARTESIAN_POINT('',(0.00828186274509952,0.015371778711483,-0.5));
#1615=CARTESIAN_POINT('',(0.00828186274509952,-0.00342822128851715,-0.5));
#1616=CARTESIAN_POINT('',(0.00828186274509952,0.015371778711483,0.5));
#1617=CARTESIAN_POINT('',(0.00828186274509952,0.015371778711483,0.5));
#1618=CARTESIAN_POINT('',(0.00828186274509952,-0.00342822128851715,0.5));
#1619=CARTESIAN_POINT('Origin',(0.00808186274509915,0.015371778711483,0.5));
#1620=CARTESIAN_POINT('',(0.00808186274509915,0.0155717787114834,-0.5));
#1621=CARTESIAN_POINT('Origin',(0.00808186274509915,0.015371778711483,-0.5));
#1622=CARTESIAN_POINT('',(0.00808186274509915,0.0155717787114834,0.5));
#1623=CARTESIAN_POINT('',(0.00808186274509915,0.0155717787114834,0.5));
#1624=CARTESIAN_POINT('Origin',(0.00808186274509915,0.015371778711483,0.5));
#1625=CARTESIAN_POINT('Origin',(0.00808186274509915,0.0155717787114834,
0.5));
#1626=CARTESIAN_POINT('',(0.0064406396885517,0.0155717787114834,-0.5));
#1627=CARTESIAN_POINT('',(0.00808186274509915,0.0155717787114834,-0.5));
#1628=CARTESIAN_POINT('',(0.0064406396885517,0.0155717787114834,0.5));
#1629=CARTESIAN_POINT('',(0.0064406396885517,0.0155717787114834,0.5));
#1630=CARTESIAN_POINT('',(0.00808186274509915,0.0155717787114834,0.5));
#1631=CARTESIAN_POINT('Origin',(0.0064406396885517,0.015371778711483,-0.5));
#1632=CARTESIAN_POINT('Origin',(0.0064406396885517,0.015371778711483,-0.5));
#1633=CARTESIAN_POINT('Origin',(-0.0142181372548991,-0.000428221288517136,
-0.5));
#1634=CARTESIAN_POINT('Origin',(-0.00671551577630514,-0.000428221288517135,
-0.5));
#1635=CARTESIAN_POINT('Origin',(-0.00271813725489977,-0.000428221288518142,
-0.5));
#1636=CARTESIAN_POINT('Origin',(0.00478186274510023,-0.000428221288518142,
-0.5));
#1637=CARTESIAN_POINT('Origin',(0.0064406396885517,0.015371778711483,0.5));
#1638=CARTESIAN_POINT('Origin',(0.0064406396885517,0.015371778711483,0.5));
#1639=CARTESIAN_POINT('Origin',(0.0064406396885517,0.015371778711483,0.5));
#1640=CARTESIAN_POINT('Origin',(0.00478186274510023,-0.000428221288518142,
0.5));
#1641=CARTESIAN_POINT('Origin',(-0.00271813725489977,-0.000428221288518142,
0.5));
#1642=CARTESIAN_POINT('Origin',(-0.00671551577630514,-0.000428221288517135,
0.5));
#1643=CARTESIAN_POINT('Origin',(-0.0142181372548991,-0.000428221288517136,
0.5));
#1644=UNCERTAINTY_MEASURE_WITH_UNIT(LENGTH_MEASURE(1.E-5),#1648,
'DISTANCE_ACCURACY_VALUE',
'Maximum model space distance between geometric entities at asserted c
onnectivities');
#1645=UNCERTAINTY_MEASURE_WITH_UNIT(LENGTH_MEASURE(1.E-5),#1648,
'DISTANCE_ACCURACY_VALUE',
'Maximum model space distance between geometric entities at asserted c
onnectivities');
#1646=(
GEOMETRIC_REPRESENTATION_CONTEXT(3)
GLOBAL_UNCERTAINTY_ASSIGNED_CONTEXT((#1644))
GLOBAL_UNIT_ASSIGNED_CONTEXT((#1648,#1650,#1651))
REPRESENTATION_CONTEXT('','3D')
);
#1647=(
GEOMETRIC_REPRESENTATION_CONTEXT(3)
GLOBAL_UNCERTAINTY_ASSIGNED_CONTEXT((#1645))
GLOBAL_UNIT_ASSIGNED_CONTEXT((#1648,#1650,#1651))
REPRESENTATION_CONTEXT('','3D')
);
#1648=(
LENGTH_UNIT()
NAMED_UNIT(*)
SI_UNIT($,.METRE.)
);
#1649=(
LENGTH_UNIT()
NAMED_UNIT(*)
SI_UNIT(.CENTI.,.METRE.)
);
#1650=(
NAMED_UNIT(*)
PLANE_ANGLE_UNIT()
SI_UNIT($,.RADIAN.)
);
#1651=(
NAMED_UNIT(*)
SI_UNIT($,.STERADIAN.)
SOLID_ANGLE_UNIT()
);
#1652=SHAPE_DEFINITION_REPRESENTATION(#1653,#1654);
#1653=PRODUCT_DEFINITION_SHAPE('',$,#1656);
#1654=SHAPE_REPRESENTATION('',(#1008,#16),#1646);
#1655=PRODUCT_DEFINITION_CONTEXT('part definition',#1660,'design');
#1656=PRODUCT_DEFINITION('GSD082.3000KIT','GSD082.3000KIT',#1657,#1655);
#1657=PRODUCT_DEFINITION_FORMATION('',$,#1662);
#1658=PRODUCT_RELATED_PRODUCT_CATEGORY('GSD082.3000KIT',
'GSD082.3000KIT',(#1662));
#1659=APPLICATION_PROTOCOL_DEFINITION('international standard',
'automotive_design',2009,#1660);
#1660=APPLICATION_CONTEXT(
'Core Data for Automotive Mechanical Design Process');
#1661=PRODUCT_CONTEXT('part definition',#1660,'mechanical');
#1662=PRODUCT('GSD082.3000KIT','GSD082.3000KIT',$,(#1661));
#1663=PRESENTATION_STYLE_ASSIGNMENT((#1665));
#1664=PRESENTATION_STYLE_ASSIGNMENT((#1666));
#1665=SURFACE_STYLE_USAGE(.BOTH.,#1671);
#1666=SURFACE_STYLE_USAGE(.BOTH.,#1672);
#1667=SURFACE_STYLE_RENDERING_WITH_PROPERTIES($,#1679,(#1669));
#1668=SURFACE_STYLE_RENDERING_WITH_PROPERTIES($,#1680,(#1670));
#1669=SURFACE_STYLE_TRANSPARENT(0.);
#1670=SURFACE_STYLE_TRANSPARENT(0.);
#1671=SURFACE_SIDE_STYLE('',(#1673,#1667));
#1672=SURFACE_SIDE_STYLE('',(#1674,#1668));
#1673=SURFACE_STYLE_FILL_AREA(#1675);
#1674=SURFACE_STYLE_FILL_AREA(#1676);
#1675=FILL_AREA_STYLE('',(#1677));
#1676=FILL_AREA_STYLE('',(#1678));
#1677=FILL_AREA_STYLE_COLOUR('',#1679);
#1678=FILL_AREA_STYLE_COLOUR('',#1680);
#1679=COLOUR_RGB('',0.749019607843137,0.749019607843137,0.749019607843137);
#1680=COLOUR_RGB('',0.698039215686274,0.698039215686274,0.698039215686274);
ENDSEC;
END-ISO-10303-21;
