ISO-10303-21;
HEADER;
/* Generated by software containing ST-Developer
 * from STEP Tools, Inc. (www.steptools.com) 
 */
/* OPTION: using custom renumber hook */

FILE_DESCRIPTION(
/* description */ ('STEP AP242',
'CAx-IF Rec.Pracs.---Representation and Presentation of Product Manufa
cturing Information (PMI)---4.0---2014-10-13',
'CAx-IF Rec.Pracs.---3D Tessellated Geometry---0.4---2014-09-14','2;1'),

/* implementation_level */ '2;1');

FILE_NAME(
/* name */ 'Hinges CFG.30_30 SH-6-C33 (0)',
/* time_stamp */ '2026-08-05T20:36:54+02:00',
/* author */ ('License CC BY-ND 4.0'),
/* organization */ ('CADENAS'),
/* preprocessor_version */ 'ST-DEVELOPER v20',
/* originating_system */ 'PARTsolutions',
/* authorisation */ '  ');

FILE_SCHEMA (('AP242_MANAGED_MODEL_BASED_3D_ENGINEERING_MIM_LF { 1 0 10303 442 1 1 4 }'));
ENDSEC;

DATA;
#10=TOROIDAL_SURFACE('',#851,3.2,0.800000000000002);
#11=TOROIDAL_SURFACE('',#855,3.2,0.800000000000002);
#12=CONTEXT_DEPENDENT_SHAPE_REPRESENTATION(#18,#1367);
#13=CONTEXT_DEPENDENT_SHAPE_REPRESENTATION(#19,#1369);
#14=CONTEXT_DEPENDENT_SHAPE_REPRESENTATION(#20,#1371);
#15=NEXT_ASSEMBLY_USAGE_OCCURRENCE('NAUO1',
'Hinges CFG.30/30 SH-6-C33 (0)1','Hinges CFG.30/30 SH-6-C33 (0)1',#1372,
#1373,'');
#16=NEXT_ASSEMBLY_USAGE_OCCURRENCE('NAUO2',
'Hinges CFG.30/30 SH-6-C33 (0)2','Hinges CFG.30/30 SH-6-C33 (0)2',#1372,
#1374,'');
#17=NEXT_ASSEMBLY_USAGE_OCCURRENCE('NAUO3',
'Hinges CFG.30/30 SH-6-C33 (0)-3','Hinges CFG.30/30 SH-6-C33 (0)-3',#1372,
#1375,'');
#18=(
REPRESENTATION_RELATIONSHIP(' ',' ',#808,#807)
REPRESENTATION_RELATIONSHIP_WITH_TRANSFORMATION(#21)
SHAPE_REPRESENTATION_RELATIONSHIP()
);
#19=(
REPRESENTATION_RELATIONSHIP(' ',' ',#809,#807)
REPRESENTATION_RELATIONSHIP_WITH_TRANSFORMATION(#22)
SHAPE_REPRESENTATION_RELATIONSHIP()
);
#20=(
REPRESENTATION_RELATIONSHIP(' ',' ',#810,#807)
REPRESENTATION_RELATIONSHIP_WITH_TRANSFORMATION(#23)
SHAPE_REPRESENTATION_RELATIONSHIP()
);
#21=ITEM_DEFINED_TRANSFORMATION(' ',' ',#811,#848);
#22=ITEM_DEFINED_TRANSFORMATION(' ',' ',#811,#858);
#23=ITEM_DEFINED_TRANSFORMATION(' ',' ',#811,#895);
#24=SHAPE_REPRESENTATION_RELATIONSHIP('','',#808,#27);
#25=SHAPE_REPRESENTATION_RELATIONSHIP('','',#809,#28);
#26=SHAPE_REPRESENTATION_RELATIONSHIP('','',#810,#29);
#27=ADVANCED_BREP_SHAPE_REPRESENTATION('',(#800),#1355);
#28=ADVANCED_BREP_SHAPE_REPRESENTATION('',(#801),#1356);
#29=ADVANCED_BREP_SHAPE_REPRESENTATION('',(#802),#1357);
#30=CONICAL_SURFACE('',#843,3.25,0.785398163397449);
#31=CONICAL_SURFACE('',#890,6.25,0.785398163397448);
#32=PLANE('',#821);
#33=PLANE('',#823);
#34=PLANE('',#831);
#35=PLANE('',#832);
#36=PLANE('',#833);
#37=PLANE('',#835);
#38=PLANE('',#836);
#39=PLANE('',#838);
#40=PLANE('',#839);
#41=PLANE('',#841);
#42=PLANE('',#849);
#43=PLANE('',#857);
#44=PLANE('',#862);
#45=PLANE('',#876);
#46=PLANE('',#878);
#47=PLANE('',#879);
#48=PLANE('',#880);
#49=PLANE('',#882);
#50=PLANE('',#883);
#51=PLANE('',#885);
#52=PLANE('',#886);
#53=PLANE('',#888);
#54=CIRCLE('',#813,3.5);
#55=CIRCLE('',#814,3.5);
#56=CIRCLE('',#816,0.500000000000001);
#57=CIRCLE('',#817,0.500000000000001);
#58=CIRCLE('',#819,0.500000000000001);
#59=CIRCLE('',#820,0.500000000000001);
#60=CIRCLE('',#822,6.25);
#61=CIRCLE('',#824,3.25);
#62=CIRCLE('',#826,8.);
#63=CIRCLE('',#827,8.);
#64=CIRCLE('',#829,8.);
#65=CIRCLE('',#830,8.);
#66=CIRCLE('',#834,4.);
#67=CIRCLE('',#837,4.);
#68=CIRCLE('',#840,4.);
#69=CIRCLE('',#842,4.);
#70=CIRCLE('',#844,3.25);
#71=CIRCLE('',#850,3.2);
#72=CIRCLE('',#852,4.);
#73=CIRCLE('',#854,4.);
#74=CIRCLE('',#856,3.2);
#75=CIRCLE('',#860,3.5);
#76=CIRCLE('',#861,3.5);
#77=CIRCLE('',#863,3.25);
#78=CIRCLE('',#865,8.);
#79=CIRCLE('',#866,8.);
#80=CIRCLE('',#868,8.);
#81=CIRCLE('',#869,8.);
#82=CIRCLE('',#871,0.500000000000001);
#83=CIRCLE('',#872,0.500000000000001);
#84=CIRCLE('',#874,0.500000000000001);
#85=CIRCLE('',#875,0.500000000000001);
#86=CIRCLE('',#877,6.25);
#87=CIRCLE('',#881,4.);
#88=CIRCLE('',#884,4.);
#89=CIRCLE('',#887,4.);
#90=CIRCLE('',#889,4.);
#91=CIRCLE('',#891,3.25);
#92=LINE('',#1135,#152);
#93=LINE('',#1139,#153);
#94=LINE('',#1143,#154);
#95=LINE('',#1145,#155);
#96=LINE('',#1150,#156);
#97=LINE('',#1154,#157);
#98=LINE('',#1159,#158);
#99=LINE('',#1164,#159);
#100=LINE('',#1165,#160);
#101=LINE('',#1167,#161);
#102=LINE('',#1169,#162);
#103=LINE('',#1170,#163);
#104=LINE('',#1172,#164);
#105=LINE('',#1174,#165);
#106=LINE('',#1178,#166);
#107=LINE('',#1181,#167);
#108=LINE('',#1183,#168);
#109=LINE('',#1185,#169);
#110=LINE('',#1187,#170);
#111=LINE('',#1189,#171);
#112=LINE('',#1191,#172);
#113=LINE('',#1193,#173);
#114=LINE('',#1195,#174);
#115=LINE('',#1197,#175);
#116=LINE('',#1205,#176);
#117=LINE('',#1206,#177);
#118=LINE('',#1208,#178);
#119=LINE('',#1213,#179);
#120=LINE('',#1218,#180);
#121=LINE('',#1219,#181);
#122=LINE('',#1255,#182);
#123=LINE('',#1259,#183);
#124=LINE('',#1263,#184);
#125=LINE('',#1267,#185);
#126=LINE('',#1270,#186);
#127=LINE('',#1272,#187);
#128=LINE('',#1274,#188);
#129=LINE('',#1276,#189);
#130=LINE('',#1278,#190);
#131=LINE('',#1280,#191);
#132=LINE('',#1282,#192);
#133=LINE('',#1284,#193);
#134=LINE('',#1286,#194);
#135=LINE('',#1290,#195);
#136=LINE('',#1296,#196);
#137=LINE('',#1302,#197);
#138=LINE('',#1308,#198);
#139=LINE('',#1313,#199);
#140=LINE('',#1314,#200);
#141=LINE('',#1316,#201);
#142=LINE('',#1318,#202);
#143=LINE('',#1319,#203);
#144=LINE('',#1321,#204);
#145=LINE('',#1323,#205);
#146=LINE('',#1325,#206);
#147=LINE('',#1326,#207);
#148=LINE('',#1328,#208);
#149=LINE('',#1333,#209);
#150=LINE('',#1338,#210);
#151=LINE('',#1339,#211);
#152=VECTOR('',#900,1000.);
#153=VECTOR('',#903,1000.);
#154=VECTOR('',#906,1000.);
#155=VECTOR('',#909,1000.);
#156=VECTOR('',#912,1000.);
#157=VECTOR('',#917,1000.);
#158=VECTOR('',#920,1000.);
#159=VECTOR('',#927,1000.);
#160=VECTOR('',#928,1000.);
#161=VECTOR('',#929,1000.);
#162=VECTOR('',#930,1000.);
#163=VECTOR('',#931,1000.);
#164=VECTOR('',#932,1000.);
#165=VECTOR('',#933,1000.);
#166=VECTOR('',#938,1000.);
#167=VECTOR('',#939,1000.);
#168=VECTOR('',#940,1000.);
#169=VECTOR('',#941,1000.);
#170=VECTOR('',#942,1000.);
#171=VECTOR('',#943,1000.);
#172=VECTOR('',#944,1000.);
#173=VECTOR('',#945,1000.);
#174=VECTOR('',#946,1000.);
#175=VECTOR('',#947,1000.);
#176=VECTOR('',#962,1000.);
#177=VECTOR('',#963,1000.);
#178=VECTOR('',#966,1000.);
#179=VECTOR('',#973,1000.);
#180=VECTOR('',#980,1000.);
#181=VECTOR('',#981,1000.);
#182=VECTOR('',#1024,1000.);
#183=VECTOR('',#1027,1000.);
#184=VECTOR('',#1030,1000.);
#185=VECTOR('',#1035,1000.);
#186=VECTOR('',#1036,1000.);
#187=VECTOR('',#1037,1000.);
#188=VECTOR('',#1038,1000.);
#189=VECTOR('',#1039,1000.);
#190=VECTOR('',#1040,1000.);
#191=VECTOR('',#1041,1000.);
#192=VECTOR('',#1042,1000.);
#193=VECTOR('',#1043,1000.);
#194=VECTOR('',#1044,1000.);
#195=VECTOR('',#1049,1000.);
#196=VECTOR('',#1056,1000.);
#197=VECTOR('',#1063,1000.);
#198=VECTOR('',#1070,1000.);
#199=VECTOR('',#1077,1000.);
#200=VECTOR('',#1078,1000.);
#201=VECTOR('',#1079,1000.);
#202=VECTOR('',#1080,1000.);
#203=VECTOR('',#1081,1000.);
#204=VECTOR('',#1082,1000.);
#205=VECTOR('',#1083,1000.);
#206=VECTOR('',#1086,1000.);
#207=VECTOR('',#1087,1000.);
#208=VECTOR('',#1090,1000.);
#209=VECTOR('',#1097,1000.);
#210=VECTOR('',#1104,1000.);
#211=VECTOR('',#1105,1000.);
#212=ORIENTED_EDGE('',*,*,#412,.F.);
#213=ORIENTED_EDGE('',*,*,#413,.F.);
#214=ORIENTED_EDGE('',*,*,#414,.F.);
#215=ORIENTED_EDGE('',*,*,#415,.T.);
#216=ORIENTED_EDGE('',*,*,#416,.T.);
#217=ORIENTED_EDGE('',*,*,#417,.F.);
#218=ORIENTED_EDGE('',*,*,#418,.F.);
#219=ORIENTED_EDGE('',*,*,#419,.T.);
#220=ORIENTED_EDGE('',*,*,#420,.T.);
#221=ORIENTED_EDGE('',*,*,#421,.T.);
#222=ORIENTED_EDGE('',*,*,#422,.F.);
#223=ORIENTED_EDGE('',*,*,#423,.T.);
#224=ORIENTED_EDGE('',*,*,#424,.T.);
#225=ORIENTED_EDGE('',*,*,#425,.F.);
#226=ORIENTED_EDGE('',*,*,#426,.F.);
#227=ORIENTED_EDGE('',*,*,#417,.T.);
#228=ORIENTED_EDGE('',*,*,#427,.T.);
#229=ORIENTED_EDGE('',*,*,#424,.F.);
#230=ORIENTED_EDGE('',*,*,#428,.F.);
#231=ORIENTED_EDGE('',*,*,#429,.F.);
#232=ORIENTED_EDGE('',*,*,#430,.F.);
#233=ORIENTED_EDGE('',*,*,#420,.F.);
#234=ORIENTED_EDGE('',*,*,#431,.F.);
#235=ORIENTED_EDGE('',*,*,#432,.F.);
#236=ORIENTED_EDGE('',*,*,#433,.F.);
#237=ORIENTED_EDGE('',*,*,#413,.T.);
#238=ORIENTED_EDGE('',*,*,#434,.T.);
#239=ORIENTED_EDGE('',*,*,#435,.F.);
#240=ORIENTED_EDGE('',*,*,#436,.F.);
#241=ORIENTED_EDGE('',*,*,#437,.T.);
#242=ORIENTED_EDGE('',*,*,#438,.F.);
#243=ORIENTED_EDGE('',*,*,#439,.F.);
#244=ORIENTED_EDGE('',*,*,#440,.F.);
#245=ORIENTED_EDGE('',*,*,#441,.T.);
#246=ORIENTED_EDGE('',*,*,#442,.T.);
#247=ORIENTED_EDGE('',*,*,#443,.F.);
#248=ORIENTED_EDGE('',*,*,#444,.F.);
#249=ORIENTED_EDGE('',*,*,#445,.F.);
#250=ORIENTED_EDGE('',*,*,#418,.T.);
#251=ORIENTED_EDGE('',*,*,#446,.F.);
#252=ORIENTED_EDGE('',*,*,#437,.F.);
#253=ORIENTED_EDGE('',*,*,#447,.F.);
#254=ORIENTED_EDGE('',*,*,#422,.T.);
#255=ORIENTED_EDGE('',*,*,#448,.T.);
#256=ORIENTED_EDGE('',*,*,#441,.F.);
#257=ORIENTED_EDGE('',*,*,#433,.T.);
#258=ORIENTED_EDGE('',*,*,#449,.T.);
#259=ORIENTED_EDGE('',*,*,#444,.T.);
#260=ORIENTED_EDGE('',*,*,#450,.T.);
#261=ORIENTED_EDGE('',*,*,#414,.T.);
#262=ORIENTED_EDGE('',*,*,#451,.T.);
#263=ORIENTED_EDGE('',*,*,#415,.F.);
#264=ORIENTED_EDGE('',*,*,#450,.F.);
#265=ORIENTED_EDGE('',*,*,#443,.T.);
#266=ORIENTED_EDGE('',*,*,#452,.T.);
#267=ORIENTED_EDGE('',*,*,#425,.T.);
#268=ORIENTED_EDGE('',*,*,#427,.F.);
#269=ORIENTED_EDGE('',*,*,#416,.F.);
#270=ORIENTED_EDGE('',*,*,#451,.F.);
#271=ORIENTED_EDGE('',*,*,#442,.F.);
#272=ORIENTED_EDGE('',*,*,#448,.F.);
#273=ORIENTED_EDGE('',*,*,#432,.T.);
#274=ORIENTED_EDGE('',*,*,#453,.T.);
#275=ORIENTED_EDGE('',*,*,#435,.T.);
#276=ORIENTED_EDGE('',*,*,#449,.F.);
#277=ORIENTED_EDGE('',*,*,#454,.T.);
#278=ORIENTED_EDGE('',*,*,#431,.T.);
#279=ORIENTED_EDGE('',*,*,#419,.F.);
#280=ORIENTED_EDGE('',*,*,#445,.T.);
#281=ORIENTED_EDGE('',*,*,#436,.T.);
#282=ORIENTED_EDGE('',*,*,#453,.F.);
#283=ORIENTED_EDGE('',*,*,#429,.T.);
#284=ORIENTED_EDGE('',*,*,#455,.T.);
#285=ORIENTED_EDGE('',*,*,#439,.T.);
#286=ORIENTED_EDGE('',*,*,#456,.F.);
#287=ORIENTED_EDGE('',*,*,#457,.T.);
#288=ORIENTED_EDGE('',*,*,#430,.T.);
#289=ORIENTED_EDGE('',*,*,#456,.T.);
#290=ORIENTED_EDGE('',*,*,#438,.T.);
#291=ORIENTED_EDGE('',*,*,#446,.T.);
#292=ORIENTED_EDGE('',*,*,#421,.F.);
#293=ORIENTED_EDGE('',*,*,#458,.T.);
#294=ORIENTED_EDGE('',*,*,#428,.T.);
#295=ORIENTED_EDGE('',*,*,#423,.F.);
#296=ORIENTED_EDGE('',*,*,#447,.T.);
#297=ORIENTED_EDGE('',*,*,#440,.T.);
#298=ORIENTED_EDGE('',*,*,#455,.F.);
#299=ORIENTED_EDGE('',*,*,#459,.F.);
#300=ORIENTED_EDGE('',*,*,#412,.T.);
#301=ORIENTED_EDGE('',*,*,#426,.T.);
#302=ORIENTED_EDGE('',*,*,#459,.T.);
#303=ORIENTED_EDGE('',*,*,#434,.F.);
#304=ORIENTED_EDGE('',*,*,#458,.F.);
#305=ORIENTED_EDGE('',*,*,#452,.F.);
#306=ORIENTED_EDGE('',*,*,#454,.F.);
#307=ORIENTED_EDGE('',*,*,#457,.F.);
#308=ORIENTED_EDGE('',*,*,#460,.F.);
#309=ORIENTED_EDGE('',*,*,#460,.T.);
#310=ORIENTED_EDGE('',*,*,#461,.F.);
#311=ORIENTED_EDGE('',*,*,#462,.F.);
#312=ORIENTED_EDGE('',*,*,#461,.T.);
#313=ORIENTED_EDGE('',*,*,#462,.T.);
#314=ORIENTED_EDGE('',*,*,#463,.F.);
#315=ORIENTED_EDGE('',*,*,#463,.T.);
#316=ORIENTED_EDGE('',*,*,#464,.F.);
#317=ORIENTED_EDGE('',*,*,#465,.T.);
#318=ORIENTED_EDGE('',*,*,#466,.T.);
#319=ORIENTED_EDGE('',*,*,#467,.F.);
#320=ORIENTED_EDGE('',*,*,#468,.F.);
#321=ORIENTED_EDGE('',*,*,#469,.T.);
#322=ORIENTED_EDGE('',*,*,#470,.F.);
#323=ORIENTED_EDGE('',*,*,#471,.F.);
#324=ORIENTED_EDGE('',*,*,#472,.F.);
#325=ORIENTED_EDGE('',*,*,#473,.F.);
#326=ORIENTED_EDGE('',*,*,#474,.F.);
#327=ORIENTED_EDGE('',*,*,#475,.F.);
#328=ORIENTED_EDGE('',*,*,#476,.F.);
#329=ORIENTED_EDGE('',*,*,#477,.F.);
#330=ORIENTED_EDGE('',*,*,#478,.F.);
#331=ORIENTED_EDGE('',*,*,#479,.T.);
#332=ORIENTED_EDGE('',*,*,#480,.T.);
#333=ORIENTED_EDGE('',*,*,#481,.F.);
#334=ORIENTED_EDGE('',*,*,#482,.F.);
#335=ORIENTED_EDGE('',*,*,#483,.F.);
#336=ORIENTED_EDGE('',*,*,#477,.T.);
#337=ORIENTED_EDGE('',*,*,#484,.F.);
#338=ORIENTED_EDGE('',*,*,#485,.F.);
#339=ORIENTED_EDGE('',*,*,#486,.F.);
#340=ORIENTED_EDGE('',*,*,#473,.T.);
#341=ORIENTED_EDGE('',*,*,#482,.T.);
#342=ORIENTED_EDGE('',*,*,#487,.T.);
#343=ORIENTED_EDGE('',*,*,#488,.F.);
#344=ORIENTED_EDGE('',*,*,#489,.T.);
#345=ORIENTED_EDGE('',*,*,#485,.T.);
#346=ORIENTED_EDGE('',*,*,#490,.T.);
#347=ORIENTED_EDGE('',*,*,#491,.F.);
#348=ORIENTED_EDGE('',*,*,#492,.T.);
#349=ORIENTED_EDGE('',*,*,#493,.T.);
#350=ORIENTED_EDGE('',*,*,#469,.F.);
#351=ORIENTED_EDGE('',*,*,#494,.F.);
#352=ORIENTED_EDGE('',*,*,#488,.T.);
#353=ORIENTED_EDGE('',*,*,#495,.F.);
#354=ORIENTED_EDGE('',*,*,#496,.F.);
#355=ORIENTED_EDGE('',*,*,#497,.F.);
#356=ORIENTED_EDGE('',*,*,#491,.T.);
#357=ORIENTED_EDGE('',*,*,#498,.F.);
#358=ORIENTED_EDGE('',*,*,#499,.F.);
#359=ORIENTED_EDGE('',*,*,#500,.T.);
#360=ORIENTED_EDGE('',*,*,#465,.F.);
#361=ORIENTED_EDGE('',*,*,#501,.F.);
#362=ORIENTED_EDGE('',*,*,#480,.F.);
#363=ORIENTED_EDGE('',*,*,#502,.F.);
#364=ORIENTED_EDGE('',*,*,#466,.F.);
#365=ORIENTED_EDGE('',*,*,#500,.F.);
#366=ORIENTED_EDGE('',*,*,#502,.T.);
#367=ORIENTED_EDGE('',*,*,#479,.F.);
#368=ORIENTED_EDGE('',*,*,#503,.F.);
#369=ORIENTED_EDGE('',*,*,#467,.T.);
#370=ORIENTED_EDGE('',*,*,#504,.F.);
#371=ORIENTED_EDGE('',*,*,#468,.T.);
#372=ORIENTED_EDGE('',*,*,#503,.T.);
#373=ORIENTED_EDGE('',*,*,#478,.T.);
#374=ORIENTED_EDGE('',*,*,#483,.T.);
#375=ORIENTED_EDGE('',*,*,#489,.F.);
#376=ORIENTED_EDGE('',*,*,#494,.T.);
#377=ORIENTED_EDGE('',*,*,#471,.T.);
#378=ORIENTED_EDGE('',*,*,#501,.T.);
#379=ORIENTED_EDGE('',*,*,#499,.T.);
#380=ORIENTED_EDGE('',*,*,#505,.T.);
#381=ORIENTED_EDGE('',*,*,#506,.T.);
#382=ORIENTED_EDGE('',*,*,#472,.T.);
#383=ORIENTED_EDGE('',*,*,#505,.F.);
#384=ORIENTED_EDGE('',*,*,#498,.T.);
#385=ORIENTED_EDGE('',*,*,#490,.F.);
#386=ORIENTED_EDGE('',*,*,#484,.T.);
#387=ORIENTED_EDGE('',*,*,#475,.T.);
#388=ORIENTED_EDGE('',*,*,#507,.F.);
#389=ORIENTED_EDGE('',*,*,#496,.T.);
#390=ORIENTED_EDGE('',*,*,#508,.T.);
#391=ORIENTED_EDGE('',*,*,#509,.T.);
#392=ORIENTED_EDGE('',*,*,#476,.T.);
#393=ORIENTED_EDGE('',*,*,#508,.F.);
#394=ORIENTED_EDGE('',*,*,#495,.T.);
#395=ORIENTED_EDGE('',*,*,#487,.F.);
#396=ORIENTED_EDGE('',*,*,#481,.T.);
#397=ORIENTED_EDGE('',*,*,#510,.T.);
#398=ORIENTED_EDGE('',*,*,#474,.T.);
#399=ORIENTED_EDGE('',*,*,#486,.T.);
#400=ORIENTED_EDGE('',*,*,#492,.F.);
#401=ORIENTED_EDGE('',*,*,#497,.T.);
#402=ORIENTED_EDGE('',*,*,#507,.T.);
#403=ORIENTED_EDGE('',*,*,#511,.T.);
#404=ORIENTED_EDGE('',*,*,#464,.T.);
#405=ORIENTED_EDGE('',*,*,#493,.F.);
#406=ORIENTED_EDGE('',*,*,#470,.T.);
#407=ORIENTED_EDGE('',*,*,#511,.F.);
#408=ORIENTED_EDGE('',*,*,#506,.F.);
#409=ORIENTED_EDGE('',*,*,#510,.F.);
#410=ORIENTED_EDGE('',*,*,#509,.F.);
#411=ORIENTED_EDGE('',*,*,#504,.T.);
#412=EDGE_CURVE('',#512,#513,#584,.T.);
#413=EDGE_CURVE('',#514,#512,#92,.T.);
#414=EDGE_CURVE('',#515,#514,#54,.T.);
#415=EDGE_CURVE('',#515,#516,#93,.T.);
#416=EDGE_CURVE('',#516,#517,#55,.T.);
#417=EDGE_CURVE('',#513,#517,#94,.T.);
#418=EDGE_CURVE('',#518,#519,#95,.T.);
#419=EDGE_CURVE('',#518,#520,#56,.T.);
#420=EDGE_CURVE('',#520,#521,#96,.T.);
#421=EDGE_CURVE('',#521,#519,#57,.T.);
#422=EDGE_CURVE('',#522,#523,#97,.T.);
#423=EDGE_CURVE('',#522,#524,#58,.T.);
#424=EDGE_CURVE('',#524,#525,#98,.T.);
#425=EDGE_CURVE('',#523,#525,#59,.T.);
#426=EDGE_CURVE('',#513,#512,#60,.T.);
#427=EDGE_CURVE('',#517,#525,#99,.T.);
#428=EDGE_CURVE('',#526,#524,#100,.T.);
#429=EDGE_CURVE('',#527,#526,#101,.T.);
#430=EDGE_CURVE('',#521,#527,#102,.T.);
#431=EDGE_CURVE('',#528,#520,#103,.T.);
#432=EDGE_CURVE('',#529,#528,#104,.T.);
#433=EDGE_CURVE('',#514,#529,#105,.T.);
#434=EDGE_CURVE('',#530,#530,#61,.T.);
#435=EDGE_CURVE('',#531,#532,#106,.T.);
#436=EDGE_CURVE('',#533,#531,#107,.T.);
#437=EDGE_CURVE('',#533,#534,#108,.T.);
#438=EDGE_CURVE('',#535,#534,#109,.T.);
#439=EDGE_CURVE('',#536,#535,#110,.T.);
#440=EDGE_CURVE('',#537,#536,#111,.T.);
#441=EDGE_CURVE('',#537,#538,#112,.T.);
#442=EDGE_CURVE('',#538,#539,#113,.T.);
#443=EDGE_CURVE('',#540,#539,#114,.T.);
#444=EDGE_CURVE('',#532,#540,#115,.T.);
#445=EDGE_CURVE('',#518,#533,#62,.T.);
#446=EDGE_CURVE('',#534,#519,#63,.T.);
#447=EDGE_CURVE('',#522,#537,#64,.T.);
#448=EDGE_CURVE('',#523,#538,#65,.T.);
#449=EDGE_CURVE('',#529,#532,#116,.T.);
#450=EDGE_CURVE('',#540,#515,#117,.T.);
#451=EDGE_CURVE('',#539,#516,#118,.T.);
#452=EDGE_CURVE('',#541,#541,#66,.T.);
#453=EDGE_CURVE('',#528,#531,#119,.T.);
#454=EDGE_CURVE('',#542,#542,#67,.F.);
#455=EDGE_CURVE('',#526,#536,#120,.T.);
#456=EDGE_CURVE('',#527,#535,#121,.T.);
#457=EDGE_CURVE('',#543,#543,#68,.F.);
#458=EDGE_CURVE('',#544,#544,#69,.F.);
#459=EDGE_CURVE('',#545,#545,#70,.T.);
#460=EDGE_CURVE('',#546,#546,#71,.T.);
#461=EDGE_CURVE('',#547,#547,#72,.T.);
#462=EDGE_CURVE('',#548,#548,#73,.T.);
#463=EDGE_CURVE('',#549,#549,#74,.T.);
#464=EDGE_CURVE('',#550,#551,#585,.T.);
#465=EDGE_CURVE('',#550,#552,#122,.T.);
#466=EDGE_CURVE('',#552,#553,#75,.T.);
#467=EDGE_CURVE('',#554,#553,#123,.T.);
#468=EDGE_CURVE('',#555,#554,#76,.T.);
#469=EDGE_CURVE('',#555,#551,#124,.T.);
#470=EDGE_CURVE('',#556,#556,#77,.T.);
#471=EDGE_CURVE('',#557,#558,#125,.T.);
#472=EDGE_CURVE('',#559,#557,#126,.T.);
#473=EDGE_CURVE('',#560,#559,#127,.T.);
#474=EDGE_CURVE('',#561,#560,#128,.T.);
#475=EDGE_CURVE('',#562,#561,#129,.T.);
#476=EDGE_CURVE('',#563,#562,#130,.T.);
#477=EDGE_CURVE('',#564,#563,#131,.T.);
#478=EDGE_CURVE('',#565,#564,#132,.T.);
#479=EDGE_CURVE('',#565,#566,#133,.T.);
#480=EDGE_CURVE('',#566,#558,#134,.T.);
#481=EDGE_CURVE('',#567,#563,#78,.T.);
#482=EDGE_CURVE('',#568,#567,#135,.T.);
#483=EDGE_CURVE('',#564,#568,#79,.T.);
#484=EDGE_CURVE('',#569,#559,#80,.T.);
#485=EDGE_CURVE('',#570,#569,#136,.T.);
#486=EDGE_CURVE('',#560,#570,#81,.T.);
#487=EDGE_CURVE('',#567,#571,#82,.T.);
#488=EDGE_CURVE('',#572,#571,#137,.T.);
#489=EDGE_CURVE('',#572,#568,#83,.T.);
#490=EDGE_CURVE('',#569,#573,#84,.T.);
#491=EDGE_CURVE('',#574,#573,#138,.T.);
#492=EDGE_CURVE('',#574,#570,#85,.T.);
#493=EDGE_CURVE('',#550,#551,#86,.T.);
#494=EDGE_CURVE('',#572,#555,#139,.T.);
#495=EDGE_CURVE('',#575,#571,#140,.T.);
#496=EDGE_CURVE('',#576,#575,#141,.T.);
#497=EDGE_CURVE('',#574,#576,#142,.T.);
#498=EDGE_CURVE('',#577,#573,#143,.T.);
#499=EDGE_CURVE('',#578,#577,#144,.T.);
#500=EDGE_CURVE('',#578,#552,#145,.T.);
#501=EDGE_CURVE('',#558,#578,#146,.T.);
#502=EDGE_CURVE('',#553,#566,#147,.T.);
#503=EDGE_CURVE('',#554,#565,#148,.T.);
#504=EDGE_CURVE('',#579,#579,#87,.T.);
#505=EDGE_CURVE('',#577,#557,#149,.T.);
#506=EDGE_CURVE('',#580,#580,#88,.F.);
#507=EDGE_CURVE('',#576,#561,#150,.T.);
#508=EDGE_CURVE('',#575,#562,#151,.T.);
#509=EDGE_CURVE('',#581,#581,#89,.F.);
#510=EDGE_CURVE('',#582,#582,#90,.F.);
#511=EDGE_CURVE('',#583,#583,#91,.T.);
#512=VERTEX_POINT('',#1133);
#513=VERTEX_POINT('',#1134);
#514=VERTEX_POINT('',#1136);
#515=VERTEX_POINT('',#1138);
#516=VERTEX_POINT('',#1140);
#517=VERTEX_POINT('',#1142);
#518=VERTEX_POINT('',#1146);
#519=VERTEX_POINT('',#1147);
#520=VERTEX_POINT('',#1149);
#521=VERTEX_POINT('',#1151);
#522=VERTEX_POINT('',#1155);
#523=VERTEX_POINT('',#1156);
#524=VERTEX_POINT('',#1158);
#525=VERTEX_POINT('',#1160);
#526=VERTEX_POINT('',#1166);
#527=VERTEX_POINT('',#1168);
#528=VERTEX_POINT('',#1171);
#529=VERTEX_POINT('',#1173);
#530=VERTEX_POINT('',#1177);
#531=VERTEX_POINT('',#1179);
#532=VERTEX_POINT('',#1180);
#533=VERTEX_POINT('',#1182);
#534=VERTEX_POINT('',#1184);
#535=VERTEX_POINT('',#1186);
#536=VERTEX_POINT('',#1188);
#537=VERTEX_POINT('',#1190);
#538=VERTEX_POINT('',#1192);
#539=VERTEX_POINT('',#1194);
#540=VERTEX_POINT('',#1196);
#541=VERTEX_POINT('',#1211);
#542=VERTEX_POINT('',#1216);
#543=VERTEX_POINT('',#1222);
#544=VERTEX_POINT('',#1225);
#545=VERTEX_POINT('',#1228);
#546=VERTEX_POINT('',#1235);
#547=VERTEX_POINT('',#1238);
#548=VERTEX_POINT('',#1241);
#549=VERTEX_POINT('',#1244);
#550=VERTEX_POINT('',#1253);
#551=VERTEX_POINT('',#1254);
#552=VERTEX_POINT('',#1256);
#553=VERTEX_POINT('',#1258);
#554=VERTEX_POINT('',#1260);
#555=VERTEX_POINT('',#1262);
#556=VERTEX_POINT('',#1266);
#557=VERTEX_POINT('',#1268);
#558=VERTEX_POINT('',#1269);
#559=VERTEX_POINT('',#1271);
#560=VERTEX_POINT('',#1273);
#561=VERTEX_POINT('',#1275);
#562=VERTEX_POINT('',#1277);
#563=VERTEX_POINT('',#1279);
#564=VERTEX_POINT('',#1281);
#565=VERTEX_POINT('',#1283);
#566=VERTEX_POINT('',#1285);
#567=VERTEX_POINT('',#1289);
#568=VERTEX_POINT('',#1291);
#569=VERTEX_POINT('',#1295);
#570=VERTEX_POINT('',#1297);
#571=VERTEX_POINT('',#1301);
#572=VERTEX_POINT('',#1303);
#573=VERTEX_POINT('',#1307);
#574=VERTEX_POINT('',#1309);
#575=VERTEX_POINT('',#1315);
#576=VERTEX_POINT('',#1317);
#577=VERTEX_POINT('',#1320);
#578=VERTEX_POINT('',#1322);
#579=VERTEX_POINT('',#1331);
#580=VERTEX_POINT('',#1336);
#581=VERTEX_POINT('',#1342);
#582=VERTEX_POINT('',#1345);
#583=VERTEX_POINT('',#1348);
#584=B_SPLINE_CURVE_WITH_KNOTS('',3,(#1128,#1129,#1130,#1131,#1132),
 .UNSPECIFIED.,.F.,.F.,(4,1,4),(8.67198482006447E-5,0.00185491020350778,
0.00362310055881492),.UNSPECIFIED.);
#585=B_SPLINE_CURVE_WITH_KNOTS('',3,(#1248,#1249,#1250,#1251,#1252),
 .UNSPECIFIED.,.F.,.F.,(4,1,4),(8.67198482006595E-5,0.00185491020350779,
0.00362310055881492),.UNSPECIFIED.);
#586=EDGE_LOOP('',(#212,#213,#214,#215,#216,#217));
#587=EDGE_LOOP('',(#218,#219,#220,#221));
#588=EDGE_LOOP('',(#222,#223,#224,#225));
#589=EDGE_LOOP('',(#226,#227,#228,#229,#230,#231,#232,#233,#234,#235,#236,
#237));
#590=EDGE_LOOP('',(#238));
#591=EDGE_LOOP('',(#239,#240,#241,#242,#243,#244,#245,#246,#247,#248));
#592=EDGE_LOOP('',(#249,#250,#251,#252));
#593=EDGE_LOOP('',(#253,#254,#255,#256));
#594=EDGE_LOOP('',(#257,#258,#259,#260,#261));
#595=EDGE_LOOP('',(#262,#263,#264,#265));
#596=EDGE_LOOP('',(#266));
#597=EDGE_LOOP('',(#267,#268,#269,#270,#271,#272));
#598=EDGE_LOOP('',(#273,#274,#275,#276));
#599=EDGE_LOOP('',(#277));
#600=EDGE_LOOP('',(#278,#279,#280,#281,#282));
#601=EDGE_LOOP('',(#283,#284,#285,#286));
#602=EDGE_LOOP('',(#287));
#603=EDGE_LOOP('',(#288,#289,#290,#291,#292));
#604=EDGE_LOOP('',(#293));
#605=EDGE_LOOP('',(#294,#295,#296,#297,#298));
#606=EDGE_LOOP('',(#299));
#607=EDGE_LOOP('',(#300,#301));
#608=EDGE_LOOP('',(#302));
#609=EDGE_LOOP('',(#303));
#610=EDGE_LOOP('',(#304));
#611=EDGE_LOOP('',(#305));
#612=EDGE_LOOP('',(#306));
#613=EDGE_LOOP('',(#307));
#614=EDGE_LOOP('',(#308));
#615=EDGE_LOOP('',(#309));
#616=EDGE_LOOP('',(#310));
#617=EDGE_LOOP('',(#311));
#618=EDGE_LOOP('',(#312));
#619=EDGE_LOOP('',(#313));
#620=EDGE_LOOP('',(#314));
#621=EDGE_LOOP('',(#315));
#622=EDGE_LOOP('',(#316,#317,#318,#319,#320,#321));
#623=EDGE_LOOP('',(#322));
#624=EDGE_LOOP('',(#323,#324,#325,#326,#327,#328,#329,#330,#331,#332));
#625=EDGE_LOOP('',(#333,#334,#335,#336));
#626=EDGE_LOOP('',(#337,#338,#339,#340));
#627=EDGE_LOOP('',(#341,#342,#343,#344));
#628=EDGE_LOOP('',(#345,#346,#347,#348));
#629=EDGE_LOOP('',(#349,#350,#351,#352,#353,#354,#355,#356,#357,#358,#359,
#360));
#630=EDGE_LOOP('',(#361,#362,#363,#364,#365));
#631=EDGE_LOOP('',(#366,#367,#368,#369));
#632=EDGE_LOOP('',(#370));
#633=EDGE_LOOP('',(#371,#372,#373,#374,#375,#376));
#634=EDGE_LOOP('',(#377,#378,#379,#380));
#635=EDGE_LOOP('',(#381));
#636=EDGE_LOOP('',(#382,#383,#384,#385,#386));
#637=EDGE_LOOP('',(#387,#388,#389,#390));
#638=EDGE_LOOP('',(#391));
#639=EDGE_LOOP('',(#392,#393,#394,#395,#396));
#640=EDGE_LOOP('',(#397));
#641=EDGE_LOOP('',(#398,#399,#400,#401,#402));
#642=EDGE_LOOP('',(#403));
#643=EDGE_LOOP('',(#404,#405));
#644=EDGE_LOOP('',(#406));
#645=EDGE_LOOP('',(#407));
#646=EDGE_LOOP('',(#408));
#647=EDGE_LOOP('',(#409));
#648=EDGE_LOOP('',(#410));
#649=EDGE_LOOP('',(#411));
#650=FACE_BOUND('',#586,.T.);
#651=FACE_BOUND('',#587,.T.);
#652=FACE_BOUND('',#588,.T.);
#653=FACE_BOUND('',#589,.T.);
#654=FACE_BOUND('',#590,.T.);
#655=FACE_BOUND('',#591,.T.);
#656=FACE_BOUND('',#592,.T.);
#657=FACE_BOUND('',#593,.T.);
#658=FACE_BOUND('',#594,.T.);
#659=FACE_BOUND('',#595,.T.);
#660=FACE_BOUND('',#596,.T.);
#661=FACE_BOUND('',#597,.T.);
#662=FACE_BOUND('',#598,.T.);
#663=FACE_BOUND('',#599,.T.);
#664=FACE_BOUND('',#600,.T.);
#665=FACE_BOUND('',#601,.T.);
#666=FACE_BOUND('',#602,.T.);
#667=FACE_BOUND('',#603,.T.);
#668=FACE_BOUND('',#604,.T.);
#669=FACE_BOUND('',#605,.T.);
#670=FACE_BOUND('',#606,.T.);
#671=FACE_BOUND('',#607,.T.);
#672=FACE_BOUND('',#608,.T.);
#673=FACE_BOUND('',#609,.T.);
#674=FACE_BOUND('',#610,.T.);
#675=FACE_BOUND('',#611,.T.);
#676=FACE_BOUND('',#612,.T.);
#677=FACE_BOUND('',#613,.T.);
#678=FACE_BOUND('',#614,.T.);
#679=FACE_BOUND('',#615,.T.);
#680=FACE_BOUND('',#616,.T.);
#681=FACE_BOUND('',#617,.T.);
#682=FACE_BOUND('',#618,.T.);
#683=FACE_BOUND('',#619,.T.);
#684=FACE_BOUND('',#620,.T.);
#685=FACE_BOUND('',#621,.T.);
#686=FACE_BOUND('',#622,.T.);
#687=FACE_BOUND('',#623,.T.);
#688=FACE_BOUND('',#624,.T.);
#689=FACE_BOUND('',#625,.T.);
#690=FACE_BOUND('',#626,.T.);
#691=FACE_BOUND('',#627,.T.);
#692=FACE_BOUND('',#628,.T.);
#693=FACE_BOUND('',#629,.T.);
#694=FACE_BOUND('',#630,.T.);
#695=FACE_BOUND('',#631,.T.);
#696=FACE_BOUND('',#632,.T.);
#697=FACE_BOUND('',#633,.T.);
#698=FACE_BOUND('',#634,.T.);
#699=FACE_BOUND('',#635,.T.);
#700=FACE_BOUND('',#636,.T.);
#701=FACE_BOUND('',#637,.T.);
#702=FACE_BOUND('',#638,.T.);
#703=FACE_BOUND('',#639,.T.);
#704=FACE_BOUND('',#640,.T.);
#705=FACE_BOUND('',#641,.T.);
#706=FACE_BOUND('',#642,.T.);
#707=FACE_BOUND('',#643,.T.);
#708=FACE_BOUND('',#644,.T.);
#709=FACE_BOUND('',#645,.T.);
#710=FACE_BOUND('',#646,.T.);
#711=FACE_BOUND('',#647,.T.);
#712=FACE_BOUND('',#648,.T.);
#713=FACE_BOUND('',#649,.T.);
#714=CYLINDRICAL_SURFACE('',#812,3.5);
#715=CYLINDRICAL_SURFACE('',#815,0.500000000000001);
#716=CYLINDRICAL_SURFACE('',#818,0.500000000000001);
#717=CYLINDRICAL_SURFACE('',#825,8.);
#718=CYLINDRICAL_SURFACE('',#828,8.);
#719=CYLINDRICAL_SURFACE('',#845,3.25);
#720=CYLINDRICAL_SURFACE('',#846,4.);
#721=CYLINDRICAL_SURFACE('',#847,4.);
#722=CYLINDRICAL_SURFACE('',#853,4.);
#723=CYLINDRICAL_SURFACE('',#859,3.5);
#724=CYLINDRICAL_SURFACE('',#864,8.);
#725=CYLINDRICAL_SURFACE('',#867,8.);
#726=CYLINDRICAL_SURFACE('',#870,0.500000000000001);
#727=CYLINDRICAL_SURFACE('',#873,0.500000000000001);
#728=CYLINDRICAL_SURFACE('',#892,3.25);
#729=CYLINDRICAL_SURFACE('',#893,4.);
#730=CYLINDRICAL_SURFACE('',#894,4.);
#731=ADVANCED_FACE('',(#650),#714,.T.);
#732=ADVANCED_FACE('',(#651),#715,.F.);
#733=ADVANCED_FACE('',(#652),#716,.F.);
#734=ADVANCED_FACE('',(#653),#32,.F.);
#735=ADVANCED_FACE('',(#654,#655),#33,.F.);
#736=ADVANCED_FACE('',(#656),#717,.T.);
#737=ADVANCED_FACE('',(#657),#718,.T.);
#738=ADVANCED_FACE('',(#658),#34,.T.);
#739=ADVANCED_FACE('',(#659),#35,.F.);
#740=ADVANCED_FACE('',(#660,#661),#36,.F.);
#741=ADVANCED_FACE('',(#662),#37,.T.);
#742=ADVANCED_FACE('',(#663,#664),#38,.T.);
#743=ADVANCED_FACE('',(#665),#39,.T.);
#744=ADVANCED_FACE('',(#666,#667),#40,.T.);
#745=ADVANCED_FACE('',(#668,#669),#41,.T.);
#746=ADVANCED_FACE('',(#670,#671),#30,.F.);
#747=ADVANCED_FACE('',(#672,#673),#719,.F.);
#748=ADVANCED_FACE('',(#674,#675),#720,.F.);
#749=ADVANCED_FACE('',(#676,#677),#721,.F.);
#750=ADVANCED_FACE('',(#678),#42,.F.);
#751=ADVANCED_FACE('',(#679,#680),#10,.T.);
#752=ADVANCED_FACE('',(#681,#682),#722,.T.);
#753=ADVANCED_FACE('',(#683,#684),#11,.T.);
#754=ADVANCED_FACE('',(#685),#43,.F.);
#755=ADVANCED_FACE('',(#686),#723,.T.);
#756=ADVANCED_FACE('',(#687,#688),#44,.F.);
#757=ADVANCED_FACE('',(#689),#724,.T.);
#758=ADVANCED_FACE('',(#690),#725,.T.);
#759=ADVANCED_FACE('',(#691),#726,.F.);
#760=ADVANCED_FACE('',(#692),#727,.F.);
#761=ADVANCED_FACE('',(#693),#45,.F.);
#762=ADVANCED_FACE('',(#694),#46,.F.);
#763=ADVANCED_FACE('',(#695),#47,.F.);
#764=ADVANCED_FACE('',(#696,#697),#48,.T.);
#765=ADVANCED_FACE('',(#698),#49,.T.);
#766=ADVANCED_FACE('',(#699,#700),#50,.T.);
#767=ADVANCED_FACE('',(#701),#51,.T.);
#768=ADVANCED_FACE('',(#702,#703),#52,.T.);
#769=ADVANCED_FACE('',(#704,#705),#53,.T.);
#770=ADVANCED_FACE('',(#706,#707),#31,.F.);
#771=ADVANCED_FACE('',(#708,#709),#728,.F.);
#772=ADVANCED_FACE('',(#710,#711),#729,.F.);
#773=ADVANCED_FACE('',(#712,#713),#730,.F.);
#774=CLOSED_SHELL('',(#731,#732,#733,#734,#735,#736,#737,#738,#739,#740,
#741,#742,#743,#744,#745,#746,#747,#748,#749));
#775=CLOSED_SHELL('',(#750,#751,#752,#753,#754));
#776=CLOSED_SHELL('',(#755,#756,#757,#758,#759,#760,#761,#762,#763,#764,
#765,#766,#767,#768,#769,#770,#771,#772,#773));
#777=STYLED_ITEM('',(#780),#800);
#778=STYLED_ITEM('',(#781),#801);
#779=STYLED_ITEM('',(#782),#802);
#780=PRESENTATION_STYLE_ASSIGNMENT((#783));
#781=PRESENTATION_STYLE_ASSIGNMENT((#784));
#782=PRESENTATION_STYLE_ASSIGNMENT((#785));
#783=SURFACE_STYLE_USAGE(.BOTH.,#786);
#784=SURFACE_STYLE_USAGE(.BOTH.,#787);
#785=SURFACE_STYLE_USAGE(.BOTH.,#788);
#786=SURFACE_SIDE_STYLE('',(#789));
#787=SURFACE_SIDE_STYLE('',(#790));
#788=SURFACE_SIDE_STYLE('',(#791));
#789=SURFACE_STYLE_FILL_AREA(#792);
#790=SURFACE_STYLE_FILL_AREA(#793);
#791=SURFACE_STYLE_FILL_AREA(#794);
#792=FILL_AREA_STYLE('',(#795));
#793=FILL_AREA_STYLE('',(#796));
#794=FILL_AREA_STYLE('',(#797));
#795=FILL_AREA_STYLE_COLOUR('',#798);
#796=FILL_AREA_STYLE_COLOUR('',#799);
#797=FILL_AREA_STYLE_COLOUR('',#798);
#798=COLOUR_RGB('',0.75,0.75,0.75);
#799=COLOUR_RGB('',0.689999997615814,0.689999997615814,0.689999997615814);
#800=MANIFOLD_SOLID_BREP('Hinges CFG.30/30 SH-6-C33 (0)1',#774);
#801=MANIFOLD_SOLID_BREP('Hinges CFG.30/30 SH-6-C33 (0)2',#775);
#802=MANIFOLD_SOLID_BREP('Hinges CFG.30/30 SH-6-C33 (0)-3',#776);
#803=SHAPE_DEFINITION_REPRESENTATION(#1365,#807);
#804=SHAPE_DEFINITION_REPRESENTATION(#1366,#808);
#805=SHAPE_DEFINITION_REPRESENTATION(#1368,#809);
#806=SHAPE_DEFINITION_REPRESENTATION(#1370,#810);
#807=SHAPE_REPRESENTATION('Hinges CFG.30/30 SH-6-C33 (0)',(#811,#848,#858,
#895),#1354);
#808=SHAPE_REPRESENTATION('Hinges CFG.30/30 SH-6-C33 (0)1',(#811),#1355);
#809=SHAPE_REPRESENTATION('Hinges CFG.30/30 SH-6-C33 (0)2',(#811),#1356);
#810=SHAPE_REPRESENTATION('Hinges CFG.30/30 SH-6-C33 (0)-3',(#811),#1357);
#811=AXIS2_PLACEMENT_3D('',#1126,#896,#897);
#812=AXIS2_PLACEMENT_3D('',#1127,#898,#899);
#813=AXIS2_PLACEMENT_3D('',#1137,#901,#902);
#814=AXIS2_PLACEMENT_3D('',#1141,#904,#905);
#815=AXIS2_PLACEMENT_3D('',#1144,#907,#908);
#816=AXIS2_PLACEMENT_3D('',#1148,#910,#911);
#817=AXIS2_PLACEMENT_3D('',#1152,#913,#914);
#818=AXIS2_PLACEMENT_3D('',#1153,#915,#916);
#819=AXIS2_PLACEMENT_3D('',#1157,#918,#919);
#820=AXIS2_PLACEMENT_3D('',#1161,#921,#922);
#821=AXIS2_PLACEMENT_3D('',#1162,#923,#924);
#822=AXIS2_PLACEMENT_3D('',#1163,#925,#926);
#823=AXIS2_PLACEMENT_3D('',#1175,#934,#935);
#824=AXIS2_PLACEMENT_3D('',#1176,#936,#937);
#825=AXIS2_PLACEMENT_3D('',#1198,#948,#949);
#826=AXIS2_PLACEMENT_3D('',#1199,#950,#951);
#827=AXIS2_PLACEMENT_3D('',#1200,#952,#953);
#828=AXIS2_PLACEMENT_3D('',#1201,#954,#955);
#829=AXIS2_PLACEMENT_3D('',#1202,#956,#957);
#830=AXIS2_PLACEMENT_3D('',#1203,#958,#959);
#831=AXIS2_PLACEMENT_3D('',#1204,#960,#961);
#832=AXIS2_PLACEMENT_3D('',#1207,#964,#965);
#833=AXIS2_PLACEMENT_3D('',#1209,#967,#968);
#834=AXIS2_PLACEMENT_3D('',#1210,#969,#970);
#835=AXIS2_PLACEMENT_3D('',#1212,#971,#972);
#836=AXIS2_PLACEMENT_3D('',#1214,#974,#975);
#837=AXIS2_PLACEMENT_3D('',#1215,#976,#977);
#838=AXIS2_PLACEMENT_3D('',#1217,#978,#979);
#839=AXIS2_PLACEMENT_3D('',#1220,#982,#983);
#840=AXIS2_PLACEMENT_3D('',#1221,#984,#985);
#841=AXIS2_PLACEMENT_3D('',#1223,#986,#987);
#842=AXIS2_PLACEMENT_3D('',#1224,#988,#989);
#843=AXIS2_PLACEMENT_3D('',#1226,#990,#991);
#844=AXIS2_PLACEMENT_3D('',#1227,#992,#993);
#845=AXIS2_PLACEMENT_3D('',#1229,#994,#995);
#846=AXIS2_PLACEMENT_3D('',#1230,#996,#997);
#847=AXIS2_PLACEMENT_3D('',#1231,#998,#999);
#848=AXIS2_PLACEMENT_3D('',#1232,#1000,#1001);
#849=AXIS2_PLACEMENT_3D('',#1233,#1002,#1003);
#850=AXIS2_PLACEMENT_3D('',#1234,#1004,#1005);
#851=AXIS2_PLACEMENT_3D('',#1236,#1006,#1007);
#852=AXIS2_PLACEMENT_3D('',#1237,#1008,#1009);
#853=AXIS2_PLACEMENT_3D('',#1239,#1010,#1011);
#854=AXIS2_PLACEMENT_3D('',#1240,#1012,#1013);
#855=AXIS2_PLACEMENT_3D('',#1242,#1014,#1015);
#856=AXIS2_PLACEMENT_3D('',#1243,#1016,#1017);
#857=AXIS2_PLACEMENT_3D('',#1245,#1018,#1019);
#858=AXIS2_PLACEMENT_3D('',#1246,#1020,#1021);
#859=AXIS2_PLACEMENT_3D('',#1247,#1022,#1023);
#860=AXIS2_PLACEMENT_3D('',#1257,#1025,#1026);
#861=AXIS2_PLACEMENT_3D('',#1261,#1028,#1029);
#862=AXIS2_PLACEMENT_3D('',#1264,#1031,#1032);
#863=AXIS2_PLACEMENT_3D('',#1265,#1033,#1034);
#864=AXIS2_PLACEMENT_3D('',#1287,#1045,#1046);
#865=AXIS2_PLACEMENT_3D('',#1288,#1047,#1048);
#866=AXIS2_PLACEMENT_3D('',#1292,#1050,#1051);
#867=AXIS2_PLACEMENT_3D('',#1293,#1052,#1053);
#868=AXIS2_PLACEMENT_3D('',#1294,#1054,#1055);
#869=AXIS2_PLACEMENT_3D('',#1298,#1057,#1058);
#870=AXIS2_PLACEMENT_3D('',#1299,#1059,#1060);
#871=AXIS2_PLACEMENT_3D('',#1300,#1061,#1062);
#872=AXIS2_PLACEMENT_3D('',#1304,#1064,#1065);
#873=AXIS2_PLACEMENT_3D('',#1305,#1066,#1067);
#874=AXIS2_PLACEMENT_3D('',#1306,#1068,#1069);
#875=AXIS2_PLACEMENT_3D('',#1310,#1071,#1072);
#876=AXIS2_PLACEMENT_3D('',#1311,#1073,#1074);
#877=AXIS2_PLACEMENT_3D('',#1312,#1075,#1076);
#878=AXIS2_PLACEMENT_3D('',#1324,#1084,#1085);
#879=AXIS2_PLACEMENT_3D('',#1327,#1088,#1089);
#880=AXIS2_PLACEMENT_3D('',#1329,#1091,#1092);
#881=AXIS2_PLACEMENT_3D('',#1330,#1093,#1094);
#882=AXIS2_PLACEMENT_3D('',#1332,#1095,#1096);
#883=AXIS2_PLACEMENT_3D('',#1334,#1098,#1099);
#884=AXIS2_PLACEMENT_3D('',#1335,#1100,#1101);
#885=AXIS2_PLACEMENT_3D('',#1337,#1102,#1103);
#886=AXIS2_PLACEMENT_3D('',#1340,#1106,#1107);
#887=AXIS2_PLACEMENT_3D('',#1341,#1108,#1109);
#888=AXIS2_PLACEMENT_3D('',#1343,#1110,#1111);
#889=AXIS2_PLACEMENT_3D('',#1344,#1112,#1113);
#890=AXIS2_PLACEMENT_3D('',#1346,#1114,#1115);
#891=AXIS2_PLACEMENT_3D('',#1347,#1116,#1117);
#892=AXIS2_PLACEMENT_3D('',#1349,#1118,#1119);
#893=AXIS2_PLACEMENT_3D('',#1350,#1120,#1121);
#894=AXIS2_PLACEMENT_3D('',#1351,#1122,#1123);
#895=AXIS2_PLACEMENT_3D('',#1352,#1124,#1125);
#896=DIRECTION('',(0.,0.,1.));
#897=DIRECTION('',(1.,0.,0.));
#898=DIRECTION('',(0.,0.,-1.));
#899=DIRECTION('',(-1.,0.,0.));
#900=DIRECTION('',(0.,0.,-1.));
#901=DIRECTION('',(0.,0.,1.));
#902=DIRECTION('',(1.,0.,0.));
#903=DIRECTION('',(0.,0.,-1.));
#904=DIRECTION('',(0.,0.,1.));
#905=DIRECTION('',(1.,0.,0.));
#906=DIRECTION('',(0.,0.,-1.));
#907=DIRECTION('',(0.,0.,-1.));
#908=DIRECTION('',(-1.,0.,0.));
#909=DIRECTION('',(0.,0.,-1.));
#910=DIRECTION('',(-3.06127672231201E-16,0.,1.));
#911=DIRECTION('',(1.,0.,3.06127672231201E-16));
#912=DIRECTION('',(0.,0.,-1.));
#913=DIRECTION('',(1.65723918745618E-16,0.,-1.));
#914=DIRECTION('',(-1.,0.,-1.65723918745618E-16));
#915=DIRECTION('',(0.,0.,-1.));
#916=DIRECTION('',(-1.,0.,0.));
#917=DIRECTION('',(0.,0.,-1.));
#918=DIRECTION('',(-3.06127672231201E-16,0.,1.));
#919=DIRECTION('',(1.,0.,3.06127672231201E-16));
#920=DIRECTION('',(0.,0.,-1.));
#921=DIRECTION('',(0.,0.,1.));
#922=DIRECTION('',(1.,0.,0.));
#923=DIRECTION('',(0.,-1.,0.));
#924=DIRECTION('',(0.,0.,-1.));
#925=DIRECTION('',(0.,1.,0.));
#926=DIRECTION('',(0.,0.,1.));
#927=DIRECTION('',(-1.,0.,0.));
#928=DIRECTION('',(-1.,0.,-3.06127672231201E-16));
#929=DIRECTION('',(1.92747052886312E-16,0.,-1.));
#930=DIRECTION('',(1.,0.,1.65723918745618E-16));
#931=DIRECTION('',(-1.,0.,-3.06127672231201E-16));
#932=DIRECTION('',(0.,0.,-1.));
#933=DIRECTION('',(-1.,0.,0.));
#934=DIRECTION('',(0.,1.,0.));
#935=DIRECTION('',(0.,0.,1.));
#936=DIRECTION('',(0.,1.,0.));
#937=DIRECTION('',(0.,0.,1.));
#938=DIRECTION('',(0.,0.,1.));
#939=DIRECTION('',(1.,0.,3.06127672231201E-16));
#940=DIRECTION('',(0.,0.,-1.));
#941=DIRECTION('',(-1.,0.,-1.65723918745618E-16));
#942=DIRECTION('',(-1.92747052886312E-16,0.,1.));
#943=DIRECTION('',(1.,0.,3.06127672231201E-16));
#944=DIRECTION('',(0.,0.,-1.));
#945=DIRECTION('',(1.,0.,0.));
#946=DIRECTION('',(0.,0.,-1.));
#947=DIRECTION('',(1.,0.,0.));
#948=DIRECTION('',(0.,0.,-1.));
#949=DIRECTION('',(-1.,0.,0.));
#950=DIRECTION('',(-3.06127672231201E-16,0.,1.));
#951=DIRECTION('',(1.,0.,3.06127672231201E-16));
#952=DIRECTION('',(1.65723918745618E-16,0.,-1.));
#953=DIRECTION('',(-1.,0.,-1.65723918745618E-16));
#954=DIRECTION('',(0.,0.,-1.));
#955=DIRECTION('',(-1.,0.,0.));
#956=DIRECTION('',(-3.06127672231201E-16,0.,1.));
#957=DIRECTION('',(1.,0.,3.06127672231201E-16));
#958=DIRECTION('',(0.,0.,1.));
#959=DIRECTION('',(1.,0.,0.));
#960=DIRECTION('',(0.,0.,1.));
#961=DIRECTION('',(1.,0.,0.));
#962=DIRECTION('',(0.,-1.,0.));
#963=DIRECTION('',(0.,1.,0.));
#964=DIRECTION('',(-1.,0.,0.));
#965=DIRECTION('',(0.,0.,1.));
#966=DIRECTION('',(0.,1.,0.));
#967=DIRECTION('',(0.,0.,1.));
#968=DIRECTION('',(1.,0.,0.));
#969=DIRECTION('',(0.,0.,1.));
#970=DIRECTION('',(1.,0.,0.));
#971=DIRECTION('',(-1.,0.,0.));
#972=DIRECTION('',(0.,0.,1.));
#973=DIRECTION('',(0.,-1.,0.));
#974=DIRECTION('',(-3.06127672231201E-16,0.,1.));
#975=DIRECTION('',(1.,0.,3.06127672231201E-16));
#976=DIRECTION('',(-3.06127672231201E-16,0.,1.));
#977=DIRECTION('',(1.,0.,3.06127672231201E-16));
#978=DIRECTION('',(-1.,0.,-1.92747052886312E-16));
#979=DIRECTION('',(-1.92747052886312E-16,0.,1.));
#980=DIRECTION('',(0.,-1.,0.));
#981=DIRECTION('',(0.,-1.,0.));
#982=DIRECTION('',(1.65723918745618E-16,0.,-1.));
#983=DIRECTION('',(-1.,0.,-1.65723918745618E-16));
#984=DIRECTION('',(1.65723918745618E-16,0.,-1.));
#985=DIRECTION('',(-1.,0.,-1.65723918745618E-16));
#986=DIRECTION('',(-3.06127672231201E-16,0.,1.));
#987=DIRECTION('',(1.,0.,3.06127672231201E-16));
#988=DIRECTION('',(-3.06127672231201E-16,0.,1.));
#989=DIRECTION('',(1.,0.,3.06127672231201E-16));
#990=DIRECTION('',(0.,1.,0.));
#991=DIRECTION('',(0.,0.,1.));
#992=DIRECTION('',(0.,1.,0.));
#993=DIRECTION('',(0.,0.,1.));
#994=DIRECTION('',(0.,1.,0.));
#995=DIRECTION('',(0.,0.,1.));
#996=DIRECTION('',(0.,0.,-1.));
#997=DIRECTION('',(-1.,0.,0.));
#998=DIRECTION('',(0.,0.,-1.));
#999=DIRECTION('',(-1.,0.,0.));
#1000=DIRECTION('',(0.,0.,1.));
#1001=DIRECTION('',(1.,0.,0.));
#1002=DIRECTION('',(0.,0.,-1.));
#1003=DIRECTION('',(-1.,0.,0.));
#1004=DIRECTION('',(0.,0.,-1.));
#1005=DIRECTION('',(-1.,0.,0.));
#1006=DIRECTION('',(0.,0.,-1.));
#1007=DIRECTION('',(-1.,0.,0.));
#1008=DIRECTION('',(0.,0.,-1.));
#1009=DIRECTION('',(-1.,0.,0.));
#1010=DIRECTION('',(0.,0.,-1.));
#1011=DIRECTION('',(-1.,0.,0.));
#1012=DIRECTION('',(0.,0.,-1.));
#1013=DIRECTION('',(-1.,0.,0.));
#1014=DIRECTION('',(0.,0.,-1.));
#1015=DIRECTION('',(-1.,0.,0.));
#1016=DIRECTION('',(0.,0.,-1.));
#1017=DIRECTION('',(-1.,0.,0.));
#1018=DIRECTION('',(0.,0.,1.));
#1019=DIRECTION('',(1.,0.,0.));
#1020=DIRECTION('',(0.,0.,-1.));
#1021=DIRECTION('',(1.,0.,0.));
#1022=DIRECTION('',(0.,0.,-1.));
#1023=DIRECTION('',(-1.,0.,0.));
#1024=DIRECTION('',(0.,0.,-1.));
#1025=DIRECTION('',(0.,0.,1.));
#1026=DIRECTION('',(1.,0.,0.));
#1027=DIRECTION('',(0.,0.,-1.));
#1028=DIRECTION('',(0.,0.,1.));
#1029=DIRECTION('',(1.,0.,0.));
#1030=DIRECTION('',(0.,0.,-1.));
#1031=DIRECTION('',(0.,1.,0.));
#1032=DIRECTION('',(0.,0.,1.));
#1033=DIRECTION('',(0.,-1.,0.));
#1034=DIRECTION('',(0.,0.,-1.));
#1035=DIRECTION('',(0.,0.,-1.));
#1036=DIRECTION('',(-1.,0.,0.));
#1037=DIRECTION('',(0.,0.,-1.));
#1038=DIRECTION('',(1.,0.,0.));
#1039=DIRECTION('',(0.,0.,-1.));
#1040=DIRECTION('',(-1.,0.,0.));
#1041=DIRECTION('',(0.,0.,-1.));
#1042=DIRECTION('',(1.,0.,0.));
#1043=DIRECTION('',(0.,0.,-1.));
#1044=DIRECTION('',(1.,0.,0.));
#1045=DIRECTION('',(0.,0.,-1.));
#1046=DIRECTION('',(-1.,0.,0.));
#1047=DIRECTION('',(0.,0.,-1.));
#1048=DIRECTION('',(-1.,0.,0.));
#1049=DIRECTION('',(0.,0.,-1.));
#1050=DIRECTION('',(0.,0.,1.));
#1051=DIRECTION('',(1.,0.,0.));
#1052=DIRECTION('',(0.,0.,-1.));
#1053=DIRECTION('',(-1.,0.,0.));
#1054=DIRECTION('',(0.,0.,-1.));
#1055=DIRECTION('',(-1.,0.,0.));
#1056=DIRECTION('',(0.,0.,-1.));
#1057=DIRECTION('',(0.,0.,1.));
#1058=DIRECTION('',(1.,0.,0.));
#1059=DIRECTION('',(0.,0.,-1.));
#1060=DIRECTION('',(-1.,0.,0.));
#1061=DIRECTION('',(0.,0.,-1.));
#1062=DIRECTION('',(-1.,0.,0.));
#1063=DIRECTION('',(0.,0.,-1.));
#1064=DIRECTION('',(0.,0.,1.));
#1065=DIRECTION('',(1.,0.,0.));
#1066=DIRECTION('',(0.,0.,-1.));
#1067=DIRECTION('',(-1.,0.,0.));
#1068=DIRECTION('',(0.,0.,-1.));
#1069=DIRECTION('',(-1.,0.,0.));
#1070=DIRECTION('',(0.,0.,-1.));
#1071=DIRECTION('',(0.,0.,1.));
#1072=DIRECTION('',(1.,0.,0.));
#1073=DIRECTION('',(0.,-1.,0.));
#1074=DIRECTION('',(0.,0.,-1.));
#1075=DIRECTION('',(0.,-1.,0.));
#1076=DIRECTION('',(0.,0.,-1.));
#1077=DIRECTION('',(-1.,0.,0.));
#1078=DIRECTION('',(1.,0.,0.));
#1079=DIRECTION('',(0.,0.,1.));
#1080=DIRECTION('',(-1.,0.,0.));
#1081=DIRECTION('',(1.,0.,0.));
#1082=DIRECTION('',(0.,0.,1.));
#1083=DIRECTION('',(-1.,0.,0.));
#1084=DIRECTION('',(0.,0.,1.));
#1085=DIRECTION('',(1.,0.,0.));
#1086=DIRECTION('',(0.,1.,0.));
#1087=DIRECTION('',(0.,-1.,0.));
#1088=DIRECTION('',(1.,0.,0.));
#1089=DIRECTION('',(0.,0.,-1.));
#1090=DIRECTION('',(0.,-1.,0.));
#1091=DIRECTION('',(0.,0.,1.));
#1092=DIRECTION('',(1.,0.,0.));
#1093=DIRECTION('',(0.,0.,1.));
#1094=DIRECTION('',(1.,0.,0.));
#1095=DIRECTION('',(1.,0.,0.));
#1096=DIRECTION('',(0.,0.,-1.));
#1097=DIRECTION('',(0.,-1.,0.));
#1098=DIRECTION('',(0.,0.,-1.));
#1099=DIRECTION('',(-1.,0.,0.));
#1100=DIRECTION('',(0.,0.,-1.));
#1101=DIRECTION('',(-1.,0.,0.));
#1102=DIRECTION('',(1.,0.,0.));
#1103=DIRECTION('',(0.,0.,-1.));
#1104=DIRECTION('',(0.,-1.,0.));
#1105=DIRECTION('',(0.,-1.,0.));
#1106=DIRECTION('',(0.,0.,-1.));
#1107=DIRECTION('',(-1.,0.,0.));
#1108=DIRECTION('',(0.,0.,-1.));
#1109=DIRECTION('',(-1.,0.,0.));
#1110=DIRECTION('',(0.,0.,1.));
#1111=DIRECTION('',(1.,0.,0.));
#1112=DIRECTION('',(0.,0.,1.));
#1113=DIRECTION('',(1.,0.,0.));
#1114=DIRECTION('',(0.,1.,0.));
#1115=DIRECTION('',(0.,0.,1.));
#1116=DIRECTION('',(0.,-1.,0.));
#1117=DIRECTION('',(0.,0.,-1.));
#1118=DIRECTION('',(0.,-1.,0.));
#1119=DIRECTION('',(0.,0.,-1.));
#1120=DIRECTION('',(0.,0.,-1.));
#1121=DIRECTION('',(-1.,0.,0.));
#1122=DIRECTION('',(0.,0.,-1.));
#1123=DIRECTION('',(-1.,0.,0.));
#1124=DIRECTION('',(0.,0.,1.));
#1125=DIRECTION('',(1.,0.,0.));
#1126=CARTESIAN_POINT('',(0.,0.,0.));
#1127=CARTESIAN_POINT('',(23.5,-3.5,18.));
#1128=CARTESIAN_POINT('',(23.5,-5.26241144775931E-16,1.75000000000003));
#1129=CARTESIAN_POINT('',(23.6664972514031,-5.26241144775931E-16,1.17915228090361));
#1130=CARTESIAN_POINT('',(23.8167936227771,-0.016703842921489,-0.00320243479756265));
#1131=CARTESIAN_POINT('',(23.6665070042106,-6.32003056867372E-16,-1.17911884270653));
#1132=CARTESIAN_POINT('',(23.5,-6.32003056867372E-16,-1.75000000000002));
#1133=CARTESIAN_POINT('',(23.5,-4.33680868994202E-16,1.75000000000003));
#1134=CARTESIAN_POINT('',(23.5,0.,-1.75000000000003));
#1135=CARTESIAN_POINT('',(23.5,-4.33680868994202E-16,18.));
#1136=CARTESIAN_POINT('',(23.5,-4.33680868994202E-16,18.));
#1137=CARTESIAN_POINT('',(23.5,-3.5,18.));
#1138=CARTESIAN_POINT('',(27.,-3.5,18.));
#1139=CARTESIAN_POINT('',(27.,-3.5,18.));
#1140=CARTESIAN_POINT('',(27.,-3.5,-18.));
#1141=CARTESIAN_POINT('',(23.5,-3.5,-18.));
#1142=CARTESIAN_POINT('',(23.5,-4.33680868994202E-16,-18.));
#1143=CARTESIAN_POINT('',(23.5,-4.33680868994202E-16,18.));
#1144=CARTESIAN_POINT('',(8.48528137423857,0.500000000000001,18.));
#1145=CARTESIAN_POINT('',(7.98614717575395,0.470588235294118,18.));
#1146=CARTESIAN_POINT('',(7.98614717575395,0.470588235294118,9.));
#1147=CARTESIAN_POINT('',(7.98614717575395,0.470588235294118,-2.14595134630842E-15));
#1148=CARTESIAN_POINT('',(8.48528137423857,0.500000000000001,9.));
#1149=CARTESIAN_POINT('',(8.48528137423857,0.,9.));
#1150=CARTESIAN_POINT('',(8.48528137423857,0.,18.));
#1151=CARTESIAN_POINT('',(8.48528137423857,0.,2.88889491658085E-31));
#1152=CARTESIAN_POINT('',(8.48528137423857,0.500000000000001,0.));
#1153=CARTESIAN_POINT('',(8.48528137423857,0.500000000000001,18.));
#1154=CARTESIAN_POINT('',(7.98614717575395,0.470588235294118,18.));
#1155=CARTESIAN_POINT('',(7.98614717575395,0.470588235294118,-9.));
#1156=CARTESIAN_POINT('',(7.98614717575395,0.470588235294118,-18.));
#1157=CARTESIAN_POINT('',(8.48528137423857,0.500000000000001,-9.));
#1158=CARTESIAN_POINT('',(8.48528137423857,0.,-9.));
#1159=CARTESIAN_POINT('',(8.48528137423857,0.,18.));
#1160=CARTESIAN_POINT('',(8.48528137423857,0.,-18.));
#1161=CARTESIAN_POINT('',(8.48528137423857,0.500000000000001,-18.));
#1162=CARTESIAN_POINT('',(23.5,0.,18.));
#1163=CARTESIAN_POINT('',(17.5,0.,0.));
#1164=CARTESIAN_POINT('',(23.5,0.,-18.));
#1165=CARTESIAN_POINT('',(23.5,0.,-8.99999999999999));
#1166=CARTESIAN_POINT('',(8.5,0.,-9.));
#1167=CARTESIAN_POINT('',(8.5,0.,18.));
#1168=CARTESIAN_POINT('',(8.5,0.,1.04094977927525E-15));
#1169=CARTESIAN_POINT('',(23.5,0.,3.46944695195361E-15));
#1170=CARTESIAN_POINT('',(23.5,0.,9.00000000000001));
#1171=CARTESIAN_POINT('',(8.5,0.,9.));
#1172=CARTESIAN_POINT('',(8.5,0.,18.));
#1173=CARTESIAN_POINT('',(8.5,-2.16840434497101E-16,18.));
#1174=CARTESIAN_POINT('',(23.5,0.,18.));
#1175=CARTESIAN_POINT('',(0.,-8.,18.));
#1176=CARTESIAN_POINT('',(17.5,-8.,0.));
#1177=CARTESIAN_POINT('',(17.5,-8.,3.25));
#1178=CARTESIAN_POINT('',(8.5,-8.,18.));
#1179=CARTESIAN_POINT('',(8.5,-8.,9.));
#1180=CARTESIAN_POINT('',(8.5,-8.,18.));
#1181=CARTESIAN_POINT('',(2.75514905008081E-15,-8.,9.));
#1182=CARTESIAN_POINT('',(-1.68641659347392E-15,-8.,9.));
#1183=CARTESIAN_POINT('',(-1.68641659347392E-15,-8.,18.));
#1184=CARTESIAN_POINT('',(-1.68641659347393E-15,-8.,-3.46944695195361E-15));
#1185=CARTESIAN_POINT('',(2.98303053742112E-15,-8.,-3.46944695195361E-15));
#1186=CARTESIAN_POINT('',(8.5,-8.,1.04094977927525E-15));
#1187=CARTESIAN_POINT('',(8.5,-8.,18.));
#1188=CARTESIAN_POINT('',(8.5,-8.,-9.));
#1189=CARTESIAN_POINT('',(8.26544715024244E-15,-8.,-9.));
#1190=CARTESIAN_POINT('',(-1.68641659347392E-15,-8.,-9.));
#1191=CARTESIAN_POINT('',(-1.68641659347392E-15,-8.,18.));
#1192=CARTESIAN_POINT('',(-1.68641659347392E-15,-8.,-18.));
#1193=CARTESIAN_POINT('',(0.,-8.,-18.));
#1194=CARTESIAN_POINT('',(27.,-8.,-18.));
#1195=CARTESIAN_POINT('',(27.,-8.,18.));
#1196=CARTESIAN_POINT('',(27.,-8.,18.));
#1197=CARTESIAN_POINT('',(0.,-8.,18.));
#1198=CARTESIAN_POINT('',(-2.16840434497101E-16,8.67361737988404E-16,18.));
#1199=CARTESIAN_POINT('',(-2.16840434497101E-16,8.67361737988404E-16,9.));
#1200=CARTESIAN_POINT('',(-2.16840434497101E-16,8.67361737988404E-16,-3.46944695195361E-15));
#1201=CARTESIAN_POINT('',(-2.16840434497101E-16,8.67361737988404E-16,18.));
#1202=CARTESIAN_POINT('',(-2.16840434497101E-16,8.67361737988404E-16,-9.));
#1203=CARTESIAN_POINT('',(-2.16840434497101E-16,8.67361737988404E-16,-18.));
#1204=CARTESIAN_POINT('',(8.48528137423857,0.500000000000001,18.));
#1205=CARTESIAN_POINT('',(8.5,0.500000000000001,18.));
#1206=CARTESIAN_POINT('',(27.,-8.,18.));
#1207=CARTESIAN_POINT('',(27.,-8.,18.));
#1208=CARTESIAN_POINT('',(27.,-8.,-18.));
#1209=CARTESIAN_POINT('',(8.48528137423857,0.500000000000001,-18.));
#1210=CARTESIAN_POINT('',(0.,0.,-18.));
#1211=CARTESIAN_POINT('',(4.,0.,-18.));
#1212=CARTESIAN_POINT('',(8.5,8.42105263157895,18.001));
#1213=CARTESIAN_POINT('',(8.5,8.42105263157895,9.));
#1214=CARTESIAN_POINT('',(8.5,8.42105263157895,9.));
#1215=CARTESIAN_POINT('',(0.,0.,9.));
#1216=CARTESIAN_POINT('',(4.,0.,9.));
#1217=CARTESIAN_POINT('',(8.5,8.42105263157895,1.04094977927525E-15));
#1218=CARTESIAN_POINT('',(8.5,8.42105263157895,-9.));
#1219=CARTESIAN_POINT('',(8.5,8.42105263157895,1.04094977927525E-15));
#1220=CARTESIAN_POINT('',(-8.5,8.42105263157895,-1.77635683940025E-15));
#1221=CARTESIAN_POINT('',(0.,0.,-3.46944695195361E-15));
#1222=CARTESIAN_POINT('',(-4.,0.,-4.13234262693609E-15));
#1223=CARTESIAN_POINT('',(8.5,8.42105263157895,-9.));
#1224=CARTESIAN_POINT('',(0.,0.,-9.));
#1225=CARTESIAN_POINT('',(4.,0.,-9.));
#1226=CARTESIAN_POINT('',(17.5,-3.,0.));
#1227=CARTESIAN_POINT('',(17.5,-3.,0.));
#1228=CARTESIAN_POINT('',(17.5,-3.,3.25));
#1229=CARTESIAN_POINT('',(17.5,0.,0.));
#1230=CARTESIAN_POINT('',(0.,0.,18.));
#1231=CARTESIAN_POINT('',(0.,0.,18.));
#1232=CARTESIAN_POINT('',(0.,0.,0.));
#1233=CARTESIAN_POINT('',(0.,0.,18.));
#1234=CARTESIAN_POINT('',(0.,0.,18.));
#1235=CARTESIAN_POINT('',(-3.2,0.,18.));
#1236=CARTESIAN_POINT('',(0.,0.,17.2));
#1237=CARTESIAN_POINT('',(0.,0.,17.2));
#1238=CARTESIAN_POINT('',(-4.,0.,17.2));
#1239=CARTESIAN_POINT('',(0.,0.,-18.));
#1240=CARTESIAN_POINT('',(0.,0.,-17.2));
#1241=CARTESIAN_POINT('',(-4.,0.,-17.2));
#1242=CARTESIAN_POINT('',(0.,0.,-17.2));
#1243=CARTESIAN_POINT('',(0.,0.,-18.));
#1244=CARTESIAN_POINT('',(-3.2,0.,-18.));
#1245=CARTESIAN_POINT('',(0.,3.2,-18.));
#1246=CARTESIAN_POINT('',(0.,0.,0.));
#1247=CARTESIAN_POINT('',(-23.5,-3.5,18.));
#1248=CARTESIAN_POINT('',(-23.5,8.46825557615584E-18,-1.75000000000001));
#1249=CARTESIAN_POINT('',(-23.6664972514031,-1.56575567677905E-16,-1.1791522809036));
#1250=CARTESIAN_POINT('',(-23.8167936227771,-0.0167038429214881,0.00320243479757013));
#1251=CARTESIAN_POINT('',(-23.6665070042106,-1.34384435283137E-16,1.17911884270653));
#1252=CARTESIAN_POINT('',(-23.5,-1.34384435283137E-16,1.75000000000002));
#1253=CARTESIAN_POINT('',(-23.5,0.,-1.75000000000001));
#1254=CARTESIAN_POINT('',(-23.5,0.,1.75000000000003));
#1255=CARTESIAN_POINT('',(-23.5,0.,18.));
#1256=CARTESIAN_POINT('',(-23.5,0.,-18.));
#1257=CARTESIAN_POINT('',(-23.5,-3.5,-18.));
#1258=CARTESIAN_POINT('',(-27.,-3.5,-18.));
#1259=CARTESIAN_POINT('',(-27.,-3.5,18.));
#1260=CARTESIAN_POINT('',(-27.,-3.5,18.));
#1261=CARTESIAN_POINT('',(-23.5,-3.5,18.));
#1262=CARTESIAN_POINT('',(-23.5,0.,18.));
#1263=CARTESIAN_POINT('',(-23.5,0.,18.));
#1264=CARTESIAN_POINT('',(-27.,-8.,18.));
#1265=CARTESIAN_POINT('',(-17.5,-8.,0.));
#1266=CARTESIAN_POINT('',(-17.5,-8.,-3.25));
#1267=CARTESIAN_POINT('',(-8.5,-8.,18.));
#1268=CARTESIAN_POINT('',(-8.5,-8.,-9.));
#1269=CARTESIAN_POINT('',(-8.5,-8.,-18.));
#1270=CARTESIAN_POINT('',(-27.,-8.,-9.));
#1271=CARTESIAN_POINT('',(0.,-8.,-9.));
#1272=CARTESIAN_POINT('',(0.,-8.,18.));
#1273=CARTESIAN_POINT('',(0.,-8.,0.));
#1274=CARTESIAN_POINT('',(-27.,-8.,0.));
#1275=CARTESIAN_POINT('',(-8.5,-8.,0.));
#1276=CARTESIAN_POINT('',(-8.5,-8.,18.));
#1277=CARTESIAN_POINT('',(-8.5,-8.,9.));
#1278=CARTESIAN_POINT('',(-27.,-8.,9.));
#1279=CARTESIAN_POINT('',(0.,-8.,9.));
#1280=CARTESIAN_POINT('',(0.,-8.,18.));
#1281=CARTESIAN_POINT('',(0.,-8.,18.));
#1282=CARTESIAN_POINT('',(-27.,-8.,18.));
#1283=CARTESIAN_POINT('',(-27.,-8.,18.));
#1284=CARTESIAN_POINT('',(-27.,-8.,18.));
#1285=CARTESIAN_POINT('',(-27.,-8.,-18.));
#1286=CARTESIAN_POINT('',(-27.,-8.,-18.));
#1287=CARTESIAN_POINT('',(4.33680868994202E-16,6.50521303491303E-16,18.));
#1288=CARTESIAN_POINT('',(4.33680868994202E-16,6.50521303491303E-16,9.));
#1289=CARTESIAN_POINT('',(-7.98614717575395,0.47058823529412,9.));
#1290=CARTESIAN_POINT('',(-7.98614717575395,0.47058823529412,18.));
#1291=CARTESIAN_POINT('',(-7.98614717575395,0.47058823529412,18.));
#1292=CARTESIAN_POINT('',(4.33680868994202E-16,6.50521303491303E-16,18.));
#1293=CARTESIAN_POINT('',(4.33680868994202E-16,6.50521303491303E-16,18.));
#1294=CARTESIAN_POINT('',(4.33680868994202E-16,6.50521303491303E-16,-9.));
#1295=CARTESIAN_POINT('',(-7.98614717575395,0.47058823529412,-9.));
#1296=CARTESIAN_POINT('',(-7.98614717575395,0.47058823529412,18.));
#1297=CARTESIAN_POINT('',(-7.98614717575395,0.47058823529412,0.));
#1298=CARTESIAN_POINT('',(4.33680868994202E-16,6.50521303491303E-16,0.));
#1299=CARTESIAN_POINT('',(-8.48528137423857,0.5,18.));
#1300=CARTESIAN_POINT('',(-8.48528137423857,0.5,9.));
#1301=CARTESIAN_POINT('',(-8.48528137423857,0.,9.));
#1302=CARTESIAN_POINT('',(-8.48528137423857,-1.51788304147971E-15,18.));
#1303=CARTESIAN_POINT('',(-8.48528137423857,-1.51788304147971E-15,18.));
#1304=CARTESIAN_POINT('',(-8.48528137423857,0.5,18.));
#1305=CARTESIAN_POINT('',(-8.48528137423857,0.5,18.));
#1306=CARTESIAN_POINT('',(-8.48528137423857,0.5,-9.));
#1307=CARTESIAN_POINT('',(-8.48528137423857,0.,-9.));
#1308=CARTESIAN_POINT('',(-8.48528137423857,-1.51788304147971E-15,18.));
#1309=CARTESIAN_POINT('',(-8.48528137423857,-1.51788304147971E-15,0.));
#1310=CARTESIAN_POINT('',(-8.48528137423857,0.5,0.));
#1311=CARTESIAN_POINT('',(-8.48528137423857,0.,18.));
#1312=CARTESIAN_POINT('',(-17.5,0.,0.));
#1313=CARTESIAN_POINT('',(-8.48528137423857,0.,18.));
#1314=CARTESIAN_POINT('',(-8.48528137423857,0.,9.));
#1315=CARTESIAN_POINT('',(-8.5,0.,9.));
#1316=CARTESIAN_POINT('',(-8.5,0.,18.));
#1317=CARTESIAN_POINT('',(-8.5,0.,0.));
#1318=CARTESIAN_POINT('',(-8.48528137423857,0.,0.));
#1319=CARTESIAN_POINT('',(-8.48528137423857,0.,-9.));
#1320=CARTESIAN_POINT('',(-8.5,0.,-9.));
#1321=CARTESIAN_POINT('',(-8.5,0.,18.));
#1322=CARTESIAN_POINT('',(-8.5,-8.67361737988404E-16,-18.));
#1323=CARTESIAN_POINT('',(-8.48528137423857,0.,-18.));
#1324=CARTESIAN_POINT('',(-23.5,-3.5,-18.));
#1325=CARTESIAN_POINT('',(-8.5,-3.5,-18.));
#1326=CARTESIAN_POINT('',(-27.,-3.5,-18.));
#1327=CARTESIAN_POINT('',(-27.,-3.5,18.));
#1328=CARTESIAN_POINT('',(-27.,-3.5,18.));
#1329=CARTESIAN_POINT('',(-23.5,-3.5,18.));
#1330=CARTESIAN_POINT('',(0.,0.,18.));
#1331=CARTESIAN_POINT('',(4.,0.,18.));
#1332=CARTESIAN_POINT('',(-8.5,8.42105263157895,-18.001));
#1333=CARTESIAN_POINT('',(-8.5,8.42105263157895,-9.));
#1334=CARTESIAN_POINT('',(-8.5,8.42105263157895,-9.));
#1335=CARTESIAN_POINT('',(0.,0.,-9.));
#1336=CARTESIAN_POINT('',(-4.,0.,-9.));
#1337=CARTESIAN_POINT('',(-8.5,8.42105263157895,0.));
#1338=CARTESIAN_POINT('',(-8.5,8.42105263157895,0.));
#1339=CARTESIAN_POINT('',(-8.5,8.42105263157895,9.));
#1340=CARTESIAN_POINT('',(-8.5,8.42105263157895,9.));
#1341=CARTESIAN_POINT('',(0.,0.,9.));
#1342=CARTESIAN_POINT('',(-4.,0.,9.));
#1343=CARTESIAN_POINT('',(8.5,8.42105263157895,0.));
#1344=CARTESIAN_POINT('',(0.,0.,0.));
#1345=CARTESIAN_POINT('',(4.,0.,0.));
#1346=CARTESIAN_POINT('',(-17.5,0.,0.));
#1347=CARTESIAN_POINT('',(-17.5,-3.,0.));
#1348=CARTESIAN_POINT('',(-17.5,-3.,-3.25));
#1349=CARTESIAN_POINT('',(-17.5,-8.,0.));
#1350=CARTESIAN_POINT('',(0.,0.,18.));
#1351=CARTESIAN_POINT('',(0.,0.,18.));
#1352=CARTESIAN_POINT('',(0.,0.,0.));
#1353=MECHANICAL_DESIGN_GEOMETRIC_PRESENTATION_REPRESENTATION('',(#777,
#778,#779),#1354);
#1354=(
GEOMETRIC_REPRESENTATION_CONTEXT(3)
GLOBAL_UNCERTAINTY_ASSIGNED_CONTEXT((#1358))
GLOBAL_UNIT_ASSIGNED_CONTEXT((#1364,#1363,#1362))
REPRESENTATION_CONTEXT('Hinges CFG.30/30 SH-6-C33 (0)',
'TOP_LEVEL_ASSEMBLY_PART')
);
#1355=(
GEOMETRIC_REPRESENTATION_CONTEXT(3)
GLOBAL_UNCERTAINTY_ASSIGNED_CONTEXT((#1359))
GLOBAL_UNIT_ASSIGNED_CONTEXT((#1364,#1363,#1362))
REPRESENTATION_CONTEXT('Hinges CFG.30/30 SH-6-C33 (0)1',
'COMPONENT_PART')
);
#1356=(
GEOMETRIC_REPRESENTATION_CONTEXT(3)
GLOBAL_UNCERTAINTY_ASSIGNED_CONTEXT((#1360))
GLOBAL_UNIT_ASSIGNED_CONTEXT((#1364,#1363,#1362))
REPRESENTATION_CONTEXT('Hinges CFG.30/30 SH-6-C33 (0)2',
'COMPONENT_PART')
);
#1357=(
GEOMETRIC_REPRESENTATION_CONTEXT(3)
GLOBAL_UNCERTAINTY_ASSIGNED_CONTEXT((#1361))
GLOBAL_UNIT_ASSIGNED_CONTEXT((#1364,#1363,#1362))
REPRESENTATION_CONTEXT('Hinges CFG.30/30 SH-6-C33 (0)-3',
'COMPONENT_PART')
);
#1358=UNCERTAINTY_MEASURE_WITH_UNIT(LENGTH_MEASURE(1.E-5),#1364,
'DISTANCE_ACCURACY_VALUE','Maximum Tolerance applied to model');
#1359=UNCERTAINTY_MEASURE_WITH_UNIT(LENGTH_MEASURE(1.E-5),#1364,
'DISTANCE_ACCURACY_VALUE','Maximum Tolerance applied to model');
#1360=UNCERTAINTY_MEASURE_WITH_UNIT(LENGTH_MEASURE(1.E-5),#1364,
'DISTANCE_ACCURACY_VALUE','Maximum Tolerance applied to model');
#1361=UNCERTAINTY_MEASURE_WITH_UNIT(LENGTH_MEASURE(1.E-5),#1364,
'DISTANCE_ACCURACY_VALUE','Maximum Tolerance applied to model');
#1362=(
NAMED_UNIT(*)
SI_UNIT($,.STERADIAN.)
SOLID_ANGLE_UNIT()
);
#1363=(
NAMED_UNIT(*)
PLANE_ANGLE_UNIT()
SI_UNIT($,.RADIAN.)
);
#1364=(
LENGTH_UNIT()
NAMED_UNIT(*)
SI_UNIT(.MILLI.,.METRE.)
);
#1365=PRODUCT_DEFINITION_SHAPE('','',#1372);
#1366=PRODUCT_DEFINITION_SHAPE('','',#1373);
#1367=PRODUCT_DEFINITION_SHAPE(' ','NAUO PRDDFN',#15);
#1368=PRODUCT_DEFINITION_SHAPE('','',#1374);
#1369=PRODUCT_DEFINITION_SHAPE(' ','NAUO PRDDFN',#16);
#1370=PRODUCT_DEFINITION_SHAPE('','',#1375);
#1371=PRODUCT_DEFINITION_SHAPE(' ','NAUO PRDDFN',#17);
#1372=PRODUCT_DEFINITION('','',#1380,#1376);
#1373=PRODUCT_DEFINITION('','',#1381,#1377);
#1374=PRODUCT_DEFINITION('','',#1382,#1378);
#1375=PRODUCT_DEFINITION('','',#1383,#1379);
#1376=PRODUCT_DEFINITION_CONTEXT('',#1401,'design');
#1377=PRODUCT_DEFINITION_CONTEXT('',#1401,'design');
#1378=PRODUCT_DEFINITION_CONTEXT('',#1401,'design');
#1379=PRODUCT_DEFINITION_CONTEXT('',#1401,'design');
#1380=PRODUCT_DEFINITION_FORMATION_WITH_SPECIFIED_SOURCE('','',#1388,
 .NOT_KNOWN.);
#1381=PRODUCT_DEFINITION_FORMATION_WITH_SPECIFIED_SOURCE('','',#1389,
 .NOT_KNOWN.);
#1382=PRODUCT_DEFINITION_FORMATION_WITH_SPECIFIED_SOURCE('','',#1390,
 .NOT_KNOWN.);
#1383=PRODUCT_DEFINITION_FORMATION_WITH_SPECIFIED_SOURCE('','',#1391,
 .NOT_KNOWN.);
#1384=PRODUCT_RELATED_PRODUCT_CATEGORY('','',(#1388));
#1385=PRODUCT_RELATED_PRODUCT_CATEGORY('','',(#1389));
#1386=PRODUCT_RELATED_PRODUCT_CATEGORY('','',(#1390));
#1387=PRODUCT_RELATED_PRODUCT_CATEGORY('','',(#1391));
#1388=PRODUCT('Hinges CFG.30/30 SH-6-C33 (0)',
'Hinges CFG.30/30 SH-6-C33 (0)','Hinges CFG.30/30 SH-6-C33 (0)',(#1396));
#1389=PRODUCT('Hinges CFG.30/30 SH-6-C33 (0)1',
'Hinges CFG.30/30 SH-6-C33 (0)1','Hinges CFG.30/30 SH-6-C33 (0)1',(#1397));
#1390=PRODUCT('Hinges CFG.30/30 SH-6-C33 (0)2',
'Hinges CFG.30/30 SH-6-C33 (0)2','Hinges CFG.30/30 SH-6-C33 (0)2',(#1398));
#1391=PRODUCT('Hinges CFG.30/30 SH-6-C33 (0)-3',
'Hinges CFG.30/30 SH-6-C33 (0)-3','Hinges CFG.30/30 SH-6-C33 (0)-3',(#1399));
#1392=PRODUCT_CATEGORY('','');
#1393=PRODUCT_CATEGORY('','');
#1394=PRODUCT_CATEGORY('','');
#1395=PRODUCT_CATEGORY('','');
#1396=PRODUCT_CONTEXT('',#1401,'mechanical');
#1397=PRODUCT_CONTEXT('',#1401,'mechanical');
#1398=PRODUCT_CONTEXT('',#1401,'mechanical');
#1399=PRODUCT_CONTEXT('',#1401,'mechanical');
#1400=APPLICATION_PROTOCOL_DEFINITION('international standard',
'ap242_managed_model_based_3d_engineering',2011,#1401);
#1401=APPLICATION_CONTEXT('managed model based 3d engineering');
ENDSEC;
END-ISO-10303-21;
