ISO-10303-21;
HEADER;
/* Generated by software containing ST-Developer
 * from STEP Tools, Inc. (www.steptools.com) 
 */

FILE_DESCRIPTION(
/* description */ ('www.motedis.com/part/BR40STB',
'CAx-IF Rec.Pracs.---Representation and Presentation of Product Manufa
cturing Information (PMI)---4.0---2014-10-13'),
/* implementation_level */ '2;1');

FILE_NAME(
/* name */ 'Motedis_BR40STB.stp',
/* time_stamp */ '2026-09-02T15:31:17+02:00',
/* author */ ('Motedis'),
/* organization */ ('Motedis GmbH'),
/* preprocessor_version */ 'ST-DEVELOPER v20.1',
/* originating_system */ 'Autodesk Inventor 2026',
/* authorisation */ 'Motedis GmbH');

FILE_SCHEMA (('AP242_MANAGED_MODEL_BASED_3D_ENGINEERING_MIM_LF { 1 0 10303 442 2 1 4 }'));
ENDSEC;

DATA;
#10=MODEL_GEOMETRIC_VIEW('Isometric',$,#41,#35);
#11=MODEL_GEOMETRIC_VIEW('Front',$,#42,#36);
#12=MODEL_GEOMETRIC_VIEW('Top',$,#43,#37);
#13=MODEL_GEOMETRIC_VIEW('Right',$,#44,#38);
#14=MECHANICAL_DESIGN_AND_DRAUGHTING_RELATIONSHIP('[Primary]','',#33,#34);
#15=MECHANICAL_DESIGN_AND_DRAUGHTING_RELATIONSHIP('Isometric','',#35,#34);
#16=MECHANICAL_DESIGN_AND_DRAUGHTING_RELATIONSHIP('Front','',#36,#34);
#17=MECHANICAL_DESIGN_AND_DRAUGHTING_RELATIONSHIP('Top','',#37,#34);
#18=MECHANICAL_DESIGN_AND_DRAUGHTING_RELATIONSHIP('Right','',#38,#34);
#19=DEFAULT_MODEL_GEOMETRIC_VIEW('[Primary]',$,#40,#33,$,$,#648,*);
#20=MAPPED_ITEM('',#26,#405);
#21=MAPPED_ITEM('',#27,#406);
#22=MAPPED_ITEM('',#28,#407);
#23=MAPPED_ITEM('',#29,#408);
#24=MAPPED_ITEM('',#30,#409);
#25=MAPPED_ITEM('',#31,#410);
#26=REPRESENTATION_MAP(#405,#32);
#27=REPRESENTATION_MAP(#406,#649);
#28=REPRESENTATION_MAP(#407,#32);
#29=REPRESENTATION_MAP(#408,#32);
#30=REPRESENTATION_MAP(#409,#32);
#31=REPRESENTATION_MAP(#410,#32);
#32=ADVANCED_BREP_SHAPE_REPRESENTATION('[Primary]',(#57),#641);
#33=DRAUGHTING_MODEL('[Primary]',(#20,#40),#641);
#34=DRAUGHTING_MODEL('',(#21,#406),#641);
#35=DRAUGHTING_MODEL('Isometric',(#22,#41),#641);
#36=DRAUGHTING_MODEL('Front',(#23,#42),#641);
#37=DRAUGHTING_MODEL('Top',(#24,#43),#641);
#38=DRAUGHTING_MODEL('Right',(#25,#44),#641);
#39=MECHANICAL_DESIGN_GEOMETRIC_PRESENTATION_REPRESENTATION('',(#55),#642);
#40=CAMERA_MODEL_D3('[Primary]',#395,#45);
#41=CAMERA_MODEL_D3('Isometric',#397,#46);
#42=CAMERA_MODEL_D3('Front',#399,#47);
#43=CAMERA_MODEL_D3('Top',#401,#48);
#44=CAMERA_MODEL_D3('Right',#403,#49);
#45=VIEW_VOLUME(.PARALLEL.,#620,127.017059221717,0.,.F.,0.,.F.,.F.,#50);
#46=VIEW_VOLUME(.PARALLEL.,#623,10.,0.,.F.,0.,.F.,.F.,#51);
#47=VIEW_VOLUME(.PARALLEL.,#626,10.,0.,.F.,0.,.F.,.F.,#52);
#48=VIEW_VOLUME(.PARALLEL.,#629,10.,0.,.F.,0.,.F.,.F.,#53);
#49=VIEW_VOLUME(.PARALLEL.,#632,10.,0.,.F.,0.,.F.,.F.,#54);
#50=PLANAR_BOX('view window',147.888553144265,95.9554257647287,#396);
#51=PLANAR_BOX('view window',109.39062326807,70.9765807237105,#398);
#52=PLANAR_BOX('view window',66.987802412949,43.4641016151377,#400);
#53=PLANAR_BOX('view window',66.987802412949,43.4641016151378,#402);
#54=PLANAR_BOX('view window',66.987802412949,43.4641016151377,#404);
#55=STYLED_ITEM('',(#659),#57);
#56=STYLED_ITEM('',(#660),#21);
#57=MANIFOLD_SOLID_BREP('Solid1',#338);
#58=FACE_BOUND('',#98,.T.);
#59=FACE_BOUND('',#101,.T.);
#60=FACE_BOUND('',#105,.T.);
#61=FACE_BOUND('',#108,.T.);
#62=PLANE('',#374);
#63=PLANE('',#378);
#64=PLANE('',#385);
#65=PLANE('',#389);
#66=PLANE('',#393);
#67=PLANE('',#394);
#68=CYLINDRICAL_SURFACE('',#364,4.25);
#69=CYLINDRICAL_SURFACE('',#369,4.25);
#70=CYLINDRICAL_SURFACE('',#371,2.00000000000001);
#71=CYLINDRICAL_SURFACE('',#375,2.);
#72=CYLINDRICAL_SURFACE('',#379,2.);
#73=CYLINDRICAL_SURFACE('',#382,3.);
#74=CYLINDRICAL_SURFACE('',#386,3.);
#75=CYLINDRICAL_SURFACE('',#390,3.);
#76=FACE_OUTER_BOUND('',#92,.T.);
#77=FACE_OUTER_BOUND('',#93,.T.);
#78=FACE_OUTER_BOUND('',#94,.T.);
#79=FACE_OUTER_BOUND('',#95,.T.);
#80=FACE_OUTER_BOUND('',#96,.T.);
#81=FACE_OUTER_BOUND('',#97,.T.);
#82=FACE_OUTER_BOUND('',#99,.T.);
#83=FACE_OUTER_BOUND('',#100,.T.);
#84=FACE_OUTER_BOUND('',#102,.T.);
#85=FACE_OUTER_BOUND('',#103,.T.);
#86=FACE_OUTER_BOUND('',#104,.T.);
#87=FACE_OUTER_BOUND('',#106,.T.);
#88=FACE_OUTER_BOUND('',#107,.T.);
#89=FACE_OUTER_BOUND('',#109,.T.);
#90=FACE_OUTER_BOUND('',#110,.T.);
#91=FACE_OUTER_BOUND('',#111,.T.);
#92=EDGE_LOOP('',(#240,#241,#242,#243));
#93=EDGE_LOOP('',(#244,#245,#246,#247));
#94=EDGE_LOOP('',(#248,#249,#250,#251));
#95=EDGE_LOOP('',(#252,#253,#254,#255));
#96=EDGE_LOOP('',(#256,#257,#258,#259));
#97=EDGE_LOOP('',(#260,#261,#262,#263));
#98=EDGE_LOOP('',(#264));
#99=EDGE_LOOP('',(#265,#266,#267,#268));
#100=EDGE_LOOP('',(#269,#270,#271,#272));
#101=EDGE_LOOP('',(#273));
#102=EDGE_LOOP('',(#274,#275,#276,#277));
#103=EDGE_LOOP('',(#278,#279,#280,#281));
#104=EDGE_LOOP('',(#282,#283,#284,#285));
#105=EDGE_LOOP('',(#286));
#106=EDGE_LOOP('',(#287,#288,#289,#290));
#107=EDGE_LOOP('',(#291,#292,#293,#294));
#108=EDGE_LOOP('',(#295));
#109=EDGE_LOOP('',(#296,#297,#298,#299));
#110=EDGE_LOOP('',(#300,#301,#302,#303,#304,#305,#306,#307,#308,#309));
#111=EDGE_LOOP('',(#310,#311,#312,#313,#314,#315,#316,#317,#318,#319));
#112=LINE('',#540,#134);
#113=LINE('',#545,#135);
#114=LINE('',#550,#136);
#115=LINE('',#555,#137);
#116=LINE('',#561,#138);
#117=LINE('',#564,#139);
#118=LINE('',#567,#140);
#119=LINE('',#569,#141);
#120=LINE('',#570,#142);
#121=LINE('',#576,#143);
#122=LINE('',#579,#144);
#123=LINE('',#581,#145);
#124=LINE('',#582,#146);
#125=LINE('',#588,#147);
#126=LINE('',#594,#148);
#127=LINE('',#597,#149);
#128=LINE('',#599,#150);
#129=LINE('',#600,#151);
#130=LINE('',#606,#152);
#131=LINE('',#609,#153);
#132=LINE('',#611,#154);
#133=LINE('',#612,#155);
#134=VECTOR('',#417,6.625);
#135=VECTOR('',#424,4.25);
#136=VECTOR('',#429,6.625);
#137=VECTOR('',#436,4.25);
#138=VECTOR('',#441,10.);
#139=VECTOR('',#444,10.);
#140=VECTOR('',#447,10.);
#141=VECTOR('',#448,10.);
#142=VECTOR('',#449,10.);
#143=VECTOR('',#456,10.);
#144=VECTOR('',#459,10.);
#145=VECTOR('',#460,10.);
#146=VECTOR('',#461,10.);
#147=VECTOR('',#468,10.);
#148=VECTOR('',#475,10.);
#149=VECTOR('',#478,10.);
#150=VECTOR('',#479,10.);
#151=VECTOR('',#480,10.);
#152=VECTOR('',#487,10.);
#153=VECTOR('',#490,10.);
#154=VECTOR('',#491,10.);
#155=VECTOR('',#492,10.);
#156=CIRCLE('',#362,4.25);
#157=CIRCLE('',#363,9.);
#158=CIRCLE('',#365,4.25);
#159=CIRCLE('',#367,4.25);
#160=CIRCLE('',#368,9.);
#161=CIRCLE('',#370,4.25);
#162=CIRCLE('',#372,2.00000000000001);
#163=CIRCLE('',#373,2.00000000000001);
#164=CIRCLE('',#376,2.);
#165=CIRCLE('',#377,2.);
#166=CIRCLE('',#380,2.);
#167=CIRCLE('',#381,2.);
#168=CIRCLE('',#383,3.);
#169=CIRCLE('',#384,3.);
#170=CIRCLE('',#387,3.);
#171=CIRCLE('',#388,3.);
#172=CIRCLE('',#391,3.);
#173=CIRCLE('',#392,3.);
#174=VERTEX_POINT('',#537);
#175=VERTEX_POINT('',#539);
#176=VERTEX_POINT('',#543);
#177=VERTEX_POINT('',#547);
#178=VERTEX_POINT('',#549);
#179=VERTEX_POINT('',#553);
#180=VERTEX_POINT('',#557);
#181=VERTEX_POINT('',#558);
#182=VERTEX_POINT('',#560);
#183=VERTEX_POINT('',#562);
#184=VERTEX_POINT('',#566);
#185=VERTEX_POINT('',#568);
#186=VERTEX_POINT('',#572);
#187=VERTEX_POINT('',#574);
#188=VERTEX_POINT('',#578);
#189=VERTEX_POINT('',#580);
#190=VERTEX_POINT('',#584);
#191=VERTEX_POINT('',#586);
#192=VERTEX_POINT('',#590);
#193=VERTEX_POINT('',#592);
#194=VERTEX_POINT('',#596);
#195=VERTEX_POINT('',#598);
#196=VERTEX_POINT('',#602);
#197=VERTEX_POINT('',#604);
#198=VERTEX_POINT('',#608);
#199=VERTEX_POINT('',#610);
#200=EDGE_CURVE('',#174,#174,#156,.T.);
#201=EDGE_CURVE('',#174,#175,#112,.T.);
#202=EDGE_CURVE('',#175,#175,#157,.T.);
#203=EDGE_CURVE('',#176,#176,#158,.T.);
#204=EDGE_CURVE('',#176,#174,#113,.T.);
#205=EDGE_CURVE('',#177,#177,#159,.T.);
#206=EDGE_CURVE('',#177,#178,#114,.T.);
#207=EDGE_CURVE('',#178,#178,#160,.T.);
#208=EDGE_CURVE('',#179,#179,#161,.T.);
#209=EDGE_CURVE('',#179,#177,#115,.T.);
#210=EDGE_CURVE('',#180,#181,#162,.T.);
#211=EDGE_CURVE('',#181,#182,#116,.T.);
#212=EDGE_CURVE('',#183,#182,#163,.T.);
#213=EDGE_CURVE('',#180,#183,#117,.T.);
#214=EDGE_CURVE('',#184,#180,#118,.T.);
#215=EDGE_CURVE('',#185,#183,#119,.T.);
#216=EDGE_CURVE('',#184,#185,#120,.T.);
#217=EDGE_CURVE('',#186,#184,#164,.T.);
#218=EDGE_CURVE('',#187,#185,#165,.T.);
#219=EDGE_CURVE('',#186,#187,#121,.T.);
#220=EDGE_CURVE('',#188,#186,#122,.T.);
#221=EDGE_CURVE('',#189,#187,#123,.T.);
#222=EDGE_CURVE('',#188,#189,#124,.T.);
#223=EDGE_CURVE('',#190,#188,#166,.T.);
#224=EDGE_CURVE('',#191,#189,#167,.T.);
#225=EDGE_CURVE('',#190,#191,#125,.T.);
#226=EDGE_CURVE('',#192,#190,#168,.T.);
#227=EDGE_CURVE('',#193,#191,#169,.T.);
#228=EDGE_CURVE('',#192,#193,#126,.T.);
#229=EDGE_CURVE('',#194,#192,#127,.T.);
#230=EDGE_CURVE('',#195,#193,#128,.T.);
#231=EDGE_CURVE('',#194,#195,#129,.T.);
#232=EDGE_CURVE('',#196,#194,#170,.T.);
#233=EDGE_CURVE('',#197,#195,#171,.T.);
#234=EDGE_CURVE('',#196,#197,#130,.T.);
#235=EDGE_CURVE('',#198,#196,#131,.T.);
#236=EDGE_CURVE('',#199,#197,#132,.T.);
#237=EDGE_CURVE('',#198,#199,#133,.T.);
#238=EDGE_CURVE('',#181,#198,#172,.T.);
#239=EDGE_CURVE('',#182,#199,#173,.T.);
#240=ORIENTED_EDGE('',*,*,#200,.F.);
#241=ORIENTED_EDGE('',*,*,#201,.T.);
#242=ORIENTED_EDGE('',*,*,#202,.F.);
#243=ORIENTED_EDGE('',*,*,#201,.F.);
#244=ORIENTED_EDGE('',*,*,#203,.F.);
#245=ORIENTED_EDGE('',*,*,#204,.T.);
#246=ORIENTED_EDGE('',*,*,#200,.T.);
#247=ORIENTED_EDGE('',*,*,#204,.F.);
#248=ORIENTED_EDGE('',*,*,#205,.F.);
#249=ORIENTED_EDGE('',*,*,#206,.T.);
#250=ORIENTED_EDGE('',*,*,#207,.F.);
#251=ORIENTED_EDGE('',*,*,#206,.F.);
#252=ORIENTED_EDGE('',*,*,#208,.F.);
#253=ORIENTED_EDGE('',*,*,#209,.T.);
#254=ORIENTED_EDGE('',*,*,#205,.T.);
#255=ORIENTED_EDGE('',*,*,#209,.F.);
#256=ORIENTED_EDGE('',*,*,#210,.T.);
#257=ORIENTED_EDGE('',*,*,#211,.T.);
#258=ORIENTED_EDGE('',*,*,#212,.F.);
#259=ORIENTED_EDGE('',*,*,#213,.F.);
#260=ORIENTED_EDGE('',*,*,#214,.T.);
#261=ORIENTED_EDGE('',*,*,#213,.T.);
#262=ORIENTED_EDGE('',*,*,#215,.F.);
#263=ORIENTED_EDGE('',*,*,#216,.F.);
#264=ORIENTED_EDGE('',*,*,#203,.T.);
#265=ORIENTED_EDGE('',*,*,#217,.T.);
#266=ORIENTED_EDGE('',*,*,#216,.T.);
#267=ORIENTED_EDGE('',*,*,#218,.F.);
#268=ORIENTED_EDGE('',*,*,#219,.F.);
#269=ORIENTED_EDGE('',*,*,#220,.T.);
#270=ORIENTED_EDGE('',*,*,#219,.T.);
#271=ORIENTED_EDGE('',*,*,#221,.F.);
#272=ORIENTED_EDGE('',*,*,#222,.F.);
#273=ORIENTED_EDGE('',*,*,#208,.T.);
#274=ORIENTED_EDGE('',*,*,#223,.T.);
#275=ORIENTED_EDGE('',*,*,#222,.T.);
#276=ORIENTED_EDGE('',*,*,#224,.F.);
#277=ORIENTED_EDGE('',*,*,#225,.F.);
#278=ORIENTED_EDGE('',*,*,#226,.T.);
#279=ORIENTED_EDGE('',*,*,#225,.T.);
#280=ORIENTED_EDGE('',*,*,#227,.F.);
#281=ORIENTED_EDGE('',*,*,#228,.F.);
#282=ORIENTED_EDGE('',*,*,#229,.T.);
#283=ORIENTED_EDGE('',*,*,#228,.T.);
#284=ORIENTED_EDGE('',*,*,#230,.F.);
#285=ORIENTED_EDGE('',*,*,#231,.F.);
#286=ORIENTED_EDGE('',*,*,#207,.T.);
#287=ORIENTED_EDGE('',*,*,#232,.T.);
#288=ORIENTED_EDGE('',*,*,#231,.T.);
#289=ORIENTED_EDGE('',*,*,#233,.F.);
#290=ORIENTED_EDGE('',*,*,#234,.F.);
#291=ORIENTED_EDGE('',*,*,#235,.T.);
#292=ORIENTED_EDGE('',*,*,#234,.T.);
#293=ORIENTED_EDGE('',*,*,#236,.F.);
#294=ORIENTED_EDGE('',*,*,#237,.F.);
#295=ORIENTED_EDGE('',*,*,#202,.T.);
#296=ORIENTED_EDGE('',*,*,#238,.T.);
#297=ORIENTED_EDGE('',*,*,#237,.T.);
#298=ORIENTED_EDGE('',*,*,#239,.F.);
#299=ORIENTED_EDGE('',*,*,#211,.F.);
#300=ORIENTED_EDGE('',*,*,#239,.T.);
#301=ORIENTED_EDGE('',*,*,#236,.T.);
#302=ORIENTED_EDGE('',*,*,#233,.T.);
#303=ORIENTED_EDGE('',*,*,#230,.T.);
#304=ORIENTED_EDGE('',*,*,#227,.T.);
#305=ORIENTED_EDGE('',*,*,#224,.T.);
#306=ORIENTED_EDGE('',*,*,#221,.T.);
#307=ORIENTED_EDGE('',*,*,#218,.T.);
#308=ORIENTED_EDGE('',*,*,#215,.T.);
#309=ORIENTED_EDGE('',*,*,#212,.T.);
#310=ORIENTED_EDGE('',*,*,#238,.F.);
#311=ORIENTED_EDGE('',*,*,#210,.F.);
#312=ORIENTED_EDGE('',*,*,#214,.F.);
#313=ORIENTED_EDGE('',*,*,#217,.F.);
#314=ORIENTED_EDGE('',*,*,#220,.F.);
#315=ORIENTED_EDGE('',*,*,#223,.F.);
#316=ORIENTED_EDGE('',*,*,#226,.F.);
#317=ORIENTED_EDGE('',*,*,#229,.F.);
#318=ORIENTED_EDGE('',*,*,#232,.F.);
#319=ORIENTED_EDGE('',*,*,#235,.F.);
#320=CONICAL_SURFACE('',#361,6.625,0.785398163397448);
#321=CONICAL_SURFACE('',#366,6.625,0.785398163397448);
#322=ADVANCED_FACE('',(#76),#320,.F.);
#323=ADVANCED_FACE('',(#77),#68,.F.);
#324=ADVANCED_FACE('',(#78),#321,.F.);
#325=ADVANCED_FACE('',(#79),#69,.F.);
#326=ADVANCED_FACE('',(#80),#70,.T.);
#327=ADVANCED_FACE('',(#81,#58),#62,.T.);
#328=ADVANCED_FACE('',(#82),#71,.T.);
#329=ADVANCED_FACE('',(#83,#59),#63,.T.);
#330=ADVANCED_FACE('',(#84),#72,.T.);
#331=ADVANCED_FACE('',(#85),#73,.T.);
#332=ADVANCED_FACE('',(#86,#60),#64,.T.);
#333=ADVANCED_FACE('',(#87),#74,.F.);
#334=ADVANCED_FACE('',(#88,#61),#65,.T.);
#335=ADVANCED_FACE('',(#89),#75,.T.);
#336=ADVANCED_FACE('',(#90),#66,.T.);
#337=ADVANCED_FACE('',(#91),#67,.F.);
#338=CLOSED_SHELL('',(#322,#323,#324,#325,#326,#327,#328,#329,#330,#331,
#332,#333,#334,#335,#336,#337));
#339=DERIVED_UNIT_ELEMENT(#342,1.);
#340=DERIVED_UNIT_ELEMENT(#644,-3.);
#341=DIMENSIONAL_EXPONENTS(0.,1.,0.,0.,0.,0.,0.);
#342=(
CONVERSION_BASED_UNIT('gram',#344)
MASS_UNIT()
NAMED_UNIT(#341)
);
#343=(
MASS_UNIT()
NAMED_UNIT(*)
SI_UNIT(.KILO.,.GRAM.)
);
#344=MASS_MEASURE_WITH_UNIT(MASS_MEASURE(0.001),#343);
#345=DERIVED_UNIT((#339,#340));
#346=MEASURE_REPRESENTATION_ITEM('density measure',
POSITIVE_RATIO_MEASURE(7.85),#345);
#347=PROPERTY_DEFINITION_REPRESENTATION(#352,#349);
#348=PROPERTY_DEFINITION_REPRESENTATION(#353,#350);
#349=REPRESENTATION('material name',(#351),#641);
#350=REPRESENTATION('density',(#346),#641);
#351=DESCRIPTIVE_REPRESENTATION_ITEM('Stahl, galvanisiert',
'Stahl, galvanisiert');
#352=PROPERTY_DEFINITION('material property','material name',#651);
#353=PROPERTY_DEFINITION('material property','density of part',#651);
#354=DATE_TIME_ROLE('creation_date');
#355=APPLIED_DATE_AND_TIME_ASSIGNMENT(#356,#354,(#651));
#356=DATE_AND_TIME(#357,#358);
#357=CALENDAR_DATE(2022,30,9);
#358=LOCAL_TIME(16,25,53.,#359);
#359=COORDINATED_UNIVERSAL_TIME_OFFSET(0,0,.BEHIND.);
#360=AXIS2_PLACEMENT_3D('',#535,#411,#412);
#361=AXIS2_PLACEMENT_3D('',#536,#413,#414);
#362=AXIS2_PLACEMENT_3D('',#538,#415,#416);
#363=AXIS2_PLACEMENT_3D('',#541,#418,#419);
#364=AXIS2_PLACEMENT_3D('',#542,#420,#421);
#365=AXIS2_PLACEMENT_3D('',#544,#422,#423);
#366=AXIS2_PLACEMENT_3D('',#546,#425,#426);
#367=AXIS2_PLACEMENT_3D('',#548,#427,#428);
#368=AXIS2_PLACEMENT_3D('',#551,#430,#431);
#369=AXIS2_PLACEMENT_3D('',#552,#432,#433);
#370=AXIS2_PLACEMENT_3D('',#554,#434,#435);
#371=AXIS2_PLACEMENT_3D('',#556,#437,#438);
#372=AXIS2_PLACEMENT_3D('',#559,#439,#440);
#373=AXIS2_PLACEMENT_3D('',#563,#442,#443);
#374=AXIS2_PLACEMENT_3D('',#565,#445,#446);
#375=AXIS2_PLACEMENT_3D('',#571,#450,#451);
#376=AXIS2_PLACEMENT_3D('',#573,#452,#453);
#377=AXIS2_PLACEMENT_3D('',#575,#454,#455);
#378=AXIS2_PLACEMENT_3D('',#577,#457,#458);
#379=AXIS2_PLACEMENT_3D('',#583,#462,#463);
#380=AXIS2_PLACEMENT_3D('',#585,#464,#465);
#381=AXIS2_PLACEMENT_3D('',#587,#466,#467);
#382=AXIS2_PLACEMENT_3D('',#589,#469,#470);
#383=AXIS2_PLACEMENT_3D('',#591,#471,#472);
#384=AXIS2_PLACEMENT_3D('',#593,#473,#474);
#385=AXIS2_PLACEMENT_3D('',#595,#476,#477);
#386=AXIS2_PLACEMENT_3D('',#601,#481,#482);
#387=AXIS2_PLACEMENT_3D('',#603,#483,#484);
#388=AXIS2_PLACEMENT_3D('',#605,#485,#486);
#389=AXIS2_PLACEMENT_3D('',#607,#488,#489);
#390=AXIS2_PLACEMENT_3D('',#613,#493,#494);
#391=AXIS2_PLACEMENT_3D('',#614,#495,#496);
#392=AXIS2_PLACEMENT_3D('',#615,#497,#498);
#393=AXIS2_PLACEMENT_3D('',#616,#499,#500);
#394=AXIS2_PLACEMENT_3D('',#617,#501,#502);
#395=AXIS2_PLACEMENT_3D('view reference',#618,#503,#504);
#396=AXIS2_PLACEMENT_3D('view window',#619,#505,#506);
#397=AXIS2_PLACEMENT_3D('view reference',#621,#507,#508);
#398=AXIS2_PLACEMENT_3D('view window',#622,#509,#510);
#399=AXIS2_PLACEMENT_3D('view reference',#624,#511,#512);
#400=AXIS2_PLACEMENT_3D('view window',#625,#513,#514);
#401=AXIS2_PLACEMENT_3D('view reference',#627,#515,#516);
#402=AXIS2_PLACEMENT_3D('view window',#628,#517,#518);
#403=AXIS2_PLACEMENT_3D('view reference',#630,#519,#520);
#404=AXIS2_PLACEMENT_3D('view window',#631,#521,#522);
#405=AXIS2_PLACEMENT_3D('',#633,#523,#524);
#406=AXIS2_PLACEMENT_3D('',#634,#525,#526);
#407=AXIS2_PLACEMENT_3D('',#635,#527,#528);
#408=AXIS2_PLACEMENT_3D('',#636,#529,#530);
#409=AXIS2_PLACEMENT_3D('',#637,#531,#532);
#410=AXIS2_PLACEMENT_3D('',#638,#533,#534);
#411=DIRECTION('axis',(0.,0.,1.));
#412=DIRECTION('refdir',(1.,0.,0.));
#413=DIRECTION('center_axis',(-1.,0.,3.82835525732813E-16));
#414=DIRECTION('ref_axis',(3.82835525732813E-16,0.,1.));
#415=DIRECTION('center_axis',(-1.,0.,3.82835525732813E-16));
#416=DIRECTION('ref_axis',(3.82835525732813E-16,0.,1.));
#417=DIRECTION('',(-0.707106781186548,-8.65956056235493E-17,-0.707106781186547));
#418=DIRECTION('center_axis',(1.,0.,-3.82835525732813E-16));
#419=DIRECTION('ref_axis',(3.82835525732813E-16,0.,1.));
#420=DIRECTION('center_axis',(-1.,0.,3.82835525732813E-16));
#421=DIRECTION('ref_axis',(3.82835525732813E-16,0.,1.));
#422=DIRECTION('center_axis',(-1.,0.,3.62364459426266E-16));
#423=DIRECTION('ref_axis',(3.62364459426266E-16,0.,1.));
#424=DIRECTION('',(-1.,0.,3.82835525732813E-16));
#425=DIRECTION('center_axis',(-1.53134210293125E-16,0.,-1.));
#426=DIRECTION('ref_axis',(-1.,0.,1.53134210293125E-16));
#427=DIRECTION('center_axis',(-1.53134210293125E-16,0.,-1.));
#428=DIRECTION('ref_axis',(-1.,0.,1.53134210293125E-16));
#429=DIRECTION('',(0.707106781186547,-8.65956056235493E-17,-0.707106781186548));
#430=DIRECTION('center_axis',(1.53134210293125E-16,0.,1.));
#431=DIRECTION('ref_axis',(-1.,0.,1.53134210293125E-16));
#432=DIRECTION('center_axis',(-1.53134210293125E-16,0.,-1.));
#433=DIRECTION('ref_axis',(-1.,0.,1.53134210293125E-16));
#434=DIRECTION('center_axis',(7.70988211545248E-18,0.,-1.));
#435=DIRECTION('ref_axis',(-1.,0.,-7.70988211545248E-18));
#436=DIRECTION('',(-1.53134210293125E-16,0.,-1.));
#437=DIRECTION('center_axis',(0.,1.,0.));
#438=DIRECTION('ref_axis',(1.,0.,-2.22044604925031E-15));
#439=DIRECTION('center_axis',(0.,1.,0.));
#440=DIRECTION('ref_axis',(1.,0.,-2.22044604925031E-15));
#441=DIRECTION('',(0.,1.,0.));
#442=DIRECTION('center_axis',(0.,1.,0.));
#443=DIRECTION('ref_axis',(1.,0.,-2.22044604925031E-15));
#444=DIRECTION('',(0.,1.,0.));
#445=DIRECTION('center_axis',(1.,0.,-3.62364459426266E-16));
#446=DIRECTION('ref_axis',(-3.62364459426266E-16,0.,-1.));
#447=DIRECTION('',(-3.62364459426266E-16,0.,-1.));
#448=DIRECTION('',(-3.62364459426266E-16,0.,-1.));
#449=DIRECTION('',(0.,1.,0.));
#450=DIRECTION('center_axis',(0.,1.,0.));
#451=DIRECTION('ref_axis',(0.,0.,1.));
#452=DIRECTION('center_axis',(0.,1.,0.));
#453=DIRECTION('ref_axis',(0.,0.,1.));
#454=DIRECTION('center_axis',(0.,1.,0.));
#455=DIRECTION('ref_axis',(0.,0.,1.));
#456=DIRECTION('',(0.,1.,0.));
#457=DIRECTION('center_axis',(-7.70988211545248E-18,0.,1.));
#458=DIRECTION('ref_axis',(1.,0.,7.70988211545248E-18));
#459=DIRECTION('',(1.,0.,7.70988211545248E-18));
#460=DIRECTION('',(1.,0.,7.70988211545248E-18));
#461=DIRECTION('',(0.,1.,0.));
#462=DIRECTION('center_axis',(0.,1.,0.));
#463=DIRECTION('ref_axis',(-1.,0.,1.11022302462516E-15));
#464=DIRECTION('center_axis',(0.,1.,0.));
#465=DIRECTION('ref_axis',(-1.,0.,1.11022302462516E-15));
#466=DIRECTION('center_axis',(0.,1.,0.));
#467=DIRECTION('ref_axis',(-1.,0.,1.11022302462516E-15));
#468=DIRECTION('',(0.,1.,0.));
#469=DIRECTION('center_axis',(0.,1.,0.));
#470=DIRECTION('ref_axis',(0.,0.,-1.));
#471=DIRECTION('center_axis',(0.,1.,0.));
#472=DIRECTION('ref_axis',(0.,0.,-1.));
#473=DIRECTION('center_axis',(0.,1.,0.));
#474=DIRECTION('ref_axis',(0.,0.,-1.));
#475=DIRECTION('',(0.,1.,0.));
#476=DIRECTION('center_axis',(-1.53134210293125E-16,0.,-1.));
#477=DIRECTION('ref_axis',(-1.,0.,1.53134210293125E-16));
#478=DIRECTION('',(-1.,0.,1.53134210293125E-16));
#479=DIRECTION('',(-1.,0.,1.53134210293125E-16));
#480=DIRECTION('',(0.,1.,0.));
#481=DIRECTION('center_axis',(0.,1.,0.));
#482=DIRECTION('ref_axis',(0.,0.,-1.));
#483=DIRECTION('center_axis',(0.,-1.,0.));
#484=DIRECTION('ref_axis',(0.,0.,-1.));
#485=DIRECTION('center_axis',(0.,-1.,0.));
#486=DIRECTION('ref_axis',(0.,0.,-1.));
#487=DIRECTION('',(0.,1.,0.));
#488=DIRECTION('center_axis',(-1.,0.,3.82835525732813E-16));
#489=DIRECTION('ref_axis',(3.82835525732813E-16,0.,1.));
#490=DIRECTION('',(3.82835525732813E-16,0.,1.));
#491=DIRECTION('',(3.82835525732813E-16,0.,1.));
#492=DIRECTION('',(0.,1.,0.));
#493=DIRECTION('center_axis',(0.,1.,0.));
#494=DIRECTION('ref_axis',(1.11022302462516E-15,0.,-1.));
#495=DIRECTION('center_axis',(0.,1.,0.));
#496=DIRECTION('ref_axis',(1.11022302462516E-15,0.,-1.));
#497=DIRECTION('center_axis',(0.,1.,0.));
#498=DIRECTION('ref_axis',(1.11022302462516E-15,0.,-1.));
#499=DIRECTION('center_axis',(0.,1.,0.));
#500=DIRECTION('ref_axis',(0.,0.,1.));
#501=DIRECTION('center_axis',(0.,1.,0.));
#502=DIRECTION('ref_axis',(0.,0.,1.));
#503=DIRECTION('center_axis',(0.586428672921115,-0.65922713734903,0.470660167167972));
#504=DIRECTION('ref_axis',(-0.732068856322148,-0.680034611728274,-0.0403499250898713));
#505=DIRECTION('center_axis',(0.,0.,1.));
#506=DIRECTION('ref_axis',(1.,0.,0.));
#507=DIRECTION('center_axis',(-0.577350269189626,0.577350269189626,-0.577350269189626));
#508=DIRECTION('ref_axis',(-0.707106781186548,-0.707106781186548,0.));
#509=DIRECTION('center_axis',(0.,0.,1.));
#510=DIRECTION('ref_axis',(1.,0.,0.));
#511=DIRECTION('center_axis',(-2.22044604925031E-16,0.,-1.));
#512=DIRECTION('ref_axis',(-1.,-3.46944695195361E-18,2.22044604925031E-16));
#513=DIRECTION('center_axis',(0.,0.,1.));
#514=DIRECTION('ref_axis',(1.,0.,0.));
#515=DIRECTION('center_axis',(0.,-1.,0.));
#516=DIRECTION('ref_axis',(-1.,0.,6.93889390390723E-18));
#517=DIRECTION('center_axis',(0.,0.,1.));
#518=DIRECTION('ref_axis',(1.,0.,0.));
#519=DIRECTION('center_axis',(-1.,0.,0.));
#520=DIRECTION('ref_axis',(0.,3.46944695195361E-18,1.));
#521=DIRECTION('center_axis',(0.,0.,1.));
#522=DIRECTION('ref_axis',(1.,0.,0.));
#523=DIRECTION('center_axis',(0.,0.,1.));
#524=DIRECTION('ref_axis',(1.,0.,0.));
#525=DIRECTION('center_axis',(0.,0.,1.));
#526=DIRECTION('ref_axis',(1.,0.,0.));
#527=DIRECTION('center_axis',(0.,0.,1.));
#528=DIRECTION('ref_axis',(1.,0.,0.));
#529=DIRECTION('center_axis',(0.,0.,1.));
#530=DIRECTION('ref_axis',(1.,0.,0.));
#531=DIRECTION('center_axis',(0.,0.,1.));
#532=DIRECTION('ref_axis',(1.,0.,0.));
#533=DIRECTION('center_axis',(0.,0.,1.));
#534=DIRECTION('ref_axis',(1.,0.,0.));
#535=CARTESIAN_POINT('',(0.,0.,0.));
#536=CARTESIAN_POINT('Origin',(-2.62500000000001,20.,-20.));
#537=CARTESIAN_POINT('',(-0.25000000000001,20.,-24.25));
#538=CARTESIAN_POINT('Origin',(-0.25000000000001,20.,-20.));
#539=CARTESIAN_POINT('',(-5.00000000000001,20.,-29.));
#540=CARTESIAN_POINT('',(-2.62500000000001,20.,-26.625));
#541=CARTESIAN_POINT('Origin',(-5.00000000000001,20.,-20.));
#542=CARTESIAN_POINT('Origin',(6.09999999999999,20.,-20.));
#543=CARTESIAN_POINT('',(-9.39861215674055E-15,20.,-24.25));
#544=CARTESIAN_POINT('Origin',(-7.7715611723761E-15,20.,-20.));
#545=CARTESIAN_POINT('',(6.09999999999999,20.,-24.25));
#546=CARTESIAN_POINT('Origin',(-20.,20.,-2.625));
#547=CARTESIAN_POINT('',(-15.75,20.,-0.249999999999999));
#548=CARTESIAN_POINT('Origin',(-20.,20.,-0.250000000000001));
#549=CARTESIAN_POINT('',(-11.,20.,-5.));
#550=CARTESIAN_POINT('',(-13.375,20.,-2.625));
#551=CARTESIAN_POINT('Origin',(-20.,20.,-5.));
#552=CARTESIAN_POINT('Origin',(-20.,20.,6.1));
#553=CARTESIAN_POINT('',(-15.75,20.,-2.87126644299609E-15));
#554=CARTESIAN_POINT('Origin',(-20.,20.,-2.22044604925031E-15));
#555=CARTESIAN_POINT('',(-15.75,20.,6.1));
#556=CARTESIAN_POINT('Origin',(-2.00000000000002,0.,-38.));
#557=CARTESIAN_POINT('',(-1.38777878078145E-14,0.,-38.));
#558=CARTESIAN_POINT('',(-2.00000000000002,0.,-40.));
#559=CARTESIAN_POINT('Origin',(-2.00000000000002,0.,-38.));
#560=CARTESIAN_POINT('',(-2.00000000000002,40.,-40.));
#561=CARTESIAN_POINT('',(-2.00000000000002,0.,-40.));
#562=CARTESIAN_POINT('',(-1.38777878078145E-14,40.,-38.));
#563=CARTESIAN_POINT('Origin',(-2.00000000000002,40.,-38.));
#564=CARTESIAN_POINT('',(-1.38777878078145E-14,0.,-38.));
#565=CARTESIAN_POINT('Origin',(-8.32667268468867E-16,0.,-2.));
#566=CARTESIAN_POINT('',(-8.32667268468867E-16,0.,-2.));
#567=CARTESIAN_POINT('',(-8.32667268468867E-16,0.,-2.));
#568=CARTESIAN_POINT('',(-8.32667268468867E-16,40.,-2.));
#569=CARTESIAN_POINT('',(-8.32667268468867E-16,40.,-2.));
#570=CARTESIAN_POINT('',(-8.32667268468867E-16,0.,-2.));
#571=CARTESIAN_POINT('Origin',(-2.,0.,-2.));
#572=CARTESIAN_POINT('',(-2.,0.,0.));
#573=CARTESIAN_POINT('Origin',(-2.,0.,-2.));
#574=CARTESIAN_POINT('',(-2.,40.,0.));
#575=CARTESIAN_POINT('Origin',(-2.,40.,-2.));
#576=CARTESIAN_POINT('',(-2.,0.,0.));
#577=CARTESIAN_POINT('Origin',(-38.,0.,-2.77555756156289E-16));
#578=CARTESIAN_POINT('',(-38.,0.,-2.77555756156289E-16));
#579=CARTESIAN_POINT('',(-38.,0.,-2.77555756156289E-16));
#580=CARTESIAN_POINT('',(-38.,40.,0.));
#581=CARTESIAN_POINT('',(-38.,40.,-2.77555756156289E-16));
#582=CARTESIAN_POINT('',(-38.,0.,-2.77555756156289E-16));
#583=CARTESIAN_POINT('Origin',(-38.,0.,-2.));
#584=CARTESIAN_POINT('',(-40.,0.,-2.));
#585=CARTESIAN_POINT('Origin',(-38.,0.,-2.));
#586=CARTESIAN_POINT('',(-40.,40.,-2.));
#587=CARTESIAN_POINT('Origin',(-38.,40.,-2.));
#588=CARTESIAN_POINT('',(-40.,0.,-2.));
#589=CARTESIAN_POINT('Origin',(-37.,0.,-2.));
#590=CARTESIAN_POINT('',(-37.,0.,-5.));
#591=CARTESIAN_POINT('Origin',(-37.,0.,-2.));
#592=CARTESIAN_POINT('',(-37.,40.,-5.));
#593=CARTESIAN_POINT('Origin',(-37.,40.,-2.));
#594=CARTESIAN_POINT('',(-37.,0.,-5.));
#595=CARTESIAN_POINT('Origin',(-8.00000000000001,0.,-5.));
#596=CARTESIAN_POINT('',(-8.00000000000001,0.,-5.));
#597=CARTESIAN_POINT('',(-8.00000000000001,0.,-5.));
#598=CARTESIAN_POINT('',(-8.00000000000001,40.,-5.));
#599=CARTESIAN_POINT('',(-8.00000000000001,40.,-5.));
#600=CARTESIAN_POINT('',(-8.00000000000001,0.,-5.));
#601=CARTESIAN_POINT('Origin',(-8.00000000000001,0.,-8.00000000000001));
#602=CARTESIAN_POINT('',(-5.00000000000001,0.,-8.00000000000001));
#603=CARTESIAN_POINT('Origin',(-8.00000000000001,0.,-8.00000000000001));
#604=CARTESIAN_POINT('',(-5.00000000000001,40.,-8.00000000000001));
#605=CARTESIAN_POINT('Origin',(-8.00000000000001,40.,-8.00000000000001));
#606=CARTESIAN_POINT('',(-5.00000000000001,0.,-8.00000000000001));
#607=CARTESIAN_POINT('Origin',(-5.00000000000002,0.,-37.));
#608=CARTESIAN_POINT('',(-5.00000000000002,0.,-37.));
#609=CARTESIAN_POINT('',(-5.00000000000002,0.,-37.));
#610=CARTESIAN_POINT('',(-5.00000000000002,40.,-37.));
#611=CARTESIAN_POINT('',(-5.00000000000002,40.,-37.));
#612=CARTESIAN_POINT('',(-5.00000000000002,0.,-37.));
#613=CARTESIAN_POINT('Origin',(-2.00000000000002,0.,-37.));
#614=CARTESIAN_POINT('Origin',(-2.00000000000002,0.,-37.));
#615=CARTESIAN_POINT('Origin',(-2.00000000000002,40.,-37.));
#616=CARTESIAN_POINT('Origin',(-20.,40.,-20.));
#617=CARTESIAN_POINT('Origin',(-20.,0.,-20.));
#618=CARTESIAN_POINT('Origin',(-94.2606187130048,120.830908854878,-80.6489333788312));
#619=CARTESIAN_POINT('Origin',(-73.9442765721326,-47.9777128823644,127.017059221717));
#620=CARTESIAN_POINT('',(0.,0.,0.));
#621=CARTESIAN_POINT('Origin',(-14.2264973081037,14.2264973081037,-14.2264973081037));
#622=CARTESIAN_POINT('Origin',(-54.6953116340349,-35.4882903618552,10.));
#623=CARTESIAN_POINT('',(0.,0.,0.));
#624=CARTESIAN_POINT('Origin',(-20.,20.,-10.));
#625=CARTESIAN_POINT('Origin',(-33.4939012064745,-21.7320508075689,10.));
#626=CARTESIAN_POINT('',(0.,0.,0.));
#627=CARTESIAN_POINT('Origin',(-20.,30.,-20.));
#628=CARTESIAN_POINT('Origin',(-33.4939012064745,-21.7320508075689,10.));
#629=CARTESIAN_POINT('',(0.,0.,0.));
#630=CARTESIAN_POINT('Origin',(-10.,20.,-20.));
#631=CARTESIAN_POINT('Origin',(-33.4939012064745,-21.7320508075689,10.));
#632=CARTESIAN_POINT('',(0.,0.,0.));
#633=CARTESIAN_POINT('Origin',(0.,0.,0.));
#634=CARTESIAN_POINT('Origin',(0.,0.,0.));
#635=CARTESIAN_POINT('Origin',(0.,0.,0.));
#636=CARTESIAN_POINT('Origin',(0.,0.,0.));
#637=CARTESIAN_POINT('Origin',(0.,0.,0.));
#638=CARTESIAN_POINT('Origin',(0.,0.,0.));
#639=UNCERTAINTY_MEASURE_WITH_UNIT(LENGTH_MEASURE(0.01),#643,
'DISTANCE_ACCURACY_VALUE',
'Maximum model space distance between geometric entities at asserted c
onnectivities');
#640=UNCERTAINTY_MEASURE_WITH_UNIT(LENGTH_MEASURE(0.01),#643,
'DISTANCE_ACCURACY_VALUE',
'Maximum model space distance between geometric entities at asserted c
onnectivities');
#641=(
GEOMETRIC_REPRESENTATION_CONTEXT(3)
GLOBAL_UNCERTAINTY_ASSIGNED_CONTEXT((#639))
GLOBAL_UNIT_ASSIGNED_CONTEXT((#643,#645,#646))
REPRESENTATION_CONTEXT('','3D')
);
#642=(
GEOMETRIC_REPRESENTATION_CONTEXT(3)
GLOBAL_UNCERTAINTY_ASSIGNED_CONTEXT((#640))
GLOBAL_UNIT_ASSIGNED_CONTEXT((#643,#645,#646))
REPRESENTATION_CONTEXT('','3D')
);
#643=(
LENGTH_UNIT()
NAMED_UNIT(*)
SI_UNIT(.MILLI.,.METRE.)
);
#644=(
LENGTH_UNIT()
NAMED_UNIT(*)
SI_UNIT(.CENTI.,.METRE.)
);
#645=(
NAMED_UNIT(*)
PLANE_ANGLE_UNIT()
SI_UNIT($,.RADIAN.)
);
#646=(
NAMED_UNIT(*)
SI_UNIT($,.STERADIAN.)
SOLID_ANGLE_UNIT()
);
#647=SHAPE_DEFINITION_REPRESENTATION(#648,#649);
#648=PRODUCT_DEFINITION_SHAPE('',$,#651);
#649=SHAPE_REPRESENTATION('',(#360,#57),#641);
#650=PRODUCT_DEFINITION_CONTEXT('part definition',#655,'design');
#651=PRODUCT_DEFINITION('Motedis_BR40STB','Motedis_BR40STB',#652,#650);
#652=PRODUCT_DEFINITION_FORMATION('www.motedis.com',$,#657);
#653=PRODUCT_RELATED_PRODUCT_CATEGORY('Motedis_BR40STB',
'Motedis_BR40STB',(#657));
#654=APPLICATION_PROTOCOL_DEFINITION('international standard',
'ap242_managed_model_based_3d_engineering',2011,#655);
#655=APPLICATION_CONTEXT('Managed model based 3d engineering');
#656=PRODUCT_CONTEXT('part definition',#655,'mechanical');
#657=PRODUCT('Motedis_BR40STB','Motedis_BR40STB',
'www.motedis.com/part/BR40STB',(#656));
#658=PRESENTATION_STYLE_ASSIGNMENT((#661));
#659=PRESENTATION_STYLE_ASSIGNMENT((#662));
#660=PRESENTATION_STYLE_ASSIGNMENT((NULL_STYLE(.NULL.)));
#661=SURFACE_STYLE_USAGE(.BOTH.,#667);
#662=SURFACE_STYLE_USAGE(.BOTH.,#668);
#663=SURFACE_STYLE_RENDERING_WITH_PROPERTIES($,#675,(#665));
#664=SURFACE_STYLE_RENDERING_WITH_PROPERTIES($,#676,(#666));
#665=SURFACE_STYLE_TRANSPARENT(0.);
#666=SURFACE_STYLE_TRANSPARENT(0.);
#667=SURFACE_SIDE_STYLE('',(#669,#663));
#668=SURFACE_SIDE_STYLE('',(#670,#664));
#669=SURFACE_STYLE_FILL_AREA(#671);
#670=SURFACE_STYLE_FILL_AREA(#672);
#671=FILL_AREA_STYLE('',(#673));
#672=FILL_AREA_STYLE('',(#674));
#673=FILL_AREA_STYLE_COLOUR('',#675);
#674=FILL_AREA_STYLE_COLOUR('',#676);
#675=COLOUR_RGB('',0.749019607843137,0.749019607843137,0.749019607843137);
#676=COLOUR_RGB('',0.745098039215686,0.737254901960784,0.729411764705882);
ENDSEC;
END-ISO-10303-21;
