ISO-10303-21;
HEADER;
/* Generated by software containing ST-Developer
 * from STEP Tools, Inc. (www.steptools.com) 
 */

FILE_DESCRIPTION(
/* description */ (''),
/* implementation_level */ '2;1');

FILE_NAME(
/* name */ 
'D:\\OneDrive - Motedis GmbH\\3D\\Abgeschlossene\\LP30105-58x58\\Moted
is-LP30105.stp',
/* time_stamp */ '2022-06-17T01:14:41+02:00',
/* author */ ('Mobil'),
/* organization */ ('Motedis'),
/* preprocessor_version */ 'ST-DEVELOPER v19',
/* originating_system */ 'Autodesk Inventor 2023',
/* authorisation */ '');

FILE_SCHEMA (('AUTOMOTIVE_DESIGN { 1 0 10303 214 3 1 1 }'));
ENDSEC;

DATA;
#10=MECHANICAL_DESIGN_GEOMETRIC_PRESENTATION_REPRESENTATION('',(#13),#488);
#11=SHAPE_REPRESENTATION_RELATIONSHIP('SRR','None',#495,#12);
#12=ADVANCED_BREP_SHAPE_REPRESENTATION('',(#14),#487);
#13=STYLED_ITEM('',(#504),#14);
#14=MANIFOLD_SOLID_BREP('Solid2',#275);
#15=FACE_BOUND('',#46,.T.);
#16=FACE_BOUND('',#47,.T.);
#17=FACE_BOUND('',#48,.T.);
#18=FACE_BOUND('',#49,.T.);
#19=FACE_BOUND('',#61,.T.);
#20=FACE_BOUND('',#62,.T.);
#21=FACE_BOUND('',#63,.T.);
#22=FACE_BOUND('',#64,.T.);
#23=PLANE('',#301);
#24=PLANE('',#302);
#25=PLANE('',#312);
#26=PLANE('',#325);
#27=PLANE('',#326);
#28=PLANE('',#327);
#29=FACE_OUTER_BOUND('',#43,.T.);
#30=FACE_OUTER_BOUND('',#44,.T.);
#31=FACE_OUTER_BOUND('',#45,.T.);
#32=FACE_OUTER_BOUND('',#50,.T.);
#33=FACE_OUTER_BOUND('',#51,.T.);
#34=FACE_OUTER_BOUND('',#52,.T.);
#35=FACE_OUTER_BOUND('',#53,.T.);
#36=FACE_OUTER_BOUND('',#54,.T.);
#37=FACE_OUTER_BOUND('',#55,.T.);
#38=FACE_OUTER_BOUND('',#56,.T.);
#39=FACE_OUTER_BOUND('',#57,.T.);
#40=FACE_OUTER_BOUND('',#58,.T.);
#41=FACE_OUTER_BOUND('',#59,.T.);
#42=FACE_OUTER_BOUND('',#60,.T.);
#43=EDGE_LOOP('',(#181,#182,#183,#184));
#44=EDGE_LOOP('',(#185,#186,#187,#188));
#45=EDGE_LOOP('',(#189,#190,#191,#192,#193,#194,#195,#196));
#46=EDGE_LOOP('',(#197));
#47=EDGE_LOOP('',(#198));
#48=EDGE_LOOP('',(#199));
#49=EDGE_LOOP('',(#200));
#50=EDGE_LOOP('',(#201,#202,#203,#204));
#51=EDGE_LOOP('',(#205,#206,#207,#208));
#52=EDGE_LOOP('',(#209,#210,#211,#212));
#53=EDGE_LOOP('',(#213,#214,#215,#216));
#54=EDGE_LOOP('',(#217,#218,#219,#220));
#55=EDGE_LOOP('',(#221,#222,#223,#224));
#56=EDGE_LOOP('',(#225,#226,#227,#228));
#57=EDGE_LOOP('',(#229,#230,#231,#232));
#58=EDGE_LOOP('',(#233,#234,#235,#236));
#59=EDGE_LOOP('',(#237,#238,#239,#240));
#60=EDGE_LOOP('',(#241,#242,#243,#244,#245,#246,#247,#248));
#61=EDGE_LOOP('',(#249));
#62=EDGE_LOOP('',(#250));
#63=EDGE_LOOP('',(#251));
#64=EDGE_LOOP('',(#252));
#65=LINE('',#416,#85);
#66=LINE('',#419,#86);
#67=LINE('',#422,#87);
#68=LINE('',#424,#88);
#69=LINE('',#425,#89);
#70=LINE('',#428,#90);
#71=LINE('',#432,#91);
#72=LINE('',#436,#92);
#73=LINE('',#450,#93);
#74=LINE('',#451,#94);
#75=LINE('',#454,#95);
#76=LINE('',#455,#96);
#77=LINE('',#459,#97);
#78=LINE('',#463,#98);
#79=LINE('',#466,#99);
#80=LINE('',#470,#100);
#81=LINE('',#474,#101);
#82=LINE('',#478,#102);
#83=LINE('',#481,#103);
#84=LINE('',#483,#104);
#85=VECTOR('',#334,10.);
#86=VECTOR('',#337,10.);
#87=VECTOR('',#340,10.);
#88=VECTOR('',#341,10.);
#89=VECTOR('',#342,10.);
#90=VECTOR('',#345,10.);
#91=VECTOR('',#348,10.);
#92=VECTOR('',#351,10.);
#93=VECTOR('',#366,10.);
#94=VECTOR('',#367,10.);
#95=VECTOR('',#370,10.);
#96=VECTOR('',#371,10.);
#97=VECTOR('',#376,10.);
#98=VECTOR('',#381,10.);
#99=VECTOR('',#384,3.25);
#100=VECTOR('',#389,3.25);
#101=VECTOR('',#394,3.25);
#102=VECTOR('',#399,3.25);
#103=VECTOR('',#404,10.);
#104=VECTOR('',#407,10.);
#105=CIRCLE('',#299,1.);
#106=CIRCLE('',#300,1.);
#107=CIRCLE('',#303,1.);
#108=CIRCLE('',#304,1.);
#109=CIRCLE('',#305,1.);
#110=CIRCLE('',#306,3.25);
#111=CIRCLE('',#307,3.25);
#112=CIRCLE('',#308,3.25);
#113=CIRCLE('',#309,3.25);
#114=CIRCLE('',#311,1.);
#115=CIRCLE('',#314,1.);
#116=CIRCLE('',#316,1.);
#117=CIRCLE('',#318,3.25);
#118=CIRCLE('',#320,3.25);
#119=CIRCLE('',#322,3.25);
#120=CIRCLE('',#324,3.25);
#121=VERTEX_POINT('',#412);
#122=VERTEX_POINT('',#413);
#123=VERTEX_POINT('',#415);
#124=VERTEX_POINT('',#417);
#125=VERTEX_POINT('',#421);
#126=VERTEX_POINT('',#423);
#127=VERTEX_POINT('',#427);
#128=VERTEX_POINT('',#429);
#129=VERTEX_POINT('',#431);
#130=VERTEX_POINT('',#433);
#131=VERTEX_POINT('',#435);
#132=VERTEX_POINT('',#438);
#133=VERTEX_POINT('',#440);
#134=VERTEX_POINT('',#442);
#135=VERTEX_POINT('',#444);
#136=VERTEX_POINT('',#447);
#137=VERTEX_POINT('',#448);
#138=VERTEX_POINT('',#453);
#139=VERTEX_POINT('',#457);
#140=VERTEX_POINT('',#461);
#141=VERTEX_POINT('',#465);
#142=VERTEX_POINT('',#469);
#143=VERTEX_POINT('',#473);
#144=VERTEX_POINT('',#477);
#145=EDGE_CURVE('',#121,#122,#105,.T.);
#146=EDGE_CURVE('',#122,#123,#65,.T.);
#147=EDGE_CURVE('',#123,#124,#106,.T.);
#148=EDGE_CURVE('',#124,#121,#66,.T.);
#149=EDGE_CURVE('',#125,#124,#67,.T.);
#150=EDGE_CURVE('',#126,#125,#68,.T.);
#151=EDGE_CURVE('',#121,#126,#69,.T.);
#152=EDGE_CURVE('',#123,#127,#70,.T.);
#153=EDGE_CURVE('',#128,#127,#107,.T.);
#154=EDGE_CURVE('',#128,#129,#71,.T.);
#155=EDGE_CURVE('',#130,#129,#108,.T.);
#156=EDGE_CURVE('',#130,#131,#72,.T.);
#157=EDGE_CURVE('',#125,#131,#109,.T.);
#158=EDGE_CURVE('',#132,#132,#110,.T.);
#159=EDGE_CURVE('',#133,#133,#111,.T.);
#160=EDGE_CURVE('',#134,#134,#112,.T.);
#161=EDGE_CURVE('',#135,#135,#113,.T.);
#162=EDGE_CURVE('',#136,#137,#114,.T.);
#163=EDGE_CURVE('',#137,#128,#73,.T.);
#164=EDGE_CURVE('',#127,#136,#74,.T.);
#165=EDGE_CURVE('',#138,#137,#75,.T.);
#166=EDGE_CURVE('',#129,#138,#76,.T.);
#167=EDGE_CURVE('',#138,#139,#115,.T.);
#168=EDGE_CURVE('',#139,#130,#77,.T.);
#169=EDGE_CURVE('',#140,#126,#116,.T.);
#170=EDGE_CURVE('',#131,#140,#78,.T.);
#171=EDGE_CURVE('',#132,#141,#79,.T.);
#172=EDGE_CURVE('',#141,#141,#117,.T.);
#173=EDGE_CURVE('',#133,#142,#80,.T.);
#174=EDGE_CURVE('',#142,#142,#118,.T.);
#175=EDGE_CURVE('',#134,#143,#81,.T.);
#176=EDGE_CURVE('',#143,#143,#119,.T.);
#177=EDGE_CURVE('',#135,#144,#82,.T.);
#178=EDGE_CURVE('',#144,#144,#120,.T.);
#179=EDGE_CURVE('',#136,#122,#83,.T.);
#180=EDGE_CURVE('',#140,#139,#84,.T.);
#181=ORIENTED_EDGE('',*,*,#145,.T.);
#182=ORIENTED_EDGE('',*,*,#146,.T.);
#183=ORIENTED_EDGE('',*,*,#147,.T.);
#184=ORIENTED_EDGE('',*,*,#148,.T.);
#185=ORIENTED_EDGE('',*,*,#148,.F.);
#186=ORIENTED_EDGE('',*,*,#149,.F.);
#187=ORIENTED_EDGE('',*,*,#150,.F.);
#188=ORIENTED_EDGE('',*,*,#151,.F.);
#189=ORIENTED_EDGE('',*,*,#147,.F.);
#190=ORIENTED_EDGE('',*,*,#152,.T.);
#191=ORIENTED_EDGE('',*,*,#153,.F.);
#192=ORIENTED_EDGE('',*,*,#154,.T.);
#193=ORIENTED_EDGE('',*,*,#155,.F.);
#194=ORIENTED_EDGE('',*,*,#156,.T.);
#195=ORIENTED_EDGE('',*,*,#157,.F.);
#196=ORIENTED_EDGE('',*,*,#149,.T.);
#197=ORIENTED_EDGE('',*,*,#158,.T.);
#198=ORIENTED_EDGE('',*,*,#159,.T.);
#199=ORIENTED_EDGE('',*,*,#160,.T.);
#200=ORIENTED_EDGE('',*,*,#161,.T.);
#201=ORIENTED_EDGE('',*,*,#162,.T.);
#202=ORIENTED_EDGE('',*,*,#163,.T.);
#203=ORIENTED_EDGE('',*,*,#153,.T.);
#204=ORIENTED_EDGE('',*,*,#164,.T.);
#205=ORIENTED_EDGE('',*,*,#163,.F.);
#206=ORIENTED_EDGE('',*,*,#165,.F.);
#207=ORIENTED_EDGE('',*,*,#166,.F.);
#208=ORIENTED_EDGE('',*,*,#154,.F.);
#209=ORIENTED_EDGE('',*,*,#167,.T.);
#210=ORIENTED_EDGE('',*,*,#168,.T.);
#211=ORIENTED_EDGE('',*,*,#155,.T.);
#212=ORIENTED_EDGE('',*,*,#166,.T.);
#213=ORIENTED_EDGE('',*,*,#169,.T.);
#214=ORIENTED_EDGE('',*,*,#150,.T.);
#215=ORIENTED_EDGE('',*,*,#157,.T.);
#216=ORIENTED_EDGE('',*,*,#170,.T.);
#217=ORIENTED_EDGE('',*,*,#158,.F.);
#218=ORIENTED_EDGE('',*,*,#171,.T.);
#219=ORIENTED_EDGE('',*,*,#172,.F.);
#220=ORIENTED_EDGE('',*,*,#171,.F.);
#221=ORIENTED_EDGE('',*,*,#159,.F.);
#222=ORIENTED_EDGE('',*,*,#173,.T.);
#223=ORIENTED_EDGE('',*,*,#174,.F.);
#224=ORIENTED_EDGE('',*,*,#173,.F.);
#225=ORIENTED_EDGE('',*,*,#160,.F.);
#226=ORIENTED_EDGE('',*,*,#175,.T.);
#227=ORIENTED_EDGE('',*,*,#176,.F.);
#228=ORIENTED_EDGE('',*,*,#175,.F.);
#229=ORIENTED_EDGE('',*,*,#161,.F.);
#230=ORIENTED_EDGE('',*,*,#177,.T.);
#231=ORIENTED_EDGE('',*,*,#178,.F.);
#232=ORIENTED_EDGE('',*,*,#177,.F.);
#233=ORIENTED_EDGE('',*,*,#146,.F.);
#234=ORIENTED_EDGE('',*,*,#179,.F.);
#235=ORIENTED_EDGE('',*,*,#164,.F.);
#236=ORIENTED_EDGE('',*,*,#152,.F.);
#237=ORIENTED_EDGE('',*,*,#168,.F.);
#238=ORIENTED_EDGE('',*,*,#180,.F.);
#239=ORIENTED_EDGE('',*,*,#170,.F.);
#240=ORIENTED_EDGE('',*,*,#156,.F.);
#241=ORIENTED_EDGE('',*,*,#145,.F.);
#242=ORIENTED_EDGE('',*,*,#151,.T.);
#243=ORIENTED_EDGE('',*,*,#169,.F.);
#244=ORIENTED_EDGE('',*,*,#180,.T.);
#245=ORIENTED_EDGE('',*,*,#167,.F.);
#246=ORIENTED_EDGE('',*,*,#165,.T.);
#247=ORIENTED_EDGE('',*,*,#162,.F.);
#248=ORIENTED_EDGE('',*,*,#179,.T.);
#249=ORIENTED_EDGE('',*,*,#172,.T.);
#250=ORIENTED_EDGE('',*,*,#174,.T.);
#251=ORIENTED_EDGE('',*,*,#176,.T.);
#252=ORIENTED_EDGE('',*,*,#178,.T.);
#253=CYLINDRICAL_SURFACE('',#298,1.);
#254=CYLINDRICAL_SURFACE('',#310,1.);
#255=CYLINDRICAL_SURFACE('',#313,1.);
#256=CYLINDRICAL_SURFACE('',#315,1.);
#257=CYLINDRICAL_SURFACE('',#317,3.25);
#258=CYLINDRICAL_SURFACE('',#319,3.25);
#259=CYLINDRICAL_SURFACE('',#321,3.25);
#260=CYLINDRICAL_SURFACE('',#323,3.25);
#261=ADVANCED_FACE('',(#29),#253,.T.);
#262=ADVANCED_FACE('',(#30),#23,.T.);
#263=ADVANCED_FACE('',(#31,#15,#16,#17,#18),#24,.F.);
#264=ADVANCED_FACE('',(#32),#254,.T.);
#265=ADVANCED_FACE('',(#33),#25,.T.);
#266=ADVANCED_FACE('',(#34),#255,.T.);
#267=ADVANCED_FACE('',(#35),#256,.T.);
#268=ADVANCED_FACE('',(#36),#257,.F.);
#269=ADVANCED_FACE('',(#37),#258,.F.);
#270=ADVANCED_FACE('',(#38),#259,.F.);
#271=ADVANCED_FACE('',(#39),#260,.F.);
#272=ADVANCED_FACE('',(#40),#26,.T.);
#273=ADVANCED_FACE('',(#41),#27,.T.);
#274=ADVANCED_FACE('',(#42,#19,#20,#21,#22),#28,.T.);
#275=CLOSED_SHELL('',(#261,#262,#263,#264,#265,#266,#267,#268,#269,#270,
#271,#272,#273,#274));
#276=DERIVED_UNIT_ELEMENT(#279,1.);
#277=DERIVED_UNIT_ELEMENT(#490,-3.);
#278=DIMENSIONAL_EXPONENTS(1.,0.,0.,0.,0.,0.,0.);
#279=(
CONVERSION_BASED_UNIT('gram',#281)
MASS_UNIT()
NAMED_UNIT(#278)
);
#280=(
MASS_UNIT()
NAMED_UNIT(*)
SI_UNIT(.KILO.,.GRAM.)
);
#281=MASS_MEASURE_WITH_UNIT(MASS_MEASURE(0.001),#280);
#282=DERIVED_UNIT((#276,#277));
#283=MEASURE_REPRESENTATION_ITEM('density measure',
POSITIVE_RATIO_MEASURE(1.),#282);
#284=PROPERTY_DEFINITION_REPRESENTATION(#289,#286);
#285=PROPERTY_DEFINITION_REPRESENTATION(#290,#287);
#286=REPRESENTATION('material name',(#288),#487);
#287=REPRESENTATION('density',(#283),#487);
#288=DESCRIPTIVE_REPRESENTATION_ITEM('Generisch','Generisch');
#289=PROPERTY_DEFINITION('material property','material name',#497);
#290=PROPERTY_DEFINITION('material property','density of part',#497);
#291=DATE_TIME_ROLE('creation_date');
#292=APPLIED_DATE_AND_TIME_ASSIGNMENT(#293,#291,(#497));
#293=DATE_AND_TIME(#294,#295);
#294=CALENDAR_DATE(2016,6,6);
#295=LOCAL_TIME(0,0,0.,#296);
#296=COORDINATED_UNIVERSAL_TIME_OFFSET(0,0,.BEHIND.);
#297=AXIS2_PLACEMENT_3D('placement',#410,#328,#329);
#298=AXIS2_PLACEMENT_3D('',#411,#330,#331);
#299=AXIS2_PLACEMENT_3D('',#414,#332,#333);
#300=AXIS2_PLACEMENT_3D('',#418,#335,#336);
#301=AXIS2_PLACEMENT_3D('',#420,#338,#339);
#302=AXIS2_PLACEMENT_3D('',#426,#343,#344);
#303=AXIS2_PLACEMENT_3D('',#430,#346,#347);
#304=AXIS2_PLACEMENT_3D('',#434,#349,#350);
#305=AXIS2_PLACEMENT_3D('',#437,#352,#353);
#306=AXIS2_PLACEMENT_3D('',#439,#354,#355);
#307=AXIS2_PLACEMENT_3D('',#441,#356,#357);
#308=AXIS2_PLACEMENT_3D('',#443,#358,#359);
#309=AXIS2_PLACEMENT_3D('',#445,#360,#361);
#310=AXIS2_PLACEMENT_3D('',#446,#362,#363);
#311=AXIS2_PLACEMENT_3D('',#449,#364,#365);
#312=AXIS2_PLACEMENT_3D('',#452,#368,#369);
#313=AXIS2_PLACEMENT_3D('',#456,#372,#373);
#314=AXIS2_PLACEMENT_3D('',#458,#374,#375);
#315=AXIS2_PLACEMENT_3D('',#460,#377,#378);
#316=AXIS2_PLACEMENT_3D('',#462,#379,#380);
#317=AXIS2_PLACEMENT_3D('',#464,#382,#383);
#318=AXIS2_PLACEMENT_3D('',#467,#385,#386);
#319=AXIS2_PLACEMENT_3D('',#468,#387,#388);
#320=AXIS2_PLACEMENT_3D('',#471,#390,#391);
#321=AXIS2_PLACEMENT_3D('',#472,#392,#393);
#322=AXIS2_PLACEMENT_3D('',#475,#395,#396);
#323=AXIS2_PLACEMENT_3D('',#476,#397,#398);
#324=AXIS2_PLACEMENT_3D('',#479,#400,#401);
#325=AXIS2_PLACEMENT_3D('',#480,#402,#403);
#326=AXIS2_PLACEMENT_3D('',#482,#405,#406);
#327=AXIS2_PLACEMENT_3D('',#484,#408,#409);
#328=DIRECTION('axis',(0.,0.,1.));
#329=DIRECTION('refdir',(1.,0.,0.));
#330=DIRECTION('center_axis',(0.,0.,1.));
#331=DIRECTION('ref_axis',(0.707106781186544,0.707106781186551,0.));
#332=DIRECTION('center_axis',(0.,0.,-1.));
#333=DIRECTION('ref_axis',(0.707106781186544,0.707106781186551,0.));
#334=DIRECTION('',(0.,0.,-1.));
#335=DIRECTION('center_axis',(0.,0.,1.));
#336=DIRECTION('ref_axis',(0.707106781186544,0.707106781186551,0.));
#337=DIRECTION('',(0.,0.,1.));
#338=DIRECTION('center_axis',(0.,1.,0.));
#339=DIRECTION('ref_axis',(-1.,0.,0.));
#340=DIRECTION('',(1.,0.,0.));
#341=DIRECTION('',(0.,0.,-1.));
#342=DIRECTION('',(-1.,0.,0.));
#343=DIRECTION('center_axis',(0.,0.,1.));
#344=DIRECTION('ref_axis',(1.,0.,0.));
#345=DIRECTION('',(7.65671051465625E-17,-1.,0.));
#346=DIRECTION('center_axis',(0.,0.,1.));
#347=DIRECTION('ref_axis',(0.707106781186548,-0.707106781186548,0.));
#348=DIRECTION('',(-1.,0.,0.));
#349=DIRECTION('center_axis',(0.,0.,1.));
#350=DIRECTION('ref_axis',(-0.707106781186548,-0.707106781186548,0.));
#351=DIRECTION('',(0.,1.,0.));
#352=DIRECTION('center_axis',(0.,0.,1.));
#353=DIRECTION('ref_axis',(-0.707106781186548,0.707106781186548,0.));
#354=DIRECTION('center_axis',(0.,0.,1.));
#355=DIRECTION('ref_axis',(-1.,0.,0.));
#356=DIRECTION('center_axis',(0.,0.,1.));
#357=DIRECTION('ref_axis',(-1.,0.,0.));
#358=DIRECTION('center_axis',(0.,0.,1.));
#359=DIRECTION('ref_axis',(-1.,0.,0.));
#360=DIRECTION('center_axis',(0.,0.,1.));
#361=DIRECTION('ref_axis',(-1.,0.,0.));
#362=DIRECTION('center_axis',(0.,0.,1.));
#363=DIRECTION('ref_axis',(0.707106781186548,-0.707106781186548,0.));
#364=DIRECTION('center_axis',(0.,0.,-1.));
#365=DIRECTION('ref_axis',(0.707106781186548,-0.707106781186548,0.));
#366=DIRECTION('',(0.,0.,-1.));
#367=DIRECTION('',(0.,0.,1.));
#368=DIRECTION('center_axis',(0.,-1.,0.));
#369=DIRECTION('ref_axis',(1.,0.,0.));
#370=DIRECTION('',(1.,0.,0.));
#371=DIRECTION('',(0.,0.,1.));
#372=DIRECTION('center_axis',(0.,0.,1.));
#373=DIRECTION('ref_axis',(-0.707106781186548,-0.707106781186548,0.));
#374=DIRECTION('center_axis',(0.,0.,-1.));
#375=DIRECTION('ref_axis',(-0.707106781186548,-0.707106781186548,0.));
#376=DIRECTION('',(0.,0.,-1.));
#377=DIRECTION('center_axis',(0.,0.,1.));
#378=DIRECTION('ref_axis',(-0.707106781186548,0.707106781186548,0.));
#379=DIRECTION('center_axis',(0.,0.,-1.));
#380=DIRECTION('ref_axis',(-0.707106781186548,0.707106781186548,0.));
#381=DIRECTION('',(0.,0.,1.));
#382=DIRECTION('center_axis',(0.,0.,1.));
#383=DIRECTION('ref_axis',(-1.,0.,0.));
#384=DIRECTION('',(0.,0.,1.));
#385=DIRECTION('center_axis',(0.,0.,-1.));
#386=DIRECTION('ref_axis',(-1.,0.,0.));
#387=DIRECTION('center_axis',(0.,0.,1.));
#388=DIRECTION('ref_axis',(-1.,0.,0.));
#389=DIRECTION('',(0.,0.,1.));
#390=DIRECTION('center_axis',(0.,0.,-1.));
#391=DIRECTION('ref_axis',(-1.,0.,0.));
#392=DIRECTION('center_axis',(0.,0.,1.));
#393=DIRECTION('ref_axis',(-1.,0.,0.));
#394=DIRECTION('',(0.,0.,1.));
#395=DIRECTION('center_axis',(0.,0.,-1.));
#396=DIRECTION('ref_axis',(-1.,0.,0.));
#397=DIRECTION('center_axis',(0.,0.,1.));
#398=DIRECTION('ref_axis',(-1.,0.,0.));
#399=DIRECTION('',(0.,0.,1.));
#400=DIRECTION('center_axis',(0.,0.,-1.));
#401=DIRECTION('ref_axis',(-1.,0.,0.));
#402=DIRECTION('center_axis',(1.,7.65671051465625E-17,0.));
#403=DIRECTION('ref_axis',(-7.65671051465625E-17,1.,0.));
#404=DIRECTION('',(-7.65671051465625E-17,1.,0.));
#405=DIRECTION('center_axis',(-1.,0.,0.));
#406=DIRECTION('ref_axis',(0.,-1.,0.));
#407=DIRECTION('',(0.,-1.,0.));
#408=DIRECTION('center_axis',(0.,0.,1.));
#409=DIRECTION('ref_axis',(1.,0.,0.));
#410=CARTESIAN_POINT('',(0.,0.,0.));
#411=CARTESIAN_POINT('Origin',(28.,28.,0.));
#412=CARTESIAN_POINT('',(28.,29.,3.));
#413=CARTESIAN_POINT('',(29.,28.,3.));
#414=CARTESIAN_POINT('Origin',(28.,28.,3.));
#415=CARTESIAN_POINT('',(29.,28.,0.));
#416=CARTESIAN_POINT('',(29.,28.,0.));
#417=CARTESIAN_POINT('',(28.,29.,0.));
#418=CARTESIAN_POINT('Origin',(28.,28.,0.));
#419=CARTESIAN_POINT('',(28.,29.,0.));
#420=CARTESIAN_POINT('Origin',(29.,29.,0.));
#421=CARTESIAN_POINT('',(-28.,29.,0.));
#422=CARTESIAN_POINT('',(-29.,29.,0.));
#423=CARTESIAN_POINT('',(-28.,29.,3.));
#424=CARTESIAN_POINT('',(-28.,29.,0.));
#425=CARTESIAN_POINT('',(-29.,29.,3.));
#426=CARTESIAN_POINT('Origin',(2.29701315439688E-15,-2.29701315439688E-15,
0.));
#427=CARTESIAN_POINT('',(29.,-28.,0.));
#428=CARTESIAN_POINT('',(29.,29.,0.));
#429=CARTESIAN_POINT('',(28.,-29.,0.));
#430=CARTESIAN_POINT('Origin',(28.,-28.,0.));
#431=CARTESIAN_POINT('',(-28.,-29.,0.));
#432=CARTESIAN_POINT('',(29.,-29.,0.));
#433=CARTESIAN_POINT('',(-29.,-28.,0.));
#434=CARTESIAN_POINT('Origin',(-28.,-28.,0.));
#435=CARTESIAN_POINT('',(-29.,28.,0.));
#436=CARTESIAN_POINT('',(-29.,-29.,0.));
#437=CARTESIAN_POINT('Origin',(-28.,28.,0.));
#438=CARTESIAN_POINT('',(-11.75,15.,0.));
#439=CARTESIAN_POINT('Origin',(-15.,15.,0.));
#440=CARTESIAN_POINT('',(-11.75,-15.,0.));
#441=CARTESIAN_POINT('Origin',(-15.,-15.,0.));
#442=CARTESIAN_POINT('',(18.25,-15.,0.));
#443=CARTESIAN_POINT('Origin',(15.,-15.,0.));
#444=CARTESIAN_POINT('',(18.25,15.,0.));
#445=CARTESIAN_POINT('Origin',(15.,15.,0.));
#446=CARTESIAN_POINT('Origin',(28.,-28.,0.));
#447=CARTESIAN_POINT('',(29.,-28.,3.));
#448=CARTESIAN_POINT('',(28.,-29.,3.));
#449=CARTESIAN_POINT('Origin',(28.,-28.,3.));
#450=CARTESIAN_POINT('',(28.,-29.,0.));
#451=CARTESIAN_POINT('',(29.,-28.,0.));
#452=CARTESIAN_POINT('Origin',(-29.,-29.,0.));
#453=CARTESIAN_POINT('',(-28.,-29.,3.));
#454=CARTESIAN_POINT('',(29.,-29.,3.));
#455=CARTESIAN_POINT('',(-28.,-29.,0.));
#456=CARTESIAN_POINT('Origin',(-28.,-28.,0.));
#457=CARTESIAN_POINT('',(-29.,-28.,3.));
#458=CARTESIAN_POINT('Origin',(-28.,-28.,3.));
#459=CARTESIAN_POINT('',(-29.,-28.,0.));
#460=CARTESIAN_POINT('Origin',(-28.,28.,0.));
#461=CARTESIAN_POINT('',(-29.,28.,3.));
#462=CARTESIAN_POINT('Origin',(-28.,28.,3.));
#463=CARTESIAN_POINT('',(-29.,28.,0.));
#464=CARTESIAN_POINT('Origin',(-15.,15.,0.));
#465=CARTESIAN_POINT('',(-11.75,15.,3.));
#466=CARTESIAN_POINT('',(-11.75,15.,0.));
#467=CARTESIAN_POINT('Origin',(-15.,15.,3.));
#468=CARTESIAN_POINT('Origin',(-15.,-15.,0.));
#469=CARTESIAN_POINT('',(-11.75,-15.,3.));
#470=CARTESIAN_POINT('',(-11.75,-15.,0.));
#471=CARTESIAN_POINT('Origin',(-15.,-15.,3.));
#472=CARTESIAN_POINT('Origin',(15.,-15.,0.));
#473=CARTESIAN_POINT('',(18.25,-15.,3.));
#474=CARTESIAN_POINT('',(18.25,-15.,0.));
#475=CARTESIAN_POINT('Origin',(15.,-15.,3.));
#476=CARTESIAN_POINT('Origin',(15.,15.,0.));
#477=CARTESIAN_POINT('',(18.25,15.,3.));
#478=CARTESIAN_POINT('',(18.25,15.,0.));
#479=CARTESIAN_POINT('Origin',(15.,15.,3.));
#480=CARTESIAN_POINT('Origin',(29.,-29.,0.));
#481=CARTESIAN_POINT('',(29.,29.,3.));
#482=CARTESIAN_POINT('Origin',(-29.,29.,0.));
#483=CARTESIAN_POINT('',(-29.,-29.,3.));
#484=CARTESIAN_POINT('Origin',(4.44089209850063E-15,-4.44089209850063E-15,
3.));
#485=UNCERTAINTY_MEASURE_WITH_UNIT(LENGTH_MEASURE(0.01),#489,
'DISTANCE_ACCURACY_VALUE',
'Maximum model space distance between geometric entities at asserted c
onnectivities');
#486=UNCERTAINTY_MEASURE_WITH_UNIT(LENGTH_MEASURE(0.01),#489,
'DISTANCE_ACCURACY_VALUE',
'Maximum model space distance between geometric entities at asserted c
onnectivities');
#487=(
GEOMETRIC_REPRESENTATION_CONTEXT(3)
GLOBAL_UNCERTAINTY_ASSIGNED_CONTEXT((#485))
GLOBAL_UNIT_ASSIGNED_CONTEXT((#489,#491,#492))
REPRESENTATION_CONTEXT('','3D')
);
#488=(
GEOMETRIC_REPRESENTATION_CONTEXT(3)
GLOBAL_UNCERTAINTY_ASSIGNED_CONTEXT((#486))
GLOBAL_UNIT_ASSIGNED_CONTEXT((#489,#491,#492))
REPRESENTATION_CONTEXT('','3D')
);
#489=(
LENGTH_UNIT()
NAMED_UNIT(*)
SI_UNIT(.MILLI.,.METRE.)
);
#490=(
LENGTH_UNIT()
NAMED_UNIT(*)
SI_UNIT(.CENTI.,.METRE.)
);
#491=(
NAMED_UNIT(*)
PLANE_ANGLE_UNIT()
SI_UNIT($,.RADIAN.)
);
#492=(
NAMED_UNIT(*)
SI_UNIT($,.STERADIAN.)
SOLID_ANGLE_UNIT()
);
#493=SHAPE_DEFINITION_REPRESENTATION(#494,#495);
#494=PRODUCT_DEFINITION_SHAPE('',$,#497);
#495=SHAPE_REPRESENTATION('',(#297),#487);
#496=PRODUCT_DEFINITION_CONTEXT('part definition',#501,'design');
#497=PRODUCT_DEFINITION('Motedis-LP30105','Motedis-LP30105',#498,#496);
#498=PRODUCT_DEFINITION_FORMATION('',$,#503);
#499=PRODUCT_RELATED_PRODUCT_CATEGORY('Motedis-LP30105',
'Motedis-LP30105',(#503));
#500=APPLICATION_PROTOCOL_DEFINITION('international standard',
'automotive_design',2009,#501);
#501=APPLICATION_CONTEXT(
'Core Data for Automotive Mechanical Design Process');
#502=PRODUCT_CONTEXT('part definition',#501,'mechanical');
#503=PRODUCT('Motedis-LP30105','Motedis-LP30105',$,(#502));
#504=PRESENTATION_STYLE_ASSIGNMENT((#505));
#505=SURFACE_STYLE_USAGE(.BOTH.,#508);
#506=SURFACE_STYLE_RENDERING_WITH_PROPERTIES($,#512,(#507));
#507=SURFACE_STYLE_TRANSPARENT(0.);
#508=SURFACE_SIDE_STYLE('',(#509,#506));
#509=SURFACE_STYLE_FILL_AREA(#510);
#510=FILL_AREA_STYLE('',(#511));
#511=FILL_AREA_STYLE_COLOUR('',#512);
#512=COLOUR_RGB('',0.749019607843137,0.749019607843137,0.749019607843137);
ENDSEC;
END-ISO-10303-21;
