ISO-10303-21;
HEADER;
/* Generated by software containing ST-Developer
 * from STEP Tools, Inc. (www.steptools.com) 
 */
/* OPTION: using custom renumber hook */

FILE_DESCRIPTION(
/* description */ ('STEP AP242',
'CAx-IF Rec.Pracs.---Representation and Presentation of Product Manufa
cturing Information (PMI)---4.0---2014-10-13',
'CAx-IF Rec.Pracs.---3D Tessellated Geometry---0.4---2014-09-14','2;1'),

/* implementation_level */ '2;1');

FILE_NAME(
/* name */ 'Track GN 753.1-22-B5-ZL-1',
/* time_stamp */ '2026-08-07T23:25:40+02:00',
/* author */ ('License CC BY-ND 4.0'),
/* organization */ ('CADENAS'),
/* preprocessor_version */ 'ST-DEVELOPER v20',
/* originating_system */ 'PARTsolutions',
/* authorisation */ '  ');

FILE_SCHEMA (('AP242_MANAGED_MODEL_BASED_3D_ENGINEERING_MIM_LF { 1 0 10303 442 1 1 4 }'));
ENDSEC;

DATA;
#10=SHAPE_REPRESENTATION_RELATIONSHIP('','',#341,#11);
#11=ADVANCED_BREP_SHAPE_REPRESENTATION('',(#339),#509);
#12=TOROIDAL_SURFACE('',#374,10.,0.999999999999997);
#13=TOROIDAL_SURFACE('',#378,10.,0.999999999999997);
#14=COLOUR_RGB('',0.749019622802734,0.749019622802734,0.749019622802734);
#15=CYLINDRICAL_SURFACE('',#346,7.5);
#16=CYLINDRICAL_SURFACE('',#350,6.9);
#17=CYLINDRICAL_SURFACE('',#354,4.25);
#18=CYLINDRICAL_SURFACE('',#358,2.5);
#19=CYLINDRICAL_SURFACE('',#362,4.25);
#20=CYLINDRICAL_SURFACE('',#366,6.9);
#21=CYLINDRICAL_SURFACE('',#370,7.5);
#22=CYLINDRICAL_SURFACE('',#376,11.);
#23=ORIENTED_EDGE('',*,*,#59,.T.);
#24=ORIENTED_EDGE('',*,*,#60,.F.);
#25=ORIENTED_EDGE('',*,*,#61,.T.);
#26=ORIENTED_EDGE('',*,*,#59,.F.);
#27=ORIENTED_EDGE('',*,*,#62,.T.);
#28=ORIENTED_EDGE('',*,*,#61,.F.);
#29=ORIENTED_EDGE('',*,*,#63,.T.);
#30=ORIENTED_EDGE('',*,*,#62,.F.);
#31=ORIENTED_EDGE('',*,*,#64,.T.);
#32=ORIENTED_EDGE('',*,*,#63,.F.);
#33=ORIENTED_EDGE('',*,*,#65,.T.);
#34=ORIENTED_EDGE('',*,*,#64,.F.);
#35=ORIENTED_EDGE('',*,*,#66,.T.);
#36=ORIENTED_EDGE('',*,*,#65,.F.);
#37=ORIENTED_EDGE('',*,*,#67,.T.);
#38=ORIENTED_EDGE('',*,*,#66,.F.);
#39=ORIENTED_EDGE('',*,*,#68,.T.);
#40=ORIENTED_EDGE('',*,*,#67,.F.);
#41=ORIENTED_EDGE('',*,*,#69,.T.);
#42=ORIENTED_EDGE('',*,*,#68,.F.);
#43=ORIENTED_EDGE('',*,*,#70,.T.);
#44=ORIENTED_EDGE('',*,*,#69,.F.);
#45=ORIENTED_EDGE('',*,*,#71,.T.);
#46=ORIENTED_EDGE('',*,*,#70,.F.);
#47=ORIENTED_EDGE('',*,*,#72,.T.);
#48=ORIENTED_EDGE('',*,*,#71,.F.);
#49=ORIENTED_EDGE('',*,*,#73,.T.);
#50=ORIENTED_EDGE('',*,*,#72,.F.);
#51=ORIENTED_EDGE('',*,*,#74,.T.);
#52=ORIENTED_EDGE('',*,*,#73,.F.);
#53=ORIENTED_EDGE('',*,*,#75,.T.);
#54=ORIENTED_EDGE('',*,*,#74,.F.);
#55=ORIENTED_EDGE('',*,*,#76,.T.);
#56=ORIENTED_EDGE('',*,*,#75,.F.);
#57=ORIENTED_EDGE('',*,*,#60,.T.);
#58=ORIENTED_EDGE('',*,*,#76,.F.);
#59=EDGE_CURVE('',#77,#77,#95,.T.);
#60=EDGE_CURVE('',#78,#78,#96,.T.);
#61=EDGE_CURVE('',#79,#79,#97,.T.);
#62=EDGE_CURVE('',#80,#80,#98,.T.);
#63=EDGE_CURVE('',#81,#81,#99,.T.);
#64=EDGE_CURVE('',#82,#82,#100,.T.);
#65=EDGE_CURVE('',#83,#83,#101,.T.);
#66=EDGE_CURVE('',#84,#84,#102,.T.);
#67=EDGE_CURVE('',#85,#85,#103,.T.);
#68=EDGE_CURVE('',#86,#86,#104,.T.);
#69=EDGE_CURVE('',#87,#87,#105,.T.);
#70=EDGE_CURVE('',#88,#88,#106,.T.);
#71=EDGE_CURVE('',#89,#89,#107,.T.);
#72=EDGE_CURVE('',#90,#90,#108,.T.);
#73=EDGE_CURVE('',#91,#91,#109,.T.);
#74=EDGE_CURVE('',#92,#92,#110,.T.);
#75=EDGE_CURVE('',#93,#93,#111,.T.);
#76=EDGE_CURVE('',#94,#94,#112,.T.);
#77=VERTEX_POINT('',#456);
#78=VERTEX_POINT('',#458);
#79=VERTEX_POINT('',#461);
#80=VERTEX_POINT('',#464);
#81=VERTEX_POINT('',#467);
#82=VERTEX_POINT('',#470);
#83=VERTEX_POINT('',#473);
#84=VERTEX_POINT('',#476);
#85=VERTEX_POINT('',#479);
#86=VERTEX_POINT('',#482);
#87=VERTEX_POINT('',#485);
#88=VERTEX_POINT('',#488);
#89=VERTEX_POINT('',#491);
#90=VERTEX_POINT('',#494);
#91=VERTEX_POINT('',#497);
#92=VERTEX_POINT('',#500);
#93=VERTEX_POINT('',#503);
#94=VERTEX_POINT('',#506);
#95=CIRCLE('',#344,7.5);
#96=CIRCLE('',#345,10.);
#97=CIRCLE('',#347,7.5);
#98=CIRCLE('',#349,6.90000000000001);
#99=CIRCLE('',#351,6.9);
#100=CIRCLE('',#353,4.25);
#101=CIRCLE('',#355,4.25);
#102=CIRCLE('',#357,2.5);
#103=CIRCLE('',#359,2.5);
#104=CIRCLE('',#361,4.25);
#105=CIRCLE('',#363,4.25);
#106=CIRCLE('',#365,6.9);
#107=CIRCLE('',#367,6.90000000000001);
#108=CIRCLE('',#369,7.5);
#109=CIRCLE('',#371,7.5);
#110=CIRCLE('',#373,10.);
#111=CIRCLE('',#375,11.);
#112=CIRCLE('',#377,11.);
#113=EDGE_LOOP('',(#23));
#114=EDGE_LOOP('',(#24));
#115=EDGE_LOOP('',(#25));
#116=EDGE_LOOP('',(#26));
#117=EDGE_LOOP('',(#27));
#118=EDGE_LOOP('',(#28));
#119=EDGE_LOOP('',(#29));
#120=EDGE_LOOP('',(#30));
#121=EDGE_LOOP('',(#31));
#122=EDGE_LOOP('',(#32));
#123=EDGE_LOOP('',(#33));
#124=EDGE_LOOP('',(#34));
#125=EDGE_LOOP('',(#35));
#126=EDGE_LOOP('',(#36));
#127=EDGE_LOOP('',(#37));
#128=EDGE_LOOP('',(#38));
#129=EDGE_LOOP('',(#39));
#130=EDGE_LOOP('',(#40));
#131=EDGE_LOOP('',(#41));
#132=EDGE_LOOP('',(#42));
#133=EDGE_LOOP('',(#43));
#134=EDGE_LOOP('',(#44));
#135=EDGE_LOOP('',(#45));
#136=EDGE_LOOP('',(#46));
#137=EDGE_LOOP('',(#47));
#138=EDGE_LOOP('',(#48));
#139=EDGE_LOOP('',(#49));
#140=EDGE_LOOP('',(#50));
#141=EDGE_LOOP('',(#51));
#142=EDGE_LOOP('',(#52));
#143=EDGE_LOOP('',(#53));
#144=EDGE_LOOP('',(#54));
#145=EDGE_LOOP('',(#55));
#146=EDGE_LOOP('',(#56));
#147=EDGE_LOOP('',(#57));
#148=EDGE_LOOP('',(#58));
#149=FACE_BOUND('',#113,.T.);
#150=FACE_BOUND('',#114,.T.);
#151=FACE_BOUND('',#115,.T.);
#152=FACE_BOUND('',#116,.T.);
#153=FACE_BOUND('',#117,.T.);
#154=FACE_BOUND('',#118,.T.);
#155=FACE_BOUND('',#119,.T.);
#156=FACE_BOUND('',#120,.T.);
#157=FACE_BOUND('',#121,.T.);
#158=FACE_BOUND('',#122,.T.);
#159=FACE_BOUND('',#123,.T.);
#160=FACE_BOUND('',#124,.T.);
#161=FACE_BOUND('',#125,.T.);
#162=FACE_BOUND('',#126,.T.);
#163=FACE_BOUND('',#127,.T.);
#164=FACE_BOUND('',#128,.T.);
#165=FACE_BOUND('',#129,.T.);
#166=FACE_BOUND('',#130,.T.);
#167=FACE_BOUND('',#131,.T.);
#168=FACE_BOUND('',#132,.T.);
#169=FACE_BOUND('',#133,.T.);
#170=FACE_BOUND('',#134,.T.);
#171=FACE_BOUND('',#135,.T.);
#172=FACE_BOUND('',#136,.T.);
#173=FACE_BOUND('',#137,.T.);
#174=FACE_BOUND('',#138,.T.);
#175=FACE_BOUND('',#139,.T.);
#176=FACE_BOUND('',#140,.T.);
#177=FACE_BOUND('',#141,.T.);
#178=FACE_BOUND('',#142,.T.);
#179=FACE_BOUND('',#143,.T.);
#180=FACE_BOUND('',#144,.T.);
#181=FACE_BOUND('',#145,.T.);
#182=FACE_BOUND('',#146,.T.);
#183=FACE_BOUND('',#147,.T.);
#184=FACE_BOUND('',#148,.T.);
#185=PLANE('',#343);
#186=PLANE('',#348);
#187=PLANE('',#352);
#188=PLANE('',#356);
#189=PLANE('',#360);
#190=PLANE('',#364);
#191=PLANE('',#368);
#192=PLANE('',#372);
#193=STYLED_ITEM('',(#211),#320);
#194=STYLED_ITEM('',(#212),#321);
#195=STYLED_ITEM('',(#213),#322);
#196=STYLED_ITEM('',(#214),#323);
#197=STYLED_ITEM('',(#215),#324);
#198=STYLED_ITEM('',(#216),#325);
#199=STYLED_ITEM('',(#217),#326);
#200=STYLED_ITEM('',(#218),#327);
#201=STYLED_ITEM('',(#219),#328);
#202=STYLED_ITEM('',(#220),#329);
#203=STYLED_ITEM('',(#221),#330);
#204=STYLED_ITEM('',(#222),#331);
#205=STYLED_ITEM('',(#223),#332);
#206=STYLED_ITEM('',(#224),#333);
#207=STYLED_ITEM('',(#225),#334);
#208=STYLED_ITEM('',(#226),#335);
#209=STYLED_ITEM('',(#227),#336);
#210=STYLED_ITEM('',(#228),#337);
#211=PRESENTATION_STYLE_ASSIGNMENT((#229));
#212=PRESENTATION_STYLE_ASSIGNMENT((#230));
#213=PRESENTATION_STYLE_ASSIGNMENT((#231));
#214=PRESENTATION_STYLE_ASSIGNMENT((#232));
#215=PRESENTATION_STYLE_ASSIGNMENT((#233));
#216=PRESENTATION_STYLE_ASSIGNMENT((#234));
#217=PRESENTATION_STYLE_ASSIGNMENT((#235));
#218=PRESENTATION_STYLE_ASSIGNMENT((#236));
#219=PRESENTATION_STYLE_ASSIGNMENT((#237));
#220=PRESENTATION_STYLE_ASSIGNMENT((#238));
#221=PRESENTATION_STYLE_ASSIGNMENT((#239));
#222=PRESENTATION_STYLE_ASSIGNMENT((#240));
#223=PRESENTATION_STYLE_ASSIGNMENT((#241));
#224=PRESENTATION_STYLE_ASSIGNMENT((#242));
#225=PRESENTATION_STYLE_ASSIGNMENT((#243));
#226=PRESENTATION_STYLE_ASSIGNMENT((#244));
#227=PRESENTATION_STYLE_ASSIGNMENT((#245));
#228=PRESENTATION_STYLE_ASSIGNMENT((#246));
#229=SURFACE_STYLE_USAGE(.BOTH.,#247);
#230=SURFACE_STYLE_USAGE(.BOTH.,#248);
#231=SURFACE_STYLE_USAGE(.BOTH.,#249);
#232=SURFACE_STYLE_USAGE(.BOTH.,#250);
#233=SURFACE_STYLE_USAGE(.BOTH.,#251);
#234=SURFACE_STYLE_USAGE(.BOTH.,#252);
#235=SURFACE_STYLE_USAGE(.BOTH.,#253);
#236=SURFACE_STYLE_USAGE(.BOTH.,#254);
#237=SURFACE_STYLE_USAGE(.BOTH.,#255);
#238=SURFACE_STYLE_USAGE(.BOTH.,#256);
#239=SURFACE_STYLE_USAGE(.BOTH.,#257);
#240=SURFACE_STYLE_USAGE(.BOTH.,#258);
#241=SURFACE_STYLE_USAGE(.BOTH.,#259);
#242=SURFACE_STYLE_USAGE(.BOTH.,#260);
#243=SURFACE_STYLE_USAGE(.BOTH.,#261);
#244=SURFACE_STYLE_USAGE(.BOTH.,#262);
#245=SURFACE_STYLE_USAGE(.BOTH.,#263);
#246=SURFACE_STYLE_USAGE(.BOTH.,#264);
#247=SURFACE_SIDE_STYLE('',(#265));
#248=SURFACE_SIDE_STYLE('',(#266));
#249=SURFACE_SIDE_STYLE('',(#267));
#250=SURFACE_SIDE_STYLE('',(#268));
#251=SURFACE_SIDE_STYLE('',(#269));
#252=SURFACE_SIDE_STYLE('',(#270));
#253=SURFACE_SIDE_STYLE('',(#271));
#254=SURFACE_SIDE_STYLE('',(#272));
#255=SURFACE_SIDE_STYLE('',(#273));
#256=SURFACE_SIDE_STYLE('',(#274));
#257=SURFACE_SIDE_STYLE('',(#275));
#258=SURFACE_SIDE_STYLE('',(#276));
#259=SURFACE_SIDE_STYLE('',(#277));
#260=SURFACE_SIDE_STYLE('',(#278));
#261=SURFACE_SIDE_STYLE('',(#279));
#262=SURFACE_SIDE_STYLE('',(#280));
#263=SURFACE_SIDE_STYLE('',(#281));
#264=SURFACE_SIDE_STYLE('',(#282));
#265=SURFACE_STYLE_FILL_AREA(#283);
#266=SURFACE_STYLE_FILL_AREA(#284);
#267=SURFACE_STYLE_FILL_AREA(#285);
#268=SURFACE_STYLE_FILL_AREA(#286);
#269=SURFACE_STYLE_FILL_AREA(#287);
#270=SURFACE_STYLE_FILL_AREA(#288);
#271=SURFACE_STYLE_FILL_AREA(#289);
#272=SURFACE_STYLE_FILL_AREA(#290);
#273=SURFACE_STYLE_FILL_AREA(#291);
#274=SURFACE_STYLE_FILL_AREA(#292);
#275=SURFACE_STYLE_FILL_AREA(#293);
#276=SURFACE_STYLE_FILL_AREA(#294);
#277=SURFACE_STYLE_FILL_AREA(#295);
#278=SURFACE_STYLE_FILL_AREA(#296);
#279=SURFACE_STYLE_FILL_AREA(#297);
#280=SURFACE_STYLE_FILL_AREA(#298);
#281=SURFACE_STYLE_FILL_AREA(#299);
#282=SURFACE_STYLE_FILL_AREA(#300);
#283=FILL_AREA_STYLE('',(#301));
#284=FILL_AREA_STYLE('',(#302));
#285=FILL_AREA_STYLE('',(#303));
#286=FILL_AREA_STYLE('',(#304));
#287=FILL_AREA_STYLE('',(#305));
#288=FILL_AREA_STYLE('',(#306));
#289=FILL_AREA_STYLE('',(#307));
#290=FILL_AREA_STYLE('',(#308));
#291=FILL_AREA_STYLE('',(#309));
#292=FILL_AREA_STYLE('',(#310));
#293=FILL_AREA_STYLE('',(#311));
#294=FILL_AREA_STYLE('',(#312));
#295=FILL_AREA_STYLE('',(#313));
#296=FILL_AREA_STYLE('',(#314));
#297=FILL_AREA_STYLE('',(#315));
#298=FILL_AREA_STYLE('',(#316));
#299=FILL_AREA_STYLE('',(#317));
#300=FILL_AREA_STYLE('',(#318));
#301=FILL_AREA_STYLE_COLOUR('',#319);
#302=FILL_AREA_STYLE_COLOUR('',#319);
#303=FILL_AREA_STYLE_COLOUR('',#14);
#304=FILL_AREA_STYLE_COLOUR('',#14);
#305=FILL_AREA_STYLE_COLOUR('',#14);
#306=FILL_AREA_STYLE_COLOUR('',#14);
#307=FILL_AREA_STYLE_COLOUR('',#14);
#308=FILL_AREA_STYLE_COLOUR('',#14);
#309=FILL_AREA_STYLE_COLOUR('',#14);
#310=FILL_AREA_STYLE_COLOUR('',#14);
#311=FILL_AREA_STYLE_COLOUR('',#14);
#312=FILL_AREA_STYLE_COLOUR('',#14);
#313=FILL_AREA_STYLE_COLOUR('',#14);
#314=FILL_AREA_STYLE_COLOUR('',#319);
#315=FILL_AREA_STYLE_COLOUR('',#319);
#316=FILL_AREA_STYLE_COLOUR('',#319);
#317=FILL_AREA_STYLE_COLOUR('',#319);
#318=FILL_AREA_STYLE_COLOUR('',#319);
#319=DRAUGHTING_PRE_DEFINED_COLOUR('white');
#320=ADVANCED_FACE('',(#149,#150),#185,.T.);
#321=ADVANCED_FACE('',(#151,#152),#15,.F.);
#322=ADVANCED_FACE('',(#153,#154),#186,.T.);
#323=ADVANCED_FACE('',(#155,#156),#16,.F.);
#324=ADVANCED_FACE('',(#157,#158),#187,.T.);
#325=ADVANCED_FACE('',(#159,#160),#17,.T.);
#326=ADVANCED_FACE('',(#161,#162),#188,.T.);
#327=ADVANCED_FACE('',(#163,#164),#18,.F.);
#328=ADVANCED_FACE('',(#165,#166),#189,.T.);
#329=ADVANCED_FACE('',(#167,#168),#19,.T.);
#330=ADVANCED_FACE('',(#169,#170),#190,.T.);
#331=ADVANCED_FACE('',(#171,#172),#20,.F.);
#332=ADVANCED_FACE('',(#173,#174),#191,.T.);
#333=ADVANCED_FACE('',(#175,#176),#21,.F.);
#334=ADVANCED_FACE('',(#177,#178),#192,.T.);
#335=ADVANCED_FACE('',(#179,#180),#12,.T.);
#336=ADVANCED_FACE('',(#181,#182),#22,.T.);
#337=ADVANCED_FACE('',(#183,#184),#13,.T.);
#338=CLOSED_SHELL('',(#320,#321,#322,#323,#324,#325,#326,#327,#328,#329,
#330,#331,#332,#333,#334,#335,#336,#337));
#339=MANIFOLD_SOLID_BREP('Track GN 753.1-22-B5-ZL-1',#338);
#340=SHAPE_DEFINITION_REPRESENTATION(#514,#341);
#341=SHAPE_REPRESENTATION('Track GN 753.1-22-B5-ZL-1',(#342),#509);
#342=AXIS2_PLACEMENT_3D('',#453,#379,#380);
#343=AXIS2_PLACEMENT_3D('',#454,#381,#382);
#344=AXIS2_PLACEMENT_3D('',#455,#383,#384);
#345=AXIS2_PLACEMENT_3D('',#457,#385,#386);
#346=AXIS2_PLACEMENT_3D('',#459,#387,#388);
#347=AXIS2_PLACEMENT_3D('',#460,#389,#390);
#348=AXIS2_PLACEMENT_3D('',#462,#391,#392);
#349=AXIS2_PLACEMENT_3D('',#463,#393,#394);
#350=AXIS2_PLACEMENT_3D('',#465,#395,#396);
#351=AXIS2_PLACEMENT_3D('',#466,#397,#398);
#352=AXIS2_PLACEMENT_3D('',#468,#399,#400);
#353=AXIS2_PLACEMENT_3D('',#469,#401,#402);
#354=AXIS2_PLACEMENT_3D('',#471,#403,#404);
#355=AXIS2_PLACEMENT_3D('',#472,#405,#406);
#356=AXIS2_PLACEMENT_3D('',#474,#407,#408);
#357=AXIS2_PLACEMENT_3D('',#475,#409,#410);
#358=AXIS2_PLACEMENT_3D('',#477,#411,#412);
#359=AXIS2_PLACEMENT_3D('',#478,#413,#414);
#360=AXIS2_PLACEMENT_3D('',#480,#415,#416);
#361=AXIS2_PLACEMENT_3D('',#481,#417,#418);
#362=AXIS2_PLACEMENT_3D('',#483,#419,#420);
#363=AXIS2_PLACEMENT_3D('',#484,#421,#422);
#364=AXIS2_PLACEMENT_3D('',#486,#423,#424);
#365=AXIS2_PLACEMENT_3D('',#487,#425,#426);
#366=AXIS2_PLACEMENT_3D('',#489,#427,#428);
#367=AXIS2_PLACEMENT_3D('',#490,#429,#430);
#368=AXIS2_PLACEMENT_3D('',#492,#431,#432);
#369=AXIS2_PLACEMENT_3D('',#493,#433,#434);
#370=AXIS2_PLACEMENT_3D('',#495,#435,#436);
#371=AXIS2_PLACEMENT_3D('',#496,#437,#438);
#372=AXIS2_PLACEMENT_3D('',#498,#439,#440);
#373=AXIS2_PLACEMENT_3D('',#499,#441,#442);
#374=AXIS2_PLACEMENT_3D('',#501,#443,#444);
#375=AXIS2_PLACEMENT_3D('',#502,#445,#446);
#376=AXIS2_PLACEMENT_3D('',#504,#447,#448);
#377=AXIS2_PLACEMENT_3D('',#505,#449,#450);
#378=AXIS2_PLACEMENT_3D('',#507,#451,#452);
#379=DIRECTION('',(0.,0.,1.));
#380=DIRECTION('',(1.,0.,0.));
#381=DIRECTION('',(-1.,0.,0.));
#382=DIRECTION('',(0.,0.,1.));
#383=DIRECTION('',(1.,0.,0.));
#384=DIRECTION('',(0.,0.,-1.));
#385=DIRECTION('',(1.,0.,0.));
#386=DIRECTION('',(0.,0.,-1.));
#387=DIRECTION('',(1.,0.,0.));
#388=DIRECTION('',(0.,0.,-1.));
#389=DIRECTION('',(1.,0.,0.));
#390=DIRECTION('',(0.,0.,-1.));
#391=DIRECTION('',(-1.,0.,0.));
#392=DIRECTION('',(0.,0.,1.));
#393=DIRECTION('',(1.,0.,0.));
#394=DIRECTION('',(0.,0.,-1.));
#395=DIRECTION('',(1.,0.,0.));
#396=DIRECTION('',(0.,0.,-1.));
#397=DIRECTION('',(1.,0.,0.));
#398=DIRECTION('',(0.,0.,-1.));
#399=DIRECTION('',(-1.,0.,0.));
#400=DIRECTION('',(0.,0.,1.));
#401=DIRECTION('',(1.,0.,0.));
#402=DIRECTION('',(0.,0.,-1.));
#403=DIRECTION('',(1.,0.,0.));
#404=DIRECTION('',(0.,0.,-1.));
#405=DIRECTION('',(1.,0.,0.));
#406=DIRECTION('',(0.,0.,-1.));
#407=DIRECTION('',(-1.,0.,0.));
#408=DIRECTION('',(0.,0.,1.));
#409=DIRECTION('',(1.,0.,0.));
#410=DIRECTION('',(0.,0.,-1.));
#411=DIRECTION('',(1.,0.,0.));
#412=DIRECTION('',(0.,0.,-1.));
#413=DIRECTION('',(1.,0.,0.));
#414=DIRECTION('',(0.,0.,-1.));
#415=DIRECTION('',(1.,0.,0.));
#416=DIRECTION('',(0.,0.,-1.));
#417=DIRECTION('',(1.,0.,0.));
#418=DIRECTION('',(0.,0.,-1.));
#419=DIRECTION('',(1.,0.,0.));
#420=DIRECTION('',(0.,0.,-1.));
#421=DIRECTION('',(1.,0.,0.));
#422=DIRECTION('',(0.,0.,-1.));
#423=DIRECTION('',(1.,0.,0.));
#424=DIRECTION('',(0.,0.,-1.));
#425=DIRECTION('',(1.,0.,0.));
#426=DIRECTION('',(0.,0.,-1.));
#427=DIRECTION('',(1.,0.,0.));
#428=DIRECTION('',(0.,0.,-1.));
#429=DIRECTION('',(1.,0.,0.));
#430=DIRECTION('',(0.,0.,-1.));
#431=DIRECTION('',(1.,0.,0.));
#432=DIRECTION('',(0.,0.,-1.));
#433=DIRECTION('',(1.,0.,0.));
#434=DIRECTION('',(0.,0.,-1.));
#435=DIRECTION('',(1.,0.,0.));
#436=DIRECTION('',(0.,0.,-1.));
#437=DIRECTION('',(1.,0.,0.));
#438=DIRECTION('',(0.,0.,-1.));
#439=DIRECTION('',(1.,0.,0.));
#440=DIRECTION('',(0.,0.,-1.));
#441=DIRECTION('',(1.,0.,0.));
#442=DIRECTION('',(0.,0.,-1.));
#443=DIRECTION('',(1.,0.,0.));
#444=DIRECTION('',(0.,0.,-1.));
#445=DIRECTION('',(1.,0.,0.));
#446=DIRECTION('',(0.,0.,-1.));
#447=DIRECTION('',(1.,0.,0.));
#448=DIRECTION('',(0.,0.,-1.));
#449=DIRECTION('',(1.,0.,0.));
#450=DIRECTION('',(0.,0.,-1.));
#451=DIRECTION('',(1.,0.,0.));
#452=DIRECTION('',(0.,0.,-1.));
#453=CARTESIAN_POINT('',(0.,0.,0.));
#454=CARTESIAN_POINT('',(-3.25260651745651E-16,10.,0.));
#455=CARTESIAN_POINT('',(0.,0.,0.));
#456=CARTESIAN_POINT('',(0.,0.,-7.5));
#457=CARTESIAN_POINT('',(-8.67361737988404E-16,0.,0.));
#458=CARTESIAN_POINT('',(-8.67361737988404E-16,0.,-10.));
#459=CARTESIAN_POINT('',(7.,0.,0.));
#460=CARTESIAN_POINT('',(1.,0.,0.));
#461=CARTESIAN_POINT('',(1.,0.,-7.5));
#462=CARTESIAN_POINT('',(1.,7.5,0.));
#463=CARTESIAN_POINT('',(1.,0.,0.));
#464=CARTESIAN_POINT('',(1.,0.,-6.90000000000001));
#465=CARTESIAN_POINT('',(7.,0.,0.));
#466=CARTESIAN_POINT('',(1.3,0.,0.));
#467=CARTESIAN_POINT('',(1.3,0.,-6.9));
#468=CARTESIAN_POINT('',(1.3,6.9,0.));
#469=CARTESIAN_POINT('',(1.3,0.,0.));
#470=CARTESIAN_POINT('',(1.3,0.,-4.25));
#471=CARTESIAN_POINT('',(7.,0.,0.));
#472=CARTESIAN_POINT('',(1.,0.,0.));
#473=CARTESIAN_POINT('',(1.,0.,-4.25));
#474=CARTESIAN_POINT('',(1.,4.25,0.));
#475=CARTESIAN_POINT('',(1.,0.,0.));
#476=CARTESIAN_POINT('',(1.,0.,-2.5));
#477=CARTESIAN_POINT('',(7.,0.,0.));
#478=CARTESIAN_POINT('',(6.,0.,0.));
#479=CARTESIAN_POINT('',(6.,0.,-2.5));
#480=CARTESIAN_POINT('',(6.,2.5,0.));
#481=CARTESIAN_POINT('',(6.,0.,0.));
#482=CARTESIAN_POINT('',(6.,0.,-4.25));
#483=CARTESIAN_POINT('',(7.,0.,0.));
#484=CARTESIAN_POINT('',(5.7,0.,0.));
#485=CARTESIAN_POINT('',(5.7,0.,-4.25));
#486=CARTESIAN_POINT('',(5.7,4.25,0.));
#487=CARTESIAN_POINT('',(5.7,0.,0.));
#488=CARTESIAN_POINT('',(5.7,0.,-6.9));
#489=CARTESIAN_POINT('',(7.,0.,0.));
#490=CARTESIAN_POINT('',(6.,0.,0.));
#491=CARTESIAN_POINT('',(6.,0.,-6.90000000000001));
#492=CARTESIAN_POINT('',(6.,6.90000000000001,0.));
#493=CARTESIAN_POINT('',(6.,0.,0.));
#494=CARTESIAN_POINT('',(6.,0.,-7.5));
#495=CARTESIAN_POINT('',(7.,0.,0.));
#496=CARTESIAN_POINT('',(7.,0.,0.));
#497=CARTESIAN_POINT('',(7.,0.,-7.5));
#498=CARTESIAN_POINT('',(7.,7.5,0.));
#499=CARTESIAN_POINT('',(7.,0.,0.));
#500=CARTESIAN_POINT('',(7.,0.,-10.));
#501=CARTESIAN_POINT('',(6.,0.,0.));
#502=CARTESIAN_POINT('',(6.,0.,0.));
#503=CARTESIAN_POINT('',(6.,0.,-11.));
#504=CARTESIAN_POINT('',(7.,0.,0.));
#505=CARTESIAN_POINT('',(1.,0.,0.));
#506=CARTESIAN_POINT('',(1.,0.,-11.));
#507=CARTESIAN_POINT('',(0.999999999999997,0.,0.));
#508=MECHANICAL_DESIGN_GEOMETRIC_PRESENTATION_REPRESENTATION('',(#193,#194,
#195,#196,#197,#198,#199,#200,#201,#202,#203,#204,#205,#206,#207,#208,#209,
#210),#509);
#509=(
GEOMETRIC_REPRESENTATION_CONTEXT(3)
GLOBAL_UNCERTAINTY_ASSIGNED_CONTEXT((#510))
GLOBAL_UNIT_ASSIGNED_CONTEXT((#513,#512,#511))
REPRESENTATION_CONTEXT('Track GN 753.1-22-B5-ZL-1',
'TOP_LEVEL_ASSEMBLY_PART')
);
#510=UNCERTAINTY_MEASURE_WITH_UNIT(LENGTH_MEASURE(1.E-5),#513,
'DISTANCE_ACCURACY_VALUE','Maximum Tolerance applied to model');
#511=(
NAMED_UNIT(*)
SI_UNIT($,.STERADIAN.)
SOLID_ANGLE_UNIT()
);
#512=(
NAMED_UNIT(*)
PLANE_ANGLE_UNIT()
SI_UNIT($,.RADIAN.)
);
#513=(
LENGTH_UNIT()
NAMED_UNIT(*)
SI_UNIT(.MILLI.,.METRE.)
);
#514=PRODUCT_DEFINITION_SHAPE('','',#515);
#515=PRODUCT_DEFINITION('','',#517,#516);
#516=PRODUCT_DEFINITION_CONTEXT('',#523,'design');
#517=PRODUCT_DEFINITION_FORMATION_WITH_SPECIFIED_SOURCE('','',#519,
 .NOT_KNOWN.);
#518=PRODUCT_RELATED_PRODUCT_CATEGORY('','',(#519));
#519=PRODUCT('Track GN 753.1-22-B5-ZL-1','Track GN 753.1-22-B5-ZL-1',
'Track GN 753.1-22-B5-ZL-1',(#521));
#520=PRODUCT_CATEGORY('','');
#521=PRODUCT_CONTEXT('',#523,'mechanical');
#522=APPLICATION_PROTOCOL_DEFINITION('international standard',
'ap242_managed_model_based_3d_engineering',2011,#523);
#523=APPLICATION_CONTEXT('managed model based 3d engineering');
ENDSEC;
END-ISO-10303-21;
